<?xml version="1.0" encoding="UTF-8"?>
<svg id="Layer_2" xmlns="http://www.w3.org/2000/svg" version="1.1" viewBox="0 0 252 144">
  <!-- Generator: Adobe Illustrator 29.5.1, SVG Export Plug-In . SVG Version: 2.1.0 Build 141)  -->
  <defs>
    <style>
      .st0 {
        fill: #5f475c;
      }

      .st1 {
        fill: #383e60;
      }
    </style>
  </defs>
  <rect class="st1" width="252" height="144"/>
  <g id="Layer_1">
    <path class="st0" d="M0,143.55c1.58-.45,3.11-1.04,4.6-1.72.74-.36,1.49-.68,2.2-1.08.72-.38,1.44-.77,2.12-1.21,2.77-1.7,5.38-3.66,7.77-5.87.59-.56,1.15-1.14,1.73-1.71.59-.56,1.13-1.17,1.66-1.79.53-.61,1.09-1.21,1.6-1.84l1.49-1.94.75-.97.68-1.02,1.36-2.04c.89-1.37,1.65-2.83,2.53-4.23-.67,1.5-1.35,3-2.11,4.47l-1.25,2.14-.63,1.07-.7,1.02-1.43,2.03c-.5.66-1.05,1.28-1.58,1.92-.52.64-1.07,1.27-1.67,1.85-.59.59-1.16,1.19-1.76,1.77-2.45,2.24-5.15,4.23-8.07,5.81-.72.41-1.47.77-2.22,1.11-.74.37-1.52.66-2.29.97-1.56.54-3.15,1.05-4.78,1.27Z"/>
    <path class="st0" d="M2.95,142.72c3.31-.15,6.6-.69,9.71-1.78.79-.24,1.53-.61,2.29-.92.73-.38,1.48-.72,2.17-1.17,1.41-.83,2.72-1.85,3.88-3,2.34-2.28,4.12-5.12,5.26-8.17,1.13-3.05,1.75-6.34,1.73-9.54h0s.58.47.58.47c-3.11.64-6.17,1.94-9,3.51-2.84,1.59-5.5,3.51-7.93,5.7-.6.56-1.17,1.14-1.76,1.71-.6.56-1.15,1.17-1.68,1.79-.53.62-1.09,1.22-1.61,1.86l-1.48,1.96-.74.98-.66,1.04-1.33,2.07c-.84,1.41-1.58,2.88-2.37,4.32.76-1.46,1.46-2.95,2.26-4.38l1.28-2.11.64-1.06.72-1.01,1.44-2.01c.5-.65,1.05-1.27,1.57-1.91.52-.64,1.06-1.27,1.65-1.85.58-.59,1.14-1.19,1.73-1.77,2.4-2.27,5.05-4.29,7.9-5.98,2.87-1.68,5.89-3.07,9.21-3.85l.57-.13.02.61h0c-.07,3.42-.79,6.72-2.03,9.85-1.25,3.11-3.15,5.98-5.61,8.26-1.22,1.15-2.58,2.15-4.04,2.96-.71.44-1.48.76-2.23,1.13-.78.3-1.54.65-2.34.87-3.17,1.02-6.49,1.48-9.79,1.54Z"/>
    <path class="st0" d="M28.48,118.12c-1.75.02-3.48.22-5.18.57-1.7.32-3.37.81-4.97,1.43-3.2,1.26-6.2,3.05-8.68,5.41-2.51,2.33-4.54,5.16-6.1,8.24-1.57,3.07-2.7,6.39-3.56,9.77.14-.86.27-1.73.44-2.59.21-.85.38-1.71.61-2.56.51-1.68,1.07-3.36,1.82-4.96,1.44-3.23,3.52-6.19,6.11-8.63,2.59-2.44,5.74-4.28,9.1-5.4,3.35-1.12,6.92-1.63,10.41-1.28Z"/>
    <path class="st0" d="M28.48,118.12c1.58-.45,3.11-1.04,4.6-1.72.74-.36,1.49-.68,2.2-1.08.72-.38,1.44-.77,2.12-1.21,2.77-1.7,5.38-3.66,7.77-5.87.59-.56,1.15-1.14,1.73-1.71.59-.56,1.13-1.17,1.66-1.79.53-.61,1.09-1.21,1.6-1.84l1.49-1.94.75-.97.68-1.02,1.36-2.04c.89-1.37,1.65-2.83,2.53-4.23-.67,1.5-1.35,3-2.11,4.47l-1.25,2.14-.63,1.07-.7,1.02-1.43,2.03c-.5.66-1.05,1.28-1.58,1.92-.52.64-1.07,1.27-1.67,1.85-.59.59-1.16,1.19-1.76,1.77-2.45,2.24-5.15,4.23-8.07,5.81-.72.41-1.47.77-2.22,1.11-.74.37-1.52.66-2.29.97-1.56.54-3.15,1.05-4.78,1.27Z"/>
    <path class="st0" d="M31.43,117.3c3.31-.15,6.6-.69,9.71-1.78.79-.24,1.53-.61,2.29-.92.73-.38,1.48-.72,2.17-1.17,1.41-.83,2.72-1.85,3.88-3,2.34-2.28,4.12-5.12,5.26-8.17,1.13-3.05,1.75-6.34,1.73-9.54h0s.58.47.58.47c-3.11.64-6.17,1.94-9,3.51-2.84,1.59-5.5,3.51-7.93,5.7-.6.56-1.17,1.14-1.76,1.71-.6.56-1.15,1.17-1.68,1.79-.53.62-1.09,1.22-1.61,1.86l-1.48,1.96-.74.98-.66,1.04-1.33,2.07c-.84,1.41-1.58,2.88-2.37,4.32.76-1.46,1.46-2.95,2.26-4.38l1.28-2.11.64-1.06.72-1.01,1.44-2.01c.5-.65,1.05-1.27,1.57-1.91.52-.64,1.06-1.27,1.65-1.85.58-.59,1.14-1.19,1.73-1.77,2.4-2.27,5.05-4.29,7.9-5.98,2.87-1.68,5.89-3.07,9.21-3.85l.57-.13.02.61h0c-.07,3.42-.79,6.72-2.03,9.85-1.25,3.11-3.15,5.98-5.61,8.26-1.22,1.15-2.58,2.15-4.04,2.96-.71.44-1.48.76-2.23,1.13-.78.3-1.54.65-2.34.87-3.17,1.02-6.49,1.48-9.79,1.54Z"/>
    <path class="st0" d="M56.97,92.7c-1.75.02-3.48.22-5.18.57-1.7.32-3.37.81-4.97,1.43-3.2,1.26-6.2,3.05-8.68,5.41-2.51,2.33-4.54,5.16-6.1,8.24-1.57,3.07-2.7,6.39-3.56,9.77.14-.86.27-1.73.44-2.59.21-.85.38-1.71.61-2.56.51-1.68,1.07-3.36,1.82-4.96,1.44-3.23,3.52-6.19,6.11-8.63,2.59-2.44,5.74-4.28,9.1-5.4,3.35-1.12,6.92-1.63,10.41-1.28Z"/>
    <path class="st0" d="M56.97,92.67c1.58-.45,3.11-1.04,4.6-1.72.74-.36,1.49-.68,2.2-1.08.72-.38,1.44-.77,2.12-1.21,2.77-1.7,5.38-3.66,7.77-5.87.59-.56,1.15-1.14,1.73-1.71.59-.56,1.13-1.17,1.66-1.79.53-.61,1.09-1.21,1.6-1.84l1.49-1.94.75-.97.68-1.02,1.36-2.04c.89-1.37,1.65-2.83,2.53-4.23-.67,1.5-1.35,3-2.11,4.47l-1.25,2.14-.63,1.07-.7,1.02-1.43,2.03c-.5.66-1.05,1.28-1.58,1.92-.52.64-1.07,1.27-1.67,1.85-.59.59-1.16,1.19-1.76,1.77-2.45,2.24-5.15,4.23-8.07,5.81-.72.41-1.47.77-2.22,1.11-.74.37-1.52.66-2.29.97-1.56.54-3.15,1.05-4.78,1.27Z"/>
    <path class="st0" d="M59.92,91.84c3.31-.15,6.6-.69,9.71-1.78.79-.24,1.53-.61,2.29-.92.73-.38,1.48-.72,2.17-1.17,1.41-.83,2.72-1.85,3.88-3,2.34-2.28,4.12-5.12,5.26-8.17,1.13-3.05,1.75-6.34,1.73-9.54h0s.58.47.58.47c-3.11.64-6.17,1.94-9,3.51-2.84,1.59-5.5,3.51-7.93,5.7-.6.56-1.17,1.14-1.76,1.71-.6.56-1.15,1.17-1.68,1.79-.53.62-1.09,1.22-1.61,1.86l-1.48,1.96-.74.98-.66,1.04-1.33,2.07c-.84,1.41-1.58,2.88-2.37,4.32.76-1.46,1.46-2.95,2.26-4.38l1.28-2.11.64-1.06.72-1.01,1.44-2.01c.5-.65,1.05-1.27,1.57-1.91.52-.64,1.06-1.27,1.65-1.85.58-.59,1.14-1.19,1.73-1.77,2.4-2.27,5.05-4.29,7.9-5.98,2.87-1.68,5.89-3.07,9.21-3.85l.57-.13.02.61h0c-.07,3.42-.79,6.72-2.03,9.85-1.25,3.11-3.15,5.98-5.61,8.26-1.22,1.15-2.58,2.15-4.04,2.96-.71.44-1.48.76-2.23,1.13-.78.3-1.54.65-2.34.87-3.17,1.02-6.49,1.48-9.79,1.54Z"/>
    <path class="st0" d="M85.45,67.24c-1.75.02-3.48.22-5.18.57-1.7.32-3.37.81-4.97,1.43-3.2,1.26-6.2,3.05-8.68,5.41-2.51,2.33-4.54,5.16-6.1,8.24-1.57,3.07-2.7,6.39-3.56,9.77.14-.86.27-1.73.44-2.59.21-.85.38-1.71.61-2.56.51-1.68,1.07-3.36,1.82-4.96,1.44-3.23,3.52-6.19,6.11-8.63,2.59-2.44,5.74-4.28,9.1-5.4,3.35-1.12,6.92-1.63,10.41-1.28Z"/>
    <path class="st0" d="M85.46,67.24c1.58-.45,3.11-1.04,4.6-1.72.74-.36,1.49-.68,2.2-1.08.72-.38,1.44-.77,2.12-1.21,2.77-1.7,5.38-3.66,7.77-5.87.59-.56,1.15-1.14,1.73-1.71.59-.56,1.13-1.17,1.66-1.79.53-.61,1.09-1.21,1.6-1.84l1.49-1.94.75-.97.68-1.02,1.36-2.04c.89-1.37,1.65-2.83,2.53-4.23-.67,1.5-1.35,3-2.11,4.47l-1.25,2.14-.63,1.07-.7,1.02-1.43,2.03c-.5.66-1.05,1.28-1.58,1.92-.52.64-1.07,1.27-1.67,1.85-.59.59-1.16,1.19-1.76,1.77-2.45,2.24-5.15,4.23-8.07,5.81-.72.41-1.47.77-2.22,1.11-.74.37-1.52.66-2.29.97-1.56.54-3.15,1.05-4.78,1.27Z"/>
    <path class="st0" d="M88.4,66.41c3.31-.15,6.6-.69,9.71-1.78.79-.24,1.53-.61,2.29-.92.73-.38,1.48-.72,2.17-1.17,1.41-.83,2.72-1.85,3.88-3,2.34-2.28,4.12-5.12,5.26-8.17,1.13-3.05,1.75-6.34,1.73-9.54h0s.58.47.58.47c-3.11.64-6.17,1.94-9,3.51-2.84,1.59-5.5,3.51-7.93,5.7-.6.56-1.17,1.14-1.76,1.71-.6.56-1.15,1.17-1.68,1.79-.53.62-1.09,1.22-1.61,1.86l-1.48,1.96-.74.98-.66,1.04-1.33,2.07c-.84,1.41-1.58,2.88-2.37,4.32.76-1.46,1.46-2.95,2.26-4.38l1.28-2.11.64-1.06.72-1.01,1.44-2.01c.5-.65,1.05-1.27,1.57-1.91.52-.64,1.06-1.27,1.65-1.85.58-.59,1.14-1.19,1.73-1.77,2.4-2.27,5.05-4.29,7.9-5.98,2.87-1.68,5.89-3.07,9.21-3.85l.57-.13.02.61h0c-.07,3.42-.79,6.72-2.03,9.85-1.25,3.11-3.15,5.98-5.61,8.26-1.22,1.15-2.58,2.15-4.04,2.96-.71.44-1.48.76-2.23,1.13-.78.3-1.54.65-2.34.87-3.17,1.02-6.49,1.48-9.79,1.54Z"/>
    <path class="st0" d="M113.94,41.81c-1.75.02-3.48.22-5.18.57-1.7.32-3.37.81-4.97,1.43-3.2,1.26-6.2,3.05-8.68,5.41-2.51,2.33-4.54,5.16-6.1,8.24-1.57,3.07-2.7,6.39-3.56,9.77.14-.86.27-1.73.44-2.59.21-.85.38-1.71.61-2.56.51-1.68,1.07-3.36,1.82-4.96,1.44-3.23,3.52-6.19,6.11-8.63,2.59-2.44,5.74-4.28,9.1-5.4,3.35-1.12,6.92-1.63,10.41-1.28Z"/>
    <path class="st0" d="M113.94,41.81c1.58-.45,3.11-1.04,4.6-1.72.74-.36,1.49-.68,2.2-1.08.72-.38,1.44-.77,2.12-1.21,2.77-1.7,5.38-3.66,7.77-5.87.59-.56,1.15-1.14,1.73-1.71.59-.56,1.13-1.17,1.66-1.79.53-.61,1.09-1.21,1.6-1.84l1.49-1.94.75-.97.68-1.02,1.36-2.04c.89-1.37,1.65-2.83,2.53-4.23-.67,1.5-1.35,3-2.11,4.47l-1.25,2.14-.63,1.07-.7,1.02-1.43,2.03c-.5.66-1.05,1.28-1.58,1.92-.52.64-1.07,1.27-1.67,1.85-.59.59-1.16,1.19-1.76,1.77-2.45,2.24-5.15,4.23-8.07,5.81-.72.41-1.47.77-2.22,1.11-.74.37-1.52.66-2.29.97-1.56.54-3.15,1.05-4.78,1.27Z"/>
    <path class="st0" d="M116.89,40.98c3.31-.15,6.6-.69,9.71-1.78.79-.24,1.53-.61,2.29-.92.73-.38,1.48-.72,2.17-1.17,1.41-.83,2.72-1.85,3.88-3,2.34-2.28,4.12-5.12,5.26-8.17,1.13-3.05,1.75-6.34,1.73-9.54h0s.58.47.58.47c-3.11.64-6.17,1.94-9,3.51-2.84,1.59-5.5,3.51-7.93,5.7-.6.56-1.17,1.14-1.76,1.71-.6.56-1.15,1.17-1.68,1.79-.53.62-1.09,1.22-1.61,1.86l-1.48,1.96-.74.98-.66,1.04-1.33,2.07c-.84,1.41-1.58,2.88-2.37,4.32.76-1.46,1.46-2.95,2.26-4.38l1.28-2.11.64-1.06.72-1.01,1.44-2.01c.5-.65,1.05-1.27,1.57-1.91.52-.64,1.06-1.27,1.65-1.85.58-.59,1.14-1.19,1.73-1.77,2.4-2.27,5.05-4.29,7.9-5.98,2.87-1.68,5.89-3.07,9.21-3.85l.57-.13.02.61h0c-.07,3.42-.79,6.72-2.03,9.85-1.25,3.11-3.15,5.98-5.61,8.26-1.22,1.15-2.58,2.15-4.04,2.96-.71.44-1.48.76-2.23,1.13-.78.3-1.54.65-2.34.87-3.17,1.02-6.49,1.48-9.79,1.54Z"/>
    <path class="st0" d="M142.43,16.38c-1.75.02-3.48.22-5.18.57-1.7.32-3.37.81-4.97,1.43-3.2,1.26-6.2,3.05-8.68,5.41-2.51,2.33-4.54,5.16-6.1,8.24-1.57,3.07-2.7,6.39-3.56,9.77.14-.86.27-1.73.44-2.59.21-.85.38-1.71.61-2.56.51-1.68,1.07-3.36,1.82-4.96,1.44-3.23,3.52-6.19,6.11-8.63,2.59-2.44,5.74-4.28,9.1-5.4,3.35-1.12,6.92-1.63,10.41-1.28Z"/>
    <path class="st0" d="M114.62,41.81c.54,1.55,1.23,3.04,2,4.48.4.71.77,1.44,1.21,2.13.42.7.86,1.39,1.34,2.04,1.87,2.66,3.99,5.15,6.34,7.39.59.55,1.21,1.08,1.82,1.63.59.56,1.24,1.05,1.89,1.54.65.49,1.28,1.01,1.94,1.49l2.03,1.37,1.01.69,1.06.61,2.12,1.23c1.43.8,2.92,1.47,4.37,2.26-1.54-.58-3.08-1.17-4.59-1.83l-2.21-1.12-1.11-.56-1.06-.64-2.12-1.3c-.69-.46-1.34-.97-2.02-1.46-.67-.48-1.33-.99-1.95-1.55-.62-.55-1.26-1.08-1.87-1.64-2.39-2.31-4.54-4.88-6.29-7.7-.45-.7-.86-1.42-1.25-2.15-.41-.72-.75-1.48-1.1-2.22-.63-1.53-1.24-3.08-1.56-4.69Z"/>
    <path class="st0" d="M115.63,44.7c.35,3.29,1.09,6.55,2.37,9.59.29.77.7,1.49,1.06,2.23.43.7.81,1.43,1.3,2.09.92,1.36,2.01,2.6,3.23,3.69,2.42,2.2,5.36,3.79,8.48,4.74,3.11.94,6.44,1.36,9.63,1.14h0s-.44.61-.44.61c-.83-3.06-2.32-6.04-4.06-8.77-1.76-2.74-3.85-5.27-6.17-7.57-.59-.56-1.21-1.1-1.81-1.65-.59-.57-1.24-1.07-1.89-1.56-.65-.5-1.28-1.02-1.95-1.49l-2.05-1.36-1.03-.68-1.07-.6-2.15-1.2c-1.46-.75-2.97-1.4-4.46-2.1,1.5.67,3.03,1.28,4.51,1.99l2.19,1.15,1.09.57,1.05.65,2.1,1.31c.68.46,1.33.97,2,1.45.67.48,1.33.98,1.94,1.53.62.54,1.26,1.07,1.87,1.62,2.41,2.26,4.59,4.77,6.46,7.52,1.85,2.76,3.43,5.69,4.41,8.95l.17.56-.61.06h0c-3.42.15-6.76-.38-9.95-1.42-3.19-1.06-6.16-2.78-8.59-5.09-1.22-1.15-2.3-2.44-3.2-3.85-.48-.68-.85-1.43-1.27-2.15-.34-.76-.74-1.49-1.01-2.28-1.22-3.1-1.88-6.38-2.14-9.68Z"/>
    <path class="st0" d="M141.75,68.68c-.13-1.74-.43-3.46-.89-5.13-.43-1.68-1.01-3.31-1.74-4.87-1.46-3.11-3.42-6-5.94-8.33-2.48-2.36-5.43-4.21-8.6-5.58-3.17-1.38-6.54-2.3-9.97-2.95.87.08,1.74.17,2.61.28.86.15,1.73.27,2.59.45,1.71.4,3.42.86,5.06,1.51,3.31,1.23,6.4,3.13,8.99,5.57,2.6,2.44,4.62,5.47,5.95,8.75,1.32,3.28,2.06,6.81,1.92,10.31Z"/>
    <path class="st0" d="M87.49,14.87c.54,1.55,1.23,3.04,2,4.48.4.71.77,1.44,1.21,2.13.42.7.86,1.39,1.34,2.04,1.87,2.66,3.99,5.15,6.34,7.39.59.55,1.21,1.08,1.82,1.63.59.56,1.24,1.05,1.89,1.54.65.49,1.28,1.01,1.94,1.49l2.03,1.37,1.01.69,1.06.61,2.12,1.23c1.43.8,2.92,1.47,4.37,2.26-1.54-.58-3.08-1.17-4.59-1.83l-2.21-1.12-1.11-.56-1.06-.64-2.12-1.3c-.69-.46-1.34-.97-2.02-1.46-.67-.48-1.33-.99-1.95-1.55-.62-.55-1.26-1.08-1.87-1.64-2.39-2.31-4.54-4.88-6.29-7.7-.45-.7-.86-1.42-1.25-2.15-.41-.72-.75-1.48-1.1-2.22-.63-1.53-1.24-3.08-1.56-4.69Z"/>
    <path class="st0" d="M88.5,17.76c.35,3.29,1.09,6.55,2.37,9.59.29.77.7,1.49,1.06,2.23.43.7.81,1.43,1.3,2.09.92,1.36,2.01,2.6,3.23,3.69,2.42,2.2,5.36,3.79,8.48,4.74,3.11.94,6.44,1.36,9.63,1.14h0s-.44.61-.44.61c-.83-3.06-2.32-6.04-4.06-8.77-1.76-2.74-3.85-5.27-6.17-7.57-.59-.56-1.21-1.1-1.81-1.65-.59-.57-1.24-1.07-1.89-1.56-.65-.5-1.28-1.02-1.95-1.49l-2.05-1.36-1.03-.68-1.07-.6-2.15-1.2c-1.46-.75-2.97-1.4-4.46-2.1,1.5.67,3.03,1.28,4.51,1.99l2.19,1.15,1.09.57,1.05.65,2.1,1.31c.68.46,1.33.97,2,1.45.67.48,1.33.98,1.94,1.53.62.54,1.26,1.07,1.87,1.62,2.41,2.26,4.59,4.77,6.46,7.52,1.85,2.76,3.43,5.69,4.41,8.95l.17.56-.61.06h0c-3.42.15-6.76-.38-9.95-1.42-3.19-1.06-6.16-2.78-8.59-5.09-1.22-1.15-2.3-2.44-3.2-3.85-.48-.68-.85-1.43-1.27-2.15-.34-.76-.74-1.49-1.01-2.28-1.22-3.1-1.88-6.38-2.14-9.68Z"/>
    <path class="st0" d="M114.62,41.73c-.13-1.74-.43-3.46-.89-5.13-.43-1.68-1.01-3.31-1.74-4.87-1.46-3.11-3.42-6-5.94-8.33-2.48-2.36-5.43-4.21-8.6-5.58-3.17-1.38-6.54-2.3-9.97-2.95.87.08,1.74.17,2.61.28.86.15,1.73.27,2.59.45,1.71.4,3.42.86,5.06,1.51,3.31,1.23,6.4,3.13,8.99,5.57,2.6,2.44,4.62,5.47,5.95,8.75,1.32,3.28,2.06,6.81,1.92,10.31Z"/>
    <path class="st0" d="M86.13,67.68c.54,1.55,1.23,3.04,2,4.48.4.71.77,1.44,1.21,2.13.42.7.86,1.39,1.34,2.04,1.87,2.66,3.99,5.15,6.34,7.39.59.55,1.21,1.08,1.82,1.63.59.56,1.24,1.05,1.89,1.54.65.49,1.28,1.01,1.94,1.49l2.03,1.37,1.01.69,1.06.61,2.12,1.23c1.43.8,2.92,1.47,4.37,2.26-1.54-.58-3.08-1.17-4.59-1.83l-2.21-1.12-1.11-.56-1.06-.64-2.12-1.3c-.69-.46-1.34-.97-2.02-1.46-.67-.48-1.33-.99-1.95-1.55-.62-.55-1.26-1.08-1.87-1.64-2.39-2.31-4.54-4.88-6.29-7.7-.45-.7-.86-1.42-1.25-2.15-.41-.72-.75-1.48-1.1-2.22-.63-1.53-1.24-3.08-1.56-4.69Z"/>
    <path class="st0" d="M87.14,70.57c.35,3.29,1.09,6.55,2.37,9.59.29.77.7,1.49,1.06,2.23.43.7.81,1.43,1.3,2.09.92,1.36,2.01,2.6,3.23,3.69,2.42,2.2,5.36,3.79,8.48,4.74,3.11.94,6.44,1.36,9.63,1.14h0s-.44.61-.44.61c-.83-3.06-2.32-6.04-4.06-8.77-1.76-2.74-3.85-5.27-6.17-7.57-.59-.56-1.21-1.1-1.81-1.65-.59-.57-1.24-1.07-1.89-1.56-.65-.5-1.28-1.02-1.95-1.49l-2.05-1.36-1.03-.68-1.07-.6-2.15-1.2c-1.46-.75-2.97-1.4-4.46-2.1,1.5.67,3.03,1.28,4.51,1.99l2.19,1.15,1.09.57,1.05.65,2.1,1.31c.68.46,1.33.97,2,1.45.67.48,1.33.98,1.94,1.53.62.54,1.26,1.07,1.87,1.62,2.41,2.26,4.59,4.77,6.46,7.52,1.85,2.76,3.43,5.69,4.41,8.95l.17.56-.61.06h0c-3.42.15-6.76-.38-9.95-1.42-3.19-1.06-6.16-2.78-8.59-5.09-1.22-1.15-2.3-2.44-3.2-3.85-.48-.68-.85-1.43-1.27-2.15-.34-.76-.74-1.49-1.01-2.28-1.22-3.1-1.88-6.38-2.14-9.68Z"/>
    <path class="st0" d="M113.27,94.54c-.13-1.74-.43-3.46-.89-5.13-.43-1.68-1.01-3.31-1.74-4.87-1.46-3.11-3.42-6-5.94-8.33-2.48-2.36-5.43-4.21-8.6-5.58-3.17-1.38-6.54-2.3-9.97-2.95.87.08,1.74.17,2.61.28.86.15,1.73.27,2.59.45,1.71.4,3.42.86,5.06,1.51,3.31,1.23,6.4,3.13,8.99,5.57,2.6,2.44,4.62,5.47,5.95,8.75,1.32,3.28,2.06,6.81,1.92,10.31Z"/>
    <path class="st0" d="M57.65,40.26c.54,1.55,1.23,3.04,2,4.48.4.71.77,1.44,1.21,2.13.42.7.86,1.39,1.34,2.04,1.87,2.66,3.99,5.15,6.34,7.39.59.55,1.21,1.08,1.82,1.63.59.56,1.24,1.05,1.89,1.54.65.49,1.28,1.01,1.94,1.49l2.03,1.37,1.01.69,1.06.61,2.12,1.23c1.43.8,2.92,1.47,4.37,2.26-1.54-.58-3.08-1.17-4.59-1.83l-2.21-1.12-1.11-.56-1.06-.64-2.12-1.3c-.69-.46-1.34-.97-2.02-1.46-.67-.48-1.33-.99-1.95-1.55-.62-.55-1.26-1.08-1.87-1.64-2.39-2.31-4.54-4.88-6.29-7.7-.45-.7-.86-1.42-1.25-2.15-.41-.72-.75-1.48-1.1-2.22-.63-1.53-1.24-3.08-1.56-4.69Z"/>
    <path class="st0" d="M58.66,43.15c.35,3.29,1.09,6.55,2.37,9.59.29.77.7,1.49,1.06,2.23.43.7.81,1.43,1.3,2.09.92,1.36,2.01,2.6,3.23,3.69,2.42,2.2,5.36,3.79,8.48,4.74,3.11.94,6.44,1.36,9.63,1.14h0s-.44.61-.44.61c-.83-3.06-2.32-6.04-4.06-8.77-1.76-2.74-3.85-5.27-6.17-7.57-.59-.56-1.21-1.1-1.81-1.65-.59-.57-1.24-1.07-1.89-1.56-.65-.5-1.28-1.02-1.95-1.49l-2.05-1.36-1.03-.68-1.07-.6-2.15-1.2c-1.46-.75-2.97-1.4-4.46-2.1,1.5.67,3.03,1.28,4.51,1.99l2.19,1.15,1.09.57,1.05.65,2.1,1.31c.68.46,1.33.97,2,1.45.67.48,1.33.98,1.94,1.53.62.54,1.26,1.07,1.87,1.62,2.41,2.26,4.59,4.77,6.46,7.52,1.85,2.76,3.43,5.69,4.41,8.95l.17.56-.61.06h0c-3.42.15-6.76-.38-9.95-1.42-3.19-1.06-6.16-2.78-8.59-5.09-1.22-1.15-2.3-2.44-3.2-3.85-.48-.68-.85-1.43-1.27-2.15-.34-.76-.74-1.49-1.01-2.28-1.22-3.1-1.88-6.38-2.14-9.68Z"/>
    <path class="st0" d="M84.78,67.13c-.13-1.74-.43-3.46-.89-5.13-.43-1.68-1.01-3.31-1.74-4.87-1.46-3.11-3.42-6-5.94-8.33-2.48-2.36-5.43-4.21-8.6-5.58-3.17-1.38-6.54-2.3-9.97-2.95.87.08,1.74.17,2.61.28.86.15,1.73.27,2.59.45,1.71.4,3.42.86,5.06,1.51,3.31,1.23,6.4,3.13,8.99,5.57,2.6,2.44,4.62,5.47,5.95,8.75,1.32,3.28,2.06,6.81,1.92,10.31Z"/>
    <path class="st0" d="M30.51,13.35c.54,1.55,1.23,3.04,2,4.48.4.71.77,1.44,1.21,2.13.42.7.86,1.39,1.34,2.04,1.87,2.66,3.99,5.15,6.34,7.39.59.55,1.21,1.08,1.82,1.63.59.56,1.24,1.05,1.89,1.54.65.49,1.28,1.01,1.94,1.49l2.03,1.37,1.01.69,1.06.61,2.12,1.23c1.43.8,2.92,1.47,4.37,2.26-1.54-.58-3.08-1.17-4.59-1.83l-2.21-1.12-1.11-.56-1.06-.64-2.12-1.3c-.69-.46-1.34-.97-2.02-1.46-.67-.48-1.33-.99-1.95-1.55-.62-.55-1.26-1.08-1.87-1.64-2.39-2.31-4.54-4.88-6.29-7.7-.45-.7-.86-1.42-1.25-2.15-.41-.72-.75-1.48-1.1-2.22-.63-1.53-1.24-3.08-1.56-4.69Z"/>
    <path class="st0" d="M31.52,16.24c.35,3.29,1.09,6.55,2.37,9.59.29.77.7,1.49,1.06,2.23.43.7.81,1.43,1.3,2.09.92,1.36,2.01,2.6,3.23,3.69,2.42,2.2,5.36,3.79,8.48,4.74,3.11.94,6.44,1.36,9.63,1.14h0s-.44.61-.44.61c-.83-3.06-2.32-6.04-4.06-8.77-1.76-2.74-3.85-5.27-6.17-7.57-.59-.56-1.21-1.1-1.81-1.65-.59-.57-1.24-1.07-1.89-1.56-.65-.5-1.28-1.02-1.95-1.49l-2.05-1.36-1.03-.68-1.07-.6-2.15-1.2c-1.46-.75-2.97-1.4-4.46-2.1,1.5.67,3.03,1.28,4.51,1.99l2.19,1.15,1.09.57,1.05.65,2.1,1.31c.68.46,1.33.97,2,1.45.67.48,1.33.98,1.94,1.53.62.54,1.26,1.07,1.87,1.62,2.41,2.26,4.59,4.77,6.46,7.52,1.85,2.76,3.43,5.69,4.41,8.95l.17.56-.61.06h0c-3.42.15-6.76-.38-9.95-1.42-3.19-1.06-6.16-2.78-8.59-5.09-1.22-1.15-2.3-2.44-3.2-3.85-.48-.68-.85-1.43-1.27-2.15-.34-.76-.74-1.49-1.01-2.28-1.22-3.1-1.88-6.38-2.14-9.68Z"/>
    <path class="st0" d="M57.65,40.22c-.13-1.74-.43-3.46-.89-5.13-.43-1.68-1.01-3.31-1.74-4.87-1.46-3.11-3.42-6-5.94-8.33-2.48-2.36-5.43-4.21-8.6-5.58-3.17-1.38-6.54-2.3-9.97-2.95.87.08,1.74.17,2.61.28.86.15,1.73.27,2.59.45,1.71.4,3.42.86,5.06,1.51,3.31,1.23,6.4,3.13,8.99,5.57,2.6,2.44,4.62,5.47,5.95,8.75,1.32,3.28,2.06,6.81,1.92,10.31Z"/>
    <path class="st0" d="M142.43,16.33C133.65,13.55,125.55,7.9,120.67,0c.78.85,1.51,1.73,2.33,2.53,5.5,5.85,12.28,10.21,19.43,13.8h0Z"/>
    <path class="st0" d="M131.97,0c5.04,4.49,9.23,10.18,11.05,16.75-1.55.12-3.1.13-4.62-.03C128.65,15.97,120.31,9.55,117.83,0c1.9,4.88,5.03,9.43,9.61,12.13,4.4,2.76,9.8,3.93,14.95,3.75,0,0-.4.56-.4.56-1.81-6.21-5.61-11.74-10.02-16.44h0Z"/>
    <path class="st0" d="M136.42,0c4.26,4.16,6.59,10.4,6.01,16.33-.84-5.83-2.89-11.34-6.01-16.33h0Z"/>
    <path class="st0" d="M88.47,16.31C79.7,13.53,71.6,7.89,66.73,0c.78.85,1.51,1.73,2.33,2.53,5.49,5.84,12.27,10.2,19.41,13.78h0Z"/>
    <path class="st0" d="M78.03,0c5.03,4.48,9.21,10.16,11.03,16.73-2.91.24-5.79,0-8.61-.7C72.37,14.19,65.98,8,63.87,0c1.91,4.88,5.04,9.41,9.62,12.11,4.4,2.75,9.79,3.93,14.94,3.74,0,0-.4.56-.4.56-1.81-6.2-5.6-11.73-10-16.42h0Z"/>
    <path class="st0" d="M82.47,0c4.25,4.16,6.58,10.39,6,16.31-.84-5.82-2.89-11.32-6-16.31h0Z"/>
    <path class="st0" d="M113.27,94.59c.54,1.55,1.23,3.04,2,4.48.4.71.77,1.44,1.21,2.13.42.7.86,1.39,1.34,2.04,1.87,2.66,3.99,5.15,6.34,7.39.59.55,1.21,1.08,1.82,1.63.59.56,1.24,1.05,1.89,1.54.65.49,1.28,1.01,1.94,1.49l2.03,1.37,1.01.69,1.06.61,2.12,1.23c1.43.8,2.92,1.47,4.37,2.26-1.54-.58-3.08-1.17-4.59-1.83l-2.21-1.12-1.11-.56-1.06-.64-2.12-1.3c-.69-.46-1.34-.97-2.02-1.46-.67-.48-1.33-.99-1.95-1.55-.62-.55-1.26-1.08-1.87-1.64-2.39-2.31-4.54-4.88-6.29-7.7-.45-.7-.86-1.42-1.25-2.15-.41-.72-.75-1.48-1.1-2.22-.63-1.53-1.24-3.08-1.56-4.69Z"/>
    <path class="st0" d="M114.27,97.48c.35,3.29,1.09,6.55,2.37,9.59.29.77.7,1.49,1.06,2.23.43.7.81,1.43,1.3,2.09.92,1.36,2.01,2.6,3.23,3.69,2.42,2.2,5.36,3.79,8.48,4.74,3.11.94,6.44,1.36,9.63,1.14h0s-.44.61-.44.61c-.83-3.06-2.32-6.04-4.06-8.77-1.76-2.74-3.85-5.27-6.17-7.57-.59-.56-1.21-1.1-1.81-1.65-.59-.57-1.24-1.07-1.89-1.56-.65-.5-1.28-1.02-1.95-1.49l-2.05-1.36-1.03-.68-1.07-.6-2.15-1.2c-1.46-.75-2.97-1.4-4.46-2.1,1.5.67,3.03,1.28,4.51,1.99l2.19,1.15,1.09.57,1.05.65,2.1,1.31c.68.46,1.33.97,2,1.45.67.48,1.33.98,1.94,1.53.62.54,1.26,1.07,1.87,1.62,2.41,2.26,4.59,4.77,6.46,7.52,1.85,2.76,3.43,5.69,4.41,8.95l.17.56-.61.06h0c-3.42.15-6.76-.38-9.95-1.42-3.19-1.06-6.16-2.78-8.59-5.09-1.22-1.15-2.3-2.44-3.2-3.85-.48-.68-.85-1.43-1.27-2.15-.34-.76-.74-1.49-1.01-2.28-1.22-3.1-1.88-6.38-2.14-9.68Z"/>
    <path class="st0" d="M140.4,121.46c-.13-1.74-.43-3.46-.89-5.13-.43-1.68-1.01-3.31-1.74-4.87-1.46-3.11-3.42-6-5.94-8.33-2.48-2.36-5.43-4.21-8.6-5.58-3.17-1.38-6.54-2.3-9.97-2.95.87.08,1.74.17,2.61.28.86.15,1.73.27,2.59.45,1.71.4,3.42.86,5.06,1.51,3.31,1.23,6.4,3.13,8.99,5.57,2.6,2.44,4.62,5.47,5.95,8.75,1.32,3.28,2.06,6.81,1.92,10.31Z"/>
    <path class="st0" d="M140.4,68.63c.54,1.55,1.23,3.04,2,4.48.4.71.77,1.44,1.21,2.13.42.7.86,1.39,1.34,2.04,1.87,2.66,3.99,5.15,6.34,7.39.59.55,1.21,1.08,1.82,1.63.59.56,1.24,1.05,1.89,1.54.65.49,1.28,1.01,1.94,1.49l2.03,1.37,1.01.69,1.06.61,2.12,1.23c1.43.8,2.92,1.47,4.37,2.26-1.54-.58-3.08-1.17-4.59-1.83l-2.21-1.12-1.11-.56-1.06-.64-2.12-1.3c-.69-.46-1.34-.97-2.02-1.46-.67-.48-1.33-.99-1.95-1.55-.62-.55-1.26-1.08-1.87-1.64-2.39-2.31-4.54-4.88-6.29-7.7-.45-.7-.86-1.42-1.25-2.15-.41-.72-.75-1.48-1.1-2.22-.63-1.53-1.24-3.08-1.56-4.69Z"/>
    <path class="st0" d="M141.41,71.52c.35,3.29,1.09,6.55,2.37,9.59.29.77.7,1.49,1.06,2.23.43.7.81,1.43,1.3,2.09.92,1.36,2.01,2.6,3.23,3.69,2.42,2.2,5.36,3.79,8.48,4.74,3.11.94,6.44,1.36,9.63,1.14h0s-.44.61-.44.61c-.83-3.06-2.32-6.04-4.06-8.77-1.76-2.74-3.85-5.27-6.17-7.57-.59-.56-1.21-1.1-1.81-1.65-.59-.57-1.24-1.07-1.89-1.56-.65-.5-1.28-1.02-1.95-1.49l-2.05-1.36-1.03-.68-1.07-.6-2.15-1.2c-1.46-.75-2.97-1.4-4.46-2.1,1.5.67,3.03,1.28,4.51,1.99l2.19,1.15,1.09.57,1.05.65,2.1,1.31c.68.46,1.33.97,2,1.45.67.48,1.33.98,1.94,1.53.62.54,1.26,1.07,1.87,1.62,2.41,2.26,4.59,4.77,6.46,7.52,1.85,2.76,3.43,5.69,4.41,8.95l.17.56-.61.06h0c-3.42.15-6.76-.38-9.95-1.42-3.19-1.06-6.16-2.78-8.59-5.09-1.22-1.15-2.3-2.44-3.2-3.85-.48-.68-.85-1.43-1.27-2.15-.34-.76-.74-1.49-1.01-2.28-1.22-3.1-1.88-6.38-2.14-9.68Z"/>
    <path class="st0" d="M167.53,95.5c-.13-1.74-.43-3.46-.89-5.13-.43-1.68-1.01-3.31-1.74-4.87-1.46-3.11-3.42-6-5.94-8.33-2.48-2.36-5.43-4.21-8.6-5.58-3.17-1.38-6.54-2.3-9.97-2.95.87.08,1.74.17,2.61.28.86.15,1.73.27,2.59.45,1.71.4,3.42.86,5.06,1.51,3.31,1.23,6.4,3.13,8.99,5.57,2.6,2.44,4.62,5.47,5.95,8.75,1.32,3.28,2.06,6.81,1.92,10.31Z"/>
    <path class="st0" d="M158.94,144c-8.38-4.38-15.43-11.95-18.19-21.04-.13-.49-.23-1-.35-1.5.19.47.39.98.55,1.42,3.78,8.62,10.42,15.64,17.99,21.12h0Z"/>
    <path class="st0" d="M140.4,121.46c9.68,3.22,18.47,9.69,23.59,18.6.69,1.29,1.37,2.58,1.89,3.94-5.65-10.19-15.09-17.61-25.48-22.54h0Z"/>
    <path class="st0" d="M151.52,144c-6.86-3.77-10.16-11.93-10.11-19.49,0,0,0-.16,0-.16l.04.16c1.36,7.37,4.12,14.59,10.07,19.49h0Z"/>
    <path class="st0" d="M140.4,121.46c13.11.74,24.92,8.92,26.67,22.54-.82-3.02-1.99-5.93-3.63-8.54-4.97-8.24-13.91-12.25-23.04-14h0Z"/>
    <path class="st0" d="M166.42,94.59c.54,1.55,1.23,3.04,2,4.48.4.71.77,1.44,1.21,2.13.42.7.86,1.39,1.34,2.04,1.87,2.66,3.99,5.15,6.34,7.39.59.55,1.21,1.08,1.82,1.63.59.56,1.24,1.05,1.89,1.54.65.49,1.28,1.01,1.94,1.49l2.03,1.37,1.01.69,1.06.61,2.12,1.23c1.43.8,2.92,1.47,4.37,2.26-1.54-.58-3.08-1.17-4.59-1.83l-2.21-1.12-1.11-.56-1.06-.64-2.12-1.3c-.69-.46-1.34-.97-2.02-1.46-.67-.48-1.33-.99-1.95-1.55-.62-.55-1.26-1.08-1.87-1.64-2.39-2.31-4.54-4.88-6.29-7.7-.45-.7-.86-1.42-1.25-2.15-.41-.72-.75-1.48-1.1-2.22-.63-1.53-1.24-3.08-1.56-4.69Z"/>
    <path class="st0" d="M167.43,97.48c.35,3.29,1.09,6.55,2.37,9.59.29.77.7,1.49,1.06,2.23.43.7.81,1.43,1.3,2.09.92,1.36,2.01,2.6,3.23,3.69,2.42,2.2,5.36,3.79,8.48,4.74,3.11.94,6.44,1.36,9.63,1.14h0s-.44.61-.44.61c-.83-3.06-2.32-6.04-4.06-8.77-1.76-2.74-3.85-5.27-6.17-7.57-.59-.56-1.21-1.1-1.81-1.65-.59-.57-1.24-1.07-1.89-1.56-.65-.5-1.28-1.02-1.95-1.49l-2.05-1.36-1.03-.68-1.07-.6-2.15-1.2c-1.46-.75-2.97-1.4-4.46-2.1,1.5.67,3.03,1.28,4.51,1.99l2.19,1.15,1.09.57,1.05.65,2.1,1.31c.68.46,1.33.97,2,1.45.67.48,1.33.98,1.94,1.53.62.54,1.26,1.07,1.87,1.62,2.41,2.26,4.59,4.77,6.46,7.52,1.85,2.76,3.43,5.69,4.41,8.95l.17.56-.61.06h0c-3.42.15-6.76-.38-9.95-1.42-3.19-1.06-6.16-2.78-8.59-5.09-1.22-1.15-2.3-2.44-3.2-3.85-.48-.68-.85-1.43-1.27-2.15-.34-.76-.74-1.49-1.01-2.28-1.22-3.1-1.88-6.38-2.14-9.68Z"/>
    <path class="st0" d="M193.55,121.46c-.13-1.74-.43-3.46-.89-5.13-.43-1.68-1.01-3.31-1.74-4.87-1.46-3.11-3.42-6-5.94-8.33-2.48-2.36-5.43-4.21-8.6-5.58-3.17-1.38-6.54-2.3-9.97-2.95.87.08,1.74.17,2.61.28.86.15,1.73.27,2.59.45,1.71.4,3.42.86,5.06,1.51,3.31,1.23,6.4,3.13,8.99,5.57,2.6,2.44,4.62,5.47,5.95,8.75,1.32,3.28,2.06,6.81,1.92,10.31Z"/>
    <path class="st0" d="M114.06,95.37c1.58-.46,3.1-1.07,4.58-1.76.73-.36,1.48-.69,2.19-1.1.72-.38,1.43-.78,2.11-1.23,2.76-1.73,5.35-3.71,7.72-5.94.59-.56,1.14-1.15,1.72-1.73.59-.56,1.12-1.18,1.64-1.8.53-.62,1.08-1.22,1.59-1.86l1.47-1.95.74-.97.67-1.03,1.34-2.06c.88-1.38,1.63-2.84,2.49-4.25-.66,1.5-1.33,3.02-2.07,4.49l-1.23,2.15-.62,1.08-.7,1.03-1.41,2.05c-.5.66-1.04,1.29-1.56,1.94-.52.65-1.06,1.28-1.65,1.86-.58.59-1.15,1.2-1.74,1.78-2.43,2.26-5.11,4.27-8.02,5.88-.72.42-1.46.78-2.21,1.13-.74.37-1.52.67-2.28.99-1.56.55-3.14,1.07-4.77,1.31Z"/>
    <path class="st0" d="M117,94.52c3.3-.17,6.6-.75,9.7-1.87.79-.25,1.52-.62,2.28-.94.72-.39,1.47-.73,2.16-1.19,1.41-.85,2.7-1.87,3.85-3.03,2.32-2.31,4.07-5.15,5.18-8.22,1.1-3.06,1.7-6.36,1.65-9.56h0s.59.47.59.47c-3.1.67-6.15,2-8.97,3.59-2.83,1.61-5.47,3.56-7.88,5.77-.59.56-1.16,1.15-1.74,1.73-.6.56-1.13,1.18-1.66,1.8-.53.62-1.08,1.23-1.59,1.87l-1.46,1.98-.73.99-.66,1.04-1.31,2.08c-.83,1.42-1.55,2.89-2.33,4.34.74-1.46,1.43-2.96,2.22-4.4l1.26-2.12.63-1.06.71-1.01,1.42-2.02c.5-.66,1.04-1.28,1.56-1.92.52-.64,1.04-1.28,1.63-1.86.57-.59,1.13-1.2,1.72-1.79,2.38-2.29,5.01-4.34,7.85-6.05,2.85-1.7,5.86-3.13,9.17-3.93l.56-.14.03.61h0c-.03,3.42-.73,6.73-1.94,9.87-1.22,3.13-3.1,6.01-5.54,8.31-1.21,1.16-2.56,2.17-4.01,2.99-.71.45-1.48.78-2.22,1.15-.78.3-1.53.66-2.33.89-3.16,1.05-6.47,1.54-9.78,1.63Z"/>
    <path class="st0" d="M142.32,69.69c-1.75.04-3.48.25-5.17.62-1.7.34-3.36.84-4.96,1.48-3.19,1.29-6.17,3.1-8.63,5.49-2.49,2.35-4.49,5.2-6.03,8.29-1.55,3.09-2.64,6.41-3.47,9.8.13-.86.26-1.73.41-2.59.2-.85.37-1.72.59-2.57.49-1.69,1.04-3.37,1.77-4.97,1.41-3.24,3.46-6.23,6.04-8.69,2.57-2.47,5.7-4.33,9.05-5.48,3.34-1.15,6.91-1.7,10.4-1.38Z"/>
    <path class="st0" d="M57.65,41.27c1.6-.38,3.15-.92,4.66-1.54.75-.33,1.51-.62,2.24-.99.74-.35,1.47-.71,2.17-1.13,2.84-1.59,5.52-3.45,7.99-5.56.61-.53,1.2-1.1,1.8-1.65.61-.53,1.17-1.13,1.73-1.72.56-.59,1.14-1.17,1.67-1.78l1.57-1.88.79-.94.72-.99,1.44-1.99c.94-1.34,1.76-2.76,2.69-4.12-.73,1.47-1.47,2.95-2.28,4.39l-1.33,2.09-.67,1.05-.74.99-1.51,1.98c-.53.64-1.1,1.24-1.65,1.86-.55.62-1.12,1.23-1.74,1.78-.61.56-1.2,1.15-1.82,1.7-2.54,2.14-5.31,4.02-8.29,5.48-.74.38-1.5.71-2.27,1.02-.76.34-1.55.6-2.32.88-1.58.48-3.19.92-4.83,1.08Z"/>
    <path class="st0" d="M60.62,40.55c3.31-.02,6.62-.43,9.78-1.4.8-.21,1.55-.55,2.32-.83.74-.35,1.51-.66,2.21-1.08,1.44-.78,2.79-1.74,3.99-2.84,2.43-2.19,4.31-4.95,5.57-7.96,1.25-3,2-6.27,2.1-9.47h0s.57.5.57.5c-3.13.52-6.24,1.7-9.14,3.16-2.9,1.47-5.63,3.3-8.15,5.38-.62.53-1.21,1.09-1.82,1.64-.62.53-1.19,1.12-1.75,1.72-.56.6-1.14,1.18-1.68,1.79l-1.56,1.9-.78.95-.7,1.01-1.41,2.02c-.89,1.38-1.69,2.82-2.54,4.22.81-1.43,1.57-2.89,2.43-4.29l1.36-2.06.68-1.03.76-.98,1.52-1.95c.53-.63,1.1-1.23,1.65-1.85.55-.62,1.1-1.23,1.72-1.78.6-.57,1.19-1.15,1.8-1.7,2.49-2.17,5.21-4.09,8.13-5.67,2.93-1.56,6-2.84,9.35-3.48l.57-.11v.61s0,0,0,0c-.2,3.41-1.05,6.68-2.42,9.76-1.37,3.06-3.38,5.85-5.93,8.03-1.26,1.1-2.66,2.04-4.15,2.8-.73.41-1.51.7-2.27,1.04-.79.26-1.56.59-2.37.78-3.2.9-6.54,1.23-9.85,1.16Z"/>
    <path class="st0" d="M87.11,16.98c-1.75-.05-3.49.08-5.2.37-1.71.25-3.4.67-5.02,1.24-3.25,1.14-6.31,2.8-8.88,5.07-2.6,2.23-4.74,4.98-6.42,7.99-1.69,3.01-2.94,6.28-3.94,9.63.17-.86.34-1.72.54-2.57.24-.84.45-1.7.71-2.53.57-1.66,1.2-3.31,2.01-4.88,1.56-3.17,3.76-6.05,6.45-8.39,2.69-2.34,5.9-4.05,9.3-5.04,3.39-.99,6.98-1.36,10.45-.88Z"/>
    <path class="st0" d="M141.53,122.75c1.56-.52,3.06-1.19,4.51-1.95.72-.39,1.45-.75,2.14-1.19.7-.41,1.4-.84,2.06-1.31,2.69-1.84,5.2-3.92,7.47-6.25.56-.59,1.1-1.2,1.65-1.8.57-.59,1.07-1.23,1.57-1.87.5-.64,1.03-1.26,1.51-1.92l1.39-2.01.7-1,.63-1.05,1.26-2.11c.82-1.42,1.51-2.91,2.32-4.34-.6,1.53-1.2,3.07-1.89,4.57l-1.15,2.2-.58,1.1-.65,1.05-1.33,2.1c-.47.68-.99,1.33-1.48,2-.49.67-1.01,1.32-1.58,1.93-.56.62-1.1,1.25-1.67,1.85-2.34,2.36-4.93,4.48-7.78,6.19-.7.44-1.43.84-2.17,1.22-.72.4-1.49.73-2.24,1.08-1.54.62-3.09,1.2-4.71,1.5Z"/>
    <path class="st0" d="M144.43,121.78c3.29-.31,6.56-1.01,9.61-2.25.78-.28,1.5-.68,2.24-1.03.71-.42,1.44-.79,2.11-1.27,1.37-.9,2.62-1.98,3.73-3.18,2.23-2.4,3.86-5.31,4.85-8.42.98-3.1,1.44-6.42,1.26-9.62h0s.61.45.61.45c-3.07.79-6.07,2.24-8.82,3.95-2.76,1.72-5.32,3.78-7.65,6.08-.57.58-1.11,1.2-1.67,1.79-.57.59-1.09,1.22-1.59,1.87-.5.64-1.03,1.27-1.52,1.93l-1.38,2.03-.69,1.02-.61,1.07-1.23,2.13c-.77,1.45-1.43,2.95-2.16,4.43.69-1.49,1.31-3.02,2.05-4.49l1.18-2.17.59-1.09.67-1.04,1.34-2.08c.47-.68.99-1.32,1.48-1.98.49-.66.99-1.32,1.55-1.93.55-.62,1.08-1.25,1.64-1.85,2.29-2.38,4.83-4.53,7.6-6.36,2.78-1.82,5.73-3.36,9.01-4.29l.56-.16.05.61h0c.1,3.42-.46,6.75-1.55,9.94-1.1,3.17-2.86,6.13-5.2,8.52-1.16,1.2-2.47,2.27-3.89,3.15-.69.48-1.44.84-2.17,1.24-.76.33-1.5.72-2.29.98-3.11,1.18-6.41,1.8-9.71,2.02Z"/>
    <path class="st0" d="M168.74,95.96c-1.74.11-3.47.39-5.14.82-1.68.4-3.32.97-4.9,1.67-3.13,1.42-6.04,3.34-8.4,5.83-2.39,2.45-4.28,5.38-5.69,8.52-1.42,3.15-2.38,6.51-3.08,9.93.09-.87.19-1.74.31-2.61.16-.86.3-1.73.49-2.59.42-1.7.9-3.41,1.57-5.04,1.28-3.29,3.21-6.36,5.68-8.92,2.47-2.57,5.52-4.56,8.82-5.84,3.29-1.28,6.83-1.97,10.33-1.79Z"/>
    <path class="st0" d="M83.95,119.4c1.6-.38,3.15-.92,4.66-1.54.75-.33,1.51-.62,2.24-.99.74-.35,1.47-.71,2.17-1.13,2.84-1.59,5.52-3.45,7.99-5.56.61-.53,1.2-1.1,1.8-1.65.62-.53,1.17-1.13,1.73-1.72.56-.59,1.14-1.17,1.67-1.78l1.57-1.88.79-.94.72-.99,1.44-1.99c.94-1.34,1.76-2.76,2.69-4.12-.73,1.47-1.47,2.95-2.28,4.39l-1.33,2.09-.67,1.05-.74.99-1.51,1.98c-.53.64-1.1,1.24-1.65,1.86-.55.62-1.12,1.23-1.74,1.78-.61.56-1.2,1.15-1.82,1.7-2.54,2.14-5.31,4.02-8.29,5.48-.74.38-1.5.71-2.27,1.02-.76.34-1.55.6-2.32.88-1.58.48-3.19.92-4.83,1.08Z"/>
    <path class="st0" d="M86.93,118.69c3.31-.02,6.62-.43,9.78-1.4.8-.21,1.55-.55,2.32-.83.74-.35,1.51-.66,2.21-1.08,1.44-.78,2.79-1.74,3.99-2.84,2.43-2.19,4.31-4.95,5.57-7.96,1.25-3,2-6.27,2.1-9.47h0s.57.5.57.5c-3.13.52-6.24,1.7-9.14,3.16-2.9,1.47-5.63,3.3-8.15,5.38-.62.53-1.21,1.09-1.82,1.64-.62.53-1.19,1.12-1.75,1.72-.56.6-1.14,1.18-1.68,1.79l-1.56,1.9-.78.95-.7,1.01-1.41,2.02c-.89,1.38-1.69,2.82-2.54,4.22.81-1.43,1.57-2.89,2.43-4.29l1.36-2.06.68-1.03.76-.98,1.52-1.95c.53-.63,1.1-1.23,1.65-1.85.55-.62,1.1-1.23,1.72-1.78.6-.57,1.19-1.15,1.8-1.7,2.49-2.17,5.21-4.09,8.13-5.67,2.93-1.56,6-2.84,9.35-3.48l.57-.11v.61s0,0,0,0c-.2,3.41-1.05,6.68-2.42,9.76-1.37,3.06-3.38,5.85-5.93,8.03-1.26,1.1-2.66,2.04-4.15,2.8-.73.41-1.51.7-2.27,1.04-.79.26-1.56.59-2.37.78-3.2.9-6.54,1.23-9.85,1.16Z"/>
    <path class="st0" d="M113.42,95.11c-1.75-.05-3.49.08-5.2.37-1.71.25-3.4.67-5.02,1.24-3.25,1.14-6.31,2.8-8.88,5.07-2.6,2.23-4.74,4.98-6.42,7.99-1.69,3.01-2.94,6.28-3.94,9.63.17-.86.34-1.72.54-2.57.24-.84.45-1.7.71-2.53.57-1.66,1.2-3.31,2.01-4.88,1.56-3.17,3.76-6.05,6.45-8.39,2.69-2.34,5.9-4.05,9.3-5.04,3.39-.99,6.98-1.36,10.45-.88Z"/>
    <path class="st0" d="M120.92,144c8.63-5.13,15.38-12.74,20.64-21.21-.5,1.16-1.08,2.27-1.66,3.39-4.23,7.7-10.82,14.41-18.98,17.82h0Z"/>
    <path class="st0" d="M127.9,144c7.6-3.51,12.32-11.7,13.08-19.63,0,0,.11-1.58.11-1.58,0,0,.53.47.53.47-11.73,2.43-21.31,10.95-27.78,20.74,5.93-10.59,15.98-19.65,28.24-21.78-.27,9-5.3,18.41-14.18,21.78h0Z"/>
    <path class="st0" d="M141.56,122.79c-11.62-.24-21.84,6.27-26.69,16.79-.78,1.41-1.26,2.95-1.94,4.42.47-1.54.85-3.13,1.49-4.62,4.22-11.09,15.26-18.17,27.14-16.59h0Z"/>
    <path class="st0" d="M55.56,144.27c1.6-.38,3.15-.92,4.66-1.54.75-.33,1.51-.62,2.24-.99.74-.35,1.47-.71,2.17-1.13,2.84-1.59,5.52-3.45,7.99-5.56.61-.53,1.2-1.1,1.8-1.65.62-.53,1.17-1.13,1.73-1.72.56-.59,1.14-1.17,1.67-1.78l1.57-1.88.79-.94.72-.99,1.44-1.99c.94-1.34,1.76-2.76,2.69-4.12-.73,1.47-1.47,2.95-2.28,4.39l-1.33,2.09-.67,1.05-.74.99-1.51,1.98c-.53.64-1.1,1.24-1.65,1.86-.55.62-1.12,1.23-1.74,1.78-.61.56-1.2,1.15-1.82,1.7-2.54,2.14-5.31,4.02-8.29,5.48-.74.38-1.5.71-2.27,1.02-.76.34-1.55.6-2.32.88-1.58.48-3.19.92-4.83,1.08Z"/>
    <path class="st0" d="M58.54,143.55c3.31-.02,6.62-.43,9.78-1.4.8-.21,1.55-.55,2.32-.83.74-.35,1.51-.66,2.21-1.08,1.44-.78,2.79-1.74,3.99-2.84,2.43-2.19,4.31-4.95,5.57-7.96,1.25-3,2-6.27,2.1-9.47h0s.57.5.57.5c-3.13.52-6.24,1.7-9.14,3.16-2.9,1.47-5.63,3.3-8.15,5.38-.62.53-1.21,1.09-1.82,1.64-.62.53-1.19,1.12-1.75,1.72-.56.6-1.14,1.18-1.68,1.79l-1.56,1.9-.78.95-.7,1.01-1.41,2.02c-.89,1.38-1.69,2.82-2.54,4.22.81-1.43,1.57-2.89,2.43-4.29l1.36-2.06.68-1.03.76-.98,1.52-1.95c.53-.63,1.1-1.23,1.65-1.85.55-.62,1.1-1.23,1.72-1.78.6-.57,1.19-1.15,1.8-1.7,2.49-2.17,5.21-4.09,8.13-5.67,2.93-1.56,6-2.84,9.35-3.48l.57-.11v.61s0,0,0,0c-.2,3.41-1.05,6.68-2.42,9.76-1.37,3.06-3.38,5.85-5.93,8.03-1.26,1.1-2.66,2.04-4.15,2.8-.73.41-1.51.7-2.27,1.04-.79.26-1.56.59-2.37.78-3.2.9-6.54,1.23-9.85,1.16Z"/>
    <path class="st0" d="M85.02,119.98c-1.75-.05-3.49.08-5.2.37-1.71.25-3.4.67-5.02,1.24-3.25,1.14-6.31,2.8-8.88,5.07-2.6,2.23-4.74,4.98-6.42,7.99-1.69,3.01-2.94,6.28-3.94,9.63.17-.86.34-1.72.54-2.57.24-.84.45-1.7.71-2.53.57-1.66,1.2-3.31,2.01-4.88,1.56-3.17,3.76-6.05,6.45-8.39,2.69-2.34,5.9-4.05,9.3-5.04,3.39-.99,6.98-1.36,10.45-.88Z"/>
    <path class="st0" d="M29.35,65.89c1.6-.38,3.15-.92,4.66-1.54.75-.33,1.51-.62,2.24-.99.74-.35,1.47-.71,2.17-1.13,2.84-1.59,5.52-3.45,7.99-5.56.61-.53,1.2-1.1,1.8-1.65.62-.53,1.17-1.13,1.73-1.72.56-.59,1.14-1.17,1.67-1.78l1.57-1.88.79-.94.72-.99,1.44-1.99c.94-1.34,1.76-2.76,2.69-4.12-.73,1.47-1.47,2.95-2.28,4.39l-1.33,2.09-.67,1.05-.74.99-1.51,1.98c-.53.64-1.1,1.24-1.65,1.86-.55.62-1.12,1.23-1.74,1.78-.61.56-1.2,1.15-1.82,1.7-2.54,2.14-5.31,4.02-8.29,5.48-.74.38-1.5.71-2.27,1.02-.76.34-1.55.6-2.32.88-1.58.48-3.19.92-4.83,1.08Z"/>
    <path class="st0" d="M32.33,65.17c3.31-.02,6.62-.43,9.78-1.4.8-.21,1.55-.55,2.32-.83.74-.35,1.51-.66,2.21-1.08,1.44-.78,2.79-1.74,3.99-2.84,2.43-2.19,4.31-4.95,5.57-7.96,1.25-3,2-6.27,2.1-9.47h0s.57.5.57.5c-3.13.52-6.24,1.7-9.14,3.16-2.9,1.47-5.63,3.3-8.15,5.38-.62.53-1.21,1.09-1.82,1.64-.62.53-1.19,1.12-1.75,1.72-.56.6-1.14,1.18-1.68,1.79l-1.56,1.9-.78.95-.7,1.01-1.41,2.02c-.89,1.38-1.69,2.82-2.54,4.22.81-1.43,1.57-2.89,2.43-4.29l1.36-2.06.68-1.03.76-.98,1.52-1.95c.53-.63,1.1-1.23,1.65-1.85.55-.62,1.1-1.23,1.72-1.78.6-.57,1.19-1.15,1.8-1.7,2.49-2.17,5.21-4.09,8.13-5.67,2.93-1.56,6-2.84,9.35-3.48l.57-.11v.61s0,0,0,0c-.2,3.41-1.05,6.68-2.42,9.76-1.37,3.06-3.38,5.85-5.93,8.03-1.26,1.1-2.66,2.04-4.15,2.8-.73.41-1.51.7-2.27,1.04-.79.26-1.56.59-2.37.78-3.2.9-6.54,1.23-9.85,1.16Z"/>
    <path class="st0" d="M58.81,41.59c-1.75-.05-3.49.08-5.2.37-1.71.25-3.4.67-5.02,1.24-3.25,1.14-6.31,2.8-8.88,5.07-2.6,2.23-4.74,4.98-6.42,7.99-1.69,3.01-2.94,6.28-3.94,9.63.17-.86.34-1.72.54-2.57.24-.84.45-1.7.71-2.53.57-1.66,1.2-3.31,2.01-4.88,1.56-3.17,3.76-6.05,6.45-8.39,2.69-2.34,5.9-4.05,9.3-5.04,3.39-.99,6.98-1.36,10.45-.88Z"/>
    <path class="st0" d="M167.53,94.72c1.6-.38,3.15-.92,4.66-1.54.75-.33,1.51-.62,2.24-.99.74-.35,1.47-.71,2.17-1.13,2.84-1.59,5.52-3.45,7.99-5.56.61-.53,1.2-1.1,1.8-1.65.62-.53,1.17-1.13,1.73-1.72.56-.59,1.14-1.17,1.67-1.78l1.57-1.88.79-.94.72-.99,1.44-1.99c.94-1.34,1.76-2.76,2.69-4.12-.73,1.47-1.47,2.95-2.28,4.39l-1.33,2.09-.67,1.05-.74.99-1.51,1.98c-.53.64-1.1,1.24-1.65,1.86-.55.62-1.12,1.23-1.74,1.78-.61.56-1.2,1.15-1.82,1.7-2.54,2.14-5.31,4.02-8.29,5.48-.74.38-1.5.71-2.27,1.02-.76.34-1.55.6-2.32.88-1.58.48-3.19.92-4.83,1.08Z"/>
    <path class="st0" d="M170.51,94.01c3.31-.02,6.62-.43,9.78-1.4.8-.21,1.55-.55,2.32-.83.74-.35,1.51-.66,2.21-1.08,1.44-.78,2.79-1.74,3.99-2.84,2.43-2.19,4.31-4.95,5.57-7.96,1.25-3,2-6.27,2.1-9.47h0s.57.5.57.5c-3.13.52-6.24,1.7-9.14,3.16-2.9,1.47-5.63,3.3-8.15,5.38-.62.53-1.21,1.09-1.82,1.64-.62.53-1.19,1.12-1.75,1.72-.56.6-1.14,1.18-1.68,1.79l-1.56,1.9-.78.95-.7,1.01-1.41,2.02c-.89,1.38-1.69,2.82-2.54,4.22.81-1.43,1.57-2.89,2.43-4.29l1.36-2.06.68-1.03.76-.98,1.52-1.95c.53-.63,1.1-1.23,1.65-1.85.55-.62,1.1-1.23,1.72-1.78.6-.57,1.19-1.15,1.8-1.7,2.49-2.17,5.21-4.09,8.13-5.67,2.93-1.56,6-2.84,9.35-3.48l.57-.11v.61s0,0,0,0c-.2,3.41-1.05,6.68-2.42,9.76-1.37,3.06-3.38,5.85-5.93,8.03-1.26,1.1-2.66,2.04-4.15,2.8-.73.41-1.51.7-2.27,1.04-.79.26-1.56.59-2.37.78-3.2.9-6.54,1.23-9.85,1.16Z"/>
    <path class="st0" d="M196.99,70.43c-1.75-.05-3.49.08-5.2.37-1.71.25-3.4.67-5.02,1.24-3.25,1.14-6.31,2.8-8.88,5.07-2.6,2.23-4.74,4.98-6.42,7.99-1.69,3.01-2.94,6.28-3.94,9.63.17-.86.34-1.72.54-2.57.24-.84.45-1.7.71-2.53.57-1.66,1.2-3.31,2.01-4.88,1.56-3.17,3.76-6.05,6.45-8.39,2.69-2.34,5.9-4.05,9.3-5.04,3.39-.99,6.98-1.36,10.45-.88Z"/>
    <path class="st0" d="M196.99,69.67c1.6-.38,3.15-.92,4.66-1.54.75-.33,1.51-.62,2.24-.99.74-.35,1.47-.71,2.17-1.13,2.84-1.59,5.52-3.45,7.99-5.56.61-.53,1.2-1.1,1.8-1.65.62-.53,1.17-1.13,1.73-1.72.56-.59,1.14-1.17,1.67-1.78l1.57-1.88.79-.94.72-.99,1.44-1.99c.94-1.34,1.76-2.76,2.69-4.12-.73,1.47-1.47,2.95-2.28,4.39l-1.33,2.09-.67,1.05-.74.99-1.51,1.98c-.53.64-1.1,1.24-1.65,1.86-.55.62-1.12,1.23-1.74,1.78-.61.56-1.2,1.15-1.82,1.7-2.54,2.14-5.31,4.02-8.29,5.48-.74.38-1.5.71-2.27,1.02-.76.34-1.55.6-2.32.88-1.58.48-3.19.92-4.83,1.08Z"/>
    <path class="st0" d="M199.97,68.95c3.31-.02,6.62-.43,9.78-1.4.8-.21,1.55-.55,2.32-.83.74-.35,1.51-.66,2.21-1.08,1.44-.78,2.79-1.74,3.99-2.84,2.43-2.19,4.31-4.95,5.57-7.96,1.25-3,2-6.27,2.1-9.47h0s.57.5.57.5c-3.13.52-6.24,1.7-9.14,3.16-2.9,1.47-5.63,3.3-8.15,5.38-.62.53-1.21,1.09-1.82,1.64-.62.53-1.19,1.12-1.75,1.72-.56.6-1.14,1.18-1.68,1.79l-1.56,1.9-.78.95-.7,1.01-1.41,2.02c-.89,1.38-1.69,2.82-2.54,4.22.81-1.43,1.57-2.89,2.43-4.29l1.36-2.06.68-1.03.76-.98,1.52-1.95c.53-.63,1.1-1.23,1.65-1.85.55-.62,1.1-1.23,1.72-1.78.6-.57,1.19-1.15,1.8-1.7,2.49-2.17,5.21-4.09,8.13-5.67,2.93-1.56,6-2.84,9.35-3.48l.57-.11v.61s0,0,0,0c-.2,3.41-1.05,6.68-2.42,9.76-1.37,3.06-3.38,5.85-5.93,8.03-1.26,1.1-2.66,2.04-4.15,2.8-.73.41-1.51.7-2.27,1.04-.79.26-1.56.59-2.37.78-3.2.9-6.54,1.23-9.85,1.16Z"/>
    <path class="st0" d="M226.45,45.38c-1.75-.05-3.49.08-5.2.37-1.71.25-3.4.67-5.02,1.24-3.25,1.14-6.31,2.8-8.88,5.07-2.6,2.23-4.74,4.98-6.42,7.99-1.69,3.01-2.94,6.28-3.94,9.63.17-.86.34-1.72.54-2.57.24-.84.45-1.7.71-2.53.57-1.66,1.2-3.31,2.01-4.88,1.56-3.17,3.76-6.05,6.45-8.39,2.69-2.34,5.9-4.05,9.3-5.04,3.39-.99,6.98-1.36,10.45-.88Z"/>
    <path class="st0" d="M252,27.41c-5.54,9.02-14.85,16.49-25.55,17.88,1.29-.33,2.56-.73,3.78-1.23,8.68-3.35,15.92-9.5,21.77-16.65h0Z"/>
    <path class="st0" d="M226.45,45.29c4.85-10.75,13.99-20.09,25.55-23.28-2.72,1.15-5.32,2.52-7.77,4.13-7.4,4.8-13.2,11.68-17.78,19.15h0Z"/>
    <path class="st0" d="M229.43,44.58c7.48-.54,15.25-2.62,20.45-8.33.78-.76,1.43-1.63,2.12-2.49-.5.98-1.08,1.92-1.75,2.8-4.73,6.37-13.18,8.78-20.82,8.02h0Z"/>
    <path class="st0" d="M226.45,45.29c1.88-11.36,9.07-21.41,20.81-23.78,1.57-.29,3.15-.51,4.74-.52-3.14.46-6.19,1.3-9.01,2.65-8.8,3.98-13.91,12.7-16.54,21.65h0Z"/>
    <path class="st0" d="M140.74,69.67c1.6-.38,3.15-.92,4.66-1.54.75-.33,1.51-.62,2.24-.99.74-.35,1.47-.71,2.17-1.13,2.84-1.59,5.52-3.45,7.99-5.56.61-.53,1.2-1.1,1.8-1.65.62-.53,1.17-1.13,1.73-1.72.56-.59,1.14-1.17,1.67-1.78l1.57-1.88.79-.94.72-.99,1.44-1.99c.94-1.34,1.76-2.76,2.69-4.12-.73,1.47-1.47,2.95-2.28,4.39l-1.33,2.09-.67,1.05-.74.99-1.51,1.98c-.53.64-1.1,1.24-1.65,1.86-.55.62-1.12,1.23-1.74,1.78-.61.56-1.2,1.15-1.82,1.7-2.54,2.14-5.31,4.02-8.29,5.48-.74.38-1.5.71-2.27,1.02-.76.34-1.55.6-2.32.88-1.58.48-3.19.92-4.83,1.08Z"/>
    <path class="st0" d="M143.71,68.95c3.31-.02,6.62-.43,9.78-1.4.8-.21,1.55-.55,2.32-.83.74-.35,1.51-.66,2.21-1.08,1.44-.78,2.79-1.74,3.99-2.84,2.43-2.19,4.31-4.95,5.57-7.96,1.25-3,2-6.27,2.1-9.47h0s.57.5.57.5c-3.13.52-6.24,1.7-9.14,3.16-2.9,1.47-5.63,3.3-8.15,5.38-.62.53-1.21,1.09-1.82,1.64-.62.53-1.19,1.12-1.75,1.72-.56.6-1.14,1.18-1.68,1.79l-1.56,1.9-.78.95-.7,1.01-1.41,2.02c-.89,1.38-1.69,2.82-2.54,4.22.81-1.43,1.57-2.89,2.43-4.29l1.36-2.06.68-1.03.76-.98,1.52-1.95c.53-.63,1.1-1.23,1.65-1.85.55-.62,1.1-1.23,1.72-1.78.6-.57,1.19-1.15,1.8-1.7,2.49-2.17,5.21-4.09,8.13-5.67,2.93-1.56,6-2.84,9.35-3.48l.57-.11v.61s0,0,0,0c-.2,3.41-1.05,6.68-2.42,9.76-1.37,3.06-3.38,5.85-5.93,8.03-1.26,1.1-2.66,2.04-4.15,2.8-.73.41-1.51.7-2.27,1.04-.79.26-1.56.59-2.37.78-3.2.9-6.54,1.23-9.85,1.16Z"/>
    <path class="st0" d="M170.2,45.38c-1.75-.05-3.49.08-5.2.37-1.71.25-3.4.67-5.02,1.24-3.25,1.14-6.31,2.8-8.88,5.07-2.6,2.23-4.74,4.98-6.42,7.99-1.69,3.01-2.94,6.28-3.94,9.63.17-.86.34-1.72.54-2.57.24-.84.45-1.7.71-2.53.57-1.66,1.2-3.31,2.01-4.88,1.56-3.17,3.76-6.05,6.45-8.39,2.69-2.34,5.9-4.05,9.3-5.04,3.39-.99,6.98-1.36,10.45-.88Z"/>
    <path class="st0" d="M170.2,45.38c1.6-.38,3.15-.92,4.66-1.54.75-.33,1.51-.62,2.24-.99.74-.35,1.47-.71,2.17-1.13,2.84-1.59,5.52-3.45,7.99-5.56.61-.53,1.2-1.1,1.8-1.65.61-.53,1.17-1.13,1.73-1.72.56-.59,1.14-1.17,1.67-1.78l1.57-1.88.79-.94.72-.99,1.44-1.99c.94-1.34,1.76-2.76,2.69-4.12-.73,1.47-1.47,2.95-2.28,4.39l-1.33,2.09-.67,1.05-.74.99-1.51,1.98c-.53.64-1.1,1.24-1.65,1.86-.55.62-1.12,1.23-1.74,1.78-.61.56-1.2,1.15-1.82,1.7-2.54,2.14-5.31,4.02-8.29,5.48-.74.38-1.5.71-2.27,1.02-.76.34-1.55.6-2.32.88-1.58.48-3.19.92-4.83,1.08Z"/>
    <path class="st0" d="M173.18,44.66c3.31-.02,6.62-.43,9.78-1.4.8-.21,1.55-.55,2.32-.83.74-.35,1.51-.66,2.21-1.08,1.44-.78,2.79-1.74,3.99-2.84,2.43-2.19,4.31-4.95,5.57-7.96,1.25-3,2-6.27,2.1-9.47h0s.57.5.57.5c-3.13.52-6.24,1.7-9.14,3.16-2.9,1.47-5.63,3.3-8.15,5.38-.62.53-1.21,1.09-1.82,1.64-.62.53-1.19,1.12-1.75,1.72-.56.6-1.14,1.18-1.68,1.79l-1.56,1.9-.78.95-.7,1.01-1.41,2.02c-.89,1.38-1.69,2.82-2.54,4.22.81-1.43,1.57-2.89,2.43-4.29l1.36-2.06.68-1.03.76-.98,1.52-1.95c.53-.63,1.1-1.23,1.65-1.85.55-.62,1.1-1.23,1.72-1.78.6-.57,1.19-1.15,1.8-1.7,2.49-2.17,5.21-4.09,8.13-5.67,2.93-1.56,6-2.84,9.35-3.48l.57-.11v.61s0,0,0,0c-.2,3.41-1.05,6.68-2.42,9.76-1.37,3.06-3.38,5.85-5.93,8.03-1.26,1.1-2.66,2.04-4.15,2.8-.73.41-1.51.7-2.27,1.04-.79.26-1.56.59-2.37.78-3.2.9-6.54,1.23-9.85,1.16Z"/>
    <path class="st0" d="M199.66,21.09c-1.75-.05-3.49.08-5.2.37-1.71.25-3.4.67-5.02,1.24-3.25,1.14-6.31,2.8-8.88,5.07-2.6,2.23-4.74,4.98-6.42,7.99-1.69,3.01-2.94,6.28-3.94,9.63.17-.86.34-1.72.54-2.57.24-.84.45-1.7.71-2.53.57-1.66,1.2-3.31,2.01-4.88,1.56-3.17,3.76-6.05,6.45-8.39,2.69-2.34,5.9-4.05,9.3-5.04,3.39-.99,6.98-1.36,10.45-.88Z"/>
    <path class="st0" d="M227.31,0c-5.55,10.46-15.64,19.42-27.65,21.09,1.45-.35,2.86-.82,4.23-1.38,9.71-3.83,17.51-11.23,23.42-19.71h0Z"/>
    <path class="st0" d="M199.66,21.09C203.65,11.98,210.82,3.95,220.06,0c-1.04.68-2.1,1.32-3.1,2.07-7.13,4.95-12.72,11.7-17.3,19.02h0Z"/>
    <path class="st0" d="M228.77,0c-.95,9.5-7.53,17.64-17,19.67-2.99.79-6.1.82-9.13.7,1.51-.19,3.03-.19,4.52-.5,11.3-1.44,19.08-8.82,21.61-19.87h0Z"/>
    <path class="st0" d="M214.15,0c-6.47,4.19-10.85,10.8-13.38,17.98-.42,1.01-.72,2.07-1.11,3.11.17-1.09.37-2.18.64-3.25,1.82-7.51,6.6-14.69,13.85-17.84h0Z"/>
    <path class="st0" d="M142.75,14.87c.47,1.71,1.1,3.36,1.83,4.96.38.79.72,1.6,1.16,2.37.4.78.82,1.55,1.3,2.29,1.82,3,3.93,5.81,6.31,8.38.6.64,1.23,1.25,1.85,1.87.31.31.61.63.94.92l.99.86c.66.57,1.3,1.17,1.98,1.73l2.09,1.6,1.04.81,1.1.73,2.2,1.46c1.48.95,3.05,1.77,4.56,2.71-1.61-.74-3.23-1.47-4.8-2.29l-2.3-1.35-1.15-.68-1.1-.76-2.18-1.54c-.71-.54-1.37-1.14-2.06-1.7-.69-.57-1.36-1.15-1.98-1.8-.63-.63-1.28-1.25-1.9-1.89-2.41-2.64-4.54-5.54-6.24-8.68-.44-.78-.83-1.58-1.2-2.39-.4-.8-.71-1.64-1.04-2.46-.58-1.68-1.13-3.38-1.38-5.14Z"/>
    <path class="st0" d="M143.64,18.04c.15,3.56.72,7.11,1.89,10.46.26.85.65,1.65.99,2.47.41.78.77,1.6,1.26,2.34.9,1.52,1.98,2.93,3.22,4.19,2.46,2.53,5.5,4.45,8.79,5.68,3.28,1.22,6.83,1.9,10.28,1.89h0s-.48.58-.48.58c-.69-3.36-2.09-6.65-3.78-9.71-1.71-3.06-3.78-5.93-6.13-8.55-.6-.64-1.23-1.26-1.84-1.89-.31-.31-.61-.64-.93-.93l-.99-.87c-.67-.58-1.31-1.18-2-1.73l-2.11-1.59-1.06-.8-1.11-.72-2.23-1.43c-1.52-.9-3.1-1.7-4.65-2.55,1.57.82,3.17,1.58,4.71,2.45l2.27,1.38,1.14.69,1.08.77,2.16,1.55c.7.54,1.37,1.13,2.05,1.7l1.02.86c.33.29.64.61.96.92.63.62,1.28,1.23,1.9,1.87,2.44,2.59,4.61,5.44,6.42,8.52,1.8,3.09,3.29,6.34,4.12,9.91l.13.57-.61.02h0c-3.67-.07-7.23-.85-10.59-2.19-3.35-1.35-6.43-3.39-8.88-6.04-1.23-1.31-2.31-2.77-3.18-4.34-.48-.76-.82-1.6-1.22-2.4-.32-.84-.7-1.65-.94-2.52-1.1-3.41-1.59-6.98-1.66-10.54Z"/>
    <path class="st0" d="M170.1,45.57c-.01-1.88-.22-3.75-.59-5.58-.34-1.83-.86-3.63-1.53-5.36-1.34-3.45-3.24-6.7-5.82-9.36-2.49-2.73-5.56-4.91-8.88-6.58-3.31-1.69-6.88-2.9-10.53-3.82.93.15,1.86.3,2.78.48.91.22,1.84.42,2.75.67,1.81.55,3.61,1.16,5.33,1.97,3.46,1.57,6.64,3.82,9.27,6.59,2.6,2.81,4.59,6.18,5.81,9.78,1.2,3.61,1.76,7.44,1.4,11.2Z"/>
    <path class="st0" d="M166.18,0c-5.42,7.72-13.91,13.93-23.43,15.07,1.15-.3,2.27-.65,3.37-1.09,7.74-2.91,14.39-8.03,20.06-13.98h0Z"/>
    <path class="st0" d="M154.38,0c-4.33,4.75-8.03,9.75-11.63,15.07,2.34-5.95,6.39-11.37,11.63-15.07h0Z"/>
    <path class="st0" d="M170.13,0c-3.27,10.4-14.04,15.4-24.4,14.35,1.88-.19,3.75-.34,5.6-.68,8.14-1.33,15.19-6.18,18.8-13.67h0Z"/>
    <path class="st0" d="M149.88,0c-3.11,4.75-5.16,9.77-7.13,15.07.58-5.58,2.95-11.23,7.13-15.07h0Z"/>
    <path class="st0" d="M193.55,121.54c1.6-.38,3.15-.92,4.66-1.54.75-.33,1.51-.62,2.24-.99.74-.35,1.47-.71,2.17-1.13,2.84-1.59,5.52-3.45,7.99-5.56.61-.53,1.2-1.1,1.8-1.65.61-.53,1.17-1.13,1.73-1.72.56-.59,1.14-1.17,1.67-1.78l1.57-1.88.79-.94.72-.99,1.44-1.99c.94-1.34,1.76-2.76,2.69-4.12-.73,1.47-1.47,2.95-2.28,4.39l-1.33,2.09-.67,1.05-.74.99-1.51,1.98c-.53.64-1.1,1.24-1.65,1.86-.55.62-1.12,1.23-1.74,1.78-.61.56-1.2,1.15-1.82,1.7-2.54,2.14-5.31,4.02-8.29,5.48-.74.38-1.5.71-2.27,1.02-.76.34-1.55.6-2.32.88-1.58.48-3.19.92-4.83,1.08Z"/>
    <path class="st0" d="M196.53,120.83c3.31-.02,6.62-.43,9.78-1.4.8-.21,1.55-.55,2.32-.83.74-.35,1.51-.66,2.21-1.08,1.44-.78,2.79-1.74,3.99-2.84,2.43-2.19,4.31-4.95,5.57-7.96,1.25-3,2-6.27,2.1-9.47h0s.57.5.57.5c-3.13.52-6.24,1.7-9.14,3.16-2.9,1.47-5.63,3.3-8.15,5.38-.62.53-1.21,1.09-1.82,1.64-.62.53-1.19,1.12-1.75,1.72-.56.6-1.14,1.18-1.68,1.79l-1.56,1.9-.78.95-.7,1.01-1.41,2.02c-.89,1.38-1.69,2.82-2.54,4.22.81-1.43,1.57-2.89,2.43-4.29l1.36-2.06.68-1.03.76-.98,1.52-1.95c.53-.63,1.1-1.23,1.65-1.85.55-.62,1.1-1.23,1.72-1.78.6-.57,1.19-1.15,1.8-1.7,2.49-2.17,5.21-4.09,8.13-5.67,2.93-1.56,6-2.84,9.35-3.48l.57-.11v.61s0,0,0,0c-.2,3.41-1.05,6.68-2.42,9.76-1.37,3.06-3.38,5.85-5.93,8.03-1.26,1.1-2.66,2.04-4.15,2.8-.73.41-1.51.7-2.27,1.04-.79.26-1.56.59-2.37.78-3.2.9-6.54,1.23-9.85,1.16Z"/>
    <path class="st0" d="M223.02,97.25c-1.75-.05-3.49.08-5.2.37-1.71.25-3.4.67-5.02,1.24-3.25,1.14-6.31,2.8-8.88,5.07-2.6,2.23-4.74,4.98-6.42,7.99-1.69,3.01-2.94,6.28-3.94,9.63.17-.86.34-1.72.54-2.57.24-.84.45-1.7.71-2.53.57-1.66,1.2-3.31,2.01-4.88,1.56-3.17,3.76-6.05,6.45-8.39,2.69-2.34,5.9-4.05,9.3-5.04,3.39-.99,6.98-1.36,10.45-.88Z"/>
    <path class="st0" d="M222.54,97.25c1.6-.38,3.15-.92,4.66-1.54.75-.33,1.51-.62,2.24-.99.74-.35,1.47-.71,2.17-1.13,2.84-1.59,5.52-3.45,7.99-5.56.61-.53,1.2-1.1,1.8-1.65.61-.53,1.17-1.13,1.73-1.72.56-.59,1.14-1.17,1.67-1.78l1.57-1.88.79-.94.72-.99,1.44-1.99c.94-1.34,1.76-2.76,2.69-4.12-.73,1.47-1.47,2.95-2.28,4.39l-1.33,2.09-.67,1.05-.74.99-1.51,1.98c-.53.64-1.1,1.24-1.65,1.86-.55.62-1.12,1.23-1.74,1.78-.61.56-1.2,1.15-1.82,1.7-2.54,2.14-5.31,4.02-8.29,5.48-.74.38-1.5.71-2.27,1.02-.76.34-1.55.6-2.32.88-1.58.48-3.19.92-4.83,1.08Z"/>
    <path class="st0" d="M225.52,96.54c3.31-.02,6.62-.43,9.78-1.4.8-.21,1.55-.55,2.32-.83.74-.35,1.51-.66,2.21-1.08,1.44-.78,2.79-1.74,3.99-2.84,2.43-2.19,4.31-4.95,5.57-7.96,1.25-3,2-6.27,2.1-9.47h0s.57.5.57.5c-3.13.52-6.24,1.7-9.14,3.16-2.9,1.47-5.63,3.3-8.15,5.38-.62.53-1.21,1.09-1.82,1.64-.62.53-1.19,1.12-1.75,1.72-.56.6-1.14,1.18-1.68,1.79l-1.56,1.9-.78.95-.7,1.01-1.41,2.02c-.89,1.38-1.69,2.82-2.54,4.22.81-1.43,1.57-2.89,2.43-4.29l1.36-2.06.68-1.03.76-.98,1.52-1.95c.53-.63,1.1-1.23,1.65-1.85.55-.62,1.1-1.23,1.72-1.78.6-.57,1.19-1.15,1.8-1.7,2.49-2.17,5.21-4.09,8.13-5.67,2.93-1.56,6-2.84,9.35-3.48l.57-.11v.61s0,0,0,0c-.2,3.41-1.05,6.68-2.42,9.76-1.37,3.06-3.38,5.85-5.93,8.03-1.26,1.1-2.66,2.04-4.15,2.8-.73.41-1.51.7-2.27,1.04-.79.26-1.56.59-2.37.78-3.2.9-6.54,1.23-9.85,1.16Z"/>
    <path class="st0" d="M252,72.96c-1.75-.05-3.49.08-5.2.37-1.71.25-3.4.67-5.02,1.24-3.25,1.14-6.31,2.8-8.88,5.07-2.6,2.23-4.74,4.98-6.42,7.99-1.69,3.01-2.94,6.28-3.94,9.63.17-.86.34-1.72.54-2.57.24-.84.45-1.7.71-2.53.57-1.66,1.2-3.31,2.01-4.88,1.56-3.17,3.76-6.05,6.45-8.39,2.69-2.34,5.9-4.05,9.3-5.04,3.39-.99,6.98-1.36,10.45-.88Z"/>
    <path class="st0" d="M196.11,70.43c.55,1.55,1.24,3.04,2.02,4.48.4.71.77,1.44,1.22,2.12.42.7.86,1.38,1.35,2.04,1.88,2.66,4,5.13,6.36,7.37.6.55,1.22,1.08,1.82,1.62.59.56,1.24,1.05,1.89,1.54.65.49,1.28,1.01,1.94,1.48l2.03,1.36,1.01.69,1.06.61,2.13,1.22c1.43.8,2.93,1.46,4.38,2.25-1.54-.58-3.09-1.16-4.6-1.81l-2.22-1.11-1.11-.56-1.06-.64-2.12-1.29c-.69-.46-1.35-.97-2.02-1.45-.68-.48-1.34-.99-1.95-1.54-.62-.55-1.27-1.08-1.88-1.64-2.39-2.3-4.55-4.86-6.32-7.68-.46-.69-.86-1.42-1.25-2.15-.41-.72-.75-1.48-1.11-2.22-.64-1.53-1.25-3.07-1.58-4.69Z"/>
    <path class="st0" d="M197.13,73.32c.36,3.29,1.11,6.54,2.41,9.58.29.77.71,1.49,1.07,2.23.43.7.81,1.43,1.31,2.09.92,1.36,2.02,2.59,3.24,3.68,2.43,2.19,5.37,3.78,8.49,4.72,3.11.93,6.44,1.34,9.64,1.11h0s-.44.61-.44.61c-.84-3.06-2.34-6.03-4.09-8.76-1.77-2.73-3.86-5.26-6.2-7.55-.59-.56-1.21-1.09-1.82-1.64-.6-.56-1.24-1.07-1.89-1.56-.65-.49-1.29-1.01-1.96-1.49l-2.05-1.35-1.03-.67-1.08-.6-2.15-1.19c-1.46-.75-2.98-1.39-4.46-2.09,1.5.66,3.04,1.27,4.52,1.98l2.19,1.14,1.1.57,1.05.65,2.1,1.31c.68.46,1.34.96,2.01,1.45.67.48,1.33.97,1.95,1.52.63.54,1.27,1.06,1.88,1.61,2.42,2.25,4.61,4.76,6.48,7.5,1.86,2.75,3.45,5.68,4.44,8.94l.17.56-.61.06h0c-3.41.16-6.76-.35-9.96-1.39-3.19-1.05-6.17-2.76-8.61-5.06-1.22-1.14-2.31-2.43-3.21-3.84-.49-.68-.86-1.43-1.27-2.15-.35-.76-.75-1.49-1.02-2.28-1.23-3.09-1.9-6.38-2.17-9.67Z"/>
    <path class="st0" d="M223.33,97.21c-.13-1.74-.44-3.46-.91-5.13-.43-1.68-1.02-3.31-1.75-4.87-1.47-3.11-3.44-5.99-5.97-8.31-2.49-2.35-5.45-4.19-8.61-5.56-3.17-1.37-6.55-2.28-9.98-2.92.87.08,1.74.16,2.61.27.86.15,1.73.27,2.59.44,1.71.4,3.42.85,5.07,1.49,3.31,1.22,6.41,3.11,9.01,5.54,2.61,2.43,4.64,5.45,5.98,8.73,1.33,3.27,2.08,6.8,1.96,10.3Z"/>
    <path class="st0" d="M207.47,144c-7.18-5.32-12.89-13.45-13.92-22.46.29,1.09.62,2.15,1.04,3.19,2.73,7.33,7.44,13.71,12.88,19.27h0Z"/>
    <path class="st0" d="M193.55,121.54c8.6,3.81,16.13,10.36,20.47,18.76.59,1.21,1.15,2.43,1.6,3.7-4.98-9.5-13-16.9-22.07-22.46h0Z"/>
    <path class="st0" d="M194.27,124.52c.64,7.05,2.28,13.92,6.89,19.48-5.69-4.55-7.71-12.49-6.89-19.48h0Z"/>
    <path class="st0" d="M217.44,144c-2.22-9.36-9.01-16.54-17.77-20.22-2-.87-4.05-1.54-6.12-2.24,11.79,1.76,22.55,10.07,23.89,22.46h0Z"/>
    <path class="st0" d="M223.02,97.17c.38,1.6.92,3.15,1.54,4.66.33.75.62,1.51.99,2.24.35.74.71,1.47,1.13,2.17,1.59,2.84,3.45,5.52,5.56,7.99.53.61,1.1,1.2,1.65,1.8.53.62,1.13,1.17,1.72,1.73.59.56,1.17,1.14,1.78,1.67l1.88,1.57.94.79.99.72,1.99,1.44c1.34.94,2.76,1.76,4.12,2.69-1.47-.73-2.95-1.47-4.39-2.28l-2.09-1.33-1.05-.67-.99-.74-1.98-1.51c-.64-.53-1.24-1.1-1.86-1.65-.62-.55-1.23-1.12-1.78-1.74-.56-.61-1.15-1.2-1.7-1.82-2.14-2.54-4.02-5.31-5.48-8.29-.38-.74-.71-1.5-1.02-2.27-.34-.76-.6-1.55-.88-2.32-.48-1.58-.92-3.19-1.08-4.83Z"/>
    <path class="st0" d="M223.73,100.14c.02,3.31.43,6.62,1.4,9.78.21.8.55,1.55.83,2.32.35.74.66,1.51,1.08,2.21.78,1.44,1.74,2.79,2.84,3.99,2.19,2.43,4.95,4.31,7.96,5.57,3,1.25,6.27,2,9.47,2.1h0s-.5.57-.5.57c-.52-3.13-1.7-6.24-3.16-9.14-1.47-2.9-3.3-5.63-5.38-8.15-.53-.62-1.09-1.21-1.64-1.82-.53-.62-1.12-1.19-1.72-1.75-.6-.56-1.18-1.14-1.79-1.68l-1.9-1.56-.95-.78-1.01-.7-2.02-1.41c-1.38-.89-2.82-1.69-4.22-2.54,1.43.81,2.89,1.57,4.29,2.43l2.06,1.36,1.03.68.98.76,1.95,1.52c.63.53,1.23,1.1,1.85,1.65.62.55,1.23,1.1,1.78,1.72.57.6,1.15,1.19,1.7,1.8,2.17,2.49,4.09,5.21,5.67,8.13,1.56,2.93,2.84,6,3.48,9.35l.11.57h-.61s0,0,0,0c-3.41-.2-6.68-1.05-9.76-2.42-3.06-1.37-5.85-3.38-8.03-5.93-1.1-1.26-2.04-2.66-2.8-4.15-.41-.73-.7-1.51-1.04-2.27-.26-.79-.59-1.56-.78-2.37-.9-3.2-1.23-6.54-1.16-9.85Z"/>
    <path class="st0" d="M247.31,126.63c.05-1.75-.08-3.49-.37-5.2-.25-1.71-.67-3.4-1.24-5.02-1.14-3.25-2.8-6.31-5.07-8.88-2.23-2.6-4.98-4.74-7.99-6.42-3.01-1.69-6.28-2.94-9.63-3.94.86.17,1.72.34,2.57.54.84.24,1.7.45,2.53.71,1.66.57,3.31,1.2,4.88,2.01,3.17,1.56,6.05,3.76,8.39,6.45,2.34,2.69,4.05,5.9,5.04,9.3.99,3.39,1.36,6.98.88,10.45Z"/>
    <path class="st0" d="M252,138.32c-2.85-3.35-4.64-7.51-4.69-11.69,1.38,3.87,3.08,7.66,4.69,11.69h0Z"/>
    <path class="st0" d="M252,129.38c-1.93-.34-3.46-1.23-4.69-2.75,1.87.3,3.51,1.27,4.69,2.75h0Z"/>
    <path class="st0" d="M252,145.44c-3.6-4.31-4.74-10.38-3.98-15.84.67,5.52,1.59,10.78,3.98,15.84h0Z"/>
    <path class="st0" d="M252,127.99c-1.78.2-3.29-.24-4.69-1.36,1.71-.22,3.37.26,4.69,1.36h0Z"/>
    <path class="st0" d="M176.65,0c4.48,7.63,10.86,14.01,18.21,18.9,1.02.75,2.12,1.38,3.18,2.1-1.16-.52-2.31-1.07-3.43-1.68-7.82-4.29-14.56-11-17.96-19.32h0Z"/>
    <path class="st0" d="M185.73,0c6.34,5.6,11.39,13.05,12.87,21.49-6.01-.15-11.98-2.27-16.49-6.27C177.69,11.36,175.44,5.72,174.8,0c0,0,.51,2.08.51,2.08.08.37.29,1.21.36,1.55.58,1.48,1.03,3.03,1.83,4.4,3.75,7.68,12.24,12.04,20.54,12.5,0,0-.47.53-.47.53-.32-1.95-.95-3.93-1.7-5.81-2.25-5.73-5.86-10.84-10.14-15.25h0Z"/>
    <path class="st0" d="M190.29,0c6.04,4.93,9.08,13.33,7.75,21-.12-7.67-2.81-15.13-7.75-21h0Z"/>
    <path class="st0" d="M231.98,0c4.31,7.17,10.22,13.27,17.07,18.06.95.73,1.97,1.36,2.95,2.06-1.09-.51-2.17-1.05-3.22-1.65-7.32-4.2-13.58-10.61-16.8-18.47h0Z"/>
    <path class="st0" d="M230.08,0c.27.95.53,2.01.77,2.97.2.62.81,2.21,1.02,2.87,1.36,3.03,3.22,5.94,5.68,8.18,3.95,3.68,9.17,5.77,14.45,6.72-11.79-.34-21.18-8.83-21.92-20.73h0Z"/>
    <path class="st0" d="M241.17,0c5.19,3.98,9.24,9.75,10.83,16.13-2.92-5.9-6.58-11.11-10.83-16.13h0Z"/>
    <path class="st0" d="M229.71-5.63c-.39,0-.48,0-.5-.01.01,0,.1-.01.5-.01.4,0,.49,0,.5.01-.02,0-.11,0-.5.01,0,0,.39,0,0,0Z"/>
    <path class="st0" d="M252,10.3c-1.93-3.65-3.92-6.92-6.29-10.3,3.36,2.36,5.7,6.24,6.29,10.3h0Z"/>
    <path class="st0" d="M167.97,45.06c.63,1.52,1.4,2.97,2.25,4.36.44.69.84,1.4,1.33,2.05.46.67.93,1.34,1.45,1.97,2.02,2.56,4.27,4.92,6.74,7.03.62.52,1.27,1.01,1.91,1.52.62.52,1.3.98,1.97,1.44.67.46,1.33.94,2.02,1.38l2.1,1.25,1.05.63,1.09.55,2.19,1.11c1.47.72,3,1.31,4.49,2.02-1.57-.49-3.14-.99-4.69-1.57l-2.27-.99-1.14-.5-1.1-.58-2.19-1.18c-.71-.42-1.39-.9-2.09-1.34-.7-.45-1.39-.91-2.03-1.44-.65-.51-1.32-1.01-1.96-1.54-2.51-2.17-4.8-4.62-6.71-7.33-.49-.67-.94-1.37-1.36-2.08-.45-.69-.83-1.43-1.23-2.16-.72-1.49-1.41-3-1.82-4.6Z"/>
    <path class="st0" d="M169.14,47.89c.53,3.27,1.45,6.48,2.9,9.44.33.75.78,1.45,1.18,2.17.47.68.89,1.39,1.42,2.02.99,1.31,2.15,2.48,3.43,3.5,2.54,2.06,5.56,3.49,8.73,4.26,3.16.77,6.5,1,9.68.6h0s-.41.64-.41.64c-1-3.01-2.65-5.9-4.54-8.53-1.91-2.64-4.13-5.05-6.59-7.21-.62-.53-1.27-1.03-1.9-1.55-.62-.53-1.29-1-1.97-1.46-.68-.46-1.34-.94-2.03-1.38l-2.12-1.24-1.06-.62-1.11-.54-2.21-1.08c-1.5-.67-3.04-1.23-4.57-1.85,1.54.58,3.1,1.1,4.62,1.74l2.25,1.02,1.12.51,1.08.59,2.17,1.19c.71.42,1.39.89,2.08,1.34.7.44,1.38.9,2.03,1.42.65.5,1.32.99,1.96,1.51,2.53,2.12,4.85,4.51,6.86,7.15,2,2.65,3.74,5.49,4.9,8.69l.2.55-.6.09h0c-3.4.34-6.77,0-10.02-.87-3.24-.88-6.31-2.43-8.86-4.6-1.28-1.08-2.43-2.31-3.41-3.66-.52-.65-.93-1.38-1.38-2.08-.38-.74-.82-1.45-1.14-2.22-1.39-3.03-2.23-6.27-2.68-9.55Z"/>
    <path class="st0" d="M196.56,70.37c-.23-1.73-.62-3.43-1.17-5.08-.52-1.65-1.19-3.25-2.01-4.77-1.63-3.03-3.75-5.8-6.39-7.98-2.61-2.22-5.66-3.9-8.89-5.1-3.24-1.2-6.66-1.93-10.12-2.39.87.03,1.75.07,2.62.13.87.1,1.75.18,2.61.31,1.73.31,3.46.67,5.14,1.22,3.37,1.05,6.56,2.77,9.29,5.06,2.73,2.29,4.92,5.2,6.43,8.4,1.5,3.2,2.43,6.68,2.49,10.19Z"/>
    <path class="st0" d="M198.13,20.49c.62,1.52,1.38,2.97,2.23,4.36.44.69.84,1.39,1.32,2.05.45.67.92,1.33,1.44,1.96,2,2.55,4.23,4.91,6.69,7.03.62.52,1.26,1.01,1.89,1.52.62.52,1.29.98,1.96,1.44.67.46,1.32.94,2,1.38l2.09,1.26,1.04.63,1.09.56,2.18,1.11c1.46.73,2.99,1.32,4.47,2.03-1.56-.5-3.13-1-4.67-1.58l-2.26-1-1.13-.5-1.09-.58-2.18-1.18c-.71-.42-1.39-.9-2.08-1.35-.7-.45-1.38-.92-2.02-1.44-.65-.51-1.31-1.01-1.95-1.54-2.49-2.18-4.77-4.62-6.66-7.33-.49-.67-.93-1.37-1.35-2.08-.45-.69-.82-1.43-1.21-2.16-.71-1.49-1.39-3-1.8-4.59Z"/>
    <path class="st0" d="M199.28,23.32c.52,3.26,1.43,6.46,2.86,9.41.33.75.78,1.44,1.17,2.16.46.68.88,1.38,1.4,2.01.99,1.3,2.14,2.48,3.4,3.5,2.53,2.06,5.53,3.5,8.68,4.28,3.14.77,6.47,1.02,9.64.64h0s-.41.63-.41.63c-.99-3-2.62-5.89-4.49-8.52-1.89-2.64-4.1-5.05-6.53-7.21-.62-.53-1.26-1.03-1.89-1.55-.62-.53-1.29-1-1.96-1.46-.67-.46-1.33-.95-2.02-1.38l-2.11-1.24-1.06-.62-1.1-.54-2.2-1.08c-1.49-.67-3.03-1.24-4.54-1.86,1.53.58,3.08,1.11,4.59,1.75l2.23,1.03,1.12.52,1.08.6,2.15,1.2c.7.42,1.38.9,2.07,1.34.69.44,1.38.9,2.01,1.42.65.51,1.31.99,1.95,1.51,2.52,2.12,4.82,4.51,6.81,7.15,1.98,2.65,3.71,5.48,4.85,8.68l.2.55-.6.09h0c-3.39.32-6.74-.02-9.98-.9-3.22-.89-6.28-2.44-8.81-4.62-1.27-1.08-2.41-2.31-3.38-3.66-.52-.65-.92-1.38-1.37-2.08-.38-.74-.81-1.45-1.13-2.22-1.37-3.02-2.2-6.25-2.63-9.52Z"/>
    <path class="st0" d="M226.52,45.82c-.22-1.73-.61-3.42-1.15-5.06-.51-1.65-1.18-3.24-1.98-4.76-1.61-3.02-3.71-5.79-6.34-7.98-2.59-2.22-5.62-3.91-8.84-5.11-3.22-1.21-6.63-1.95-10.08-2.42.87.04,1.74.08,2.61.14.87.11,1.74.18,2.6.32,1.72.31,3.44.68,5.11,1.24,3.36,1.06,6.53,2.78,9.24,5.08,2.71,2.29,4.89,5.2,6.38,8.4,1.49,3.19,2.4,6.67,2.45,10.16Z"/>
    <path class="st0" d="M47.69,144c-9.23-5.56-16.91-14.98-18.34-25.88.33,1.32.74,2.6,1.25,3.85,3.41,8.84,9.75,16.17,17.09,22.03h0Z"/>
    <path class="st0" d="M29.35,118.12c10.84,4.9,20.28,14.17,23.38,25.88-1.13-2.76-2.5-5.4-4.1-7.88-4.8-7.51-11.74-13.38-19.28-18h0Z"/>
    <path class="st0" d="M30.06,121.1c.52,7.66,2.75,15.63,8.76,20.8.8.78,1.71,1.42,2.6,2.1-1.01-.49-1.99-1.06-2.91-1.72-6.66-4.69-9.23-13.35-8.45-21.18h0Z"/>
    <path class="st0" d="M53.68,144c-1.31-10.83-7.76-18.97-17.61-23.4-2.13-.91-4.52-1.77-6.72-2.48,13.33,2.14,24.26,11.77,24.33,25.88h0Z"/>
    <path class="st0" d="M100.88,144c-8.15-5.47-14.79-14.24-16.01-24.16.31,1.2.68,2.37,1.14,3.51,3.05,8.06,8.52,14.91,14.87,20.65h0Z"/>
    <path class="st0" d="M84.87,119.84c9.08,4.05,16.98,11.12,21.25,20.18.57,1.31,1.12,2.62,1.52,3.98-4.73-10.31-13.18-18.34-22.77-24.16h0Z"/>
    <path class="st0" d="M94.42,144c-6.99-4.38-9.72-13.29-8.83-21.18.57,7.82,2.86,15.76,8.83,21.18h0Z"/>
    <path class="st0" d="M109.04,144c-1.92-10.91-9.61-18.94-19.86-22.65-1.36-.59-2.92-1.01-4.31-1.51,12.54,1.94,23.42,10.92,24.17,24.16h0Z"/>
    <path class="st0" d="M30.43,13.35C23.82,10.66,17.82,6.02,13.92,0c5,5.15,10.53,9.41,16.51,13.35h0Z"/>
    <path class="st0" d="M24.67,0c2.95,3.93,5.27,8.43,6.22,13.29,0,0,.1.54.1.54l-.56-.02C21.57,13.54,12.6,8.49,9.35,0c3.05,5.81,8.49,9.99,14.77,11.76,2.05.6,4.21,1.01,6.31,1.12l-.46.52c-.8-4.76-2.88-9.26-5.3-13.41h0Z"/>
    <path class="st0" d="M28.04,0c2.49,3.86,3.47,8.86,2.39,13.35-.33-4.55-1.19-8.95-2.39-13.35h0Z"/>
    <path class="st0" d="M57.18,93.25c.6,1.53,1.33,3,2.16,4.41.42.7.82,1.41,1.29,2.08.44.68.9,1.36,1.41,2,1.96,2.6,4.16,5,6.59,7.17.61.53,1.25,1.04,1.87,1.56.61.54,1.28,1.01,1.94,1.48.66.47,1.31.97,1.99,1.42l2.07,1.3,1.04.65,1.08.58,2.17,1.16c1.45.75,2.97,1.37,4.45,2.11-1.56-.53-3.12-1.06-4.66-1.66l-2.25-1.04-1.13-.52-1.08-.6-2.16-1.23c-.7-.44-1.38-.92-2.07-1.39-.69-.46-1.37-.94-2-1.48-.64-.53-1.3-1.04-1.93-1.58-2.47-2.23-4.71-4.71-6.56-7.47-.48-.68-.91-1.39-1.32-2.11-.44-.7-.8-1.45-1.18-2.18-.69-1.5-1.35-3.03-1.73-4.64Z"/>
    <path class="st0" d="M58.29,96.1c.46,3.28,1.32,6.51,2.71,9.5.32.76.75,1.46,1.14,2.19.45.69.86,1.4,1.37,2.04.97,1.33,2.1,2.53,3.36,3.57,2.5,2.11,5.49,3.6,8.64,4.44,3.14.83,6.48,1.13,9.67.8h0s-.42.63-.42.63c-.94-3.03-2.53-5.96-4.37-8.62-1.85-2.68-4.03-5.13-6.44-7.35-.61-.54-1.25-1.06-1.87-1.58-.61-.54-1.27-1.03-1.94-1.5-.67-.47-1.32-.97-2-1.42l-2.1-1.28-1.05-.64-1.09-.56-2.19-1.12c-1.48-.7-3.02-1.29-4.53-1.94,1.52.61,3.07,1.17,4.58,1.83l2.22,1.07,1.11.54,1.07.62,2.14,1.24c.7.44,1.37.92,2.05,1.38.69.46,1.37.93,2,1.46.64.52,1.3,1.02,1.93,1.55,2.49,2.17,4.76,4.61,6.72,7.29,1.95,2.69,3.63,5.56,4.72,8.79l.19.55-.6.08h0c-3.41.27-6.77-.14-10-1.07-3.22-.95-6.26-2.56-8.76-4.79-1.26-1.1-2.38-2.36-3.33-3.73-.51-.66-.9-1.4-1.34-2.11-.37-.75-.79-1.47-1.09-2.24-1.32-3.05-2.1-6.31-2.48-9.6Z"/>
    <path class="st0" d="M85.24,119.15c-.19-1.74-.55-3.44-1.07-5.1-.48-1.66-1.13-3.27-1.91-4.81-1.57-3.06-3.63-5.87-6.23-8.11-2.56-2.27-5.58-4.02-8.79-5.28-3.21-1.27-6.62-2.07-10.07-2.6.87.05,1.75.11,2.62.19.87.12,1.74.21,2.61.36,1.72.34,3.44.74,5.11,1.33,3.35,1.12,6.51,2.9,9.18,5.25,2.68,2.34,4.81,5.3,6.26,8.53,1.44,3.23,2.3,6.73,2.28,10.24Z"/>
    <path class="st0" d="M28.92,66.27c.6,1.53,1.33,3,2.16,4.41.42.7.82,1.41,1.29,2.08.44.68.9,1.36,1.41,2,1.96,2.6,4.16,5,6.59,7.17.61.53,1.25,1.04,1.87,1.56.61.54,1.28,1.01,1.94,1.48.66.47,1.31.97,1.99,1.42l2.07,1.3,1.04.65,1.08.58,2.17,1.16c1.45.75,2.97,1.37,4.45,2.11-1.56-.53-3.12-1.06-4.66-1.66l-2.25-1.04-1.13-.52-1.08-.6-2.16-1.23c-.7-.44-1.38-.92-2.07-1.39-.69-.46-1.37-.94-2-1.48-.64-.53-1.3-1.04-1.93-1.58-2.47-2.23-4.71-4.71-6.56-7.47-.48-.68-.91-1.39-1.32-2.11-.44-.7-.8-1.45-1.18-2.18-.69-1.5-1.35-3.03-1.73-4.64Z"/>
    <path class="st0" d="M30.03,69.13c.46,3.28,1.32,6.51,2.71,9.5.32.76.75,1.46,1.14,2.19.45.69.86,1.4,1.37,2.04.97,1.33,2.1,2.53,3.36,3.57,2.5,2.11,5.49,3.6,8.64,4.44,3.14.83,6.48,1.13,9.67.8h0s-.42.63-.42.63c-.94-3.03-2.53-5.96-4.37-8.62-1.85-2.68-4.03-5.13-6.44-7.35-.61-.54-1.25-1.06-1.87-1.58-.61-.54-1.27-1.03-1.94-1.5-.67-.47-1.32-.97-2-1.42l-2.1-1.28-1.05-.64-1.09-.56-2.19-1.12c-1.48-.7-3.02-1.29-4.53-1.94,1.52.61,3.07,1.17,4.58,1.83l2.22,1.07,1.11.54,1.07.62,2.14,1.24c.7.44,1.37.92,2.05,1.38.69.46,1.37.93,2,1.46.64.52,1.3,1.02,1.93,1.55,2.49,2.17,4.76,4.61,6.72,7.29,1.95,2.69,3.63,5.56,4.72,8.79l.19.55-.6.08h0c-3.41.27-6.77-.14-10-1.07-3.22-.95-6.26-2.56-8.76-4.79-1.26-1.1-2.38-2.36-3.33-3.73-.51-.66-.9-1.4-1.34-2.11-.37-.75-.79-1.47-1.09-2.24-1.32-3.05-2.1-6.31-2.48-9.6Z"/>
    <path class="st0" d="M56.98,92.17c-.19-1.74-.55-3.44-1.07-5.1-.48-1.66-1.13-3.27-1.91-4.81-1.57-3.06-3.63-5.87-6.23-8.11-2.56-2.27-5.58-4.02-8.79-5.28-3.21-1.27-6.62-2.07-10.07-2.6.87.05,1.75.11,2.62.19.87.12,1.74.21,2.61.36,1.72.34,3.44.74,5.11,1.33,3.35,1.12,6.51,2.9,9.18,5.25,2.68,2.34,4.81,5.3,6.26,8.53,1.44,3.23,2.3,6.73,2.28,10.24Z"/>
    <path class="st0" d="M.21,92.39c.6,1.53,1.33,3,2.16,4.41.42.7.82,1.41,1.29,2.08.44.68.9,1.36,1.41,2,1.96,2.6,4.16,5,6.59,7.17.61.53,1.25,1.04,1.87,1.56.61.54,1.28,1.01,1.94,1.48.66.47,1.31.97,1.99,1.42l2.07,1.3,1.04.65,1.08.58,2.17,1.16c1.45.75,2.97,1.37,4.45,2.11-1.56-.53-3.12-1.06-4.66-1.66l-2.25-1.04-1.13-.52-1.08-.6-2.16-1.23c-.7-.44-1.38-.92-2.07-1.39-.69-.46-1.37-.94-2-1.48-.64-.53-1.3-1.04-1.93-1.58-2.47-2.23-4.71-4.71-6.56-7.47-.48-.68-.91-1.39-1.32-2.11-.44-.7-.8-1.45-1.18-2.18-.69-1.5-1.35-3.03-1.73-4.64Z"/>
    <path class="st0" d="M1.32,95.25c.46,3.28,1.32,6.51,2.71,9.5.32.76.75,1.46,1.14,2.19.45.69.86,1.4,1.37,2.04.97,1.33,2.1,2.53,3.36,3.57,2.5,2.11,5.49,3.6,8.64,4.44,3.14.83,6.48,1.13,9.67.8h0s-.42.63-.42.63c-.94-3.03-2.53-5.96-4.37-8.62-1.85-2.68-4.03-5.13-6.44-7.35-.61-.54-1.25-1.06-1.87-1.58-.61-.54-1.27-1.03-1.94-1.5-.67-.47-1.32-.97-2-1.42l-2.1-1.28-1.05-.64-1.09-.56-2.19-1.12c-1.48-.7-3.02-1.29-4.53-1.94,1.52.61,3.07,1.17,4.58,1.83l2.22,1.07,1.11.54,1.07.62,2.14,1.24c.7.44,1.37.92,2.05,1.38.69.46,1.37.93,2,1.46.64.52,1.3,1.02,1.93,1.55,2.49,2.17,4.76,4.61,6.72,7.29,1.95,2.69,3.63,5.56,4.72,8.79l.19.55-.6.08h0c-3.41.27-6.77-.14-10-1.07-3.22-.95-6.26-2.56-8.76-4.79-1.26-1.1-2.38-2.36-3.33-3.73-.51-.66-.9-1.4-1.34-2.11-.37-.75-.79-1.47-1.09-2.24-1.32-3.05-2.1-6.31-2.48-9.6Z"/>
    <path class="st0" d="M28.27,118.29c-.19-1.74-.55-3.44-1.07-5.1-.48-1.66-1.13-3.27-1.91-4.81-1.57-3.06-3.63-5.87-6.23-8.11-2.56-2.27-5.58-4.02-8.79-5.28-3.21-1.27-6.62-2.07-10.07-2.6.87.05,1.75.11,2.62.19.87.12,1.74.21,2.61.36,1.72.34,3.44.74,5.11,1.33,3.35,1.12,6.51,2.9,9.18,5.25,2.68,2.34,4.81,5.3,6.26,8.53,1.44,3.23,2.3,6.73,2.28,10.24Z"/>
    <path class="st0" d="M0,42.85c.65,1.49,1.46,2.89,2.37,4.23.45.67.9,1.34,1.4,1.97.47.65,1,1.26,1.53,1.87,2.12,2.42,4.49,4.6,7.04,6.55,1.3.94,2.59,1.91,3.98,2.72,1.33.91,2.78,1.62,4.18,2.42,1.41.8,2.91,1.4,4.36,2.12,1.48.65,3,1.22,4.49,1.88-1.56-.44-3.12-.92-4.67-1.42l-2.27-.91c-.76-.31-1.52-.59-2.25-.97-1.47-.71-2.95-1.43-4.33-2.3-1.43-.81-2.75-1.78-4.09-2.73-2.59-2.01-5.01-4.27-7.03-6.86-2.01-2.58-3.77-5.42-4.71-8.55Z"/>
    <path class="st0" d="M1.16,45.46c.59,3.22,1.6,6.36,3.2,9.18.83,1.39,1.75,2.72,2.84,3.91,1.1,1.18,2.33,2.23,3.65,3.14,2.67,1.8,5.7,3.02,8.84,3.73,3.14.7,6.42.95,9.59.68l-.42.65c-1.07-2.93-2.87-5.69-4.88-8.16-2.03-2.49-4.41-4.67-6.92-6.69-1.29-.96-2.58-1.94-3.96-2.77-1.34-.91-2.78-1.64-4.2-2.41-1.41-.79-2.92-1.39-4.38-2.1l-4.53-1.77c1.54.5,3.1.98,4.63,1.53,1.49.64,3.04,1.18,4.5,1.91,1.46.73,2.93,1.44,4.31,2.31,1.43.8,2.76,1.75,4.1,2.69,2.63,1.95,5.04,4.2,7.15,6.72,2.09,2.54,3.94,5.27,5.13,8.44l.22.6-.65.05c-3.36.26-6.67-.05-9.91-.79-3.22-.77-6.38-2.02-9.08-3.98-1.35-.98-2.58-2.1-3.68-3.35-1.09-1.26-2.01-2.65-2.8-4.1-1.49-2.95-2.4-6.16-2.77-9.42Z"/>
    <path class="st0" d="M29.35,66.6c-.43-3.42-1.64-6.69-3.4-9.58-1.77-2.89-4.12-5.39-6.84-7.39l-2.12-1.39c-.7-.47-1.5-.78-2.25-1.18-1.47-.86-3.13-1.3-4.71-1.95-1.61-.55-3.29-.9-4.94-1.36-1.69-.3-3.38-.57-5.08-.9,1.72.11,3.44.28,5.17.42l2.55.52,1.28.26c.43.08.85.17,1.26.32,1.65.56,3.34,1,4.89,1.83.78.4,1.6.71,2.33,1.19l2.21,1.43c2.81,2.09,5.25,4.73,6.92,7.81.87,1.52,1.48,3.17,2,4.82.42,1.69.76,3.4.74,5.14Z"/>
    <path class="st0" d="M0,42.85c3.46-1.17,6.69-2.89,9.71-4.89,3-2.02,5.83-4.31,8.37-6.89.64-.63,1.23-1.33,1.85-1.98l.92-1,.84-1.06,1.69-2.12,1.55-2.23.78-1.11.7-1.17,1.39-2.35c.91-1.57,1.67-3.24,2.56-4.84-.68,1.69-1.35,3.4-2.12,5.07l-1.28,2.44-.65,1.22-.74,1.17-1.49,2.33-1.67,2.2-.84,1.1-.92,1.03c-.62.68-1.22,1.39-1.87,2.04-2.61,2.61-5.51,4.93-8.67,6.83-1.57.97-3.22,1.79-4.9,2.54-1.7.69-3.43,1.34-5.23,1.7Z"/>
    <path class="st0" d="M3.27,41.74c3.66-.37,7.28-1.16,10.68-2.53,3.4-1.34,6.55-3.35,9.06-5.99,2.54-2.61,4.38-5.84,5.5-9.29,1.11-3.44,1.6-7.14,1.35-10.69h0s.61.44.61.44c-3.43.91-6.76,2.51-9.83,4.4-3.08,1.91-5.95,4.16-8.54,6.72-.65.63-1.25,1.32-1.87,1.98l-.93,1-.85,1.07-1.7,2.14-1.54,2.26-.77,1.13-.69,1.18-1.36,2.37c-.86,1.61-1.59,3.28-2.4,4.92.77-1.66,1.46-3.35,2.29-4.98l1.31-2.41.66-1.2.75-1.15,1.5-2.3,1.66-2.19.83-1.09.91-1.03c.62-.68,1.2-1.39,1.85-2.04,2.55-2.64,5.41-4.99,8.5-7,3.1-2,6.38-3.69,10.01-4.74l.55-.16.06.6h0c.17,3.79-.42,7.5-1.64,11.03-1.23,3.51-3.2,6.79-5.86,9.4-2.63,2.63-5.87,4.59-9.33,5.87-3.46,1.3-7.11,2-10.77,2.29Z"/>
    <path class="st0" d="M30.37,13.19c-1.94.13-3.85.45-5.72.93-1.87.45-3.7,1.06-5.46,1.84-3.51,1.53-6.78,3.64-9.43,6.39-2.73,2.67-4.85,5.93-6.42,9.43-1.58,3.5-2.63,7.25-3.35,11.06.1-.96.2-1.93.34-2.9.18-.96.32-1.92.54-2.87.25-.94.45-1.9.78-2.83l.45-1.4.53-1.37c.7-1.83,1.65-3.57,2.72-5.22,1.05-1.66,2.31-3.2,3.69-4.61,2.8-2.78,6.18-4.97,9.85-6.39,3.66-1.41,7.58-2.19,11.47-2.07Z"/>
    <path class="st0" d="M38.76,0c-2.69,4.7-5.08,9.33-7.57,14.14,1.17-5.27,3.78-10.28,7.57-14.14h0Z"/>
    <path class="st0" d="M49.68,0c-4.52,6.73-11.06,12.37-18.91,14.77-.39-3.88.12-7.82,1.48-11.46.42-1.15.96-2.25,1.56-3.31-.44,1.13-.89,2.25-1.19,3.43-.95,3.44-1.31,7.11-.94,10.65,0,0-.6-.4-.6-.4,7.37-2.57,13.58-7.82,18.62-13.68h0Z"/>
    <path class="st0" d="M31.19,14.14c6.66-.96,13.11-3.95,17.81-8.82,1.62-1.57,2.9-3.44,4.21-5.32-.24.52-.5,1.03-.76,1.54-3.9,7.76-12.61,12.79-21.26,12.6h0Z"/>
    <path class="st0" d="M29.61,67.77c-1.62.32-3.18.82-4.7,1.43-.76.3-1.52.61-2.25.97-.75.33-1.46.72-2.17,1.12-2.85,1.59-5.5,3.5-7.95,5.65-1.19,1.11-2.41,2.19-3.49,3.42-1.16,1.15-2.15,2.45-3.21,3.7-.55.61-1.01,1.29-1.49,1.95l-1.44,2c-.92,1.36-1.76,2.77-2.69,4.14.73-1.48,1.49-2.94,2.28-4.4l1.33-2.09c.45-.7.88-1.41,1.39-2.06.98-1.34,1.99-2.66,3.13-3.87,1.08-1.27,2.32-2.38,3.52-3.53,2.52-2.17,5.26-4.11,8.26-5.57,2.98-1.45,6.17-2.59,9.48-2.85Z"/>
    <path class="st0" d="M26.73,68.37c-3.33-.11-6.69.18-9.85,1.16-1.57.51-3.11,1.13-4.52,1.98-1.41.84-2.72,1.85-3.89,2.99-2.33,2.31-4.13,5.12-5.4,8.15-1.26,3.02-2.08,6.29-2.35,9.52l-.54-.52c3.14-.43,6.26-1.61,9.13-3.09,2.9-1.49,5.55-3.4,8.06-5.49,1.2-1.1,2.44-2.18,3.53-3.4,1.16-1.16,2.17-2.45,3.21-3.72.54-.62,1-1.3,1.48-1.97l1.43-2.01c.88-1.38,1.72-2.8,2.6-4.2-.78,1.45-1.55,2.91-2.38,4.34l-1.34,2.08c-.45.69-.88,1.4-1.4,2.05-1,1.31-1.99,2.65-3.13,3.85-1.07,1.27-2.29,2.4-3.48,3.55-2.47,2.22-5.2,4.16-8.15,5.73-2.96,1.54-6.07,2.79-9.47,3.28l-.6.09.06-.61c.31-3.42,1.19-6.7,2.51-9.82,1.35-3.1,3.2-6.04,5.7-8.35,1.25-1.15,2.63-2.15,4.11-2.98,1.48-.83,3.07-1.43,4.69-1.9,3.27-.84,6.67-1.03,9.99-.69Z"/>
    <path class="st0" d="M.21,92.15c3.5.31,7.02-.14,10.28-1.26,3.27-1.12,6.26-2.92,8.81-5.24l1.81-1.85c.32-.29.58-.64.83-.99l.78-1.03c1.14-1.31,1.89-2.89,2.83-4.35.24-.36.43-.75.61-1.15l.55-1.19,1.1-2.38c.6-1.64,1.16-3.3,1.79-4.94-.41,1.71-.89,3.4-1.33,5.11l-.98,2.46-.49,1.23c-.15.42-.33.82-.56,1.21-.86,1.55-1.62,3.17-2.75,4.56l-.79,1.08c-.26.36-.53.72-.85,1.03l-1.86,1.93c-2.66,2.39-5.82,4.25-9.26,5.23-1.71.53-3.48.77-5.24.92-1.77.05-3.55,0-5.27-.39Z"/>
    <path class="st0" d="M99.87,0c-3.96,5.12-7.24,10.46-10.5,16.05,1.97-6.13,5.54-11.9,10.5-16.05h0Z"/>
    <path class="st0" d="M111.13,0c-5,7.76-12.49,14.43-21.68,16.52,0,0-.56.11-.56.11,0-1.65.16-3.28.43-4.87C90.07,7.56,91.58,3.43,94.16,0c-1.43,2.43-2.51,5.05-3.21,7.77-.69,2.68-1.1,5.51-1.11,8.27,0,0-.55-.46-.55-.46,8.89-2.17,16.22-8.56,21.84-15.58h0Z"/>
    <path class="st0" d="M89.37,16.05c9.24.06,17.63-4.94,22.48-12.7.72-1.08,1.3-2.24,2-3.35-.5,1.2-.99,2.42-1.57,3.6-4.33,8.39-13.4,13.82-22.9,12.45h0Z"/>
    <path class="st0" d="M171.06,144c3.34-9.15,9.89-17.65,18.97-21.61.48-.25,1.9-.77,2.74-.94-.93.38-1.82.83-2.69,1.31-8.14,4.52-14.64,12.79-19.02,21.24h0Z"/>
    <path class="st0" d="M179.4,144c5.17-5.73,9.11-12.4,12.07-19.5.47-1,.84-2.04,1.3-3.05-.24,1.08-.52,2.16-.84,3.22-2.28,7.41-6.42,14.46-12.53,19.33h0Z"/>
    <path class="st0" d="M190.05,122.58c-8.23,1.47-15.59,5.69-19.1,13.58-1.14,2.49-1.88,5.14-2.41,7.84.07-1.38.23-2.76.51-4.13,1.96-10.36,10.67-16.92,21-17.29h0Z"/>
    <path class="st0" d="M184.06,144c5.36-6.37,7.46-14.45,8.71-22.55.2,8.16-2.27,17.12-8.71,22.55h0Z"/>
    <path class="st0" d="M222.16,144c5.45-8.78,14.5-16.38,25.08-17.37-1.28.26-2.52.64-3.74,1.1-8.58,3.13-15.58,9.32-21.34,16.27h0Z"/>
    <path class="st0" d="M247.24,126.63c-2.91,6.94-7.75,13.31-14.14,17.37,5.53-5.18,9.99-11.06,14.14-17.37h0Z"/>
    <path class="st0" d="M219.28,144c2.81-11.87,13.07-18.61,25.08-16.78-2.06.08-4.09.12-6.12.48-9.21,1.31-15.73,7.82-18.96,16.3h0Z"/>
    <path class="st0" d="M238.2,144c4.15-5.23,6.69-11.17,9.04-17.37-.96,6.51-3.87,13.12-9.04,17.37h0Z"/>
    <path class="st0" d="M226.52,46.61c3.25,10.79,11.92,19.04,21.31,24.78,1.37.83,2.79,1.57,4.17,2.4-1.48-.63-2.95-1.28-4.41-1.97-9.88-5.12-19.01-13.9-21.07-25.21h0Z"/>
    <path class="st0" d="M226.52,46.61c11.23,4.23,21.81,12.68,25.48,24.46-.62-1.38-1.31-2.72-2.09-4-5.34-9.14-14.15-15.62-23.39-20.46h0Z"/>
    <path class="st0" d="M252,74.19c-14.61.03-25.76-9.65-24.69-24.75.15,1.63.26,3.25.62,4.84,1.96,12.2,12.45,18.72,24.07,19.91h0Z"/>
    <path class="st0" d="M226.52,46.61c11.08,1.13,23,7.65,25.48,19.29-1.01-2.63-2.33-5.11-4.08-7.26-5.23-6.66-13.43-9.96-21.4-12.03h0Z"/>
    <path class="st0" d="M252,125.17c-1.2,1.2-2.91,1.84-4.61,1.46,1.43-.98,2.86-1.51,4.61-1.46h0Z"/>
    <path class="st0" d="M252,118.67c-1.19,2.91-2.66,5.49-4.61,7.96.7-3.05,2.3-5.84,4.61-7.96h0Z"/>
    <path class="st0" d="M252,125.71c-.47.7-1.12.74-1.66.09.49-.71,1.09-.74,1.66-.09h0Z"/>
    <path class="st0" d="M252,114.09c-1.73,4.2-3.07,8.27-4.61,12.54.16-4.5,1.7-9.07,4.61-12.54h0Z"/>
  </g>
</svg>