<?xml version="1.0" encoding="UTF-8"?>
<svg id="Layer_1" xmlns="http://www.w3.org/2000/svg" version="1.1" viewBox="0 0 252 144">
  <!-- Generator: Adobe Illustrator 29.5.1, SVG Export Plug-In . SVG Version: 2.1.0 Build 141)  -->
  <defs>
    <style>
      .st0, .st1 {
        fill: #303554;
      }

      .st2 {
        fill: #e8deb9;
      }

      .st3 {
        fill: #8b626c;
      }

      .st4 {
        fill: #cec2ab;
      }

      .st5 {
        fill: #5f475c;
      }

      .st6 {
        fill: #383e60;
      }

      .st1 {
        stroke: #303554;
        stroke-miterlimit: 10;
      }
    </style>
  </defs>
  <rect class="st4" x=".05" y=".2" width="252" height="144"/>
  <path class="st2" d="M42.56,0c-.01,1.71-.2,3.58-.68,5.55-.13.57-.29,1.15-.48,1.73-.6,1.88-2.2,6.87-6.69,10.41-1.57,1.25-4.06,2.25-9.02,4.26-1.94.78-3.36,1.3-4.51,1.72-2.33.85-3.4,1.24-4.93,2.46-2.93,2.35-4.39,5.18-4.93,6.24-1.13,2.19-1.41,3.7-1.68,5.16-.26,1.43-.51,2.78-1.49,4.6-.11.21-.23.42-.35.63h-.01s-.05.1-.09.15c-1.76,2.88-4.11,4.53-5.7,5.65-.64.45-1.29.86-1.95,1.23v-.64c.55-.32,1.09-.66,1.63-1.04,1.46-1.03,3.58-2.51,5.24-5.01.08-.12.16-.23.23-.36.18-.27.35-.56.51-.86.94-1.76,1.18-3.06,1.44-4.45.28-1.5.57-3.05,1.73-5.31.56-1.09,2.05-4,5.08-6.42,1.6-1.27,2.69-1.67,5.08-2.55,1.14-.41,2.56-.93,4.48-1.71,4.92-1.99,7.39-2.98,8.9-4.18,4.35-3.44,5.92-8.32,6.51-10.15.16-.48.29-.96.41-1.43.02-.08.04-.16.05-.24.48-1.93.66-3.77.67-5.44h.55Z"/>
  <path class="st2" d="M19.66,24.13c6.55-.07,12.48-3.57,17.06-8.05-.52.62-1.06,1.24-1.62,1.83-3.98,4.01-9.69,6.86-15.45,6.22h0Z"/>
  <path class="st2" d="M21.17,24.15c7.09,1.76,13.05-1,15.28-8.14,0,0,.23.34.23.34-1.56-.13-3.19.05-4.75.39-4.77,1.04-8.97,3.86-12.28,7.38,4.28-4.86,10.43-8.56,17.09-8.32,0,0,.33.04.33.04-.52,1.72-1.36,3.3-2.45,4.69-3.37,4.28-8.45,4.98-13.46,3.62h0Z"/>
  <path class="st2" d="M36.72,16.08c-6.05-1.68-12.09.82-15.63,5.9-.5.7-.94,1.44-1.44,2.15.39-.77.78-1.54,1.21-2.3,3.37-5.5,9.71-8.17,15.85-5.75h0Z"/>
  <path class="st2" d="M36.85,16.04c3.05-2.6,4.58-6.36,5.23-10.22.14,3.96-1.67,8.25-5.23,10.22h0Z"/>
  <path class="st2" d="M37.6,15.48c3.86-1.8,5.92-5.42,4.23-9.55,0,0,.39.12.39.12-1.59,1.05-2.83,2.67-3.72,4.36-.91,1.75-1.39,3.68-1.65,5.62.04-4,1.73-8.12,5.09-10.46,0,0,.27-.18.27-.18,0,0,.12.3.12.3,1.77,4.21-.51,8.41-4.73,9.78h0Z"/>
  <path class="st2" d="M42.08,5.82c-3.4,1.48-5.52,4.97-5.31,8.65,0,.52.07,1.04.08,1.57-.13-.51-.25-1.03-.35-1.55-.69-3.79,1.8-7.84,5.58-8.67h0Z"/>
  <path class="st2" d="M44.03,0c-.11,2.21-.94,4.48-2.5,6.08.88-1.91,1.69-4.14,2.5-6.08h0Z"/>
  <path class="st2" d="M41.53,6.08C40.56,4.23,40.09,2.08,40.33,0c.15.51.26,1.01.37,1.52.29,1.42.68,3.13.83,4.56h0Z"/>
  <path class="st2" d="M45.73,0c-.32,1.47-1.18,2.8-2.24,3.85-.36.35-.74.67-1.17.94.27-.43.56-.82.85-1.22.55-.75,2.01-2.79,2.56-3.57h0Z"/>
  <path class="st2" d="M41.53,6.08c-1.13-1.25-1.93-2.78-2.34-4.41-.13-.55-.22-1.1-.22-1.67.22.52.42,1.03.63,1.54.58,1.43,1.38,3.11,1.93,4.54h0Z"/>
  <path class="st2" d="M8.32,42.81c-1.68,3.77-4.57,7.1-8.27,8.98,3.26-2.51,5.94-5.61,8.27-8.98h0Z"/>
  <path class="st2" d="M.05,46.6c2.42-2.06,5.36-3.64,8.54-4.08-.07,1.34-.32,2.65-.78,3.9-1.19,3.49-4.14,6.31-7.76,7.1,4.62-1.49,7.66-5.96,8.02-10.71,0,0,.28.26.28.26-2.99.46-5.8,1.84-8.29,3.54H.05Z"/>
  <path class="st2" d="M.05,44.66c2.26-1.82,5.45-2.54,8.27-1.85-2.86.09-5.64.71-8.27,1.85H.05Z"/>
  <path class="st2" d="M7.93,42.55c3.34-3.47,4.66-8.31,4.88-13.02.56,4.73-.95,10.08-4.88,13.02h0Z"/>
  <path class="st2" d="M8.74,41.79c4.5-2.48,6.37-7.5,3.83-12.12,0,0,.41.08.41.08-3.64,3.1-5.13,8.13-5.05,12.8-.25-4.87,1.12-10.19,4.98-13.44,2.62,4.9.71,10.23-4.17,12.68h0Z"/>
  <path class="st2" d="M12.81,29.53c-3.94,2.2-5.91,6.75-5.19,11.14.08.62.22,1.24.31,1.88-.21-.6-.4-1.21-.57-1.83-1.17-4.44,1.03-9.57,5.46-11.19h0Z"/>
  <path class="st2" d="M11.76,29.84c4.12-.69,6.9-4.18,9.04-7.5-1.43,3.73-4.72,7.6-9.04,7.5h0Z"/>
  <path class="st2" d="M12.63,29.74c4.89.94,7.53-3.03,7.89-7.43,0,0,.26.29.26.29-3.01.17-5.58,2.35-7.35,4.67-.55.7-1.22,1.78-1.68,2.56.84-1.86,1.95-3.69,3.45-5.1,1.59-1.51,3.62-2.66,5.89-2.69-.29,4.63-3.29,9.21-8.46,7.69h0Z"/>
  <path class="st2" d="M20.79,22.33c-4.07-.97-7.2,2.42-8.44,5.95-.2.51-.38,1.04-.59,1.55.1-.55.23-1.09.34-1.64.86-3.84,4.55-7.61,8.7-5.86h0Z"/>
  <path class="st2" d="M252.05,102.92v.61c-1.58.68-3.58,1.68-5.42,3.46-.1.1-.2.2-.29.3-.24.23-.46.48-.68.74-1.28,1.51-1.8,2.74-2.34,4.04-.59,1.41-1.2,2.87-2.8,4.83-.78.95-2.85,3.48-6.32,5.21-1.83.91-2.98,1.07-5.51,1.42-1.2.17-2.7.38-4.74.73-5.23.91-7.84,1.37-9.58,2.22-4.97,2.45-7.43,6.73-8.49,8.56-.25.44-.49.88-.7,1.32-.04.07-.07.14-.1.21-1.27,2.64-1.9,5.21-2.19,7.43h-.55c.29-2.29.93-4.96,2.26-7.69.24-.51.51-1.03.81-1.54.98-1.72,3.6-6.26,8.72-8.78,1.8-.89,4.45-1.35,9.71-2.27,2.07-.35,3.57-.56,4.78-.73,2.46-.35,3.58-.5,5.33-1.37,3.37-1.68,5.38-4.14,6.14-5.07,1.56-1.9,2.15-3.32,2.72-4.69.56-1.34,1.09-2.61,2.43-4.19.16-.18.31-.36.48-.53.04-.04.08-.09.13-.13,2.09-2.21,4.45-3.33,6.2-4.09Z"/>
  <path class="st2" d="M230.2,122.86c-6.42-1.31-12.95.87-18.37,4.29.64-.5,1.29-.99,1.97-1.45,4.74-3.08,10.92-4.67,16.41-2.83h0Z"/>
  <path class="st2" d="M228.73,122.52c-4.59-2.21-9.63-2.5-13.66,1.02-1.2,1.06-2.25,2.34-3,3.72,0,0-.16-.38-.16-.38,5.45,1.54,11.43.08,16.23-2.72.7-.41,1.37-.87,2.05-1.31-.67.45-1.33.93-2.02,1.37-4.83,2.99-10.81,4.6-16.44,3.18,0,0-.32-.11-.32-.11l.16-.28c3.93-6.55,10.52-7.98,17.14-4.5h0Z"/>
  <path class="st2" d="M211.83,127.14c5.56,2.92,11.99,1.74,16.52-2.49.63-.58,1.22-1.21,1.85-1.8-.54.67-1.09,1.34-1.67,1.99-4.45,4.67-11.21,5.95-16.7,2.29h0Z"/>
  <path class="st2" d="M211.69,127.15c-3.53,1.9-5.82,5.26-7.26,8.9.69-3.9,3.37-7.71,7.26-8.9h0Z"/>
  <path class="st2" d="M210.84,127.54c-4.15.95-6.93,4.06-6.14,8.45,0,0-.36-.2-.36-.2,3.64-1.49,6.1-5.01,7.35-8.64-.88,3.9-3.4,7.57-7.17,9.16,0,0-.3.12-.3.12l-.05-.32c-.85-4.49,2.26-8.11,6.68-8.57h0Z"/>
  <path class="st2" d="M204.43,136.05c3.63-.74,6.44-3.69,7.01-7.34.1-.51.15-1.03.25-1.56.02.53.03,1.06.02,1.59-.12,3.85-3.41,7.29-7.28,7.3h0Z"/>
  <path class="st2" d="M200.3,144c.57-3.11,2.18-6.18,4.73-8.1-1.99,2.44-3.44,5.24-4.73,8.1h0Z"/>
  <path class="st2" d="M205.03,135.9c.62,2.66.52,5.53-.43,8.1.03-.69.09-1.36.14-2.03.13-1.89.18-4.19.29-6.07h0Z"/>
  <path class="st2" d="M203.99,137c-2.37,1.98-4.58,4.17-5.9,7,.6-3.14,3.08-5.66,5.9-7h0Z"/>
  <path class="st2" d="M205.03,135.9c1.26,2.43,1.86,5.4,1.12,8.1-.03-2.78-.57-5.39-1.12-8.1h0Z"/>
  <path class="st2" d="M252.05,101.39c-2.35,1.73-4.64,3.68-6.83,5.59,1.67-2.46,4.06-4.48,6.83-5.59h0Z"/>
  <path class="st2" d="M252.05,105.87c-2.25.97-4.68,1.52-7.16,1.34,0,0,.08-.3.08-.3.99-3.52,3.55-6.72,7.08-7.89-3.21,1.58-5.53,4.63-6.58,8.01,0,0-.21-.31-.21-.31,2.26.14,4.6-.25,6.8-.86h0Z"/>
  <path class="st2" d="M252.05,107.36c-2.18.83-4.76.7-6.83-.38,2.28.34,4.53.46,6.83.38h0Z"/>
  <path class="st2" d="M245.54,107.31c-4,2.69-6.3,7.14-7.51,11.7.44-4.74,3.05-9.65,7.51-11.7h0Z"/>
  <path class="st2" d="M244.59,107.89c-4.92,1.48-7.8,6-6.29,11.04,0,0-.38-.17-.38-.17,4.21-2.26,6.72-6.87,7.63-11.45-.78,4.81-3.24,9.73-7.69,12.09-1.54-5.34,1.46-10.15,6.74-11.52h0Z"/>
  <path class="st2" d="M238.03,119.01c4.31-1.32,7.2-5.36,7.42-9.8.05-.63.04-1.26.09-1.9.07.63.14,1.27.18,1.91.21,4.59-3.02,9.14-7.69,9.79h0Z"/>
  <path class="st2" d="M239.13,118.94c-4.18-.19-7.63,2.63-10.41,5.44,2.19-3.34,6.21-6.43,10.41-5.44h0Z"/>
  <path class="st2" d="M238.25,118.85c-4.58-1.95-8,1.38-9.27,5.6,0,0-.2-.34-.2-.34,2.98.47,5.95-1.13,8.17-3.02.69-.57,1.57-1.48,2.18-2.15-1.22,1.64-2.68,3.2-4.44,4.26-1.87,1.14-4.1,1.84-6.32,1.39,1.26-4.47,5.15-8.31,9.89-5.74h0Z"/>
  <path class="st2" d="M228.71,124.37c3.78,1.81,7.55-.85,9.5-4.04.3-.46.59-.93.91-1.4-.21.52-.45,1.02-.68,1.53-1.65,3.57-6.05,6.49-9.73,3.9h0Z"/>
  <g>
    <path class="st0" d="M118.49,134.46v-2.12h-3.62v-.7l3.48-4.98h1.14v4.85h1.09v.83h-1.09v2.12h-1ZM118.49,131.51v-2.6c0-.41.01-.82.04-1.22h-.04c-.24.46-.43.79-.65,1.15l-1.91,2.65v.02h2.55Z"/>
    <path class="st0" d="M123.68,127.64h-.02l-1.36.73-.2-.8,1.7-.91h.9v7.8h-1.02v-6.81Z"/>
    <path class="st0" d="M127.54,134.46v-.65l.83-.8c1.99-1.89,2.89-2.9,2.9-4.08,0-.79-.38-1.52-1.55-1.52-.71,0-1.3.36-1.66.66l-.34-.74c.54-.46,1.31-.79,2.21-.79,1.68,0,2.39,1.15,2.39,2.27,0,1.44-1.04,2.6-2.69,4.19l-.62.58v.02h3.5v.88h-4.98Z"/>
    <path class="st0" d="M136.48,130.82v.78h-2.96v-.78h2.96Z"/>
    <path class="st0" d="M142.03,127.55h-2.97l-.3,2c.18-.02.35-.05.64-.05.6,0,1.2.13,1.68.42.61.35,1.12,1.02,1.12,2,0,1.52-1.21,2.66-2.9,2.66-.85,0-1.57-.24-1.94-.48l.26-.8c.32.19.96.43,1.67.43,1,0,1.85-.65,1.85-1.69-.01-1.01-.68-1.73-2.24-1.73-.44,0-.79.05-1.08.08l.5-3.74h3.73v.89Z"/>
    <path class="st0" d="M148.6,126.66v.7l-3.39,7.1h-1.09l3.38-6.9v-.02h-3.81v-.88h4.92Z"/>
    <path class="st0" d="M150.3,133.71c.23.02.49,0,.85-.04.61-.08,1.19-.34,1.63-.76.52-.47.89-1.15,1.03-2.08h-.04c-.43.53-1.05.84-1.83.84-1.4,0-2.3-1.06-2.3-2.39,0-1.48,1.07-2.77,2.66-2.77s2.58,1.29,2.58,3.29c0,1.71-.58,2.91-1.34,3.66-.6.59-1.43.95-2.27,1.04-.38.06-.72.07-.97.06v-.86ZM150.69,129.23c0,.97.59,1.66,1.5,1.66.71,0,1.26-.35,1.54-.82.06-.1.1-.22.1-.38,0-1.33-.49-2.35-1.59-2.35-.9,0-1.54.79-1.54,1.89Z"/>
    <path class="st0" d="M158.63,130.82v.78h-2.96v-.78h2.96Z"/>
    <path class="st0" d="M164.71,130.48c0,2.65-.98,4.11-2.71,4.11-1.52,0-2.55-1.43-2.58-4.01,0-2.61,1.13-4.05,2.71-4.05s2.58,1.46,2.58,3.95ZM160.48,130.59c0,2.03.62,3.18,1.58,3.18,1.08,0,1.59-1.26,1.59-3.25s-.49-3.18-1.58-3.18c-.92,0-1.59,1.13-1.59,3.25Z"/>
    <path class="st0" d="M166.3,133.71c.23.02.49,0,.85-.04.61-.08,1.19-.34,1.63-.76.52-.47.89-1.15,1.03-2.08h-.04c-.43.53-1.06.84-1.83.84-1.4,0-2.3-1.06-2.3-2.39,0-1.48,1.07-2.77,2.66-2.77s2.58,1.29,2.58,3.29c0,1.71-.58,2.91-1.34,3.66-.6.59-1.43.95-2.27,1.04-.38.06-.72.07-.97.06v-.86ZM166.68,129.23c0,.97.59,1.66,1.5,1.66.71,0,1.26-.35,1.54-.82.06-.1.1-.22.1-.38,0-1.33-.49-2.35-1.59-2.35-.9,0-1.54.79-1.54,1.89Z"/>
    <path class="st0" d="M172.46,133.71c.23.02.49,0,.85-.04.61-.08,1.19-.34,1.63-.76.52-.47.89-1.15,1.03-2.08h-.04c-.43.53-1.06.84-1.83.84-1.4,0-2.3-1.06-2.3-2.39,0-1.48,1.07-2.77,2.66-2.77s2.58,1.29,2.58,3.29c0,1.71-.58,2.91-1.34,3.66-.6.59-1.43.95-2.27,1.04-.38.06-.72.07-.97.06v-.86ZM172.84,129.23c0,.97.59,1.66,1.5,1.66.71,0,1.26-.35,1.54-.82.06-.1.1-.22.1-.38,0-1.33-.49-2.35-1.59-2.35-.9,0-1.54.79-1.54,1.89Z"/>
    <path class="st0" d="M178.61,133.71c.23.02.49,0,.85-.04.61-.08,1.19-.34,1.63-.76.52-.47.89-1.15,1.03-2.08h-.04c-.43.53-1.06.84-1.83.84-1.4,0-2.3-1.06-2.3-2.39,0-1.48,1.07-2.77,2.66-2.77s2.58,1.29,2.58,3.29c0,1.71-.58,2.91-1.34,3.66-.6.59-1.43.95-2.27,1.04-.38.06-.72.07-.97.06v-.86ZM179,129.23c0,.97.59,1.66,1.5,1.66.71,0,1.26-.35,1.54-.82.06-.1.1-.22.1-.38,0-1.33-.49-2.35-1.59-2.35-.9,0-1.54.79-1.54,1.89Z"/>
  </g>
  <g>
    <path class="st0" d="M118.49,125.37v-2.12h-3.62v-.7l3.48-4.98h1.14v4.85h1.09v.83h-1.09v2.12h-1ZM118.49,122.42v-2.6c0-.41.01-.82.04-1.22h-.04c-.24.46-.43.79-.65,1.15l-1.91,2.65v.02h2.55Z"/>
    <path class="st0" d="M123.68,118.56h-.02l-1.36.73-.2-.8,1.7-.91h.9v7.8h-1.02v-6.81Z"/>
    <path class="st0" d="M127.54,125.37v-.65l.83-.8c1.99-1.89,2.89-2.9,2.9-4.08,0-.79-.38-1.52-1.55-1.52-.71,0-1.3.36-1.66.66l-.34-.74c.54-.46,1.31-.79,2.21-.79,1.68,0,2.39,1.15,2.39,2.27,0,1.44-1.04,2.6-2.69,4.19l-.62.58v.02h3.5v.88h-4.98Z"/>
    <path class="st0" d="M136.48,121.73v.78h-2.96v-.78h2.96Z"/>
    <path class="st0" d="M142.03,118.46h-2.97l-.3,2c.18-.02.35-.05.64-.05.6,0,1.2.13,1.68.42.61.35,1.12,1.02,1.12,2,0,1.52-1.21,2.66-2.9,2.66-.85,0-1.57-.24-1.94-.48l.26-.8c.32.19.96.43,1.67.43,1,0,1.85-.65,1.85-1.69-.01-1.01-.68-1.73-2.24-1.73-.44,0-.79.05-1.08.08l.5-3.74h3.73v.89Z"/>
    <path class="st0" d="M148.6,117.57v.7l-3.39,7.1h-1.09l3.38-6.9v-.02h-3.81v-.88h4.92Z"/>
    <path class="st0" d="M150.3,124.62c.23.02.49,0,.85-.04.61-.08,1.19-.34,1.63-.76.52-.47.89-1.15,1.03-2.08h-.04c-.43.53-1.05.84-1.83.84-1.4,0-2.3-1.06-2.3-2.39,0-1.48,1.07-2.77,2.66-2.77s2.58,1.29,2.58,3.29c0,1.71-.58,2.91-1.34,3.66-.6.59-1.43.95-2.27,1.04-.38.06-.72.07-.97.06v-.86ZM150.69,120.14c0,.97.59,1.66,1.5,1.66.71,0,1.26-.35,1.54-.82.06-.1.1-.22.1-.38,0-1.33-.49-2.35-1.59-2.35-.9,0-1.54.79-1.54,1.89Z"/>
    <path class="st0" d="M158.63,121.73v.78h-2.96v-.78h2.96Z"/>
    <path class="st0" d="M164.71,121.39c0,2.65-.98,4.11-2.71,4.11-1.52,0-2.55-1.43-2.58-4.01,0-2.61,1.13-4.05,2.71-4.05s2.58,1.46,2.58,3.95ZM160.48,121.51c0,2.03.62,3.18,1.58,3.18,1.08,0,1.59-1.26,1.59-3.25s-.49-3.18-1.58-3.18c-.92,0-1.59,1.13-1.59,3.25Z"/>
    <path class="st0" d="M166.3,124.62c.23.02.49,0,.85-.04.61-.08,1.19-.34,1.63-.76.52-.47.89-1.15,1.03-2.08h-.04c-.43.53-1.06.84-1.83.84-1.4,0-2.3-1.06-2.3-2.39,0-1.48,1.07-2.77,2.66-2.77s2.58,1.29,2.58,3.29c0,1.71-.58,2.91-1.34,3.66-.6.59-1.43.95-2.27,1.04-.38.06-.72.07-.97.06v-.86ZM166.68,120.14c0,.97.59,1.66,1.5,1.66.71,0,1.26-.35,1.54-.82.06-.1.1-.22.1-.38,0-1.33-.49-2.35-1.59-2.35-.9,0-1.54.79-1.54,1.89Z"/>
    <path class="st0" d="M172.46,124.62c.23.02.49,0,.85-.04.61-.08,1.19-.34,1.63-.76.52-.47.89-1.15,1.03-2.08h-.04c-.43.53-1.06.84-1.83.84-1.4,0-2.3-1.06-2.3-2.39,0-1.48,1.07-2.77,2.66-2.77s2.58,1.29,2.58,3.29c0,1.71-.58,2.91-1.34,3.66-.6.59-1.43.95-2.27,1.04-.38.06-.72.07-.97.06v-.86ZM172.84,120.14c0,.97.59,1.66,1.5,1.66.71,0,1.26-.35,1.54-.82.06-.1.1-.22.1-.38,0-1.33-.49-2.35-1.59-2.35-.9,0-1.54.79-1.54,1.89Z"/>
    <path class="st0" d="M177.9,123.39c0-.98.59-1.68,1.55-2.09v-.04c-.88-.41-1.25-1.08-1.25-1.75,0-1.24,1.04-2.08,2.41-2.08,1.51,0,2.27.95,2.27,1.92,0,.66-.32,1.37-1.28,1.82v.04c.97.38,1.57,1.07,1.57,2.01,0,1.36-1.16,2.27-2.65,2.27-1.63,0-2.62-.97-2.62-2.11ZM182.1,123.34c0-.95-.66-1.4-1.71-1.7-.91.26-1.4.86-1.4,1.61-.04.79.56,1.49,1.56,1.49s1.56-.59,1.56-1.39ZM179.2,119.44c0,.78.59,1.2,1.49,1.44.67-.23,1.19-.71,1.19-1.42,0-.62-.37-1.27-1.32-1.27-.88,0-1.36.58-1.36,1.25Z"/>
  </g>
  <g>
    <path class="st0" d="M72.21,120.68c.5-.08,1.16-.16,2-.16,1.03,0,1.79.24,2.27.67.44.38.71.97.71,1.69s-.22,1.31-.62,1.73c-.55.59-1.45.89-2.47.89-.31,0-.6-.01-.84-.07v3.24h-1.04v-7.99ZM73.26,124.57c.23.06.52.08.86.08,1.26,0,2.03-.61,2.03-1.73s-.76-1.58-1.91-1.58c-.46,0-.8.04-.98.08v3.14Z"/>
    <path class="st0" d="M78.5,120.15h1.06v3.62h.02c.17-.3.43-.56.76-.74.31-.18.68-.3,1.08-.3.78,0,2.03.48,2.03,2.48v3.46h-1.06v-3.33c0-.94-.35-1.73-1.34-1.73-.68,0-1.22.48-1.42,1.06-.06.14-.07.3-.07.5v3.5h-1.06v-8.52Z"/>
    <path class="st0" d="M90.42,125.71c0,2.15-1.49,3.08-2.89,3.08-1.57,0-2.78-1.15-2.78-2.99,0-1.94,1.27-3.08,2.88-3.08s2.79,1.21,2.79,2.99ZM85.81,125.77c0,1.27.73,2.23,1.76,2.23s1.76-.95,1.76-2.25c0-.98-.49-2.23-1.74-2.23s-1.79,1.15-1.79,2.26Z"/>
    <path class="st0" d="M91.75,124.43c0-.6-.01-1.09-.05-1.57h.94l.06.96h.02c.29-.55.96-1.09,1.92-1.09.8,0,2.05.48,2.05,2.47v3.47h-1.06v-3.35c0-.94-.35-1.72-1.34-1.72-.7,0-1.24.49-1.42,1.08-.05.13-.07.31-.07.49v3.49h-1.06v-4.23Z"/>
    <path class="st0" d="M99,125.95c.02,1.43.94,2.02,1.99,2.02.76,0,1.21-.13,1.61-.3l.18.76c-.37.17-1.01.36-1.93.36-1.79,0-2.85-1.18-2.85-2.93s1.03-3.13,2.72-3.13c1.9,0,2.4,1.67,2.4,2.73,0,.22-.02.38-.04.49h-4.08ZM102.09,125.2c.01-.67-.28-1.71-1.46-1.71-1.07,0-1.54.98-1.62,1.71h3.08Z"/>
    <path class="st0" d="M104.17,123.82c0-.44.3-.76.72-.76s.7.31.71.76c0,.42-.28.74-.72.74-.42,0-.71-.32-.71-.74ZM104.17,128.05c0-.45.3-.76.72-.76s.7.31.71.76c0,.42-.28.74-.72.74-.42,0-.71-.32-.71-.74Z"/>
  </g>
  <g>
    <path class="st1" d="M94.73,18.15l-2.91-11.46h1.56l1.36,5.8c.34,1.43.65,2.86.85,3.96h.03c.19-1.14.54-2.5.94-3.98l1.53-5.78h1.55l1.39,5.81c.32,1.36.63,2.72.8,3.93h.03c.24-1.26.56-2.53.92-3.96l1.51-5.78h1.51l-3.25,11.46h-1.55l-1.44-5.97c-.36-1.46-.6-2.58-.75-3.74h-.03c-.2,1.14-.46,2.26-.88,3.74l-1.63,5.97h-1.55Z"/>
    <path class="st1" d="M107.46,14.31c.03,2.02,1.33,2.86,2.82,2.86,1.07,0,1.72-.19,2.28-.42l.25,1.07c-.53.24-1.43.51-2.74.51-2.53,0-4.05-1.67-4.05-4.15s1.46-4.44,3.86-4.44c2.69,0,3.4,2.36,3.4,3.88,0,.31-.03.54-.05.7h-5.78ZM111.85,13.24c.02-.95-.39-2.43-2.07-2.43-1.51,0-2.18,1.39-2.29,2.43h4.37Z"/>
    <path class="st1" d="M116.81,7.61c.02.51-.36.92-.95.92-.53,0-.9-.41-.9-.92s.39-.93.94-.93.92.41.92.93ZM115.14,18.15v-8.23h1.5v8.23h-1.5Z"/>
    <path class="st1" d="M122,17.29l6.36-9.3v-.05h-5.81v-1.24h7.73v.9l-6.32,9.26v.05h6.41v1.24h-8.36v-.87Z"/>
    <path class="st1" d="M132.13,6.09h1.5v5.13h.03c.24-.42.61-.8,1.07-1.05.44-.25.97-.42,1.53-.42,1.1,0,2.87.68,2.87,3.52v4.9h-1.5v-4.73c0-1.33-.49-2.45-1.9-2.45-.97,0-1.73.68-2,1.5-.08.2-.1.42-.1.71v4.96h-1.5V6.09Z"/>
    <path class="st1" d="M148.45,15.91c0,.85.02,1.6.07,2.24h-1.33l-.08-1.34h-.03c-.39.66-1.26,1.53-2.72,1.53-1.29,0-2.84-.71-2.84-3.6v-4.81h1.5v4.56c0,1.56.48,2.62,1.84,2.62,1,0,1.7-.7,1.97-1.36.08-.22.14-.49.14-.76v-5.05h1.5v5.98Z"/>
  </g>
  <g>
    <path class="st0" d="M30.53,108.51v-2.12h-3.62v-.7l3.48-4.98h1.14v4.85h1.09v.83h-1.09v2.12h-1ZM30.53,105.56v-2.6c0-.41.01-.82.04-1.22h-.04c-.24.46-.43.79-.65,1.15l-1.91,2.65v.02h2.55Z"/>
    <path class="st0" d="M38.49,100.72v.7l-3.39,7.1h-1.09l3.38-6.9v-.02h-3.81v-.88h4.92Z"/>
    <path class="st0" d="M39.49,106.54c0-.98.59-1.68,1.55-2.09v-.04c-.88-.41-1.25-1.08-1.25-1.75,0-1.24,1.04-2.08,2.41-2.08,1.51,0,2.27.95,2.27,1.92,0,.66-.32,1.37-1.28,1.82v.04c.97.38,1.57,1.07,1.57,2.01,0,1.36-1.16,2.27-2.65,2.27-1.63,0-2.61-.97-2.61-2.11ZM43.69,106.49c0-.95-.66-1.4-1.72-1.7-.91.26-1.4.86-1.4,1.61-.04.79.56,1.49,1.56,1.49s1.56-.59,1.56-1.39ZM40.78,102.59c0,.78.59,1.2,1.49,1.44.67-.23,1.19-.71,1.19-1.42,0-.62-.37-1.27-1.32-1.27-.88,0-1.35.58-1.35,1.25Z"/>
    <path class="st0" d="M46.35,107.77c.23.02.49,0,.85-.04.61-.08,1.19-.34,1.63-.76.52-.47.89-1.15,1.03-2.08h-.04c-.43.53-1.06.84-1.83.84-1.4,0-2.3-1.06-2.3-2.39,0-1.48,1.07-2.77,2.66-2.77s2.58,1.29,2.58,3.29c0,1.71-.58,2.92-1.34,3.66-.6.59-1.43.95-2.27,1.04-.38.06-.72.07-.97.06v-.86ZM46.73,103.28c0,.97.59,1.66,1.5,1.66.71,0,1.26-.35,1.54-.82.06-.1.1-.22.1-.38,0-1.33-.49-2.35-1.6-2.35-.9,0-1.54.79-1.54,1.89Z"/>
    <path class="st0" d="M61.62,104.96c-.06-1.13-.13-2.48-.12-3.49h-.04c-.28.95-.61,1.96-1.02,3.07l-1.43,3.92h-.79l-1.31-3.85c-.38-1.14-.71-2.18-.94-3.14h-.02c-.02,1.01-.08,2.36-.16,3.57l-.22,3.47h-1l.56-8.08h1.33l1.38,3.91c.34,1,.61,1.88.82,2.72h.04c.2-.82.49-1.7.85-2.72l1.44-3.91h1.33l.5,8.08h-1.02l-.2-3.55Z"/>
    <path class="st0" d="M68.63,108.3c-.28.14-.89.34-1.67.34-1.75,0-2.89-1.19-2.89-2.96s1.22-3.08,3.12-3.08c.62,0,1.18.16,1.46.3l-.24.82c-.25-.14-.65-.28-1.22-.28-1.33,0-2.05.98-2.05,2.19,0,1.34.86,2.17,2.02,2.17.6,0,1-.16,1.3-.29l.18.79Z"/>
    <path class="st0" d="M69.91,100.43h1.04v3.9h.04c.22-.31.43-.6.64-.86l2.47-3.04h1.3l-2.93,3.43,3.15,4.65h-1.23l-2.66-3.97-.77.89v3.08h-1.04v-8.08Z"/>
    <path class="st0" d="M76.49,104.28c0-.6-.01-1.09-.05-1.57h.94l.06.96h.02c.29-.55.96-1.09,1.92-1.09.8,0,2.05.48,2.05,2.47v3.47h-1.06v-3.35c0-.94-.35-1.72-1.34-1.72-.7,0-1.24.49-1.42,1.08-.05.13-.07.31-.07.49v3.49h-1.06v-4.23Z"/>
    <path class="st0" d="M84.33,101.08c.01.36-.25.65-.67.65-.37,0-.64-.29-.64-.65s.28-.66.66-.66.65.29.65.66ZM83.15,108.51v-5.8h1.06v5.8h-1.06Z"/>
    <path class="st0" d="M90.96,102.71c-.02.42-.05.89-.05,1.59v3.37c0,1.33-.26,2.15-.83,2.65-.56.53-1.38.7-2.11.7s-1.46-.17-1.93-.48l.26-.8c.38.24.98.46,1.7.46,1.08,0,1.87-.56,1.87-2.03v-.65h-.02c-.32.54-.95.97-1.85.97-1.44,0-2.47-1.22-2.47-2.83,0-1.97,1.28-3.08,2.61-3.08,1.01,0,1.56.53,1.81,1.01h.02l.05-.88h.92ZM89.87,105c0-.18-.01-.34-.06-.48-.19-.61-.71-1.12-1.48-1.12-1.01,0-1.73.85-1.73,2.2,0,1.14.58,2.09,1.72,2.09.65,0,1.24-.41,1.46-1.08.06-.18.08-.38.08-.56v-1.04Z"/>
    <path class="st0" d="M92.67,100h1.06v3.62h.02c.17-.3.43-.56.76-.74.31-.18.68-.3,1.08-.3.78,0,2.03.48,2.03,2.48v3.45h-1.06v-3.33c0-.94-.35-1.73-1.34-1.73-.68,0-1.22.48-1.42,1.06-.06.14-.07.3-.07.5v3.5h-1.06v-8.52Z"/>
    <path class="st0" d="M100.55,101.04v1.67h1.51v.8h-1.51v3.13c0,.72.2,1.13.79,1.13.28,0,.48-.04.61-.07l.05.79c-.2.08-.53.14-.94.14-.49,0-.89-.16-1.14-.44-.3-.31-.41-.83-.41-1.51v-3.17h-.9v-.8h.9v-1.39l1.03-.28Z"/>
    <path class="st0" d="M105.83,100.54c.53-.11,1.28-.17,2-.17,1.12,0,1.83.2,2.34.66.41.36.64.91.64,1.54,0,1.07-.67,1.78-1.52,2.06v.04c.62.22,1,.79,1.19,1.63.26,1.13.46,1.91.62,2.22h-1.08c-.13-.23-.31-.92-.54-1.93-.24-1.12-.67-1.54-1.62-1.57h-.98v3.5h-1.04v-7.98ZM106.88,104.22h1.07c1.12,0,1.82-.61,1.82-1.54,0-1.04-.76-1.5-1.86-1.51-.5,0-.86.05-1.03.1v2.95Z"/>
    <path class="st0" d="M117.31,100v7.02c0,.52.01,1.1.05,1.5h-.95l-.05-1.01h-.02c-.32.65-1.03,1.14-1.98,1.14-1.4,0-2.48-1.19-2.48-2.95-.01-1.93,1.19-3.12,2.6-3.12.89,0,1.49.42,1.75.89h.02v-3.47h1.06ZM116.26,105.07c0-.13-.01-.31-.05-.44-.16-.67-.73-1.22-1.52-1.22-1.09,0-1.74.96-1.74,2.24,0,1.17.58,2.15,1.71,2.15.71,0,1.36-.47,1.55-1.26.04-.14.05-.29.05-.46v-1.01Z"/>
    <path class="st0" d="M118.27,109.99c.26-.71.59-1.99.72-2.87l1.18-.12c-.28,1.02-.8,2.35-1.14,2.91l-.75.07Z"/>
    <path class="st0" d="M124.01,100.53c.5-.08,1.16-.16,2-.16,1.03,0,1.79.24,2.27.67.44.38.71.97.71,1.69s-.22,1.31-.62,1.73c-.55.59-1.45.89-2.47.89-.31,0-.6-.01-.84-.07v3.24h-1.04v-7.99ZM125.06,104.42c.23.06.52.08.86.08,1.26,0,2.03-.61,2.03-1.73s-.76-1.58-1.91-1.58c-.46,0-.8.04-.98.08v3.14Z"/>
    <path class="st0" d="M131.34,101.08c.01.36-.25.65-.67.65-.37,0-.64-.29-.64-.65s.28-.66.66-.66.65.29.65.66ZM130.17,108.51v-5.8h1.05v5.8h-1.05Z"/>
    <path class="st0" d="M134.25,101.04v1.67h1.51v.8h-1.51v3.13c0,.72.2,1.13.79,1.13.28,0,.48-.04.61-.07l.05.79c-.2.08-.53.14-.94.14-.49,0-.89-.16-1.14-.44-.3-.31-.41-.83-.41-1.51v-3.17h-.9v-.8h.9v-1.39l1.03-.28Z"/>
    <path class="st0" d="M138.22,101.04v1.67h1.51v.8h-1.51v3.13c0,.72.2,1.13.79,1.13.28,0,.48-.04.61-.07l.05.79c-.2.08-.53.14-.94.14-.49,0-.89-.16-1.14-.44-.3-.31-.41-.83-.41-1.51v-3.17h-.9v-.8h.9v-1.39l1.03-.28Z"/>
    <path class="st0" d="M140.78,107.43c.31.2.86.42,1.39.42.77,0,1.13-.38,1.13-.86s-.3-.78-1.08-1.07c-1.04-.37-1.54-.95-1.54-1.64,0-.94.76-1.7,2-1.7.59,0,1.1.17,1.43.36l-.26.77c-.23-.14-.65-.34-1.19-.34-.62,0-.97.36-.97.79,0,.48.35.7,1.1.98,1.01.38,1.52.89,1.52,1.75,0,1.02-.79,1.74-2.17,1.74-.64,0-1.22-.16-1.63-.4l.26-.8Z"/>
    <path class="st0" d="M145.62,108.51c.02-.4.05-.98.05-1.5v-7.02h1.04v3.65h.02c.37-.65,1.04-1.07,1.98-1.07,1.44,0,2.46,1.2,2.45,2.96,0,2.08-1.31,3.11-2.6,3.11-.84,0-1.51-.32-1.94-1.09h-.04l-.05.96h-.91ZM146.71,106.19c0,.13.02.26.05.38.2.73.82,1.24,1.58,1.24,1.1,0,1.76-.9,1.76-2.23,0-1.16-.6-2.16-1.73-2.16-.72,0-1.39.49-1.61,1.3-.02.12-.06.26-.06.43v1.04Z"/>
    <path class="st0" d="M157.36,106.93c0,.6.01,1.13.05,1.58h-.94l-.06-.95h-.02c-.28.47-.89,1.08-1.92,1.08-.91,0-2-.5-2-2.54v-3.39h1.05v3.21c0,1.1.34,1.85,1.3,1.85.71,0,1.2-.49,1.39-.96.06-.16.1-.35.1-.54v-3.56h1.05v4.22Z"/>
    <path class="st0" d="M159.11,104.52c0-.68-.01-1.27-.05-1.81h.92l.04,1.14h.05c.26-.78.9-1.27,1.61-1.27.12,0,.2.01.3.04v1c-.11-.02-.22-.04-.36-.04-.74,0-1.27.56-1.42,1.36-.02.14-.05.31-.05.49v3.09h-1.04v-3.99Z"/>
    <path class="st0" d="M167.94,102.71c-.02.42-.05.89-.05,1.59v3.37c0,1.33-.26,2.15-.83,2.65-.56.53-1.38.7-2.11.7s-1.46-.17-1.93-.48l.26-.8c.38.24.98.46,1.7.46,1.08,0,1.87-.56,1.87-2.03v-.65h-.02c-.32.54-.95.97-1.85.97-1.44,0-2.47-1.22-2.47-2.83,0-1.97,1.28-3.08,2.61-3.08,1.01,0,1.56.53,1.81,1.01h.02l.05-.88h.92ZM166.85,105c0-.18-.01-.34-.06-.48-.19-.61-.71-1.12-1.48-1.12-1.01,0-1.73.85-1.73,2.2,0,1.14.58,2.09,1.71,2.09.65,0,1.24-.41,1.46-1.08.06-.18.08-.38.08-.56v-1.04Z"/>
    <path class="st0" d="M169.65,100h1.05v3.62h.02c.17-.3.43-.56.76-.74.31-.18.68-.3,1.08-.3.78,0,2.03.48,2.03,2.48v3.45h-1.05v-3.33c0-.94-.35-1.73-1.34-1.73-.68,0-1.22.48-1.42,1.06-.06.14-.07.3-.07.5v3.5h-1.05v-8.52Z"/>
    <path class="st0" d="M175.62,109.99c.26-.71.59-1.99.72-2.87l1.18-.12c-.28,1.02-.8,2.35-1.14,2.91l-.76.07Z"/>
    <path class="st0" d="M181.37,100.53c.5-.08,1.16-.16,2-.16,1.03,0,1.79.24,2.27.67.44.38.71.97.71,1.69s-.22,1.31-.62,1.73c-.55.59-1.45.89-2.47.89-.31,0-.6-.01-.84-.07v3.24h-1.04v-7.99ZM182.42,104.42c.23.06.52.08.86.08,1.26,0,2.03-.61,2.03-1.73s-.76-1.58-1.91-1.58c-.46,0-.8.04-.98.08v3.14Z"/>
    <path class="st0" d="M188.05,105.97l-.84,2.54h-1.08l2.75-8.08h1.26l2.76,8.08h-1.12l-.86-2.54h-2.87ZM190.71,105.16l-.79-2.33c-.18-.53-.3-1.01-.42-1.48h-.02c-.12.48-.25.97-.41,1.46l-.79,2.34h2.43Z"/>
    <path class="st0" d="M198.55,101.7h-.02l-1.36.73-.2-.8,1.7-.91h.9v7.8h-1.02v-6.81Z"/>
    <path class="st0" d="M207.07,101.61h-2.97l-.3,2c.18-.02.35-.05.64-.05.6,0,1.2.13,1.68.42.61.35,1.12,1.02,1.12,2,0,1.52-1.21,2.66-2.9,2.66-.85,0-1.57-.24-1.94-.48l.26-.8c.32.19.96.43,1.67.43,1,0,1.85-.65,1.85-1.69-.01-1.01-.68-1.73-2.24-1.73-.44,0-.79.05-1.08.08l.5-3.74h3.73v.89Z"/>
    <path class="st0" d="M208.58,108.51v-.65l.83-.8c1.99-1.89,2.89-2.9,2.9-4.08,0-.79-.38-1.52-1.55-1.52-.71,0-1.3.36-1.66.66l-.34-.74c.54-.46,1.31-.79,2.21-.79,1.68,0,2.39,1.15,2.39,2.27,0,1.44-1.04,2.6-2.69,4.19l-.62.58v.02h3.5v.88h-4.98Z"/>
    <path class="st0" d="M214.98,107.3c.3.19,1,.49,1.73.49,1.36,0,1.78-.86,1.76-1.51-.01-1.09-1-1.56-2.01-1.56h-.59v-.79h.59c.77,0,1.74-.4,1.74-1.32,0-.62-.4-1.18-1.37-1.18-.62,0-1.22.28-1.56.52l-.28-.77c.41-.3,1.2-.6,2.04-.6,1.54,0,2.23.91,2.23,1.86,0,.8-.48,1.49-1.44,1.83v.02c.96.19,1.74.91,1.74,2,0,1.25-.97,2.34-2.84,2.34-.88,0-1.64-.28-2.03-.53l.29-.82Z"/>
    <path class="st0" d="M225.95,100.72v.7l-3.39,7.1h-1.09l3.38-6.9v-.02h-3.81v-.88h4.92Z"/>
  </g>
  <rect class="st2" x="44.26" y="23.63" width="160.55" height="69.82"/>
  <path class="st6" d="M60.8,39.72s1.66-3.79-4.25-2.35c0,0-10.13,4.26-10.31,14.59s8.18,13.82,8.18,13.82c0,0,12.62,2.4,9.54-6.07,0,0-2.38-1.56-4.81,1.29,0,0-4.7,3.64-8.12-2,0,0-1.94-7,1.76-13.09,0,0,3.15-4.76,6.18-5.52,0,0,1.62.25,1.83-.66Z"/>
  <path class="st6" d="M66.29,39.93s3.01-2.33,3.95.52c0,0,5.48,8.68-.28,25.49,0,0-3.78,1.45-2.51-2.22s1.71-20.82-1.16-23.79Z"/>
  <path class="st6" d="M80.02,61.3s-.88,8.47,5.14,4.03c0,0-3.09-9.91,4.03-25.8,0,0,.69-7.95-5,1.17,0,0-5.08,8.18-4.16,20.61Z"/>
  <path class="st6" d="M96.22,39.46s-1.86-3.22,1.38-5.01,4.12,15.58,4.12,15.58c0,0,1.45,11.57-.97,16.07,0,0-7.46,3.55-4.87-1.25,0,0,2.86-13.38.33-25.39Z"/>
  <path class="st6" d="M115.12,38.02s2.24-3.74,3.15-.98c0,0-2.52,19.13,0,27.76,0,0-2.58,3.94-4.3,0s-.64-21.03,1.15-26.79Z"/>
  <path class="st6" d="M131.79,37.05s3.54-1.87,3.98-.07c0,0-6.34,17.17-4.03,35.15,0,0-4.31,6.02-4.27-8.03,0,0-.5-18.88,4.31-27.06Z"/>
  <path class="st6" d="M153.67,38.72s1.7-2.01-2.67-2.17-6.91,2.17-6.91,2.17c0,0-13.82,8-4.85,22.67,0,0,4.66,7.78,12.59,4.22,0,0,3.82-2.47,2.15-5.06,0,0-1.49-2.01-4.01.35,0,0-7,4.3-9.15-2.06-2.15-6.36,2.18-12.61,2.18-12.61,0,0,4-5.67,10.67-7.52Z"/>
  <path class="st6" d="M163.41,43.34s2.83-2.86,4.19,1.14c0,0,2.58,12.24-4.19,15.27,0,0-2.19-1.67,0-16.41Z"/>
  <path class="st6" d="M185.29,36.67s2.51-2.07,4,1.73c0,0-8.85,20.39,4,26.96,0,0-.25,1.55-4,0s-13.29-9.92-4-28.69Z"/>
  <path class="st5" d="M62.83,49.92s.6,2.87,1.24,3.2,8.15,3.41,22.27.54c0,0,6.63-4.23-.43-3.74,0,0-14.91,2.39-22.06-.04,0,0-.84-.82-1.02.04Z"/>
  <path class="st5" d="M88.31,37.11s.15-1.38,2.99.96c0,0,6.92,2.98,15.38,1.46,0,0,16.13-2.62,4.34,3.45,0,0-14.61,3.75-21.1-2.79,0,0-3-2.51-1.6-3.09Z"/>
  <path class="st5" d="M91.95,49.32s1.38,3.88,2.41,4.09c0,0,2.88,1.52,10.49-.48,0,0,7.66-3.29.66-4.03,0,0-8.91,1.93-13.56.41Z"/>
  <path class="st5" d="M90.38,59.25s2.26,4.29,3.07,4.59c0,0,7.09,3.91,14.42,1.09,0,0,10.33-4.48.85-3.58,0,0-14.93.85-18.35-2.1Z"/>
  <path class="st5" d="M133.03,66.89s3.77-1.78,3.28-4c0,0-16.46-19.04-16.66-21.01,0,0-4.08-1.67-.68,5.41s10.3,17.2,14.06,19.61Z"/>
  <path class="st5" d="M142.57,48.37s.04,3.98,1.95,4.59c0,0,3.38.16,4.05-.19,0,0-6.99,9.34-4.48,16.56,0,0,1.58,1.65,4.11.14,0,0,1.16-15.62,4.6-17.61,0,0,12.17-3.45,5.71-4.54,0,0-10.49,2.41-15.95,1.05Z"/>
  <path class="st5" d="M160.36,41.48s-2.24-2.24-1.57-2.85c0,0,23.85-9.52,19.58,12.03,0,0-.91,10.7-14.5,15.43,0,0-5.15-.14-1.11-3.28,0,0,17.4-11.68,12.52-20.46,0,0-4.26-3.77-14.92-.87Z"/>
  <path class="st5" d="M159.21,47.02s.42,4,1.58,4.52c0,0,7.18-.3,9.58-2.26,0,0,5.69-2.93-2.28-2.26h-8.88Z"/>
  <path class="st5" d="M178.47,46.92s-.55,2.45,1.45,4.12c0,0,4.5.93,9.21-1,0,0,4.49-2.75-.36-3.72,0,0-6.24,1.19-10.3.6Z"/>
  <path class="st5" d="M191.26,60.37s.03,1.87,3.59,2.25c0,0,8.45.12,7.95-17.92,0,0-.41-7.88-3.43-5.94,0,0-1.44,16.99-6.41,21.45,0,0-1.52-.98-1.7.16Z"/>
  <g>
    <path class="st3" d="M92.79,81.74v.88h-3.35v-.88h3.35Z"/>
    <path class="st3" d="M101.37,85.44c-.53.19-1.57.5-2.81.5-1.38,0-2.52-.35-3.42-1.21-.79-.76-1.28-1.98-1.28-3.41.01-2.73,1.89-4.72,4.95-4.72,1.06,0,1.89.23,2.28.42l-.29.96c-.49-.22-1.1-.39-2.02-.39-2.22,0-3.68,1.38-3.68,3.68s1.4,3.69,3.53,3.69c.77,0,1.3-.11,1.57-.24v-2.73h-1.86v-.95h3.01v4.39Z"/>
    <path class="st3" d="M110.99,81.18c0,3.15-1.91,4.82-4.25,4.82s-4.11-1.87-4.11-4.64,1.8-4.8,4.25-4.8,4.11,1.91,4.11,4.63ZM103.89,81.33c0,1.95,1.06,3.7,2.92,3.7s2.93-1.72,2.93-3.8c0-1.82-.95-3.72-2.92-3.72s-2.93,1.8-2.93,3.81Z"/>
    <path class="st3" d="M113.69,76.7v5.41c0,2.05.91,2.92,2.13,2.92,1.36,0,2.22-.9,2.22-2.92v-5.41h1.19v5.33c0,2.81-1.48,3.96-3.46,3.96-1.87,0-3.28-1.07-3.28-3.91v-5.38h1.19Z"/>
    <path class="st3" d="M121.29,76.83c.6-.12,1.45-.19,2.27-.19,1.26,0,2.08.23,2.65.75.46.41.72,1.03.72,1.74,0,1.21-.76,2.01-1.72,2.33v.04c.71.24,1.13.9,1.34,1.84.3,1.28.52,2.16.71,2.51h-1.22c-.15-.26-.35-1.04-.61-2.18-.27-1.26-.76-1.74-1.83-1.78h-1.11v3.96h-1.18v-9.02ZM122.47,80.99h1.21c1.26,0,2.06-.69,2.06-1.74,0-1.18-.85-1.7-2.1-1.71-.57,0-.98.05-1.17.11v3.34Z"/>
    <path class="st3" d="M136.29,81.83c-.07-1.27-.15-2.81-.14-3.95h-.04c-.31,1.07-.69,2.21-1.15,3.47l-1.61,4.44h-.9l-1.48-4.35c-.43-1.29-.8-2.47-1.06-3.55h-.03c-.03,1.14-.09,2.67-.18,4.04l-.24,3.92h-1.13l.64-9.14h1.51l1.56,4.42c.38,1.13.69,2.13.92,3.08h.04c.23-.92.56-1.93.96-3.08l1.63-4.42h1.51l.57,9.14h-1.15l-.23-4.02Z"/>
    <path class="st3" d="M144.21,81.56h-3.55v3.3h3.96v.99h-5.14v-9.14h4.94v.99h-3.76v2.89h3.55v.98Z"/>
    <path class="st3" d="M148.1,77.71h-2.78v-1h6.77v1h-2.79v8.14h-1.19v-8.14Z"/>
    <path class="st3" d="M155.14,81.74v.88h-3.35v-.88h3.35Z"/>
  </g>
</svg>