<?xml version="1.0" encoding="UTF-8"?>
<svg xmlns="http://www.w3.org/2000/svg" version="1.1" viewBox="0 0 612 792">
  <!-- Generator: Adobe Illustrator 29.5.1, SVG Export Plug-In . SVG Version: 2.1.0 Build 141)  -->
  <defs>
    <style>
      .st0 {
        fill: none;
        stroke: #383e60;
        stroke-miterlimit: 10;
        stroke-width: 2px;
      }

      .st1 {
        fill: #8b626c;
        font-family: MyriadPro-Regular, 'Myriad Pro';
        font-size: 29.66px;
      }

      .st2 {
        fill: #e8deb9;
      }

      .st3 {
        fill: #cec2ab;
      }

      .st4 {
        fill: #5f475c;
      }

      .st5 {
        fill: #383e60;
      }
    </style>
  </defs>
  <g id="Layer_2">
    <rect class="st5" width="612" height="792"/>
  </g>
  <g id="Layer_4">
    <path class="st2" d="M612,0v283.02c-10.3,7.38-20.91,15.77-31.57,25.33-1,.89-1.99,1.79-2.99,2.7-.32.3-.65.59-.97.9h0c-.1.1-.19.18-.29.27-2.57,2.37-5.07,4.75-7.52,7.17-.6.57-1.2,1.16-1.79,1.76-.59.59-1.18,1.17-1.77,1.76-1.17,1.18-2.33,2.35-3.48,3.53-1.54,1.59-3.05,3.19-4.55,4.78-1.42,1.52-2.83,3.05-4.21,4.57-1.91,2.11-3.77,4.21-5.59,6.32-.68.78-1.35,1.56-2.01,2.34-1.65,1.94-3.27,3.87-4.85,5.81-.73.89-1.45,1.78-2.16,2.67-.15.19-.29.37-.43.55-.85,1.07-1.69,2.14-2.53,3.21-.26.34-.53.68-.79,1.02-.19.24-.37.47-.55.71-.2.25-.39.5-.58.76h-.01c-22.56,29.42-37.65,58.08-47.7,81.1-.01.01-.01.02-.01.03-.22.51-.44,1.02-.65,1.52,0,.01-.01.01-.01.01-.22.52-.45,1.03-.67,1.55-.04.1-.08.21-.13.31-1.31,3.08-2.53,6.05-3.66,8.89-6.19,12.55-13.53,28.95-20.42,48.76h0c-.26.76-.52,1.51-.78,2.27-.08.21-.15.42-.22.64h0c-2.82,8.31-5.56,17.18-8.09,26.59-3.19,11.88-7.65,28.85-10.95,49.92-.04.25-.08.49-.11.74h0c-.02.12-.04.22-.05.33-2.76,17.95-4.66,38.82-4.25,62.02,0,.28,0,.56,0,.85h0s0,.06.01.09h0c.28,13.64,1.36,28.08,3.54,43.19.97,6.71,2.26,14.31,4.04,22.66.05.25.1.5.16.75v.03c2.63,12.27,6.28,26.12,11.42,41.1.06.19.13.35.2.54-.01,0,0,.02,0,.02.2.62.42,1.24.64,1.86,4.12,11.75,9.16,24.17,15.34,37.05H0v-173.25c7.47-12.27,15.63-24.89,24.51-37.77h.01c.16-.26.33-.5.51-.75.93-1.36,1.88-2.72,2.84-4.09,6.93-9.9,14.3-19.92,22.12-30.03,1.11-1.45,2.23-2.89,3.38-4.34.7-.89,1.41-1.78,2.11-2.67,2.32-2.94,4.7-5.89,7.12-8.85.84-1.03,1.69-2.06,2.55-3.09,0-.02.04-.05.07-.08h.01c.1-.14.21-.27.32-.41.1-.14.22-.27.34-.41h.01s.04-.07.07-.1c.02-.04.05-.07.09-.11.66-.8,1.32-1.6,2-2.4.92-1.1,1.85-2.21,2.78-3.31,2.79-3.31,5.64-6.62,8.54-9.93,1.87-2.15,3.77-4.3,5.69-6.44.86-.97,1.73-1.93,2.61-2.9.72-.8,1.45-1.6,2.18-2.4,1.6-1.76,3.22-3.52,4.86-5.28,1.21-1.3,2.43-2.61,3.66-3.92,2.72-2.89,5.49-5.79,8.3-8.68,1.4-1.45,2.81-2.9,4.24-4.34.33-.35.68-.69,1.03-1.04.38-.39.76-.78,1.16-1.16.38-.4.77-.8,1.17-1.19.55-.55,1.1-1.11,1.66-1.66,4.65-4.63,9.4-9.24,14.27-13.84,8.61-8.14,17.78-16.8,27.78-25.77h.01c.06-.07.13-.13.2-.2h.01c.21-.19.43-.39.65-.58.08-.07.16-.14.24-.22h.01c17.19-15.36,36.86-31.61,60.42-47.66h0c.28-.2.56-.39.85-.58.39-.27.79-.54,1.19-.8h.06c13.7-9.25,28.64-18.41,45.21-27.3,3.11-1.67,6.1-3.23,8.99-4.7.31-.17.61-.32.92-.47h.01c.33-.18.65-.35.98-.5h.01c.11-.07.22-.12.32-.17.01-.01.02-.02.04-.03,33.8-17.03,53.63-21.81,85.71-36.56h.02c.19-.09.39-.18.59-.27h.01s.05-.03.08-.04h0c12.48-5.76,26.82-13.03,44.55-23.1,3.34-1.9,6.58-3.77,9.73-5.62.3-.18.61-.35.91-.53.25-.15.51-.3.76-.45.2-.12.4-.24.6-.36,14.12-8.35,26.33-16.2,36.9-23.52.47-.32.94-.65,1.4-.97.97-.67,1.91-1.34,2.85-2.01.01,0,.01,0,.02,0,19.55-13.82,33.11-25.58,42.58-34.91,0,0,0,0,.02-.01.97-.97,1.9-1.9,2.79-2.81.64-.65,1.25-1.29,1.85-1.91.99-1.03,1.92-2.03,2.79-2.98.3-.32.59-.64.86-.95,1.07-1.18,2.04-2.29,2.94-3.33.25-.28.48-.55.7-.82.45-.53.89-1.05,1.31-1.55.41-.5.81-.99,1.19-1.45.21-.27.43-.53.64-.79.15-.19.29-.37.44-.55.41-.5.79-.97,1.14-1.42,1.88-2.39,3.92-5.05,6.05-7.98.04-.05.09-.11.13-.17.08-.11.17-.23.26-.35.3-.42.6-.84.91-1.27,9.25-12.9,20.19-30.58,29.18-52.65.13-.31.26-.63.38-.95.03-.06.05-.12.07-.18.03-.05.05-.09.06-.14,3.58-8.92,6.84-18.55,9.54-28.86,3.12-11.9,6.54-25.39,7.43-40.53h0c.03-.5.06-.99.08-1.49v-.08c.02-.26.03-.53.04-.8.43-10.93-.49-22.7-3.82-35.36-3.26-12.4-8.06-22.74-12.75-30.85h52.93Z"/>
  </g>
  <g id="Layer_1">
    <rect class="st2" x="120.93" y="29.01" width="351.16" height="152.71"/>
    <path class="st5" d="M157.13,64.21s3.63-8.29-9.3-5.15c0,0-22.15,9.31-22.54,31.91-.4,22.6,17.9,30.22,17.9,30.22,0,0,27.6,5.24,20.86-13.29,0,0-5.21-3.42-10.52,2.81,0,0-10.27,7.95-17.76-4.37,0,0-4.24-15.31,3.84-28.63,0,0,6.89-10.41,13.52-12.06,0,0,3.55.55,4.01-1.45Z"/>
    <path class="st5" d="M169.14,64.66s6.59-5.1,8.64,1.13c0,0,11.98,18.99-.6,55.76,0,0-8.28,3.16-5.49-4.86,2.78-8.02,3.73-45.54-2.54-52.03Z"/>
    <path class="st5" d="M199.16,111.39s-1.93,18.54,11.24,8.8c0,0-6.77-21.68,8.8-56.44,0,0,1.52-17.39-10.94,2.56,0,0-11.12,17.9-9.11,45.07Z"/>
    <path class="st5" d="M234.6,63.62s-4.07-7.05,3.03-10.96c7.09-3.91,9.01,34.07,9.01,34.07,0,0,3.18,25.3-2.12,35.15,0,0-16.31,7.75-10.64-2.73,0,0,6.25-29.27.72-55.53Z"/>
    <path class="st5" d="M275.94,60.49s4.9-8.18,6.89-2.14c0,0-5.5,41.84,0,60.73,0,0-5.63,8.62-9.41,0-3.78-8.62-1.39-46,2.52-58.59Z"/>
    <path class="st5" d="M312.4,58.35s7.75-4.08,8.71-.15c0,0-13.87,37.56-8.8,76.89,0,0-9.44,13.17-9.35-17.56,0,0-1.1-41.3,9.44-59.18Z"/>
    <path class="st5" d="M360.25,62.01s3.71-4.4-5.83-4.75c-9.54-.35-15.11,4.75-15.11,4.75,0,0-30.22,17.5-10.61,49.58,0,0,10.2,17.02,27.54,9.24,0,0,8.36-5.4,4.7-11.06,0,0-3.27-4.41-8.77.76,0,0-15.31,9.41-20.02-4.51-4.71-13.92,4.77-27.57,4.77-27.57,0,0,8.75-12.39,23.33-16.44Z"/>
    <path class="st5" d="M381.57,72.11s6.19-6.26,9.18,2.49c0,0,5.64,26.78-9.18,33.41,0,0-4.8-3.66,0-35.9Z"/>
    <path class="st5" d="M429.42,57.53s5.49-4.52,8.76,3.79c0,0-19.35,44.59,8.76,58.97,0,0-.56,3.39-8.76,0-8.2-3.39-29.07-21.71-8.76-62.76Z"/>
    <path class="st4" d="M161.55,86.51s1.32,6.29,2.71,7,17.83,7.47,48.72,1.17c0,0,14.51-9.25-.93-8.17,0,0-32.61,5.24-48.25-.09,0,0-1.83-1.79-2.24.09Z"/>
    <path class="st4" d="M217.28,58.5s.34-3.03,6.53,2.1c0,0,15.14,6.52,33.64,3.2,0,0,35.27-5.73,9.48,7.54,0,0-31.96,8.21-46.14-6.1,0,0-6.56-5.49-3.51-6.75Z"/>
    <path class="st4" d="M225.26,85.2s3.03,8.49,5.28,8.95c0,0,6.31,3.33,22.94-1.05,0,0,16.75-7.19,1.44-8.8,0,0-19.5,4.21-29.66.9Z"/>
    <path class="st4" d="M221.83,106.92s4.93,9.37,6.72,10.04c0,0,15.51,8.55,31.55,2.39,0,0,22.6-9.81,1.86-7.82,0,0-32.67,1.86-40.13-4.6Z"/>
    <path class="st4" d="M315.11,123.63s8.25-3.89,7.18-8.76c0,0-36.01-41.65-36.44-45.96,0,0-8.91-3.65-1.49,11.83,7.42,15.48,22.52,37.63,30.75,42.89Z"/>
    <path class="st4" d="M335.96,83.13s.09,8.71,4.27,10.04c0,0,7.4.35,8.87-.42,0,0-15.3,20.44-9.8,36.21,0,0,3.45,3.61,8.98.31,0,0,2.54-34.16,10.07-38.51,0,0,26.62-7.54,12.5-9.92,0,0-22.94,5.27-34.89,2.29Z"/>
    <path class="st4" d="M374.88,68.05s-4.89-4.9-3.43-6.23c0,0,52.17-20.82,42.82,26.31,0,0-1.98,23.4-31.71,33.74,0,0-11.27-.3-2.44-7.18,0,0,38.06-25.54,27.39-44.74,0,0-9.31-8.26-32.63-1.9Z"/>
    <path class="st4" d="M372.38,80.17s.93,8.76,3.45,9.88c0,0,15.71-.66,20.95-4.94,0,0,12.45-6.4-4.98-4.94h-19.41Z"/>
    <path class="st4" d="M414.5,79.96s-1.19,5.36,3.18,9.02c0,0,9.85,2.03,20.14-2.19,0,0,9.82-6.01-.78-8.13,0,0-13.65,2.61-22.54,1.3Z"/>
    <path class="st4" d="M442.47,109.36s.07,4.09,7.86,4.92c0,0,18.49.27,17.38-39.19,0,0-.89-17.24-7.49-13,0,0-3.16,37.17-14.03,46.92,0,0-3.32-2.15-3.71.35Z"/>
    <text class="st1" transform="translate(218.56 165.09)"><tspan x="0" y="0">-GOURMET-</tspan></text>
  </g>
  <g id="Layer_3">
    <path class="st5" d="M576.49,66.04l-.05,1.24c-.02.43-.05.91-.07,1.38v.15c-.92,15.73-4.56,29.6-7.47,40.74-2.54,9.72-5.74,19.39-9.49,28.75,0,.01,0,.02,0,.03v.41l-.22.12c-.08.21-.17.43-.25.65-7.5,18.47-17.34,36.28-29.25,52.92-.32.44-.63.87-.93,1.28-.11.17-.2.29-.28.4-.06.07-.08.1-.1.13-1.96,2.69-3.99,5.36-6.23,8.22l-.98,1.24c-.13.16-.24.29-.35.43l-.34.41c-.13.17-.26.33-.39.49l-1.21,1.47c-.43.51-.87,1.04-1.32,1.57l-.7.82c-.91,1.05-1.88,2.17-2.96,3.35-.26.31-.56.64-.87.96-.87.95-1.8,1.96-2.8,2.99-.58.62-1.2,1.27-1.86,1.93-11.88,12.17-27.15,24.9-45.37,37.81-.96.69-1.95,1.38-2.94,2.06-.45.32-.9.64-1.37.96-11.29,7.82-23.8,15.8-37.17,23.71l-1.18.7c-.14.08-.29.17-.43.26l-.41.23c-3.27,1.92-6.65,3.88-10.07,5.82-15.95,9.06-30.42,16.56-44.21,22.95h-.01l-.93.42c-13.94,6.4-25.66,10.97-36.99,15.39-15.28,5.95-29.71,11.58-48.93,21.27-.11.05-.17.08-.23.11-.32.16-.62.31-.92.47l-1.04.52c-3,1.55-6.03,3.13-9,4.72-15.47,8.3-30.58,17.41-44.9,27.06-.41.27-.8.53-1.2.81-.28.19-.55.37-.8.54-20.46,13.92-39.7,29.07-60.54,47.71-.08.06-.13.1-.17.15-.25.21-.42.37-.6.52-.07.07-.15.15-.24.22-10.06,9.01-19.15,17.6-27.95,25.91-4.94,4.68-9.68,9.28-14.13,13.71l-1.65,1.65c-.78.77-1.54,1.53-2.29,2.31-.36.35-.69.68-1.01,1.01-1.46,1.47-2.88,2.92-4.28,4.37-2.69,2.76-5.48,5.67-8.29,8.67-1.24,1.3-2.46,2.6-3.65,3.91-1.65,1.76-3.26,3.52-4.86,5.27-.74.81-1.46,1.6-2.18,2.4-.88.97-1.74,1.93-2.6,2.89-1.92,2.14-3.82,4.29-5.69,6.44-2.96,3.37-5.82,6.71-8.53,9.91-.94,1.11-1.85,2.2-2.77,3.31-.67.79-1.31,1.56-1.95,2.34l-.32.39c-.07.08-.14.15-.2.23l-2.98,3.63c-2.64,3.23-4.97,6.12-7.11,8.84-.73.89-1.42,1.78-2.11,2.66-1.15,1.46-2.27,2.89-3.38,4.34-7.6,9.8-15.05,19.9-22.13,30-.95,1.35-1.88,2.69-2.81,4.04-.11.15-.21.3-.31.45l-.18.27c-8.42,12.17-16.66,24.86-24.5,37.72l-1.7-1.04c7.83-12.84,16.06-25.52,24.46-37.68l.09-.13c.16-.25.33-.49.5-.74.93-1.34,1.86-2.68,2.81-4.04,7.1-10.13,14.57-20.25,22.19-30.07,1.11-1.45,2.23-2.9,3.39-4.35.68-.89,1.39-1.78,2.11-2.68,2.15-2.72,4.48-5.62,7.13-8.85l2.96-3.6c.04-.06.15-.19.26-.31l.04-.05s.06-.09.09-.12c.07-.09.13-.16.17-.2.63-.77,1.28-1.55,1.95-2.34.91-1.1,1.84-2.21,2.78-3.31,2.7-3.21,5.58-6.55,8.55-9.94,1.87-2.15,3.77-4.3,5.7-6.45.85-.97,1.73-1.93,2.61-2.9.72-.8,1.44-1.61,2.19-2.41,1.59-1.76,3.22-3.52,4.86-5.28,1.2-1.31,2.42-2.61,3.66-3.93,2.82-2.99,5.62-5.92,8.31-8.69,1.42-1.45,2.84-2.9,4.28-4.35.32-.35.67-.7,1.03-1.05.75-.76,1.51-1.54,2.3-2.31l1.64-1.65c4.47-4.44,9.23-9.06,14.14-13.71,8.84-8.35,17.95-16.95,28.03-25.98.08-.07.12-.11.17-.16.26-.23.45-.39.64-.56.02-.03.11-.1.19-.17,20.92-18.7,40.22-33.91,60.75-47.87.26-.18.53-.36.81-.54.38-.27.79-.55,1.21-.83,14.37-9.68,29.53-18.82,45.07-27.15,2.97-1.59,6.01-3.19,9.03-4.74l1.04-.52c.31-.16.63-.33.94-.48.09-.04.19-.09.28-.13,19.25-9.71,33.72-15.35,49.04-21.32,11.36-4.43,23.11-9.01,37.08-15.44l.39-.17.16-.17h.23c13.73-6.36,28.13-13.84,44.03-22.86,3.4-1.94,6.78-3.88,10.02-5.79.14-.08.29-.17.43-.26l1.59-.93c13.35-7.9,25.81-15.85,37.07-23.65.46-.31.91-.63,1.35-.95,1-.68,1.97-1.37,2.93-2.05,18.13-12.85,33.3-25.49,45.1-37.59.65-.65,1.27-1.28,1.84-1.89.99-1.04,1.92-2.03,2.78-2.98.3-.31.58-.63.85-.93,1.07-1.19,2.04-2.29,2.93-3.32l.7-.82c.45-.53.89-1.04,1.3-1.54l1.19-1.45c.12-.15.27-.33.41-.5l.31-.39c.12-.15.24-.3.36-.45l.97-1.22c2.22-2.83,4.24-5.49,6.16-8.12.04-.05.1-.14.17-.23.04-.05.11-.15.18-.25.35-.5.66-.93.99-1.37,11.8-16.5,21.57-34.17,29-52.5.11-.27.23-.55.33-.83v-.07l.2-.42c3.7-9.24,6.85-18.79,9.36-28.38,2.9-11.06,6.5-24.83,7.4-40.36v-.14c.04-.47.06-.93.08-1.4v-.16c.01-.07.02-.14.02-.21l.03-.81c.44-11.95-.8-23.29-3.8-34.68-2.81-10.68-7.1-21.04-12.76-30.79-.1-.17-.19-.34-.3-.5h2.31c5.62,9.76,9.88,20.11,12.69,30.79,3.04,11.57,4.31,23.11,3.86,35.25Z"/>
    <path class="st0" d="M612,283.08c-10.28,7.37-20.88,15.74-31.53,25.26-1.01.91-2.02,1.82-3.03,2.74-.33.31-.66.61-.99.92-.15.13-.29.26-.44.4-2.51,2.32-4.96,4.65-7.36,6.99-.6.59-1.2,1.17-1.79,1.76s-1.18,1.17-1.77,1.76c-1.17,1.18-2.33,2.35-3.48,3.53-1.54,1.59-3.05,3.19-4.55,4.78-1.42,1.52-2.83,3.05-4.21,4.57-1.91,2.11-3.77,4.21-5.59,6.32-.68.78-1.35,1.56-2.01,2.34-1.65,1.94-3.27,3.87-4.85,5.81-.73.89-1.45,1.78-2.16,2.67-.15.19-.29.37-.43.55-.86,1.06-1.7,2.12-2.52,3.18-.27.34-.54.69-.8,1.03-.19.24-.37.47-.55.71-.19.25-.37.48-.57.73h-.01c-22.47,29.27-37.55,57.79-47.62,80.76,0,0-.01,0-.01.01-.25.57-.5,1.13-.74,1.69.01.01,0,.01,0,.01-.26.61-.53,1.22-.78,1.82-.05.12-.11.24-.15.36-.01,0-.01.01-.01.01-1.33,3.11-2.56,6.11-3.7,8.99-6.18,12.52-13.5,28.9-20.38,48.67-.26.73-.51,1.47-.76,2.22-.09.25-.18.5-.26.75-2.83,8.31-5.56,17.19-8.1,26.62-3.18,11.82-7.6,28.68-10.9,49.6-.05.31-.09.62-.14.93-.01.04-.01.07-.02.11-2.79,18.01-4.72,39-4.3,62.34,0,.33.01.66.02,1h0v.03h0c.28,13.62,1.36,28.04,3.54,43.13.96,6.64,2.24,14.15,3.98,22.4l.12.57s.01,0,0,.01c.04.19.08.38.13.57,2.62,12.26,6.27,26.1,11.42,41.06.08.24.16.48.25.72h0c.2.59.4,1.18.61,1.77,4.09,11.65,9.09,23.96,15.2,36.72"/>
    <path class="st3" d="M438.1,583.36c2.44-2.6,4.53-5.48,6.35-8.51,1.9-2.98,3.46-6.16,4.96-9.35,2.91-6.43,5.04-13.18,6.66-20.05l1.15-5.17.84-5.23.44-2.62c.13-.87.19-1.76.29-2.64l.57-5.28c.12-.88.17-1.76.2-2.65l.14-2.65.31-5.32c.07-3.55.04-7.1.16-10.67.34,3.55.56,7.11.82,10.67-.01,3.57.1,7.15-.08,10.72l-.38,5.36c-.08.89-.12,1.79-.22,2.68l-.37,2.66-.79,5.32-1.13,5.27c-1.68,6.97-3.95,13.84-7.2,20.26-1.65,3.19-3.43,6.32-5.55,9.22-2.12,2.88-4.4,5.69-7.16,7.97Z"/>
    <path class="st5" d="M460.17,503.23c-2.44,2.6-4.53,5.48-6.35,8.51-1.9,2.98-3.46,6.16-4.96,9.35-2.91,6.43-5.04,13.18-6.66,20.05l-1.15,5.17-.84,5.23-.44,2.62c-.13.87-.19,1.76-.29,2.64l-.57,5.28c-.12.88-.17,1.76-.2,2.65l-.14,2.65-.31,5.32c-.07,3.55-.04,7.1-.16,10.67-.34-3.55-.56-7.11-.82-10.67.01-3.57-.1-7.15.08-10.72l.38-5.36c.08-.89.12-1.79.22-2.68l.37-2.66.79-5.32,1.13-5.27c1.68-6.97,3.95-13.84,7.2-20.26,1.65-3.19,3.43-6.32,5.55-9.22,2.12-2.88,4.4-5.69,7.16-7.97Z"/>
    <path class="st3" d="M442.04,579.04c2.91-2.08,5.84-4.11,8.33-6.64,1.33-1.17,2.46-2.53,3.66-3.82.56-.68,1.09-1.38,1.63-2.07.27-.35.55-.68.8-1.04l.73-1.1c1.01-1.43,1.84-2.98,2.7-4.5.76-1.58,1.55-3.14,2.13-4.79,1.26-3.26,2.22-6.64,2.75-10.11,1.16-6.91,1.11-14.03.23-21.04-.45-3.51-1.06-7-1.89-10.46-.78-3.47-1.77-6.89-2.96-10.26,3.09,6.45,5.19,13.39,6.39,20.49,1.22,7.1,1.37,14.43.2,21.6-.59,3.58-1.6,7.1-2.97,10.47-1.38,3.36-3.11,6.6-5.32,9.49l-.8,1.1c-.28.36-.59.69-.88,1.04-.6.68-1.17,1.39-1.79,2.04-1.31,1.25-2.54,2.57-3.98,3.67-2.76,2.33-5.83,4.22-8.97,5.91Z"/>
    <path class="st5" d="M460.17,503.23c-3.33,1.74-6.34,4.01-8.99,6.62-2.7,2.56-5.01,5.48-7.03,8.57-1.99,3.11-3.67,6.42-4.97,9.87-1.3,3.45-2.36,7.01-3,10.65-.68,3.63-1.15,7.32-1.27,11.03-.14,1.85-.1,3.71-.12,5.57-.02.93.05,1.86.08,2.79l.1,2.79c.49,7.44,1.62,14.86,3.11,22.23-2.24-7.17-3.91-14.57-4.66-22.1-.73-7.52-.62-15.19.8-22.69,1.43-7.47,4.23-14.77,8.63-21.02,2.19-3.12,4.75-5.99,7.66-8.43,1.45-1.22,2.99-2.34,4.59-3.34,1.6-1.01,3.27-1.9,5.04-2.55Z"/>
    <path class="st3" d="M457.34,503.23c2.33-1.67,4.43-3.59,6.37-5.66l1.45-1.55c.47-.53.9-1.09,1.36-1.63.92-1.07,1.76-2.21,2.58-3.35,3.29-4.59,5.98-9.57,8.17-14.76l1.54-3.94c.54-1.3.85-2.69,1.3-4.03.95-2.67,1.47-5.45,2.18-8.2.39-1.37.55-2.78.81-4.17l.75-4.2c.4-2.82.65-5.66,1.07-8.5.01,1.43.01,2.86-.02,4.29-.03,1.43-.01,2.87-.08,4.31l-.43,4.29c-.16,1.43-.27,2.87-.58,4.28-.53,2.83-1.03,5.68-1.9,8.44l-.6,2.08c-.2.69-.4,1.39-.67,2.06l-1.54,4.06c-2.29,5.31-5.15,10.41-8.78,14.93-3.62,4.49-7.91,8.55-12.99,11.25Z"/>
    <path class="st5" d="M484.93,443.24c-2.33,1.67-4.43,3.59-6.37,5.66l-1.45,1.55c-.47.53-.9,1.09-1.36,1.63-.92,1.07-1.76,2.21-2.58,3.35-3.29,4.59-5.98,9.57-8.17,14.76l-1.54,3.94c-.54,1.3-.85,2.69-1.3,4.03-.95,2.67-1.47,5.45-2.18,8.2-.39,1.37-.55,2.78-.81,4.17l-.75,4.2c-.4,2.82-.65,5.66-1.07,8.5-.01-1.43-.01-2.86.02-4.29.03-1.43.01-2.87.08-4.31l.43-4.29c.16-1.43.27-2.87.58-4.28.53-2.83,1.03-5.68,1.9-8.44l.6-2.08c.2-.69.4-1.39.67-2.06l1.54-4.06c2.29-5.31,5.15-10.41,8.78-14.93,3.62-4.49,7.91-8.55,12.99-11.25Z"/>
    <path class="st3" d="M461.45,500.27c5.37-2.31,10.41-5.29,14.68-9.08,2.07-1.97,3.99-4.07,5.58-6.43,1.56-2.37,2.85-4.9,3.8-7.58.98-2.66,1.63-5.45,1.98-8.28.39-2.83.46-5.7.37-8.58-.12-2.87-.42-5.75-.92-8.6-.47-2.86-1.15-5.69-2.01-8.49,2.46,5.31,3.96,11.1,4.49,16.99.53,5.88.03,11.97-2.02,17.63-1.04,2.81-2.41,5.51-4.12,7.97-1.76,2.43-3.83,4.62-6.11,6.54-4.64,3.76-10.08,6.33-15.7,7.9Z"/>
    <path class="st5" d="M484.93,443.24c-5.83,1.9-11.07,5.21-15.45,9.3-4.37,4.12-7.71,9.24-9.84,14.82-2.19,5.58-3.13,11.6-3.4,17.64-.25,6.05.26,12.15,1.1,18.23-1.6-5.92-2.65-12.05-2.66-18.25.02-1.55-.02-3.1.15-4.65.07-.77.1-1.55.2-2.32l.33-2.31c.53-3.07,1.26-6.13,2.42-9.04,1.15-2.91,2.59-5.72,4.38-8.3,1.8-2.57,3.89-4.94,6.28-6.96,4.74-4.06,10.45-6.99,16.49-8.14Z"/>
    <path class="st3" d="M484.93,443.6c3.62-2.24,6.87-4.98,9.86-7.97,1.55-1.43,2.93-3.04,4.37-4.58,1.39-1.58,2.7-3.24,4.06-4.85,5.19-6.65,9.56-13.91,13.38-21.43.93-1.89,1.93-3.75,2.81-5.67l2.51-5.82c.42-.97.87-1.93,1.26-2.91l1.1-2.97,2.23-5.94c.73-1.99,1.29-4.03,1.96-6.04l1.95-6.05c1.13-4.09,2.2-8.19,3.4-12.28-.75,4.18-1.63,8.35-2.45,12.53-1.1,4.11-2.14,8.25-3.38,12.33-2.67,8.1-5.62,16.15-9.61,23.74-3.91,7.6-8.43,14.94-13.96,21.5-1.44,1.59-2.81,3.23-4.31,4.76-1.55,1.48-3.01,3.05-4.66,4.41-3.24,2.78-6.67,5.4-10.52,7.25Z"/>
    <path class="st5" d="M533.81,357.08c-3.62,2.24-6.87,4.98-9.86,7.97-1.55,1.43-2.93,3.04-4.37,4.58-1.39,1.58-2.7,3.24-4.06,4.85-5.19,6.65-9.56,13.91-13.38,21.43-.93,1.89-1.93,3.75-2.81,5.67l-2.51,5.82c-.42.97-.87,1.93-1.26,2.91l-1.1,2.97-2.23,5.94c-.73,1.99-1.29,4.03-1.96,6.04l-1.95,6.05c-1.13,4.09-2.2,8.19-3.4,12.28.75-4.18,1.63-8.35,2.45-12.53,1.1-4.11,2.14-8.25,3.38-12.33,2.67-8.1,5.62-16.15,9.61-23.74,3.91-7.6,8.43-14.94,13.96-21.5,1.44-1.59,2.81-3.23,4.31-4.76,1.55-1.48,3.01-3.05,4.66-4.41,3.24-2.78,6.67-5.4,10.52-7.25Z"/>
    <path class="st3" d="M490.52,439.92c8.1-2.61,15.7-6.67,21.78-12.46,3.02-2.9,5.79-6.06,8.08-9.57,2.3-3.49,4.27-7.21,5.9-11.08,1.67-3.85,2.92-7.88,3.98-11.95,1.07-4.07,1.83-8.23,2.44-12.41.58-4.19.96-8.41,1.14-12.64.22-4.24.21-8.48,0-12.74,1.22,8.43,1.29,17.05.42,25.56-.89,8.51-2.8,16.98-6.12,24.95-1.71,3.96-3.74,7.79-6.18,11.36-2.45,3.56-5.36,6.81-8.59,9.66-3.2,2.91-6.9,5.21-10.73,7.14l-2.92,1.34-3.02,1.09c-.5.18-1,.37-1.51.53l-1.55.41-3.1.79Z"/>
    <path class="st5" d="M533.81,357.08c-4.4.84-8.55,2.6-12.38,4.81-3.83,2.22-7.35,4.94-10.51,8.01-6.34,6.16-11.1,13.77-14.75,21.8-.86,2.04-1.77,4.05-2.49,6.15-.37,1.04-.8,2.07-1.11,3.13l-1,3.17c-.68,2.11-1.18,4.28-1.78,6.41-.47,2.17-1,4.33-1.44,6.51-1.71,8.73-2.76,17.61-3.43,26.54-.11-8.95.42-17.94,1.89-26.82,1.41-8.88,3.91-17.62,7.53-25.91,1.9-4.1,4.06-8.1,6.62-11.84,2.58-3.73,5.51-7.23,8.88-10.27,3.35-3.06,7.09-5.68,11.12-7.74,2.02-1.01,4.12-1.86,6.26-2.55,2.14-.69,4.34-1.22,6.58-1.4Z"/>
    <path class="st3" d="M534.33,359.54c2.69-.97,5.25-2.23,7.67-3.7l1.82-1.1c.6-.38,1.17-.8,1.75-1.2,1.18-.77,2.29-1.64,3.4-2.52,4.42-3.51,8.37-7.56,11.91-11.95l2.56-3.37c.88-1.11,1.56-2.35,2.36-3.52,1.65-2.3,2.91-4.84,4.35-7.29.75-1.21,1.29-2.52,1.93-3.79l1.88-3.83c1.16-2.6,2.18-5.26,3.36-7.88-.38,1.38-.77,2.75-1.19,4.13-.42,1.37-.8,2.76-1.26,4.12l-1.59,4.01c-.55,1.33-1.04,2.69-1.73,3.96-1.29,2.58-2.55,5.18-4.14,7.6l-1.15,1.84c-.38.61-.76,1.23-1.21,1.8l-2.59,3.48c-3.66,4.48-7.8,8.6-12.54,11.95-4.71,3.33-9.96,6.05-15.58,7.26Z"/>
    <path class="st5" d="M577.31,309.41c-2.69.97-5.25,2.23-7.67,3.7l-1.82,1.1c-.6.38-1.17.8-1.75,1.2-1.18.77-2.29,1.64-3.4,2.52-4.42,3.51-8.37,7.56-11.91,11.95l-2.56,3.37c-.88,1.11-1.56,2.35-2.36,3.52-1.65,2.3-2.91,4.84-4.35,7.29-.75,1.21-1.29,2.52-1.93,3.79l-1.88,3.83c-1.16,2.6-2.18,5.26-3.36,7.88.38-1.38.77-2.75,1.19-4.13.42-1.37.8-2.76,1.26-4.12l1.59-4.01c.55-1.33,1.04-2.69,1.73-3.96,1.29-2.58,2.55-5.18,4.14-7.6l1.15-1.84c.38-.61.76-1.23,1.21-1.8l2.59-3.48c3.66-4.48,7.8-8.6,12.54-11.95,4.71-3.33,9.96-6.05,15.58-7.26Z"/>
    <path class="st3" d="M539.1,357.82c5.8-.75,11.46-2.23,16.61-4.71,2.53-1.33,4.96-2.82,7.13-4.66,2.15-1.85,4.09-3.93,5.73-6.25,1.68-2.29,3.06-4.79,4.17-7.42,1.15-2.61,2-5.36,2.7-8.15.67-2.79,1.17-5.65,1.47-8.53.34-2.88.46-5.79.4-8.71.9,5.78.76,11.76-.34,17.57-1.11,5.8-3.25,11.52-6.78,16.4-1.77,2.42-3.83,4.63-6.15,6.54-2.36,1.86-4.95,3.39-7.67,4.61-5.49,2.34-11.43,3.32-17.27,3.3Z"/>
    <path class="st5" d="M577.31,309.41c-6.13.23-12.08,1.98-17.41,4.7-5.33,2.76-9.95,6.77-13.53,11.56-3.64,4.76-6.19,10.3-8.1,16.03-1.9,5.75-3.09,11.76-3.94,17.83.08-6.13.76-12.31,2.45-18.28.44-1.49.84-2.99,1.42-4.43.28-.73.53-1.46.83-2.18l.95-2.14c1.35-2.8,2.9-5.54,4.8-8.03,1.91-2.48,4.06-4.79,6.49-6.78,2.44-1.98,5.1-3.68,7.95-4.97,5.67-2.6,11.97-3.86,18.1-3.31Z"/>
    <path class="st3" d="M612,294.7c-8.06,8.24-20.9,14.03-31.57,14-.88,0-2.13-.06-3.12-.23,1.05-.1,2.09-.3,3.12-.47-.07,0-.16.03-.21.09,11.43-2.24,21.91-7.29,31.78-13.39h0Z"/>
    <path class="st5" d="M612,277c-13.78,7.85-24.84,19.19-34.69,31.47,7.53-13.9,19.6-26.11,34.69-31.47h0Z"/>
    <path class="st3" d="M582.37,308.13c10.09.84,20.22.48,29.63-3.63-8.12,6.7-20.05,7.28-29.63,3.63h0Z"/>
    <path class="st5" d="M612,271.49c-17.26,5.61-27.43,21.28-34.69,36.98,4.48-16.78,16.43-34.19,34.69-36.98h0Z"/>
    <path class="st3" d="M434.97,645.72c1.57-2.39,2.85-4.94,3.92-7.57l.79-1.97c.25-.66.45-1.34.68-2.01.48-1.33.85-2.69,1.21-4.06,1.43-5.46,2.15-11.07,2.34-16.71l.02-4.23c.04-1.41-.17-2.82-.23-4.23-.07-2.83-.58-5.62-.9-8.44-.13-1.42-.49-2.79-.74-4.19l-.8-4.19c-.63-2.77-1.42-5.51-2.04-8.32.53,1.33,1.04,2.67,1.52,4.01.48,1.35,1.02,2.69,1.47,4.05l1.13,4.16c.36,1.39.78,2.77,1,4.2.52,2.83,1.07,5.67,1.25,8.56l.18,2.16c.06.72.13,1.44.11,2.16l.02,4.34c-.23,5.78-1.07,11.57-2.85,17.08-1.77,5.49-4.32,10.82-8.09,15.16Z"/>
    <path class="st5" d="M439.22,579.83c-1.57,2.39-2.85,4.94-3.92,7.57l-.79,1.97c-.25.66-.45,1.34-.68,2.01-.48,1.33-.85,2.69-1.21,4.06-1.43,5.46-2.15,11.07-2.34,16.71l-.02,4.23c-.04,1.41.17,2.82.23,4.23.07,2.83.58,5.62.9,8.44.13,1.42.49,2.79.74,4.19l.8,4.19c.63,2.77,1.42,5.51,2.04,8.32-.53-1.33-1.04-2.67-1.52-4.01-.48-1.35-1.02-2.69-1.47-4.05l-1.13-4.16c-.36-1.39-.78-2.77-1-4.2-.52-2.83-1.07-5.67-1.25-8.56l-.18-2.16c-.06-.72-.13-1.44-.11-2.16l-.02-4.34c.23-5.78,1.07-11.57,2.85-17.08,1.77-5.49,4.32-10.82,8.09-15.16Z"/>
    <path class="st3" d="M437.75,641.49c4.19-4.08,7.82-8.67,10.45-13.74,1.22-2.58,2.27-5.23,2.9-8,.61-2.77.9-5.6.83-8.44-.03-2.83-.43-5.67-1.12-8.44-.65-2.78-1.62-5.49-2.73-8.14-1.14-2.64-2.46-5.22-3.94-7.7-1.46-2.5-3.11-4.9-4.92-7.2,4.2,4.08,7.67,8.94,10.28,14.25,2.6,5.3,4.32,11.17,4.43,17.18.04,3-.28,6.01-.99,8.92-.77,2.9-1.92,5.69-3.36,8.29-2.98,5.17-7.14,9.52-11.82,13.01Z"/>
    <path class="st5" d="M439.22,579.83c-4.76,3.87-8.47,8.84-11.09,14.22-2.6,5.41-3.88,11.39-3.87,17.37-.05,5.99,1.24,11.95,3.15,17.68,1.94,5.74,4.6,11.25,7.56,16.63-3.62-4.95-6.79-10.3-9.03-16.09-.54-1.45-1.13-2.89-1.53-4.4-.21-.75-.46-1.49-.65-2.24l-.52-2.28c-.6-3.06-1.02-6.17-.99-9.31.03-3.13.37-6.27,1.11-9.32.76-3.04,1.87-6,3.37-8.75,2.97-5.49,7.25-10.27,12.48-13.52Z"/>
    <path class="st3" d="M442.01,714.44c1.24-2.81,2.09-5.75,2.66-8.74.66-2.97.97-6,1.25-9.01.44-6.05.15-12.14-.58-18.15-.2-1.5-.37-3.01-.59-4.52l-.85-4.48-.41-2.24-.54-2.22c-.37-1.48-.72-2.96-1.06-4.44-.35-1.49-.86-2.92-1.26-4.4l-1.27-4.41c-.96-2.9-1.99-5.78-2.9-8.73,1.33,2.77,2.54,5.59,3.82,8.39,1.05,2.89,2.17,5.77,3.1,8.7.43,1.48.86,2.96,1.27,4.45l.62,2.23.49,2.27.93,4.54c.24,1.53.43,3.06.65,4.6.71,6.14.91,12.38.14,18.54-.25,1.53-.41,3.07-.74,4.59-.35,1.51-.64,3.03-1.11,4.51-.9,2.95-1.96,5.89-3.61,8.5Z"/>
    <path class="st5" d="M436.46,643.11c-1.24,2.81-2.09,5.75-2.66,8.74-.66,2.97-.97,6-1.25,9.01-.44,6.05-.15,12.14.58,18.15.2,1.5.37,3.01.59,4.51l.85,4.48.41,2.24.54,2.22c.37,1.48.72,2.96,1.06,4.44.35,1.49.86,2.92,1.26,4.4l1.27,4.41c.96,2.9,1.99,5.78,2.9,8.73-1.33-2.77-2.54-5.59-3.82-8.39-1.05-2.89-2.17-5.77-3.1-8.7-.43-1.48-.86-2.96-1.27-4.45l-.62-2.23-.49-2.27-.93-4.54c-.24-1.53-.43-3.06-.65-4.6-.71-6.14-.91-12.38-.14-18.54.25-1.53.41-3.07.74-4.59.35-1.51.64-3.03,1.11-4.51.9-2.95,1.96-5.89,3.61-8.5Z"/>
    <path class="st3" d="M443.95,709.92c1.79-2.51,3.63-4.97,4.91-7.75l.53-1.01.45-1.05c.29-.7.61-1.39.87-2.1.47-1.44,1-2.85,1.31-4.33,1.47-5.86,1.36-12,.23-17.91-1.16-5.93-3.33-11.65-6.05-17.1-1.37-2.72-2.88-5.39-4.51-7.98-1.6-2.62-3.37-5.13-5.24-7.58,4.36,4.38,8.08,9.41,11.13,14.82,3.06,5.42,5.39,11.29,6.63,17.46,1.14,6.16,1.16,12.66-.69,18.69-1.69,6.09-5.27,11.46-9.57,15.83Z"/>
    <path class="st5" d="M436.46,643.11c-2.25,2.33-4.05,5.03-5.45,7.9-1.44,2.85-2.45,5.89-3.16,8.98-1.38,6.21-1.27,12.66-.23,18.92.57,3.13,1.27,6.25,2.27,9.29.42,1.54,1.03,3.03,1.54,4.55l1.78,4.47c2.55,5.9,5.55,11.62,8.8,17.23-3.9-5.18-7.39-10.7-10.22-16.58-2.85-5.87-4.97-12.13-6.14-18.61-.52-3.25-.79-6.55-.71-9.85.1-3.3.52-6.6,1.4-9.78,1.72-6.34,5.08-12.38,10.12-16.51Z"/>
    <path class="st3" d="M455.45,755.61c.85-4.04,1.08-8.13.88-12.17-.11-2.02-.33-4.03-.68-6.01l-.58-2.96-.82-2.91c-.11-.49-.28-.97-.46-1.44l-.51-1.42-.51-1.42c-.18-.47-.42-.91-.62-1.38l-1.25-2.76c-.5-.88-1-1.76-1.49-2.65l-.74-1.33c-.26-.43-.57-.84-.84-1.27l-1.69-2.55c-1.17-1.68-2.5-3.23-3.7-4.93,1.51,1.39,3.06,2.79,4.47,4.32l1.99,2.41c.33.4.67.8.97,1.23l.86,1.31c.58.87,1.15,1.75,1.7,2.64l1.43,2.8c.23.47.48.93.68,1.42l.56,1.47.56,1.47c.19.49.37.98.5,1.5,1.25,4.02,1.79,8.25,1.72,12.44-.08,4.18-.78,8.38-2.43,12.19Z"/>
    <path class="st5" d="M442.44,710.41c-.85,4.04-1.08,8.13-.88,12.17.11,2.02.33,4.03.68,6.01l.58,2.96.82,2.91c.11.49.28.97.46,1.44l.51,1.42.51,1.42c.18.47.42.91.62,1.38l1.25,2.76c.5.88,1,1.76,1.49,2.65l.74,1.33c.26.43.57.84.84,1.27l1.69,2.55c1.17,1.68,2.5,3.23,3.7,4.93-1.51-1.39-3.06-2.79-4.47-4.32l-1.99-2.41c-.33-.4-.67-.8-.97-1.23l-.86-1.31c-.58-.87-1.15-1.75-1.7-2.64l-1.43-2.8c-.23-.47-.48-.93-.68-1.42l-.56-1.47-.56-1.47c-.19-.49-.37-.98-.5-1.5-1.25-4.02-1.79-8.25-1.72-12.44.08-4.18.78-8.38,2.43-12.19Z"/>
    <path class="st3" d="M456.45,751.63c1.63-3.98,3.08-8,3.81-12.14.39-2.06.55-4.14.53-6.2-.06-2.06-.36-4.1-.96-6.05-1.13-3.93-3.56-7.41-6.64-10.19-3.11-2.78-6.78-5-10.75-6.63,4.23.84,8.28,2.74,11.75,5.44,1.75,1.35,3.29,2.98,4.6,4.79,1.29,1.83,2.29,3.87,2.94,6.02.63,2.16.94,4.39.94,6.62-.07,1.11-.07,2.22-.27,3.31-.08.54-.14,1.09-.25,1.63l-.38,1.6c-1.06,4.26-2.97,8.21-5.33,11.81Z"/>
    <path class="st5" d="M442.44,710.41c-2.02,4.02-3.44,8.27-4.18,12.6-.71,4.32-.63,8.76.57,12.91.55,2.08,1.43,4.08,2.53,5.94.5.96,1.16,1.83,1.76,2.74.7.84,1.32,1.74,2.09,2.52,2.95,3.25,6.48,6.01,10.24,8.49-4.15-1.75-8.06-4.21-11.36-7.41-.86-.76-1.58-1.67-2.35-2.53-.68-.93-1.42-1.83-2-2.84-1.23-1.97-2.19-4.12-2.83-6.37-.62-2.25-.95-4.57-.97-6.89,0-2.32.25-4.63.8-6.86,1.07-4.46,2.97-8.7,5.71-12.3Z"/>
    <path class="st3" d="M455.31,751.69c12.57,10.31,22.79,24.35,26.62,40.31-6.46-14.95-16.03-28.04-26.62-40.31h0Z"/>
    <path class="st5" d="M461.97,792c-6.95-11.36-10.35-25.95-7.1-38.95,0,0,.04.15.04.15-.07-.05-.06-.21,0-.25-.17.41.43-1.34.4-1.27,0,0-.12,1.41-.12,1.41-.08.14,0,.07,0-.02,0-.05-.02-.07-.04-.1l.04.15c-.88,13.13,2.38,26.42,6.78,38.87h0Z"/>
    <path class="st3" d="M491.21,792h-1.76c-1.16-11-6.69-20.96-17.01-29.46-5.21-4.32-10.98-7.99-17.13-10.85,6.48,2.15,12.62,5.44,18.1,9.63,10.98,8.26,16.98,19.03,17.8,30.68Z"/>
    <path class="st5" d="M454.08,792c-7.2-11.76-6.94-27.69.49-39.28.2-.31.5-.71.74-1.03-.16.39-.35.78-.48,1.17-5.07,12.57-5.25,26.37-.75,39.14h0Z"/>
    <path class="st5" d="M528.41,196.48c2.4-1.55,4.6-3.37,6.64-5.34l1.52-1.48c.49-.51.96-1.04,1.43-1.56.98-1.02,1.86-2.12,2.74-3.22,3.51-4.42,6.44-9.27,8.88-14.34l1.73-3.86c.6-1.28.98-2.65,1.5-3.96,1.08-2.62,1.74-5.37,2.58-8.08.46-1.35.68-2.75,1.01-4.13l.96-4.16c.54-2.79.92-5.62,1.49-8.44-.05,1.43-.13,2.86-.23,4.29-.1,1.43-.15,2.87-.29,4.3l-.64,4.26c-.23,1.42-.4,2.85-.78,4.25-.67,2.8-1.31,5.62-2.31,8.34l-.7,2.05c-.23.68-.46,1.37-.77,2.02l-1.73,3.98c-2.55,5.19-5.65,10.15-9.5,14.48-3.83,4.31-8.32,8.16-13.52,10.61Z"/>
    <path class="st3" d="M558.88,137.9c-2.4,1.55-4.6,3.37-6.63,5.34l-1.52,1.48c-.49.51-.96,1.04-1.43,1.56-.98,1.02-1.86,2.12-2.74,3.22-3.51,4.42-6.44,9.27-8.88,14.34l-1.73,3.86c-.6,1.28-.98,2.65-1.5,3.96-1.08,2.62-1.74,5.37-2.58,8.08-.46,1.35-.68,2.75-1.01,4.13l-.96,4.16c-.54,2.79-.92,5.62-1.49,8.44.05-1.43.13-2.86.23-4.29.1-1.43.15-2.87.29-4.3l.64-4.26c.23-1.42.4-2.85.78-4.25.67-2.8,1.31-5.62,2.31-8.34l.7-2.05c.23-.68.46-1.37.77-2.02l1.73-3.98c2.55-5.19,5.65-10.15,9.5-14.48,3.83-4.31,8.32-8.16,13.52-10.61Z"/>
    <path class="st5" d="M532.66,193.72c5.48-2.04,10.65-4.77,15.11-8.35,2.16-1.87,4.19-3.87,5.88-6.15,1.67-2.29,3.09-4.76,4.16-7.38,1.11-2.61,1.89-5.36,2.38-8.17.52-2.81.73-5.67.78-8.55.02-2.87-.14-5.76-.5-8.64-.33-2.88-.87-5.74-1.59-8.57,2.19,5.43,3.41,11.28,3.65,17.19.24,5.9-.55,11.96-2.88,17.51-1.17,2.76-2.68,5.38-4.51,7.76-1.88,2.34-4.05,4.43-6.42,6.23-4.82,3.53-10.38,5.83-16.07,7.13Z"/>
    <path class="st3" d="M558.88,137.9c-5.92,1.62-11.31,4.67-15.89,8.54-4.57,3.9-8.15,8.85-10.55,14.33-2.46,5.47-3.69,11.44-4.25,17.45-.54,6.03-.33,12.15.21,18.26-1.31-5.99-2.06-12.16-1.77-18.36.09-1.55.13-3.1.38-4.64.11-.77.18-1.54.31-2.31l.44-2.3c.68-3.04,1.56-6.06,2.85-8.92,1.29-2.85,2.87-5.59,4.78-8.08,1.92-2.48,4.13-4.74,6.61-6.64,4.93-3.82,10.78-6.47,16.87-7.33Z"/>
    <path class="st5" d="M558.83,141.26c2.39-2.4,4.46-5.06,6.31-7.86l1.38-2.1c.44-.71.84-1.45,1.26-2.18.4-.74.86-1.43,1.22-2.19l1.11-2.25c2.91-6.02,5.02-12.4,6.5-18.91l.97-4.92c.19-.82.28-1.65.37-2.48l.3-2.49c.55-3.31.57-6.67.81-10.02.16-1.68.05-3.36.06-5.04l-.03-5.05c-.15-3.36-.47-6.72-.61-10.11.29,1.66.57,3.33.83,5.01.25,1.68.56,3.35.76,5.04l.36,5.08c.1,1.7.27,3.39.2,5.1-.05,3.4-.04,6.82-.49,10.21l-.27,2.55c-.09.85-.17,1.7-.36,2.53l-.95,5.04c-1.56,6.65-3.81,13.17-7.07,19.19-3.25,5.98-7.36,11.62-12.66,15.87Z"/>
    <path class="st3" d="M578.49,65.65c-2.39,2.4-4.46,5.06-6.31,7.86l-1.38,2.1c-.44.71-.84,1.45-1.26,2.18-.4.74-.86,1.43-1.22,2.19l-1.11,2.25c-2.91,6.02-5.02,12.4-6.5,18.91l-.97,4.92c-.19.82-.28,1.65-.37,2.48l-.3,2.49c-.55,3.31-.57,6.67-.81,10.02-.16,1.68-.05,3.36-.06,5.04l.03,5.05c.15,3.36.47,6.72.61,10.11-.29-1.66-.57-3.33-.83-5.01-.25-1.68-.56-3.35-.76-5.04l-.36-5.08c-.1-1.7-.27-3.39-.2-5.1.05-3.4.04-6.82.49-10.21l.27-2.55c.09-.85.17-1.7.36-2.53l.95-5.04c1.56-6.65,3.81-13.17,7.07-19.19,3.25-5.98,7.36-11.62,12.66-15.87Z"/>
    <path class="st5" d="M563.01,136.96c5.81-3.74,11.1-8.23,15.32-13.54,2.02-2.72,3.84-5.58,5.2-8.67,1.34-3.09,2.32-6.33,2.87-9.66.59-3.32.76-6.71.58-10.09-.15-3.39-.67-6.76-1.39-10.09-.75-3.33-1.72-6.61-2.92-9.83-1.17-3.23-2.57-6.38-4.19-9.43,3.9,5.71,6.8,12.14,8.62,18.89,1.8,6.73,2.48,13.9,1.27,20.89-.62,3.48-1.66,6.89-3.12,10.1-1.53,3.19-3.47,6.16-5.71,8.87-4.59,5.34-10.35,9.49-16.53,12.56Z"/>
    <path class="st3" d="M578.49,65.65c-3.22,1.67-6.18,3.76-8.89,6.12-2.71,2.36-5.15,4.99-7.29,7.84-4.27,5.71-7.12,12.39-8.44,19.36-1.39,6.98-1.22,14.21-.25,21.31,1,7.11,2.9,14.11,5.21,20.98-3.03-6.59-5.47-13.52-6.75-20.73-.29-1.81-.65-3.61-.77-5.44-.08-.91-.2-1.83-.25-2.74l-.09-2.76c-.01-3.67.2-7.38.94-11,.73-3.62,1.82-7.18,3.35-10.54,1.55-3.36,3.48-6.54,5.82-9.39,4.64-5.71,10.64-10.34,17.4-13Z"/>
    <path class="st5" d="M570.43,0c10.23,20.33,15.44,46.78,6.86,68.53.76-2.84,1.36-5.68,1.7-8.59,2.69-20.32-1.79-40.82-8.56-59.94h0Z"/>
    <path class="st3" d="M577.29,68.53C561.61,49.12,550.03,25.21,548.82,0c4,24.76,15.08,47.54,28.47,68.53h0Z"/>
    <path class="st5" d="M582.59,0c12.45,19.31,10.06,42.89-3.3,61.05,10.81-20.41,13.02-39.68,3.3-61.05h0Z"/>
    <path class="st3" d="M577.29,68.53C556.86,52.31,538.33,27.56,540.6,0c.68,27.28,18.09,50.06,36.69,68.53h0Z"/>
    <path class="st5" d="M460.71,255.44c3.82-.91,7.47-2.35,10.95-4.08,3.53-1.65,6.85-3.69,10.12-5.78,6.48-4.3,12.4-9.39,17.9-14.88,1.36-1.39,2.74-2.76,4.08-4.17l3.83-4.41,1.93-2.19,1.79-2.31,3.61-4.6c1.21-1.53,2.25-3.19,3.4-4.76l3.39-4.78c2.12-3.29,4.18-6.61,6.36-9.88-1.78,3.49-3.69,6.93-5.53,10.4-2.1,3.32-4.13,6.7-6.36,9.94l-3.5,4.77-1.76,2.38-1.9,2.27-3.84,4.5c-1.35,1.44-2.74,2.84-4.11,4.26-5.61,5.55-11.71,10.67-18.48,14.78l-2.57,1.48c-.86.48-1.7,1.01-2.6,1.42-1.78.85-3.53,1.77-5.39,2.47-3.66,1.45-7.44,2.72-11.35,3.19Z"/>
    <path class="st3" d="M528.1,193.59c-3.82.91-7.47,2.35-10.95,4.08-3.53,1.65-6.85,3.69-10.12,5.78-6.48,4.3-12.4,9.39-17.9,14.88-1.36,1.39-2.74,2.76-4.08,4.17l-3.83,4.41-1.93,2.19-1.79,2.31-3.61,4.6c-1.21,1.53-2.25,3.19-3.4,4.76l-3.39,4.78c-2.12,3.29-4.18,6.61-6.36,9.88,1.78-3.49,3.69-6.93,5.53-10.4,2.1-3.32,4.13-6.7,6.36-9.94l3.5-4.77,1.76-2.38,1.9-2.27,3.84-4.5c1.35-1.44,2.74-2.84,4.11-4.26,5.61-5.55,11.71-10.67,18.48-14.78l2.57-1.48c.86-.48,1.7-1.01,2.6-1.42,1.78-.85,3.53-1.77,5.39-2.47,3.66-1.45,7.44-2.72,11.35-3.19Z"/>
    <path class="st5" d="M466.81,253.83c3.94-.11,7.88-.17,11.7-1.03l1.44-.25c.48-.1.94-.24,1.42-.36.94-.25,1.89-.47,2.82-.75,1.83-.66,3.69-1.22,5.43-2.07,3.52-1.59,6.9-3.52,9.93-5.93,3.06-2.36,5.88-5.03,8.42-7.96,5.06-5.88,9.11-12.61,12.41-19.69,1.64-3.55,3.1-7.18,4.38-10.89,1.32-3.7,2.42-7.47,3.33-11.31-1.05,7.82-3.23,15.5-6.28,22.83-3.06,7.32-7.13,14.28-12.33,20.37-5.28,5.98-11.77,11.1-19.26,14.01-7.42,3.11-15.6,3.8-23.42,3.03Z"/>
    <path class="st3" d="M528.1,193.59c-4.11-.5-8.27-.21-12.28.6-4.03.77-7.91,2.11-11.61,3.83-7.39,3.47-13.85,8.67-19.36,14.69-.69.75-1.34,1.54-2.01,2.31l-1,1.16-.94,1.21-1.87,2.43-1.76,2.52-.88,1.26-.82,1.3-1.64,2.6c-1.04,1.77-2.06,3.56-3.07,5.35-3.89,7.25-7.2,14.83-10.16,22.57,2.22-7.98,5.07-15.83,8.77-23.29,3.69-7.47,8.3-14.53,13.9-20.78,2.85-3.08,5.94-5.94,9.31-8.46,3.38-2.5,7.01-4.67,10.89-6.31,3.87-1.65,7.93-2.82,12.09-3.37,2.07-.28,4.17-.38,6.25-.35,2.08.03,4.17.22,6.19.71Z"/>
    <path class="st5" d="M420.31,283.03c4.37-.18,8.64-.94,12.77-2.1,4.12-1.19,8.1-2.83,11.77-5,1.86-1.04,3.61-2.27,5.3-3.57,1.72-1.27,3.27-2.75,4.82-4.22,3.03-3.04,5.71-6.45,8.16-10.07-1.72,4.03-4.11,7.8-7.02,11.14-2.92,3.33-6.41,6.21-10.26,8.45-1.94,1.1-3.94,2.08-6.02,2.89-2.08.78-4.21,1.44-6.38,1.89-4.33.92-8.81,1.25-13.15.6Z"/>
    <path class="st3" d="M463.14,258.06c-4.37.18-8.64.94-12.77,2.1-4.12,1.19-8.1,2.83-11.77,5-1.86,1.04-3.61,2.27-5.3,3.57-1.72,1.27-3.27,2.75-4.82,4.22-3.03,3.04-5.71,6.45-8.16,10.07,1.72-4.03,4.11-7.8,7.02-11.14,2.92-3.33,6.41-6.21,10.26-8.45,1.94-1.1,3.94-2.08,6.02-2.89,2.08-.78,4.21-1.44,6.38-1.89,4.33-.92,8.81-1.25,13.15-.6Z"/>
    <path class="st5" d="M424.9,283c4.56.55,9.11.96,13.61.76,2.24-.19,4.48-.34,6.62-.92,2.15-.51,4.26-1.2,6.16-2.28,3.87-2.04,6.92-5.4,8.83-9.4.97-2,1.67-4.14,2.16-6.34.51-2.2.79-4.47.86-6.76.37,2.27.36,4.61.11,6.92-.27,2.31-.79,4.62-1.7,6.81-.87,2.2-2.14,4.26-3.7,6.07-1.58,1.8-3.51,3.3-5.61,4.46-4.25,2.29-9.07,3.03-13.71,2.99-4.67-.09-9.25-.95-13.63-2.31Z"/>
    <path class="st3" d="M463.14,258.06c-4.71-.92-9.48-1.28-14.18-1.01-2.34.17-4.67.46-6.93,1.04-2.26.55-4.45,1.34-6.48,2.44-4.1,2.11-7.52,5.4-9.99,9.36-2.45,3.98-4.08,8.49-5.26,13.14.35-4.79,1.59-9.59,3.91-13.93,1.19-2.15,2.64-4.19,4.41-5.94,1.77-1.74,3.81-3.22,6-4.4,4.42-2.33,9.42-3.26,14.28-3.26,4.88.01,9.73.84,14.23,2.56Z"/>
    <path class="st5" d="M362.02,311.8c2.86.2,5.7.07,8.51-.28l2.1-.27c.7-.11,1.39-.26,2.09-.39,1.39-.23,2.76-.58,4.13-.93,5.46-1.43,10.71-3.54,15.72-6.13l3.7-2.05c1.25-.66,2.37-1.53,3.58-2.27,2.44-1.44,4.62-3.25,6.92-4.91,1.17-.8,2.2-1.79,3.29-2.69l3.26-2.75c2.11-1.91,4.11-3.94,6.26-5.85-.9,1.11-1.82,2.21-2.76,3.29-.94,1.08-1.84,2.2-2.82,3.26l-3.07,3.02c-1.04,1-2.04,2.04-3.18,2.92-2.22,1.84-4.42,3.71-6.85,5.28l-1.79,1.22c-.6.41-1.19.82-1.83,1.15l-3.78,2.14c-5.16,2.62-10.61,4.72-16.29,5.87-5.65,1.14-11.55,1.52-17.18.36Z"/>
    <path class="st3" d="M421.57,283.28c-2.86-.2-5.7-.07-8.51.28l-2.1.27c-.7.11-1.39.26-2.09.39-1.39.23-2.76.58-4.13.93-5.46,1.43-10.71,3.54-15.72,6.13l-3.7,2.05c-1.25.66-2.37,1.53-3.58,2.27-2.44,1.44-4.62,3.25-6.92,4.91-1.17.8-2.2,1.79-3.29,2.69l-3.26,2.75c-2.11,1.91-4.11,3.94-6.26,5.85.9-1.11,1.82-2.21,2.76-3.29.94-1.08,1.84-2.2,2.82-3.26l3.07-3.02c1.04-1,2.04-2.04,3.18-2.92,2.22-1.84,4.42-3.71,6.85-5.28l1.79-1.22c.6-.41,1.19-.82,1.83-1.15l3.78-2.14c5.16-2.62,10.61-4.72,16.29-5.87,5.65-1.14,11.55-1.52,17.18-.36Z"/>
    <path class="st5" d="M367.07,312.15c5.61,1.66,11.38,2.58,17.1,2.4,2.85-.19,5.68-.58,8.4-1.38,2.71-.82,5.33-1.95,7.76-3.4,2.46-1.42,4.73-3.15,6.81-5.1,2.11-1.93,3.99-4.1,5.76-6.36,1.74-2.28,3.35-4.69,4.79-7.21,1.47-2.5,2.75-5.11,3.88-7.81-1.51,5.66-4.05,11.06-7.41,15.94-3.36,4.86-7.63,9.23-12.82,12.27-2.6,1.5-5.38,2.69-8.27,3.5-2.91.74-5.9,1.11-8.88,1.12-5.97-.07-11.8-1.57-17.13-3.95Z"/>
    <path class="st3" d="M421.57,283.28c-5.7-2.26-11.85-3.06-17.83-2.72-6,.38-11.83,2.18-17.04,5.12-5.25,2.89-9.82,6.93-13.88,11.4-4.06,4.5-7.57,9.51-10.8,14.72,2.55-5.58,5.66-10.96,9.62-15.74,1-1.18,1.97-2.4,3.09-3.48.55-.55,1.07-1.13,1.64-1.66l1.73-1.57c2.37-2.02,4.89-3.9,7.64-5.41,2.75-1.5,5.65-2.74,8.67-3.59,3.03-.82,6.15-1.31,9.28-1.34,6.24-.09,12.51,1.3,17.89,4.27Z"/>
    <path class="st5" d="M277.5,349.22c4.07.57,8.19.64,12.26.36,4.08-.23,8.13-.79,12.12-1.6,7.99-1.62,15.74-4.28,23.1-7.76,7.38-3.45,14.36-7.73,20.96-12.54,6.6-4.83,12.85-10.16,18.78-15.86-5.37,6.24-11.32,12.01-17.84,17.1l-2.45,1.91-2.53,1.8c-1.67,1.23-3.44,2.3-5.16,3.45-3.54,2.15-7.15,4.2-10.92,5.95-3.77,1.73-7.62,3.3-11.57,4.57-3.96,1.23-8,2.25-12.09,2.92-4.09.69-8.23,1.05-12.37,1.05-2.07,0-4.14-.11-6.19-.31-2.05-.2-4.1-.5-6.1-1.02Z"/>
    <path class="st3" d="M364.72,311.81c-4.07-.57-8.19-.64-12.26-.36-4.08.23-8.13.79-12.12,1.6-7.99,1.62-15.74,4.28-23.1,7.76-7.38,3.45-14.36,7.73-20.96,12.54-6.6,4.83-12.85,10.16-18.78,15.86,5.37-6.24,11.32-12.01,17.84-17.1l2.45-1.91,2.53-1.8c1.67-1.23,3.44-2.3,5.16-3.45,3.54-2.15,7.15-4.2,10.92-5.95,3.77-1.73,7.62-3.3,11.57-4.57,3.96-1.23,8-2.25,12.09-2.92,4.09-.69,8.23-1.05,12.37-1.05,2.07,0,4.14.11,6.19.31,2.05.2,4.1.5,6.1,1.02Z"/>
    <path class="st5" d="M284.8,350.05c7.9,2.87,16.16,4.7,24.45,4.87,4.14-.05,8.28-.36,12.28-1.34,4-.98,7.88-2.43,11.51-4.37,3.66-1.89,7.05-4.29,10.17-7,3.14-2.69,5.99-5.73,8.62-8.95,2.61-3.23,5-6.67,7.15-10.25,2.17-3.58,4.09-7.31,5.72-11.19-2.55,8.02-6.54,15.62-11.64,22.4-5.11,6.76-11.48,12.76-19.09,16.76-3.8,1.98-7.85,3.49-12.03,4.44-4.19.92-8.49,1.2-12.75,1.06-8.53-.44-16.81-2.85-24.41-6.42Z"/>
    <path class="st3" d="M364.72,311.81c-3.99-1.88-8.21-3.21-12.49-4.1-4.28-.9-8.65-1.33-13-1.3-8.71.06-17.32,2.23-25.06,6.13-7.79,3.87-14.63,9.45-20.68,15.75-6.05,6.33-11.26,13.47-15.99,20.91,4.06-7.83,8.88-15.35,14.84-21.97,1.51-1.64,2.98-3.31,4.64-4.8.82-.76,1.59-1.56,2.45-2.28l2.57-2.15c.83-.75,1.78-1.35,2.68-2.01.91-.64,1.8-1.33,2.77-1.9l2.85-1.77,2.97-1.58c4.02-1.97,8.25-3.55,12.63-4.56,4.37-.99,8.87-1.47,13.34-1.34,8.93.23,17.82,2.53,25.48,6.95Z"/>
    <path class="st5" d="M220.14,381.68c2.86-.04,5.69-.41,8.46-1.01l2.07-.45c.69-.17,1.36-.38,2.04-.56,1.37-.35,2.7-.81,4.04-1.28,5.32-1.89,10.37-4.45,15.13-7.45l3.51-2.36c1.19-.76,2.23-1.72,3.37-2.56,2.3-1.65,4.32-3.64,6.47-5.49,1.1-.9,2.04-1.97,3.05-2.96l3.02-3.02c1.94-2.08,3.76-4.27,5.73-6.37-.8,1.18-1.62,2.36-2.46,3.52-.84,1.16-1.65,2.35-2.53,3.49l-2.8,3.28c-.95,1.08-1.86,2.21-2.92,3.18-2.05,2.02-4.09,4.07-6.38,5.85l-1.68,1.37c-.56.46-1.12.91-1.73,1.31l-3.58,2.46c-4.91,3.05-10.17,5.61-15.73,7.25-5.53,1.63-11.38,2.51-17.09,1.83Z"/>
    <path class="st3" d="M277.04,348.16c-2.86.04-5.69.41-8.46,1.01l-2.07.45c-.69.17-1.36.38-2.04.56-1.37.35-2.7.81-4.04,1.28-5.32,1.89-10.37,4.45-15.13,7.45l-3.51,2.36c-1.19.76-2.23,1.72-3.37,2.56-2.3,1.65-4.32,3.64-6.47,5.49-1.1.9-2.04,1.97-3.05,2.96l-3.02,3.02c-1.94,2.08-3.76,4.27-5.73,6.37.8-1.18,1.62-2.36,2.46-3.52.84-1.16,1.65-2.35,2.53-3.49l2.8-3.28c.95-1.08,1.86-2.21,2.92-3.18,2.05-2.02,4.09-4.07,6.38-5.85l1.68-1.37c.56-.46,1.12-.91,1.73-1.31l3.58-2.46c4.91-3.05,10.17-5.61,15.73-7.25,5.53-1.63,11.38-2.51,17.09-1.83Z"/>
    <path class="st5" d="M225.21,381.6c5.73,1.17,11.56,1.6,17.24.92,2.82-.44,5.61-1.07,8.25-2.1,2.63-1.05,5.14-2.4,7.44-4.05,2.33-1.62,4.45-3.54,6.35-5.67,1.93-2.1,3.63-4.42,5.19-6.83,1.54-2.43,2.93-4.96,4.15-7.59,1.25-2.62,2.3-5.33,3.19-8.11-1.02,5.76-3.08,11.37-6.01,16.51-2.93,5.13-6.81,9.85-11.72,13.32-2.46,1.72-5.13,3.14-7.94,4.19-2.84.99-5.78,1.61-8.75,1.88-5.96.44-11.89-.56-17.4-2.47Z"/>
    <path class="st3" d="M277.04,348.16c-5.88-1.77-12.07-2.04-18-1.18-5.94.89-11.6,3.19-16.54,6.56-4.98,3.33-9.19,7.74-12.86,12.54-3.66,4.83-6.72,10.13-9.5,15.6,2.06-5.77,4.7-11.4,8.23-16.51.9-1.26,1.76-2.56,2.78-3.73.5-.6.97-1.22,1.49-1.8l1.59-1.71c2.19-2.21,4.53-4.31,7.15-6.05,2.61-1.73,5.39-3.22,8.34-4.32,2.94-1.08,6.01-1.83,9.13-2.13,6.21-.63,12.57.23,18.19,2.73Z"/>
    <path class="st5" d="M158.73,431.45c3.43-.42,6.78-1.26,10.03-2.34l2.43-.83c.81-.29,1.59-.64,2.38-.96.78-.34,1.6-.61,2.36-.99l2.31-1.11c6.14-3.01,11.85-6.81,17.14-11.11l3.87-3.36c.32-.28.65-.55.96-.85l.9-.91,1.8-1.82c1.19-1.23,2.49-2.36,3.55-3.7l3.37-3.88c1.18-1.25,2.14-2.68,3.19-4.03l3.13-4.1c1.98-2.81,3.81-5.73,5.81-8.56-.8,1.53-1.62,3.05-2.46,4.56-.85,1.51-1.64,3.06-2.54,4.54l-2.89,4.33c-.98,1.44-1.91,2.91-3.03,4.23-2.17,2.72-4.31,5.47-6.79,7.93l-1.81,1.88-.91.94c-.31.31-.65.58-.97.87l-3.92,3.47c-5.43,4.37-11.35,8.2-17.76,10.98-6.38,2.77-13.23,4.71-20.17,4.81Z"/>
    <path class="st3" d="M221.98,382.91c-3.43.42-6.78,1.26-10.03,2.34l-2.43.83c-.81.29-1.59.64-2.38.96-.79.34-1.6.61-2.36.99l-2.31,1.11c-6.14,3.01-11.85,6.81-17.14,11.11l-3.87,3.36c-.32.28-.65.55-.96.85l-.9.91-1.8,1.82c-1.19,1.23-2.49,2.36-3.55,3.7l-3.37,3.88c-1.18,1.25-2.14,2.68-3.19,4.03l-3.13,4.1c-1.98,2.81-3.81,5.73-5.81,8.56.8-1.53,1.62-3.05,2.46-4.56.85-1.51,1.64-3.06,2.54-4.54l2.89-4.33c.98-1.44,1.91-2.91,3.03-4.23,2.17-2.72,4.31-5.47,6.79-7.93l1.81-1.88.91-.94c.31-.31.65-.58.97-.87l3.92-3.47c5.43-4.37,11.35-8.2,17.76-10.98,6.38-2.77,13.23-4.71,20.17-4.81Z"/>
    <path class="st5" d="M164.84,430.61c7.04.63,14.12.36,20.88-1.24,3.34-.91,6.63-2.03,9.67-3.67,3.03-1.63,5.87-3.61,8.42-5.94,2.58-2.29,4.84-4.93,6.81-7.78,2-2.83,3.69-5.88,5.18-9.03,1.47-3.16,2.72-6.44,3.75-9.79,1.05-3.35,1.87-6.78,2.44-10.26-.37,7.06-2.02,14.09-4.76,20.68-2.75,6.57-6.69,12.8-12.07,17.65-2.69,2.41-5.68,4.49-8.9,6.14-3.24,1.61-6.68,2.75-10.19,3.5-7.06,1.4-14.3,1.12-21.22-.28Z"/>
    <path class="st3" d="M221.98,382.91c-3.65-.67-7.35-.86-11.01-.67-3.67.18-7.3.75-10.81,1.69-7.05,1.88-13.56,5.44-19.03,10.21-5.52,4.75-9.93,10.69-13.56,17.04-3.63,6.38-6.44,13.24-8.83,20.26,1.64-7.23,3.98-14.36,7.46-21,.89-1.65,1.73-3.32,2.78-4.88.51-.79.97-1.6,1.52-2.37l1.65-2.29c2.31-2.96,4.79-5.82,7.68-8.27,2.87-2.45,6-4.62,9.36-6.35,3.37-1.72,6.93-3.05,10.61-3.86,7.34-1.66,15.07-1.6,22.2.48Z"/>
    <path class="st5" d="M113.65,476.65c2.66-.73,5.21-1.76,7.65-2.99l1.83-.92c.6-.33,1.18-.68,1.77-1.02,1.19-.66,2.33-1.41,3.46-2.17,4.51-3.05,8.6-6.66,12.32-10.61l2.71-3.05c.92-1,1.67-2.15,2.53-3.21,1.76-2.09,3.16-4.44,4.73-6.68.81-1.1,1.43-2.33,2.14-3.5l2.1-3.54c1.31-2.41,2.5-4.89,3.84-7.32-.93,2.6-1.94,5.17-2.96,7.75l-1.83,3.74c-.62,1.24-1.2,2.51-1.95,3.68-1.43,2.38-2.83,4.79-4.54,7l-1.24,1.68c-.42.56-.82,1.13-1.3,1.64l-2.75,3.16c-3.85,4.04-8.14,7.7-12.95,10.56-4.78,2.85-10.04,5.07-15.54,5.79Z"/>
    <path class="st3" d="M158.72,431.65c-2.66.73-5.21,1.76-7.65,2.99l-1.83.92c-.6.33-1.18.68-1.77,1.02-1.19.66-2.33,1.41-3.46,2.17-4.51,3.05-8.6,6.66-12.32,10.61l-2.71,3.05c-.92,1-1.67,2.15-2.53,3.21-1.76,2.09-3.16,4.44-4.73,6.68-.81,1.1-1.43,2.33-2.14,3.5l-2.1,3.54c-1.31,2.41-2.5,4.89-3.84,7.32.93-2.6,1.94-5.17,2.96-7.75l1.83-3.74c.62-1.24,1.2-2.51,1.95-3.68,1.43-2.38,2.83-4.79,4.54-7l1.24-1.68c.42-.56.82-1.13,1.3-1.64l2.75-3.16c3.85-4.04,8.14-7.7,12.95-10.56,4.78-2.85,10.04-5.07,15.54-5.79Z"/>
    <path class="st5" d="M118.35,475.37c5.63-.28,11.19-1.28,16.32-3.28,2.53-1.09,4.97-2.36,7.19-3.96,2.2-1.62,4.21-3.49,5.95-5.59,3.56-4.17,6.01-9.21,7.76-14.45.86-2.64,1.56-5.34,2.07-8.08.55-2.74.89-5.53,1.07-8.34.43,5.63-.15,11.37-1.65,16.88-1.49,5.5-3.98,10.85-7.73,15.29-1.88,2.2-4.02,4.19-6.4,5.85-2.42,1.6-5.02,2.91-7.73,3.87-5.47,1.84-11.25,2.32-16.87,1.83Z"/>
    <path class="st3" d="M158.72,431.65c-5.91-.25-11.76.99-17.09,3.22-5.33,2.27-10.05,5.79-13.83,10.13-3.85,4.31-6.7,9.45-8.98,14.81-2.26,5.39-3.86,11.07-5.17,16.84.54-5.89,1.65-11.79,3.72-17.41,2.04-5.61,4.92-11.01,8.93-15.57,2.02-2.25,4.26-4.32,6.74-6.06,2.49-1.72,5.18-3.17,8.02-4.19,5.65-2.08,11.81-2.8,17.66-1.78Z"/>
    <path class="st5" d="M65.36,529.16c3.1-.89,6.1-2.03,9-3.4,2.91-1.33,5.71-2.88,8.41-4.57,5.38-3.41,10.33-7.46,14.57-12.19,1.09-1.15,2.08-2.39,3.1-3.61.95-1.27,1.93-2.52,2.8-3.85.93-1.29,1.74-2.66,2.58-4.01.42-.68.77-1.39,1.16-2.08.39-.7.79-1.38,1.13-2.1,2.86-5.69,5.11-11.72,6.8-17.95-.93,6.38-2.71,12.69-5.39,18.62-1.34,2.97-2.91,5.84-4.7,8.57-.86,1.39-1.87,2.68-2.83,4-1.03,1.26-2.04,2.56-3.16,3.75-4.39,4.84-9.57,8.97-15.25,12.18-5.66,3.21-11.82,5.61-18.2,6.63Z"/>
    <path class="st3" d="M113.42,475.74c-3,1.01-5.93,2.17-8.73,3.58-2.83,1.36-5.54,2.93-8.16,4.63-5.22,3.42-10,7.49-14.11,12.16-2.08,2.31-3.99,4.77-5.71,7.37-1.73,2.58-3.33,5.27-4.72,8.07-1.39,2.8-2.67,5.66-3.73,8.61-1.17,2.92-2,5.96-2.91,8.99.93-6.25,2.59-12.46,5.23-18.28,2.6-5.83,6.08-11.3,10.34-16.1,4.27-4.78,9.27-8.92,14.78-12.15,5.5-3.25,11.49-5.66,17.71-6.89Z"/>
    <path class="st5" d="M71.75,527.3c1.69-.23,3.37-.45,5.05-.64,1.68-.24,3.34-.57,5-.85,1.66-.32,3.29-.73,4.94-1.09,1.61-.48,3.24-.9,4.83-1.43,1.56-.6,3.16-1.1,4.66-1.83.75-.35,1.53-.66,2.27-1.05l2.18-1.21c2.84-1.7,5.5-3.69,7.75-6.09,4.53-4.79,7.19-11.12,8.02-17.71.42-3.3.43-6.66.16-10.01-.28-3.35-.85-6.7-1.78-9.95l.1.06-1.49.25,1.46-.42.07-.02.03.08c2.49,6.34,3.64,13.28,3.06,20.2-.3,3.45-1.12,6.88-2.47,10.11-1.38,3.21-3.29,6.22-5.7,8.78-2.42,2.54-5.25,4.65-8.27,6.36l-2.31,1.2c-.78.38-1.59.68-2.38,1.02-1.57.73-3.25,1.16-4.88,1.7-6.61,1.94-13.49,2.55-20.28,2.56Z"/>
    <path class="st3" d="M114.9,475.4c-3.55.13-7.07.53-10.53,1.19-3.46.64-6.87,1.54-10.17,2.69-6.58,2.33-12.77,5.84-17.6,10.8-2.41,2.47-4.42,5.31-6.05,8.36-.38.78-.84,1.51-1.16,2.32l-.99,2.4c-.32.81-.53,1.65-.81,2.48l-.4,1.24-.3,1.27c-1.64,6.79-1.96,13.91-1.51,21-1.23-6.99-1.45-14.26-.01-21.34,1.34-7.09,4.76-13.85,9.81-19.12,2.57-2.59,5.48-4.82,8.62-6.62,3.15-1.79,6.48-3.23,9.93-4.26,6.88-2.1,14.1-2.92,21.19-2.4Z"/>
    <path class="st5" d="M25.44,576.94c17.21-6.96,29.49-22.53,37.22-38.93,1.88-3.7,3.46-7.97,5.08-11.78-1.04,4-2.28,8.46-3.88,12.31-6.69,17.03-20.09,33.66-38.42,38.4h0Z"/>
    <path class="st3" d="M67.73,526.24c-17.21,6.96-29.49,22.53-37.22,38.93-1.88,3.7-3.46,7.97-5.08,11.78,1.04-4,2.28-8.46,3.88-12.31,6.69-17.03,20.09-33.66,38.42-38.4h0Z"/>
    <path class="st5" d="M30.18,575.16c18.92-2.5,31.77-12.75,35.92-31.66,1.27-5.64,1.84-11.46,1.63-17.26.98,5.77.92,11.74-.11,17.57-3.21,19.46-17.86,31.38-37.45,31.35h0Z"/>
    <path class="st3" d="M67.73,526.24c-19.48,1.19-33.23,14.63-38.6,32.82-1.82,5.78-2.92,11.8-3.7,17.88,0-6.13.59-12.32,2.2-18.31,4.63-18.93,19.89-33.57,40.1-32.39h0Z"/>
    <path class="st5" d="M0,635.97c12.59-16.08,19.89-35.34,24.42-55.08.03-.04-.03.08-.03.08,0-.02.01-.05.02-.07,0-.02.37-1.55.37-1.57,0,0-.13,1.59-.13,1.59,0-.05,0,.03,0,.05,0,0,0,.05,0,.05,0,0-.03.04-.03.04-1.91,19.82-9.91,40.67-24.61,54.91h0Z"/>
    <path class="st3" d="M0,599.27c5.67-9.07,14.4-16.88,24.78-19.94-9.12,5.57-17,12.69-24.78,19.94h0Z"/>
    <path class="st5" d="M24.78,579.33c5.89,17.98,4.48,40.29-9.16,54.51-4.36,4.65-9.85,8.07-15.62,10.45,5.44-3.08,10.46-6.83,14.48-11.49,12.66-14.43,13.83-35.56,10.3-53.47h0Z"/>
    <path class="st3" d="M0,589.25c6.43-6.37,15.69-10.26,24.78-9.92-8.65,2.45-16.77,5.86-24.78,9.92h0Z"/>
  </g>
</svg>