<?xml version="1.0" encoding="UTF-8"?>
<svg xmlns="http://www.w3.org/2000/svg" version="1.1" viewBox="0 0 648 306">
  <!-- Generator: Adobe Illustrator 29.5.1, SVG Export Plug-In . SVG Version: 2.1.0 Build 141)  -->
  <defs>
    <style>
      .st0 {
        fill: #231f20;
      }

      .st1 {
        fill: #e8deb9;
      }

      .st2 {
        fill: #8b626c;
      }

      .st3 {
        fill: #cec2ab;
      }

      .st4 {
        fill: #5f475c;
      }

      .st5 {
        fill: #383e60;
      }

      .st6 {
        fill: none;
        stroke: #cec2ab;
        stroke-miterlimit: 10;
      }
    </style>
  </defs>
  <g id="Layer_1">
    <rect class="st1" x="0" width="648" height="306"/>
    <path class="st5" d="M19.04,9.86s1.21-2.75-3.09-1.71c0,0-7.36,3.09-7.49,10.6s5.94,10.04,5.94,10.04c0,0,9.17,1.74,6.93-4.41,0,0-1.73-1.13-3.49.93,0,0-3.41,2.64-5.9-1.45,0,0-1.41-5.09,1.28-9.51,0,0,2.29-3.46,4.49-4.01,0,0,1.18.18,1.33-.48Z"/>
    <path class="st5" d="M23.02,10.01s2.19-1.69,2.87.37c0,0,3.98,6.31-.2,18.52,0,0-2.75,1.05-1.82-1.61s1.24-15.12-.84-17.28Z"/>
    <path class="st5" d="M33,25.53s-.64,6.16,3.73,2.92c0,0-2.25-7.2,2.92-18.74,0,0,.5-5.78-3.63.85,0,0-3.69,5.94-3.02,14.97Z"/>
    <path class="st5" d="M44.77,9.67s-1.35-2.34,1.01-3.64,2.99,11.32,2.99,11.32c0,0,1.06,8.4-.7,11.67,0,0-5.42,2.58-3.53-.91,0,0,2.07-9.72.24-18.44Z"/>
    <path class="st5" d="M58.5,8.62s1.63-2.72,2.29-.71c0,0-1.83,13.9,0,20.17,0,0-1.87,2.86-3.13,0s-.46-15.28.84-19.46Z"/>
    <path class="st5" d="M70.6,7.91s2.57-1.36,2.89-.05c0,0-4.61,12.47-2.92,25.54,0,0-3.13,4.37-3.1-5.83,0,0-.37-13.72,3.13-19.66Z"/>
    <path class="st5" d="M86.5,9.13s1.23-1.46-1.94-1.58-5.02,1.58-5.02,1.58c0,0-10.04,5.81-3.52,16.47,0,0,3.39,5.65,9.15,3.07,0,0,2.78-1.79,1.56-3.67,0,0-1.08-1.46-2.91.25,0,0-5.09,3.13-6.65-1.5s1.59-9.16,1.59-9.16c0,0,2.91-4.12,7.75-5.46Z"/>
    <path class="st5" d="M93.58,12.48s2.06-2.08,3.05.83c0,0,1.87,8.89-3.05,11.1,0,0-1.59-1.22,0-11.92Z"/>
    <path class="st5" d="M109.47,7.64s1.83-1.5,2.91,1.26c0,0-6.43,14.81,2.91,19.58,0,0-.18,1.13-2.91,0s-9.65-7.21-2.91-20.84Z"/>
    <path class="st4" d="M20.51,17.27s.44,2.09.9,2.32,5.92,2.48,16.18.39c0,0,4.82-3.07-.31-2.71,0,0-10.83,1.74-16.03-.03,0,0-.61-.59-.74.03Z"/>
    <path class="st4" d="M39.01,7.96s.11-1,2.17.7c0,0,5.03,2.16,11.17,1.06,0,0,11.71-1.9,3.15,2.51,0,0-10.62,2.73-15.33-2.02,0,0-2.18-1.82-1.16-2.24Z"/>
    <path class="st4" d="M41.66,16.83s1.01,2.82,1.75,2.97c0,0,2.09,1.11,7.62-.35,0,0,5.56-2.39.48-2.92,0,0-6.48,1.4-9.85.3Z"/>
    <path class="st4" d="M40.52,24.05s1.64,3.11,2.23,3.33c0,0,5.15,2.84,10.48.79,0,0,7.51-3.26.62-2.6,0,0-10.85.62-13.33-1.53Z"/>
    <path class="st4" d="M71.5,29.59s2.74-1.29,2.38-2.91c0,0-11.96-13.83-12.1-15.27,0,0-2.96-1.21-.49,3.93,2.47,5.14,7.48,12.5,10.21,14.25Z"/>
    <path class="st4" d="M78.43,16.14s.03,2.89,1.42,3.33c0,0,2.46.12,2.95-.14,0,0-5.08,6.79-3.25,12.03,0,0,1.15,1.2,2.98.1,0,0,.84-11.34,3.34-12.79,0,0,8.84-2.5,4.15-3.3,0,0-7.62,1.75-11.59.76Z"/>
    <path class="st4" d="M91.36,11.13s-1.62-1.63-1.14-2.07c0,0,17.33-6.91,14.22,8.74,0,0-.66,7.77-10.53,11.21,0,0-3.74-.1-.81-2.38,0,0,12.64-8.48,9.1-14.86,0,0-3.09-2.74-10.84-.63Z"/>
    <path class="st4" d="M90.53,15.16s.31,2.91,1.14,3.28c0,0,5.22-.22,6.96-1.64,0,0,4.13-2.12-1.65-1.64h-6.45Z"/>
    <path class="st4" d="M104.52,15.09s-.4,1.78,1.06,3c0,0,3.27.67,6.69-.73,0,0,3.26-2-.26-2.7,0,0-4.53.87-7.48.43Z"/>
    <path class="st4" d="M113.81,24.86s.02,1.36,2.61,1.63c0,0,6.14.09,5.77-13.02,0,0-.3-5.73-2.49-4.32,0,0-1.05,12.35-4.66,15.58,0,0-1.1-.71-1.23.12Z"/>
    <g>
      <path class="st2" d="M42.27,40.38v.64h-2.43v-.64h2.43Z"/>
      <path class="st2" d="M48.51,43.07c-.38.14-1.14.37-2.04.37-1.01,0-1.83-.26-2.48-.88-.57-.55-.93-1.44-.93-2.47,0-1.98,1.37-3.43,3.6-3.43.77,0,1.37.17,1.66.31l-.21.7c-.35-.16-.8-.29-1.47-.29-1.62,0-2.67,1.01-2.67,2.67s1.02,2.68,2.56,2.68c.56,0,.95-.08,1.14-.18v-1.98h-1.35v-.69h2.19v3.19Z"/>
      <path class="st2" d="M55.49,39.98c0,2.29-1.39,3.5-3.08,3.5s-2.99-1.36-2.99-3.37c0-2.11,1.31-3.49,3.08-3.49s2.99,1.39,2.99,3.36ZM50.34,40.08c0,1.42.77,2.69,2.12,2.69s2.13-1.25,2.13-2.76c0-1.32-.69-2.7-2.12-2.7s-2.13,1.31-2.13,2.77Z"/>
      <path class="st2" d="M57.46,36.72v3.93c0,1.49.66,2.12,1.55,2.12.99,0,1.62-.65,1.62-2.12v-3.93h.87v3.87c0,2.04-1.07,2.88-2.51,2.88-1.36,0-2.39-.78-2.39-2.84v-3.91h.87Z"/>
      <path class="st2" d="M62.97,36.81c.43-.09,1.05-.14,1.65-.14.92,0,1.51.17,1.92.54.33.3.52.75.52,1.26,0,.88-.55,1.46-1.25,1.7v.03c.51.18.82.65.98,1.34.22.93.37,1.57.51,1.82h-.89c-.11-.19-.26-.76-.44-1.59-.2-.92-.55-1.26-1.33-1.29h-.81v2.88h-.86v-6.55ZM63.83,39.84h.88c.92,0,1.5-.5,1.5-1.26,0-.86-.62-1.23-1.53-1.24-.41,0-.71.04-.85.08v2.42Z"/>
      <path class="st2" d="M73.87,40.45c-.05-.93-.11-2.04-.1-2.87h-.03c-.23.78-.5,1.61-.84,2.52l-1.17,3.22h-.65l-1.07-3.16c-.32-.94-.58-1.79-.77-2.58h-.02c-.02.83-.07,1.94-.13,2.94l-.18,2.85h-.82l.46-6.64h1.09l1.13,3.21c.28.82.5,1.55.67,2.24h.03c.17-.67.4-1.4.7-2.24l1.18-3.21h1.09l.41,6.64h-.84l-.17-2.92Z"/>
      <path class="st2" d="M79.63,40.25h-2.58v2.4h2.88v.72h-3.74v-6.64h3.59v.72h-2.73v2.1h2.58v.71Z"/>
      <path class="st2" d="M82.46,37.45h-2.02v-.73h4.92v.73h-2.03v5.91h-.87v-5.91Z"/>
      <path class="st2" d="M87.57,40.38v.64h-2.43v-.64h2.43Z"/>
    </g>
    <g>
      <path class="st0" d="M137.06,17.93v-2.12h-3.62v-.7l3.48-4.98h1.14v4.85h1.09v.83h-1.09v2.12h-1ZM137.06,14.98v-2.6c0-.41.01-.82.04-1.22h-.04c-.24.46-.43.79-.65,1.15l-1.91,2.65v.02h2.55Z"/>
      <path class="st0" d="M145.01,10.14v.7l-3.39,7.1h-1.09l3.38-6.9v-.02h-3.81v-.88h4.92Z"/>
      <path class="st0" d="M146.01,15.95c0-.98.59-1.68,1.55-2.09v-.04c-.88-.41-1.25-1.08-1.25-1.75,0-1.24,1.04-2.08,2.41-2.08,1.51,0,2.27.95,2.27,1.92,0,.66-.32,1.37-1.28,1.82v.04c.97.38,1.57,1.07,1.57,2.02,0,1.35-1.16,2.27-2.65,2.27-1.63,0-2.61-.97-2.61-2.11ZM150.21,15.91c0-.95-.66-1.4-1.72-1.7-.91.26-1.4.86-1.4,1.61-.04.79.56,1.49,1.56,1.49s1.56-.59,1.56-1.39ZM147.31,12.01c0,.78.59,1.2,1.49,1.44.67-.23,1.19-.71,1.19-1.42,0-.62-.37-1.27-1.32-1.27-.88,0-1.35.58-1.35,1.25Z"/>
      <path class="st0" d="M152.88,17.19c.23.02.49,0,.85-.04.61-.08,1.19-.34,1.63-.76.52-.47.89-1.15,1.03-2.07h-.04c-.43.53-1.06.84-1.83.84-1.4,0-2.3-1.06-2.3-2.39,0-1.48,1.07-2.77,2.66-2.77s2.58,1.3,2.58,3.29c0,1.72-.58,2.91-1.34,3.66-.6.59-1.43.95-2.27,1.04-.38.06-.72.07-.97.06v-.86ZM153.26,12.7c0,.97.59,1.65,1.5,1.65.71,0,1.26-.35,1.54-.82.06-.1.1-.22.1-.38,0-1.33-.49-2.35-1.6-2.35-.9,0-1.54.79-1.54,1.9Z"/>
      <path class="st0" d="M168.15,14.38c-.06-1.13-.13-2.48-.12-3.49h-.04c-.28.95-.61,1.96-1.02,3.07l-1.43,3.92h-.79l-1.31-3.85c-.38-1.14-.71-2.18-.94-3.14h-.02c-.02,1.01-.08,2.36-.16,3.57l-.22,3.47h-1l.56-8.08h1.33l1.38,3.91c.34,1,.61,1.88.82,2.72h.04c.2-.82.49-1.7.85-2.72l1.44-3.91h1.33l.5,8.08h-1.02l-.2-3.55Z"/>
      <path class="st0" d="M175.16,17.72c-.28.14-.89.34-1.67.34-1.75,0-2.89-1.19-2.89-2.96s1.22-3.08,3.12-3.08c.62,0,1.18.16,1.46.3l-.24.82c-.25-.14-.65-.28-1.22-.28-1.33,0-2.05.98-2.05,2.19,0,1.34.86,2.17,2.02,2.17.6,0,1-.16,1.3-.29l.18.79Z"/>
      <path class="st0" d="M176.43,9.85h1.04v3.9h.04c.22-.31.43-.6.64-.86l2.47-3.03h1.3l-2.93,3.43,3.15,4.65h-1.24l-2.66-3.97-.77.89v3.08h-1.04v-8.08Z"/>
      <path class="st0" d="M183.02,13.7c0-.6-.01-1.09-.05-1.57h.94l.06.96h.02c.29-.55.96-1.09,1.92-1.09.8,0,2.05.48,2.05,2.47v3.47h-1.06v-3.35c0-.94-.35-1.71-1.34-1.71-.7,0-1.24.49-1.42,1.08-.05.13-.07.31-.07.49v3.49h-1.06v-4.23Z"/>
      <path class="st0" d="M190.85,10.5c.01.36-.25.65-.67.65-.37,0-.64-.29-.64-.65s.28-.66.66-.66.65.29.65.66ZM189.68,17.93v-5.8h1.06v5.8h-1.06Z"/>
      <path class="st0" d="M197.49,12.13c-.02.42-.05.89-.05,1.6v3.37c0,1.33-.26,2.15-.83,2.65-.56.53-1.38.7-2.11.7s-1.46-.17-1.93-.48l.26-.8c.38.24.98.46,1.7.46,1.08,0,1.87-.56,1.87-2.03v-.65h-.02c-.32.54-.95.97-1.85.97-1.44,0-2.47-1.22-2.47-2.83,0-1.97,1.28-3.08,2.61-3.08,1.01,0,1.56.53,1.81,1.01h.02l.05-.88h.92ZM196.4,14.42c0-.18-.01-.34-.06-.48-.19-.61-.71-1.12-1.48-1.12-1.01,0-1.73.85-1.73,2.19,0,1.14.58,2.09,1.72,2.09.65,0,1.24-.41,1.46-1.08.06-.18.08-.38.08-.56v-1.04Z"/>
      <path class="st0" d="M199.2,9.42h1.06v3.62h.02c.17-.3.43-.56.76-.74.31-.18.68-.3,1.08-.3.78,0,2.03.48,2.03,2.48v3.45h-1.06v-3.33c0-.94-.35-1.73-1.34-1.73-.68,0-1.22.48-1.42,1.06-.06.14-.07.3-.07.5v3.5h-1.06v-8.52Z"/>
      <path class="st0" d="M207.08,10.46v1.67h1.51v.8h-1.51v3.13c0,.72.2,1.13.79,1.13.28,0,.48-.04.61-.07l.05.79c-.2.08-.53.14-.94.14-.49,0-.89-.16-1.14-.44-.3-.31-.41-.83-.41-1.51v-3.17h-.9v-.8h.9v-1.39l1.03-.28Z"/>
      <path class="st0" d="M212.36,9.96c.53-.11,1.28-.17,2-.17,1.12,0,1.83.2,2.34.66.41.36.64.91.64,1.54,0,1.07-.67,1.77-1.52,2.06v.04c.62.22,1,.79,1.19,1.63.26,1.13.46,1.91.62,2.22h-1.08c-.13-.23-.31-.92-.54-1.93-.24-1.12-.67-1.54-1.62-1.57h-.98v3.5h-1.04v-7.98ZM213.4,13.64h1.07c1.12,0,1.82-.61,1.82-1.54,0-1.04-.76-1.5-1.86-1.51-.5,0-.86.05-1.03.1v2.95Z"/>
      <path class="st0" d="M223.84,9.42v7.02c0,.52.01,1.1.05,1.5h-.95l-.05-1.01h-.02c-.32.65-1.03,1.14-1.98,1.14-1.4,0-2.48-1.19-2.48-2.95-.01-1.93,1.19-3.12,2.6-3.12.89,0,1.49.42,1.75.89h.02v-3.47h1.06ZM222.79,14.49c0-.13-.01-.31-.05-.44-.16-.67-.73-1.22-1.52-1.22-1.09,0-1.74.96-1.74,2.24,0,1.18.58,2.15,1.72,2.15.71,0,1.35-.47,1.55-1.26.04-.14.05-.29.05-.46v-1.01Z"/>
      <path class="st0" d="M134.17,24.34c.5-.08,1.16-.16,2-.16,1.03,0,1.79.24,2.27.67.44.38.71.97.71,1.69s-.22,1.31-.62,1.73c-.55.59-1.45.89-2.47.89-.31,0-.6-.01-.84-.07v3.24h-1.04v-7.99ZM135.21,28.24c.23.06.52.08.86.08,1.26,0,2.03-.61,2.03-1.73s-.76-1.58-1.91-1.58c-.46,0-.8.04-.98.08v3.14Z"/>
      <path class="st0" d="M141.5,24.9c.01.36-.25.65-.67.65-.37,0-.64-.29-.64-.65s.28-.66.66-.66.65.29.65.66ZM140.32,32.33v-5.8h1.06v5.8h-1.06Z"/>
      <path class="st0" d="M144.4,24.86v1.67h1.51v.8h-1.51v3.13c0,.72.2,1.13.79,1.13.28,0,.48-.04.61-.07l.05.79c-.2.08-.53.14-.94.14-.49,0-.89-.16-1.14-.44-.3-.31-.41-.83-.41-1.51v-3.17h-.9v-.8h.9v-1.39l1.03-.28Z"/>
      <path class="st0" d="M148.38,24.86v1.67h1.51v.8h-1.51v3.13c0,.72.2,1.13.79,1.13.28,0,.48-.04.61-.07l.05.79c-.2.08-.53.14-.94.14-.49,0-.89-.16-1.14-.44-.3-.31-.41-.83-.41-1.51v-3.17h-.9v-.8h.9v-1.39l1.03-.28Z"/>
      <path class="st0" d="M150.93,31.25c.31.2.86.42,1.39.42.77,0,1.13-.38,1.13-.86,0-.5-.3-.78-1.08-1.07-1.04-.37-1.54-.95-1.54-1.64,0-.94.76-1.7,2-1.7.59,0,1.1.17,1.43.36l-.26.77c-.23-.14-.65-.34-1.19-.34-.62,0-.97.36-.97.79,0,.48.35.7,1.1.98,1.01.38,1.52.89,1.52,1.75,0,1.02-.79,1.74-2.17,1.74-.64,0-1.22-.16-1.63-.4l.26-.8Z"/>
      <path class="st0" d="M155.78,32.33c.02-.4.05-.98.05-1.5v-7.02h1.04v3.65h.02c.37-.65,1.04-1.07,1.98-1.07,1.44,0,2.46,1.2,2.45,2.96,0,2.07-1.31,3.11-2.6,3.11-.84,0-1.51-.32-1.94-1.09h-.04l-.05.96h-.91ZM156.87,30.01c0,.13.02.26.05.38.2.73.82,1.24,1.58,1.24,1.1,0,1.76-.9,1.76-2.23,0-1.16-.6-2.16-1.73-2.16-.72,0-1.39.49-1.61,1.3-.02.12-.06.26-.06.43v1.04Z"/>
      <path class="st0" d="M167.51,30.75c0,.6.01,1.13.05,1.58h-.94l-.06-.95h-.02c-.28.47-.89,1.08-1.92,1.08-.91,0-2-.5-2-2.54v-3.39h1.06v3.21c0,1.1.34,1.85,1.3,1.85.71,0,1.2-.49,1.39-.96.06-.16.1-.35.1-.54v-3.56h1.06v4.22Z"/>
      <path class="st0" d="M169.27,28.34c0-.68-.01-1.27-.05-1.81h.92l.04,1.14h.05c.26-.78.9-1.27,1.61-1.27.12,0,.2.01.3.04v1c-.11-.02-.22-.04-.36-.04-.74,0-1.27.56-1.42,1.36-.02.14-.05.31-.05.49v3.09h-1.04v-3.99Z"/>
      <path class="st0" d="M178.1,26.53c-.02.42-.05.89-.05,1.6v3.37c0,1.33-.26,2.15-.83,2.65-.56.53-1.38.7-2.11.7s-1.46-.17-1.93-.48l.26-.8c.38.24.98.46,1.7.46,1.08,0,1.87-.56,1.87-2.03v-.65h-.02c-.32.54-.95.97-1.85.97-1.44,0-2.47-1.22-2.47-2.83,0-1.97,1.28-3.08,2.61-3.08,1.01,0,1.56.53,1.81,1.01h.02l.05-.88h.92ZM177,28.82c0-.18-.01-.34-.06-.48-.19-.61-.71-1.12-1.48-1.12-1.01,0-1.73.85-1.73,2.19,0,1.14.58,2.09,1.72,2.09.65,0,1.24-.41,1.46-1.08.06-.18.08-.38.08-.56v-1.04Z"/>
      <path class="st0" d="M179.8,23.82h1.06v3.62h.02c.17-.3.43-.56.76-.74.31-.18.68-.3,1.08-.3.78,0,2.03.48,2.03,2.48v3.45h-1.06v-3.33c0-.94-.35-1.73-1.34-1.73-.68,0-1.22.48-1.42,1.06-.06.14-.07.3-.07.5v3.5h-1.06v-8.52Z"/>
      <path class="st0" d="M185.78,33.81c.26-.71.59-1.99.72-2.87l1.18-.12c-.28,1.02-.8,2.35-1.14,2.91l-.76.07Z"/>
      <path class="st0" d="M191.53,24.34c.5-.08,1.16-.16,2-.16,1.03,0,1.79.24,2.27.67.44.38.71.97.71,1.69s-.22,1.31-.62,1.73c-.55.59-1.45.89-2.47.89-.31,0-.6-.01-.84-.07v3.24h-1.04v-7.99ZM192.57,28.24c.23.06.52.08.86.08,1.26,0,2.03-.61,2.03-1.73s-.76-1.58-1.91-1.58c-.46,0-.8.04-.98.08v3.14Z"/>
      <path class="st0" d="M198.21,29.79l-.84,2.54h-1.08l2.75-8.08h1.26l2.76,8.08h-1.12l-.86-2.54h-2.87ZM200.86,28.97l-.79-2.33c-.18-.53-.3-1.01-.42-1.48h-.02c-.12.48-.25.97-.41,1.46l-.79,2.34h2.43Z"/>
      <path class="st0" d="M208.71,25.52h-.02l-1.36.73-.2-.8,1.7-.91h.9v7.8h-1.02v-6.81Z"/>
      <path class="st0" d="M217.23,25.42h-2.97l-.3,2c.18-.02.35-.05.64-.05.6,0,1.2.13,1.68.42.61.35,1.12,1.02,1.12,2,0,1.52-1.21,2.66-2.9,2.66-.85,0-1.57-.24-1.94-.48l.26-.8c.32.19.96.43,1.67.43,1,0,1.85-.65,1.85-1.69-.01-1.01-.68-1.73-2.24-1.73-.44,0-.79.05-1.08.08l.5-3.74h3.73v.89Z"/>
      <path class="st0" d="M218.73,32.33v-.65l.83-.8c1.99-1.9,2.89-2.9,2.9-4.08,0-.79-.38-1.52-1.55-1.52-.71,0-1.3.36-1.66.66l-.34-.74c.54-.46,1.31-.79,2.21-.79,1.68,0,2.39,1.15,2.39,2.27,0,1.44-1.04,2.6-2.69,4.19l-.62.58v.02h3.5v.88h-4.98Z"/>
      <path class="st0" d="M225.14,31.12c.3.19,1,.49,1.73.49,1.36,0,1.77-.86,1.76-1.51-.01-1.09-1-1.56-2.02-1.56h-.59v-.79h.59c.77,0,1.74-.4,1.74-1.32,0-.62-.4-1.18-1.37-1.18-.62,0-1.22.28-1.56.52l-.28-.77c.41-.3,1.2-.6,2.04-.6,1.54,0,2.23.91,2.23,1.86,0,.8-.48,1.49-1.44,1.83v.02c.96.19,1.74.91,1.74,2,0,1.25-.97,2.34-2.84,2.34-.88,0-1.64-.28-2.03-.53l.29-.82Z"/>
      <path class="st0" d="M236.1,24.54v.7l-3.39,7.1h-1.09l3.38-6.9v-.02h-3.81v-.88h4.92Z"/>
    </g>
  </g>
  <g id="Layer_2">
    <path class="st3" d="M648,132.81v1.49c-2.88,7.99-7.3,14.54-13.14,19.47-6.78,5.72-16.69,9.82-43.02,11.19-14.88.78-21.85-.03-27.45-.68-5.05-.59-9.04-1.05-16.82-.11-28.3,3.4-45.58,15.14-55.1,24.39-7.72,7.5-10.01,12.95-12.43,18.73-2.42,5.74-4.91,11.68-12.88,20.02-15.47,16.2-33.41,22.61-52.41,29.4-12.86,4.6-20.52,5.92-27.27,7.08-6.51,1.12-12.14,2.09-20.98,5.58-18.42,7.27-35.39,19.71-50.44,36.96l-.76-.66c15.16-17.37,32.26-29.9,50.83-37.23,8.94-3.53,14.61-4.51,21.18-5.64,6.71-1.15,14.32-2.46,27.1-7.03,18.89-6.75,36.72-13.13,52.03-29.15,7.84-8.21,10.3-14.06,12.67-19.72,2.47-5.87,4.8-11.42,12.66-19.06,9.63-9.35,27.11-21.23,55.67-24.67,7.91-.95,11.95-.48,17.06.11,5.56.65,12.49,1.46,27.29.68,26.05-1.36,35.8-5.36,42.43-10.96,6.01-5.08,10.49-11.92,13.31-20.35l.47.16Z"/>
    <path class="st6" d="M205.7,306c27.62-28.13,66.32-58.87,117.63-80.22,36.13-15.03,76.44-31.81,119.6-19.25,22.54,6.55,47.69,21.63,51.16,23.74,19.12,11.57,19.32,15.13,44.04,32.7,30.21,21.46,48.58,34.21,74.37,37.45,14.84,1.86,27.35-.01,35.48-1.85"/>
  </g>
  <g id="Layer_3">
    <path class="st3" d="M315.68,306c1.58-.45,3.11-1.04,4.6-1.72.74-.36,1.49-.68,2.2-1.08.72-.38,1.44-.77,2.12-1.21,2.77-1.7,5.38-3.66,7.77-5.87.59-.56,1.15-1.14,1.73-1.71.59-.56,1.13-1.17,1.66-1.79.53-.61,1.09-1.21,1.6-1.84l1.49-1.94.75-.97.68-1.02,1.36-2.04c.89-1.37,1.65-2.83,2.53-4.23-.67,1.5-1.35,3-2.11,4.47l-1.25,2.14-.63,1.07-.7,1.02-1.43,2.03c-.5.66-1.05,1.28-1.58,1.92-.52.64-1.07,1.27-1.67,1.85-.59.59-1.16,1.19-1.76,1.77-2.45,2.24-5.15,4.23-8.07,5.81-.72.41-1.47.77-2.22,1.11-.74.37-1.52.66-2.29.97-1.56.54-3.15,1.05-4.78,1.27Z"/>
    <path class="st3" d="M318.63,305.17c3.3-.14,6.6-.69,9.71-1.78.79-.24,1.53-.61,2.29-.92.73-.38,1.48-.72,2.17-1.17,1.41-.83,2.72-1.85,3.88-2.99,2.34-2.28,4.12-5.11,5.26-8.17,1.13-3.05,1.75-6.34,1.74-9.54h0s.58.46.58.46c-3.11.64-6.17,1.94-9,3.51-2.84,1.59-5.5,3.51-7.93,5.7-.6.56-1.17,1.14-1.76,1.71-.6.56-1.15,1.17-1.68,1.79-.53.62-1.09,1.22-1.61,1.86l-1.48,1.96-.74.98-.66,1.04-1.33,2.07c-.84,1.41-1.58,2.88-2.37,4.32.76-1.46,1.46-2.95,2.26-4.38l1.28-2.11.64-1.06.72-1.01,1.44-2.01c.5-.65,1.05-1.27,1.57-1.91.52-.64,1.06-1.27,1.65-1.85.58-.59,1.14-1.19,1.73-1.77,2.4-2.27,5.05-4.29,7.9-5.98,2.87-1.68,5.89-3.07,9.21-3.85l.57-.13.02.61v.02c-.07,3.41-.79,6.72-2.04,9.84-1.25,3.11-3.15,5.98-5.61,8.25-1.22,1.14-2.58,2.14-4.03,2.96-.71.44-1.48.76-2.23,1.13-.78.3-1.54.65-2.34.87-3.17,1.02-6.48,1.48-9.79,1.54Z"/>
    <path class="st6" d="M344.17,280.57"/>
    <g id="Layer_4">
      <path class="st3" d="M344.17,280.57c-1.75.02-3.48.22-5.18.57-1.7.32-3.37.81-4.97,1.43-3.2,1.26-6.2,3.05-8.68,5.41-2.51,2.33-4.54,5.16-6.1,8.24-1.57,3.07-2.7,6.39-3.56,9.77.14-.86.27-1.73.44-2.59.21-.85.38-1.71.61-2.56.51-1.68,1.07-3.36,1.82-4.96,1.44-3.23,3.52-6.19,6.11-8.63,2.59-2.44,5.74-4.28,9.1-5.4,3.35-1.12,6.92-1.63,10.41-1.28Z"/>
      <path class="st3" d="M344.17,280.59c2.58.02,5.12-.39,7.56-1.07,2.44-.69,4.81-1.62,7.03-2.84.56-.3,1.09-.64,1.64-.96.27-.16.55-.32.81-.49l.77-.55c.52-.37,1.05-.72,1.55-1.1.49-.41.98-.81,1.48-1.21l.75-.6.69-.66,1.39-1.32c.92-.89,1.74-1.88,2.66-2.79-.74,1.05-1.49,2.11-2.3,3.12l-1.31,1.44-.66.72-.71.66c-1.85,1.84-4.04,3.31-6.29,4.61-2.31,1.23-4.78,2.17-7.33,2.7-1.27.28-2.57.43-3.87.53-1.3.03-2.6.03-3.88-.21Z"/>
      <path class="st3" d="M346.63,280.65c2.55.68,5.18,1.07,7.8.97,2.61-.09,5.23-.73,7.46-2.05,2.25-1.3,4.09-3.22,5.43-5.43,1.33-2.21,2.27-4.7,2.69-7.2h0s.43.56.43.56c-2.44-.26-5.04,0-7.5.55-2.48.56-4.88,1.46-7.15,2.63-4.54,2.36-8.45,5.87-11.62,9.91,3.04-4.14,6.85-7.8,11.38-10.35,2.26-1.27,4.69-2.27,7.21-2.92,2.54-.64,5.12-1.01,7.81-.81l.51.04-.08.53h0c-.55,2.7-1.59,5.19-3.05,7.46-1.46,2.25-3.45,4.2-5.82,5.47-2.36,1.29-5.05,1.86-7.7,1.86-2.66.02-5.29-.46-7.81-1.22Z"/>
      <path class="st3" d="M370.51,267c-1.34-.38-2.69-.65-4.06-.77-1.36-.15-2.74-.2-4.09-.09-2.71.2-5.38.89-7.74,2.2-2.38,1.27-4.43,3.1-6.15,5.22-.88,1.04-1.62,2.2-2.34,3.37-.36.59-.68,1.2-1.03,1.8-.3.62-.61,1.24-.93,1.86.22-.66.45-1.32.69-1.97.28-.64.54-1.29.84-1.92.64-1.24,1.33-2.47,2.16-3.61,1.62-2.3,3.77-4.28,6.28-5.63,2.51-1.36,5.36-2.06,8.18-2.09,2.82-.03,5.64.49,8.19,1.63Z"/>
      <path class="st3" d="M370.51,268.18c3.33.02,6.64-.23,9.92-.67,3.27-.45,6.53-1.06,9.71-1.92,3.19-.83,6.34-1.85,9.4-3.11,3.09-1.19,6.02-2.73,8.98-4.27-.69.47-1.38.93-2.08,1.38-.7.45-1.39.93-2.13,1.32-1.46.8-2.93,1.61-4.46,2.28-1.5.75-3.08,1.3-4.64,1.9-.78.29-1.59.51-2.39.77-.8.26-1.6.5-2.41.69-3.24.86-6.55,1.44-9.88,1.72-1.67.14-3.34.21-5.01.23-1.67-.04-3.34-.08-4.99-.32Z"/>
      <path class="st3" d="M373.81,268.29c3.17.48,6.35.82,9.54.8,3.18,0,6.38-.26,9.46-1,3.08-.73,6.06-1.87,8.72-3.56,2.63-1.67,5.04-3.9,6.54-6.54l.4.72c-3.25-.25-6.58-.1-9.86.24-3.29.34-6.54.95-9.75,1.73-6.42,1.58-12.61,4.12-18.34,7.5,2.75-1.87,5.69-3.47,8.72-4.87,3.05-1.35,6.2-2.49,9.43-3.37,3.22-.91,6.52-1.5,9.85-1.89,3.33-.37,6.67-.56,10.06-.33l.79.05-.39.67c-1.7,2.93-4.19,5.13-6.95,6.87-2.78,1.71-5.86,2.9-9.04,3.54-3.17.67-6.42.84-9.63.74-3.22-.14-6.41-.59-9.53-1.29Z"/>
      <path class="st3" d="M408.52,258.22c-1.69-.29-3.39-.53-5.09-.63-1.7-.15-3.41-.19-5.11-.17-3.4.07-6.79.44-10.09,1.21-3.32.7-6.49,1.96-9.48,3.54-.74.42-1.49.82-2.22,1.25l-2.07,1.48c-.35.25-.71.47-1.04.74l-.96.85c-.64.57-1.29,1.13-1.94,1.69,2.28-2.54,4.81-4.99,7.86-6.68.37-.23.73-.47,1.11-.68l1.18-.56c.79-.35,1.55-.79,2.37-1.07l2.46-.86c.83-.27,1.68-.44,2.52-.67,3.39-.76,6.86-1.11,10.32-1,3.45.12,6.9.56,10.2,1.56Z"/>
      <path class="st3" d="M408.52,258.5c1.64.1,3.28.04,4.91-.12.81-.09,1.63-.15,2.43-.3.81-.12,1.61-.26,2.4-.45,3.18-.7,6.29-1.69,9.27-3,.74-.33,1.47-.7,2.2-1.05.74-.33,1.45-.74,2.15-1.15.7-.41,1.43-.79,2.12-1.21l2.04-1.34,1.03-.67.97-.74,1.95-1.48c1.29-1.01,2.49-2.13,3.78-3.16-1.13,1.19-2.26,2.39-3.46,3.53l-1.88,1.61-.94.81-1,.73-2.02,1.45c-.69.46-1.42.86-2.12,1.3-.71.44-1.43.85-2.18,1.2-.75.36-1.48.75-2.24,1.09-3.05,1.31-6.25,2.3-9.53,2.83-.82.15-1.64.24-2.47.32-.82.1-1.65.12-2.48.16-1.65,0-3.32-.05-4.93-.37Z"/>
      <path class="st3" d="M411.57,258.69c3.17.95,6.46,1.52,9.76,1.51.82.03,1.64-.07,2.46-.12.81-.12,1.63-.19,2.43-.39,1.61-.32,3.17-.85,4.65-1.55,2.96-1.39,5.57-3.48,7.65-5.99,2.07-2.51,3.74-5.41,4.77-8.44h0s.4.63.4.63c-3.15-.41-6.47-.19-9.66.36-3.21.57-6.35,1.51-9.36,2.77-.75.33-1.48.69-2.22,1.04-.75.33-1.47.73-2.17,1.14-.71.41-1.43.79-2.13,1.22l-2.04,1.37-1.02.69-.97.76-1.94,1.52c-1.26,1.06-2.44,2.2-3.66,3.3,1.19-1.13,2.35-2.3,3.58-3.4l1.9-1.57.95-.79,1.01-.71,2.02-1.43c.69-.45,1.41-.86,2.11-1.29.7-.43,1.41-.85,2.16-1.2.74-.37,1.47-.75,2.22-1.1,3.02-1.35,6.18-2.39,9.43-3.05,3.26-.64,6.57-.97,9.96-.61l.58.06-.18.58v.02c-1.19,3.2-2.96,6.08-5.16,8.63-2.21,2.53-4.94,4.61-8.01,5.95-1.53.68-3.14,1.18-4.78,1.47-.81.18-1.65.23-2.48.34-.83.02-1.66.11-2.49.06-3.33-.07-6.61-.73-9.75-1.76Z"/>
      <path class="st3" d="M443.77,243.84c-1.66-.55-3.36-.94-5.08-1.16-1.71-.26-3.45-.35-5.17-.28-3.44.14-6.85.84-9.97,2.27-3.14,1.38-5.98,3.39-8.47,5.78-2.5,2.39-4.64,5.15-6.57,8.06.41-.77.83-1.54,1.26-2.3.47-.74.92-1.49,1.42-2.22,1.03-1.42,2.11-2.82,3.34-4.09,2.42-2.58,5.36-4.7,8.61-6.15,3.25-1.46,6.83-2.16,10.37-2.12,3.54.04,7.07.73,10.25,2.21Z"/>
      <path class="st3" d="M443.77,243.65c3.26-.84,6.36-2.13,9.31-3.68,2.93-1.58,5.76-3.35,8.32-5.47.68-.48,1.26-1.08,1.9-1.61.62-.55,1.26-1.09,1.83-1.7l1.76-1.77,1.65-1.88c1.15-1.22,2.07-2.61,3.1-3.93,1.01-1.34,1.84-2.79,2.82-4.17-.38.75-.77,1.49-1.17,2.24-.41.73-.75,1.51-1.24,2.21-.95,1.39-1.82,2.86-2.91,4.15-2.02,2.73-4.51,5.07-7.1,7.25-2.63,2.15-5.55,3.94-8.61,5.38-1.53.73-3.12,1.33-4.71,1.88-1.62.47-3.26.93-4.93,1.12Z"/>
      <path class="st3" d="M446.95,242.86c3.36-.21,6.71-.67,9.91-1.66,1.61-.45,3.15-1.1,4.66-1.81,1.48-.76,2.89-1.64,4.19-2.67,2.57-2.09,4.68-4.72,6.06-7.72,1.39-2.98,2.17-6.31,2.19-9.55l.58.48c-3.21.6-6.38,1.79-9.36,3.24-2.99,1.47-5.8,3.27-8.43,5.32-2.63,2.05-5.03,4.39-7.19,6.95-2.17,2.54-4.08,5.31-5.78,8.21,1.5-3.01,3.34-5.85,5.4-8.52,2.1-2.65,4.47-5.08,7.08-7.24,2.59-2.18,5.48-4,8.51-5.54,3.05-1.51,6.21-2.75,9.61-3.41l.58-.11v.59c-.05,3.49-.9,6.86-2.37,9.97-1.48,3.1-3.67,5.87-6.41,7.94-1.37,1.03-2.85,1.89-4.39,2.64-1.56.68-3.15,1.31-4.8,1.71-3.29.85-6.67,1.21-10.04,1.19Z"/>
      <path class="st3" d="M474.45,219.44c-1.78.03-3.55.2-5.29.52-1.74.29-3.47.7-5.14,1.25-3.34,1.1-6.51,2.7-9.27,4.84-2.77,2.13-5.09,4.83-6.9,7.83-1.8,3.02-3.1,6.35-4.07,9.78.17-.87.32-1.76.53-2.62.25-.86.43-1.74.73-2.58.29-.85.59-1.7.97-2.51.33-.84.76-1.63,1.17-2.44,1.71-3.18,4.1-6.01,6.96-8.24,2.88-2.21,6.19-3.84,9.67-4.79,3.47-.94,7.1-1.37,10.65-1.03Z"/>
      <path class="st3" d="M473.71,219.41c1.19-.76,2.35-1.55,3.42-2.47,1.1-.87,2.12-1.82,3.1-2.81,1.94-2,3.64-4.22,4.95-6.65.72-1.18,1.19-2.49,1.74-3.76.38-1.33.86-2.63,1.06-4.01.61-2.72.51-5.53.41-8.36.12.69.23,1.39.33,2.09.09.7.25,1.4.22,2.12v2.14c.03.72-.14,1.42-.2,2.13-.09,1.44-.58,2.8-.92,4.2-.53,1.33-1.02,2.69-1.76,3.93-1.39,2.51-3.18,4.8-5.3,6.71-2.11,1.91-4.46,3.58-7.05,4.72Z"/>
      <path class="st3" d="M476.43,217.76c2.84-1.07,5.62-2.3,8.2-3.89,2.56-1.58,4.96-3.54,6.54-6.08.79-1.26,1.34-2.66,1.56-4.12.22-1.46.12-2.95-.25-4.38-.74-2.85-2.4-5.47-4.43-7.56h0s.57.08.57.08c-2.43,1.24-4.72,2.93-6.75,4.82-2.03,1.91-3.8,4.1-5.19,6.52-.69,1.22-1.27,2.49-1.76,3.8-.47,1.32-.83,2.67-1.08,4.05-.48,2.77-.48,5.61-.11,8.4-.46-2.78-.54-5.64-.14-8.44.22-1.4.54-2.78.98-4.14.46-1.35,1.02-2.66,1.68-3.92,1.34-2.51,3.09-4.8,5.11-6.82,2.04-2.01,4.28-3.77,6.83-5.18l.3-.17.27.26h.01c2.12,2.32,3.74,5.05,4.46,8.11.35,1.52.41,3.12.13,4.65-.27,1.54-.9,3-1.75,4.29-1.72,2.59-4.22,4.5-6.84,6.02-2.64,1.53-5.46,2.69-8.32,3.68Z"/>
      <path class="st3" d="M488.38,191.36c-1.49.54-2.94,1.14-4.35,1.85-1.42.68-2.79,1.43-4.1,2.29-2.6,1.71-5.01,3.75-6.7,6.31-1.75,2.53-2.47,5.63-2.29,8.7.15,1.53.43,3.07.95,4.54.2.76.55,1.47.81,2.21l1,2.15c-.42-.67-.85-1.34-1.24-2.03-.34-.72-.76-1.4-1.04-2.15-.63-1.47-1.01-3.04-1.26-4.64-.39-3.21.37-6.62,2.22-9.32,1.82-2.72,4.37-4.82,7.14-6.41,2.77-1.59,5.75-2.79,8.85-3.48Z"/>
      <path class="st3" d="M488.95,191.33c2.7-.57,5.28-1.51,7.75-2.67,2.45-1.18,4.83-2.53,7.01-4.16.57-.38,1.07-.83,1.61-1.25.54-.42,1.07-.85,1.56-1.32l1.52-1.37,1.43-1.47c1.92-1.95,3.57-4.14,5.24-6.34-.68,1.2-1.37,2.4-2.13,3.56-.84,1.1-1.59,2.28-2.54,3.3-1.75,2.17-3.89,3.99-6.1,5.69-2.25,1.65-4.71,3.02-7.29,4.06-1.29.53-2.62.95-3.96,1.32-1.35.3-2.72.6-4.1.65Z"/>
      <path class="st3" d="M491.55,190.84c2.76.06,5.53-.16,8.21-.82,2.67-.63,5.23-1.75,7.42-3.37,2.2-1.61,3.96-3.77,5.21-6.17,1.24-2.4,2-5.09,2.18-7.73h0s.55.51.55.51c-2.63.3-5.3,1.12-7.8,2.16-2.51,1.06-4.92,2.39-7.15,3.97-2.23,1.58-4.31,3.4-6.18,5.41-1.87,2.01-3.55,4.21-5.03,6.53,1.41-2.37,3.03-4.62,4.84-6.7,1.81-2.08,3.85-3.98,6.07-5.65,2.21-1.67,4.61-3.1,7.15-4.26,2.55-1.14,5.18-2.05,8.01-2.46l.57-.08-.02.6h0c-.28,2.88-1.16,5.58-2.52,8.06-1.37,2.46-3.27,4.63-5.58,6.22-2.3,1.6-4.94,2.65-7.66,3.21-2.72.58-5.51.72-8.26.57Z"/>
      <path class="st3" d="M515.06,172.76c-1.46-.04-2.92,0-4.35.2-.72.06-1.43.22-2.14.32-.71.15-1.41.32-2.1.49-2.77.77-5.42,1.97-7.72,3.66-.61.37-1.14.85-1.68,1.32-.53.48-1.11.91-1.55,1.47l-1.44,1.59c-.43.57-.82,1.17-1.25,1.75l-.63.88c-.2.3-.35.63-.52.95l-1.02,1.92c-.65,1.3-1.1,2.68-1.71,4.02.19-.7.39-1.41.6-2.11.23-.7.37-1.43.67-2.1l.91-2.02c.16-.33.29-.68.47-1l.58-.94c1.43-2.61,3.61-4.77,5.98-6.54,2.42-1.74,5.21-2.97,8.11-3.59,2.9-.62,5.9-.77,8.79-.27Z"/>
      <path class="st3" d="M513.46,173.33c1.62.28,3.26.41,4.89.43.82,0,1.63.03,2.45-.02.82-.03,1.63-.07,2.44-.17,3.24-.34,6.44-.98,9.54-1.94.77-.25,1.54-.53,2.3-.8.78-.25,1.52-.57,2.27-.9.75-.32,1.51-.62,2.24-.97l2.18-1.1,1.1-.55,1.05-.63,2.11-1.26c1.4-.85,2.71-1.84,4.11-2.72-1.26,1.06-2.52,2.12-3.83,3.12l-2.05,1.39-1.03.69-1.08.62-2.17,1.22c-.74.38-1.5.7-2.25,1.05-.75.35-1.51.68-2.3.94-.78.28-1.56.58-2.35.83-3.18.96-6.47,1.59-9.78,1.75-.83.06-1.66.06-2.49.04-.83.01-1.66-.06-2.48-.12-1.64-.19-3.29-.42-4.86-.92Z"/>
      <path class="st3" d="M516.48,173.86c3.04,1.3,6.25,2.23,9.52,2.59.82.12,1.64.11,2.46.16.82-.03,1.64,0,2.46-.12,1.63-.14,3.25-.49,4.79-1.02,3.1-1.05,5.92-2.83,8.27-5.09,2.34-2.26,4.32-4.96,5.69-7.85h0s.32.67.32.67c-3.08-.76-6.41-.92-9.64-.72-3.25.2-6.48.79-9.62,1.71-.78.24-1.55.52-2.32.78-.78.24-1.54.56-2.29.89-.75.33-1.51.63-2.25.98l-2.18,1.13-1.09.57-1.05.65-2.1,1.29c-1.37.91-2.67,1.91-4.01,2.87,1.31-.99,2.59-2.03,3.94-2.97l2.07-1.35,1.03-.68,1.08-.6,2.17-1.19c.73-.37,1.5-.69,2.24-1.04.75-.35,1.5-.69,2.28-.95.78-.28,1.55-.58,2.33-.85,3.15-1.01,6.41-1.69,9.71-1.98,3.31-.27,6.64-.23,9.97.51l.57.13-.25.56v.02c-1.54,3.05-3.63,5.71-6.1,7.99-2.47,2.27-5.43,4.03-8.63,5.02-1.6.5-3.25.82-4.92.92-.83.09-1.67.05-2.5.06-.83-.07-1.66-.08-2.48-.22-3.3-.45-6.49-1.47-9.49-2.84Z"/>
      <path class="st3" d="M550.14,162.72c-1.58-.74-3.23-1.31-4.92-1.72-1.67-.45-3.39-.73-5.1-.86-3.43-.24-6.9.07-10.16,1.13-3.27,1.02-6.32,2.69-9.06,4.79-2.75,2.09-5.19,4.59-7.43,7.27.5-.72.99-1.44,1.51-2.15.55-.68,1.08-1.38,1.66-2.04,1.18-1.3,2.41-2.57,3.78-3.69,2.69-2.29,5.85-4.07,9.24-5.14,3.39-1.08,7.03-1.38,10.54-.94,3.51.44,6.95,1.52,9.94,3.34Z"/>
      <path class="st3" d="M549.43,164.42c1.76.98,3.62,1.69,5.52,2.21,1.9.51,3.86.76,5.8.7,1.94-.04,3.89-.34,5.74-.99.95-.25,1.83-.71,2.75-1.09.91-.39,1.74-.96,2.65-1.4-.39.32-.78.63-1.18.94-.41.29-.78.65-1.23.89-.88.5-1.74,1.06-2.72,1.39-1.88.83-3.94,1.2-6,1.26-2.06.04-4.12-.28-6.05-.96-1.93-.67-3.75-1.66-5.29-2.95Z"/>
      <path class="st3" d="M551.29,165.55c1.59,1.46,3.28,2.82,5.14,3.9.94.52,1.9,1,2.92,1.31,1.01.34,2.06.54,3.11.52,2.11.01,4.12-.91,5.62-2.35,1.5-1.44,2.63-3.31,3.34-5.24h0s.17.56.17.56c-1.54-1.12-3.36-2.01-5.21-2.62-1.87-.62-3.84-.95-5.81-.96-1.98,0-3.96.34-5.84.98-1.88.66-3.66,1.61-5.3,2.76,1.59-1.22,3.34-2.25,5.21-3,1.88-.73,3.89-1.17,5.92-1.25,2.03-.08,4.08.18,6.04.74,1.97.57,3.84,1.37,5.59,2.54l.3.2-.13.37h0c-.87,2.1-2.11,3.96-3.78,5.47-1.66,1.49-3.9,2.41-6.13,2.3-1.11-.03-2.2-.29-3.22-.67-1.04-.36-1.99-.89-2.92-1.45-1.84-1.16-3.48-2.59-5.01-4.11Z"/>
      <path class="st3" d="M571.89,163.85c-.83-.76-1.69-1.48-2.6-2.12-.89-.66-1.82-1.27-2.8-1.79-1.94-1.03-4.04-1.79-6.18-1.86-2.14-.11-4.26.56-6.09,1.75-1.83,1.2-3.38,2.83-4.79,4.58.28-.49.57-.98.87-1.45.33-.45.64-.93,1.01-1.38.74-.87,1.54-1.7,2.47-2.39.92-.69,1.96-1.27,3.08-1.63,1.12-.36,2.31-.52,3.48-.48,2.36.1,4.61.96,6.53,2.19,1.93,1.24,3.65,2.77,5.02,4.57Z"/>
      <path class="st3" d="M571.53,164.33c1.51.65,3.07,1.15,4.66,1.55.8.19,1.58.41,2.39.54.8.16,1.6.3,2.41.39,3.23.42,6.49.54,9.73.32.81-.06,1.62-.16,2.43-.24.81-.06,1.61-.2,2.41-.35.8-.14,1.61-.26,2.41-.42l2.38-.57,1.19-.28,1.17-.37,2.34-.73c1.56-.51,3.06-1.16,4.62-1.7-1.47.74-2.94,1.49-4.45,2.16l-2.32.88-1.16.44-1.19.35-2.39.68c-.81.19-1.62.33-2.44.5-.81.17-1.63.31-2.46.39-.83.09-1.65.2-2.48.27-3.32.2-6.66.05-9.92-.56-.82-.14-1.63-.33-2.43-.54-.81-.18-1.6-.44-2.39-.69-1.56-.56-3.1-1.16-4.52-2.02Z"/>
      <path class="st3" d="M574.35,165.54c2.66,1.96,5.56,3.62,8.67,4.72.77.31,1.57.49,2.36.72.81.16,1.6.37,2.42.45,1.62.24,3.27.27,4.9.11,3.26-.3,6.42-1.39,9.22-3.05,2.79-1.66,5.35-3.83,7.35-6.33h0s.15.73.15.73c-2.82-1.45-6.02-2.37-9.21-2.93-3.21-.55-6.49-.72-9.75-.56-.81.06-1.63.15-2.44.22-.82.06-1.62.19-2.43.34-.81.15-1.62.26-2.42.43l-2.39.6-1.19.3-1.17.39-2.34.78c-1.54.57-3.04,1.25-4.56,1.87,1.5-.66,2.99-1.37,4.52-1.98l2.32-.84,1.16-.42,1.19-.33,2.38-.66c.8-.19,1.62-.33,2.42-.5.81-.17,1.62-.32,2.44-.4.82-.1,1.64-.21,2.46-.29,3.3-.25,6.62-.16,9.91.32,3.28.5,6.51,1.31,9.58,2.8l.52.25-.37.49v.02c-2.21,2.61-4.85,4.72-7.78,6.37-2.93,1.63-6.21,2.67-9.55,2.89-1.67.12-3.35.05-5-.24-.83-.1-1.63-.34-2.44-.52-.79-.26-1.6-.46-2.37-.79-3.11-1.19-5.97-2.93-8.58-4.96Z"/>
      <path class="st3" d="M609.67,162.47c-1.37-1.08-2.84-2.02-4.39-2.81-1.53-.82-3.13-1.49-4.77-2.01-3.28-1.03-6.73-1.53-10.15-1.24-3.42.23-6.78,1.16-9.92,2.57-3.16,1.4-6.11,3.27-8.91,5.36.65-.59,1.3-1.17,1.97-1.74.69-.53,1.37-1.09,2.09-1.61,1.45-.99,2.94-1.94,4.53-2.71,3.15-1.61,6.63-2.61,10.18-2.87,3.55-.27,7.15.28,10.47,1.52,3.31,1.24,6.41,3.08,8.9,5.55Z"/>
      <path class="st3" d="M608.86,162.78c4.01,1.51,8.37,1.52,12.32.26.96-.38,1.96-.7,2.86-1.22.46-.25.95-.44,1.38-.74.43-.29.88-.57,1.32-.85.9-.55,1.67-1.28,2.52-1.91.8-.69,1.55-1.44,2.37-2.14-.65.85-1.34,1.68-2.04,2.5l-1.18,1.11c-.4.37-.78.76-1.22,1.07-1.68,1.38-3.65,2.4-5.71,3.14-2.09.66-4.31.94-6.49.73-1.09-.09-2.16-.32-3.2-.61-1.02-.36-2.04-.74-2.94-1.33Z"/>
      <path class="st3" d="M610.84,163.58c1.87,1.38,3.89,2.61,6.09,3.35,2.18.74,4.61.89,6.72,0,2.11-.87,3.74-2.61,4.93-4.54,1.19-1.94,2.05-4.13,2.56-6.32h0s.24.54.24.54c-1.77-.93-3.88-1.47-5.94-1.63-2.08-.16-4.2.09-6.21.7-2.01.62-3.92,1.59-5.65,2.83-1.74,1.22-3.31,2.68-4.73,4.27,1.36-1.65,2.88-3.17,4.58-4.48,1.7-1.31,3.6-2.38,5.64-3.1,2.05-.71,4.23-1.05,6.41-.97,2.19.1,4.34.53,6.39,1.5l.33.16-.08.39h0c-.64,2.34-1.59,4.52-2.9,6.52-1.31,1.97-3.11,3.75-5.38,4.6-2.27.87-4.8.6-6.98-.23-2.21-.83-4.19-2.14-6.01-3.59Z"/>
      <path class="st3" d="M631.64,156.17c-.97-.73-1.97-1.39-3.04-1.94-1.05-.57-2.14-1.05-3.27-1.38-2.25-.68-4.66-.81-6.84-.04-2.2.72-4.06,2.24-5.63,4.01-.4.44-.75.92-1.13,1.38l-1.01,1.48c-.32.51-.65,1.01-.96,1.53-.29.53-.59,1.05-.9,1.58.81-2.28,1.89-4.5,3.41-6.45.74-.99,1.62-1.88,2.59-2.67,1-.76,2.11-1.39,3.31-1.8,2.42-.83,5.09-.63,7.4.26,2.32.88,4.4,2.28,6.07,4.05Z"/>
      <path class="st3" d="M648,141.1c-3.41,6.66-9.2,12.57-16.36,15.07,6.52-3.77,11.75-9.15,16.36-15.07h0Z"/>
      <path class="st3" d="M631.64,156.17c1.65-9.18,6.15-17.99,13.19-24.19,1.02-.86,2.06-1.7,3.17-2.43-7.93,7.1-13.13,16.58-16.36,26.62h0Z"/>
      <path class="st3" d="M648,147.94c-3.28,4.07-8.52,6.34-13.64,6.83,4.84-1.88,9.4-3.8,13.64-6.83h0Z"/>
      <path class="st3" d="M631.64,156.17c-.88-10.33,3.05-21.41,12.37-26.77,1.29-.73,2.61-1.38,3.99-1.88-11.17,5.64-15.86,16.63-16.36,28.65h0Z"/>
    </g>
    <path class="st3" d="M205.7,306c1.58-.45,3.11-1.04,4.6-1.72.74-.36,1.49-.68,2.2-1.08.72-.38,1.44-.77,2.12-1.21,2.77-1.7,5.38-3.66,7.77-5.87.59-.56,1.15-1.14,1.73-1.71.59-.56,1.13-1.17,1.66-1.79.53-.61,1.09-1.21,1.6-1.84l1.49-1.94.75-.97.68-1.02,1.36-2.04c.89-1.37,1.65-2.83,2.53-4.23-.67,1.5-1.35,3-2.11,4.47l-1.25,2.14-.63,1.07-.7,1.02-1.43,2.03c-.5.66-1.05,1.28-1.58,1.92-.52.64-1.07,1.27-1.67,1.85-.59.59-1.16,1.19-1.76,1.77-2.45,2.24-5.15,4.23-8.07,5.81-.72.41-1.47.77-2.22,1.11-.74.37-1.52.66-2.29.97-1.56.54-3.15,1.05-4.78,1.27Z"/>
    <path class="st3" d="M208.65,305.17c3.3-.14,6.6-.69,9.71-1.78.79-.24,1.53-.61,2.29-.92.73-.38,1.48-.72,2.17-1.17,1.41-.83,2.72-1.85,3.88-2.99,2.34-2.28,4.12-5.11,5.26-8.17,1.13-3.05,1.75-6.34,1.74-9.54h0s.58.46.58.46c-3.11.64-6.17,1.94-9,3.51-2.84,1.59-5.5,3.51-7.93,5.7-.6.56-1.17,1.14-1.76,1.71-.6.56-1.15,1.17-1.68,1.79-.53.62-1.09,1.22-1.61,1.86l-1.48,1.96-.74.98-.66,1.04-1.33,2.07c-.84,1.41-1.58,2.88-2.37,4.32.76-1.46,1.46-2.95,2.26-4.38l1.28-2.11.64-1.06.72-1.01,1.44-2.01c.5-.65,1.05-1.27,1.57-1.91.52-.64,1.06-1.27,1.65-1.85.58-.59,1.14-1.19,1.73-1.77,2.4-2.27,5.05-4.29,7.9-5.98,2.87-1.68,5.89-3.07,9.21-3.85l.57-.13.02.61v.02c-.07,3.41-.79,6.72-2.04,9.84-1.25,3.11-3.15,5.98-5.61,8.25-1.22,1.14-2.58,2.14-4.03,2.96-.71.44-1.48.76-2.23,1.13-.78.3-1.54.65-2.34.87-3.17,1.02-6.48,1.48-9.79,1.54Z"/>
    <path class="st3" d="M234.19,280.57c-1.75.02-3.48.22-5.18.57-1.7.32-3.37.81-4.97,1.43-3.2,1.26-6.2,3.05-8.68,5.41-2.51,2.33-4.54,5.16-6.1,8.24-1.57,3.07-2.7,6.39-3.56,9.77.14-.86.27-1.73.44-2.59.21-.85.38-1.71.61-2.56.51-1.68,1.07-3.36,1.82-4.96,1.44-3.23,3.52-6.19,6.11-8.63,2.59-2.44,5.74-4.28,9.1-5.4,3.35-1.12,6.92-1.63,10.41-1.28Z"/>
    <path class="st3" d="M234.19,281.02c1.78-.57,3.44-1.41,5.02-2.34,1.57-.95,3.06-2.02,4.43-3.24.67-.62,1.37-1.22,1.97-1.91l.94-1,.88-1.06c.62-.69,1.11-1.47,1.68-2.2.55-.75,1.02-1.55,1.57-2.32-.36.86-.74,1.73-1.16,2.57-.48.81-.9,1.67-1.47,2.42-1.04,1.59-2.36,2.97-3.76,4.26-1.43,1.25-3.02,2.33-4.72,3.17-1.69.84-3.52,1.46-5.39,1.66Z"/>
    <path class="st3" d="M235.89,280.56c1.87-.1,3.74-.4,5.5-1,1.76-.59,3.41-1.52,4.76-2.77,1.36-1.24,2.38-2.81,3.05-4.51.66-1.69,1.01-3.55.98-5.32h0s.58.47.58.47c-1.73.32-3.49,1-5.11,1.83-1.63.84-3.17,1.88-4.59,3.07-2.83,2.38-5.13,5.39-6.88,8.69,1.6-3.37,3.77-6.51,6.55-9.06,1.39-1.28,2.91-2.41,4.56-3.35,1.66-.93,3.38-1.71,5.31-2.16l.56-.13.02.6h0c-.06,2-.51,3.87-1.29,5.64-.78,1.76-1.93,3.36-3.41,4.59-1.46,1.24-3.2,2.12-5.01,2.63-1.82.53-3.7.75-5.58.77Z"/>
    <path class="st3" d="M250.68,266.94c-1.98.13-3.91.56-5.72,1.24-1.8.69-3.5,1.65-4.92,2.94-.39.28-.69.66-1.03.99-.34.34-.67.68-.94,1.08l-.87,1.15-.73,1.25-.37.63-.29.67-.61,1.34c-.37.91-.63,1.86-1,2.79.15-.98.31-1.97.54-2.95l.47-1.43.24-.72.33-.68.68-1.36.86-1.26c.27-.44.63-.8.98-1.17.36-.37.67-.77,1.09-1.08,1.53-1.36,3.38-2.35,5.33-2.92,1.94-.59,3.99-.77,5.97-.51Z"/>
    <path class="st3" d="M250.68,267.47c1.63-.37,3.22-.82,4.79-1.37,1.57-.53,3.12-1.12,4.63-1.79,3.02-1.34,5.94-2.9,8.67-4.76,2.74-1.82,5.33-3.89,7.68-6.21,2.42-2.26,4.45-4.88,6.5-7.52-.43.71-.87,1.42-1.32,2.13-.45.7-.87,1.43-1.4,2.08l-1.55,1.98c-.5.67-1.12,1.25-1.67,1.88-1.1,1.28-2.39,2.35-3.63,3.49-.63.55-1.33,1.03-1.99,1.55l-1,.77-1.05.7c-2.79,1.87-5.79,3.45-8.93,4.63-3.13,1.2-6.38,2.11-9.71,2.46Z"/>
    <path class="st3" d="M254.02,266.76c3.3-.2,6.6-.57,9.8-1.36,3.19-.78,6.32-1.91,9.08-3.64,2.77-1.7,5.18-4,6.86-6.77,1.66-2.75,2.66-6,2.68-9.15l.56.47c-3.21.51-6.41,1.5-9.46,2.73-3.06,1.23-5.98,2.8-8.77,4.58-2.78,1.79-5.36,3.88-7.73,6.2-2.37,2.32-4.48,4.9-6.37,7.64,1.7-2.87,3.75-5.53,6.02-7.99,2.32-2.42,4.88-4.6,7.65-6.5,2.76-1.91,5.75-3.49,8.85-4.78,3.11-1.28,6.3-2.32,9.67-2.88l.57-.1v.57c-.06,3.47-1.14,6.77-2.91,9.67-1.79,2.87-4.31,5.3-7.24,6.95-2.9,1.71-6.12,2.77-9.37,3.46-3.27.63-6.6.9-9.91.88Z"/>
    <path class="st3" d="M282.94,245.81c-1.76.04-3.51.19-5.24.45-1.73.24-3.45.57-5.13,1.02-3.36.9-6.63,2.15-9.57,3.98-2.96,1.78-5.56,4.13-7.65,6.89-1.03,1.39-1.97,2.86-2.7,4.44-.82,1.55-1.38,3.21-1.97,4.87.69-3.45,2.02-6.81,4.05-9.76,2-2.96,4.7-5.44,7.75-7.3,3.05-1.87,6.44-3.13,9.91-3.87,3.47-.73,7.03-1.05,10.55-.73Z"/>
    <path class="st3" d="M281.38,245.81c1.23-.26,2.46-.52,3.67-.86,1.21-.31,2.41-.66,3.6-1.05,2.37-.79,4.7-1.68,6.95-2.73,2.27-1.02,4.41-2.29,6.49-3.65l1.54-1.06,1.45-1.18c1.03-.73,1.85-1.68,2.82-2.49-1.55,1.98-3.32,3.84-5.36,5.35-2.02,1.54-4.21,2.87-6.52,3.93-2.31,1.06-4.7,1.94-7.16,2.56-2.45.62-4.96,1.08-7.48,1.18Z"/>
    <path class="st3" d="M284.13,245.39c2.45-.09,4.9-.3,7.31-.69,2.41-.4,4.81-.95,7.06-1.86,2.25-.89,4.4-2.12,6.07-3.82.83-.85,1.54-1.82,2.03-2.88.5-1.04.81-2.24.8-3.32h0s.55.46.55.46c-2.44.25-4.91.76-7.32,1.41-2.41.66-4.77,1.48-7.06,2.51-2.28,1.02-4.49,2.23-6.54,3.67-2.07,1.42-3.96,3.09-5.65,4.95,1.63-1.91,3.47-3.65,5.5-5.15,2.02-1.51,4.2-2.81,6.47-3.92,2.27-1.11,4.64-2.02,7.06-2.78,2.43-.74,4.88-1.34,7.43-1.68l.52-.07.03.54v.02c-.1,2.71-1.49,5.03-3.3,6.78-1.83,1.75-4.09,2.93-6.42,3.76-2.33.85-4.77,1.32-7.2,1.64-2.44.31-4.9.43-7.35.44Z"/>
    <path class="st3" d="M307.9,232.78c-1.31.07-2.62.17-3.92.34-1.3.14-2.59.33-3.87.58-2.55.5-5.08,1.12-7.48,2.09-2.41.92-4.67,2.2-6.65,3.84-1.97,1.66-3.53,3.78-4.6,6.19.35-1.27.89-2.49,1.56-3.65.72-1.13,1.57-2.17,2.53-3.11,1.95-1.86,4.32-3.22,6.8-4.2,2.49-.97,5.1-1.59,7.73-1.91,2.63-.32,5.28-.43,7.91-.16Z"/>
    <path class="st3" d="M307.9,232.62c1.64.08,3.28,0,4.91-.19.81-.11,1.62-.17,2.42-.33.81-.13,1.61-.28,2.4-.48,3.17-.74,6.26-1.78,9.22-3.12.74-.34,1.46-.72,2.19-1.08.74-.34,1.44-.76,2.14-1.18.7-.42,1.42-.8,2.1-1.24l2.03-1.37,1.02-.68.96-.75,1.93-1.51c1.28-1.02,2.46-2.16,3.73-3.21-1.11,1.21-2.23,2.42-3.41,3.58l-1.86,1.63-.93.82-.99.75-2,1.48c-.69.47-1.4.88-2.1,1.33-.7.45-1.42.87-2.17,1.23-.74.37-1.47.77-2.22,1.12-3.03,1.35-6.22,2.39-9.49,2.96-.81.16-1.64.27-2.46.35-.82.11-1.65.14-2.48.19-1.65.02-3.32,0-4.94-.3Z"/>
    <path class="st3" d="M310.96,232.77c3.18.9,6.48,1.43,9.78,1.37.82.02,1.64-.1,2.46-.15.81-.13,1.63-.21,2.42-.43,1.6-.35,3.16-.9,4.63-1.62,2.94-1.43,5.52-3.55,7.57-6.09,2.03-2.53,3.66-5.46,4.66-8.51h0s.4.62.4.62c-3.15-.37-6.47-.1-9.65.49-3.2.61-6.33,1.6-9.33,2.9-.74.34-1.47.71-2.21,1.07-.75.34-1.45.75-2.16,1.17-.7.42-1.42.81-2.11,1.25l-2.02,1.4-1.01.7-.96.77-1.92,1.55c-1.24,1.07-2.4,2.24-3.61,3.35,1.18-1.14,2.31-2.34,3.53-3.44l1.88-1.6.94-.8,1-.73,2-1.45c.68-.46,1.4-.88,2.09-1.32.7-.44,1.4-.87,2.14-1.23.73-.38,1.46-.77,2.2-1.14,3-1.39,6.14-2.48,9.39-3.18,3.25-.69,6.56-1.06,9.95-.75l.58.05-.17.58v.02c-1.15,3.22-2.88,6.12-5.04,8.7-2.17,2.56-4.88,4.68-7.93,6.06-1.52.7-3.12,1.22-4.76,1.53-.81.2-1.65.26-2.47.37-.83.04-1.66.13-2.49.09-3.33-.03-6.62-.64-9.78-1.62Z"/>
    <path class="st3" d="M342.95,217.48c-1.67-.53-3.37-.89-5.09-1.09-1.72-.23-3.45-.3-5.17-.21-3.43.19-6.84.94-9.94,2.4-3.12,1.42-5.93,3.47-8.39,5.89-2.46,2.42-4.57,5.21-6.46,8.15.4-.78.8-1.55,1.23-2.32.46-.74.9-1.51,1.39-2.24,1.01-1.44,2.07-2.85,3.29-4.13,2.38-2.61,5.29-4.77,8.52-6.26,3.23-1.5,6.8-2.25,10.34-2.26,3.54,0,7.08.63,10.28,2.06Z"/>
    <path class="st3" d="M341.9,218.02c1.29.37,2.61.58,3.93.67.66.05,1.32.09,1.98.07.66.02,1.32-.04,1.98-.09,2.63-.23,5.2-.82,7.69-1.69l1.85-.7c.61-.24,1.19-.56,1.79-.83,1.22-.51,2.33-1.25,3.5-1.86,1.15-.66,2.23-1.44,3.35-2.16,1.08-.78,2.13-1.6,3.23-2.37-.95.94-1.94,1.85-2.93,2.76-1.08.8-2.11,1.67-3.24,2.42-1.14.72-2.26,1.48-3.49,2.06-.61.3-1.2.62-1.83.88l-1.9.74c-2.57.87-5.26,1.46-7.98,1.51-2.7.05-5.47-.29-7.92-1.41Z"/>
    <path class="st3" d="M344.19,218.67c2.35,1.48,4.92,2.66,7.65,3.12,2.72.47,5.56.11,8.05-1.03,2.5-1.13,4.65-2.93,6.43-5,1.78-2.07,3.29-4.43,4.4-6.89h0s.26.65.26.65c-2.36-.91-5.07-1.22-7.68-1.13-2.63.09-5.26.61-7.77,1.46-5.04,1.7-9.61,4.66-13.64,8.17,3.92-3.63,8.41-6.75,13.47-8.64,2.52-.94,5.19-1.56,7.9-1.74,2.72-.16,5.45.02,8.12.96l.47.17-.21.49h0c-1.26,2.58-2.86,4.91-4.76,7-1.9,2.07-4.18,3.86-6.8,4.96-2.61,1.1-5.54,1.38-8.29.81-2.76-.55-5.31-1.81-7.61-3.36Z"/>
    <path class="st3" d="M371.19,209.06c-1.2-.83-2.49-1.5-3.83-2.01-1.33-.53-2.73-.9-4.13-1.08-2.82-.38-5.7,0-8.31,1.06-2.65,1.01-5,2.71-7.16,4.59-.53.48-1.05.98-1.57,1.48-.49.53-1,1.04-1.48,1.58-.48.54-.97,1.08-1.43,1.64-.45.57-.91,1.13-1.38,1.69,1.48-2.51,3.24-4.88,5.33-6.96,2.09-2.06,4.53-3.86,7.32-4.96,2.77-1.1,5.88-1.48,8.8-.89,2.92.56,5.68,1.87,7.84,3.84Z"/>
    <path class="st3" d="M370.78,208.78c1.59.42,3.21.69,4.83.86.81.07,1.62.18,2.44.19.81.04,1.63.07,2.44.04,3.25-.05,6.5-.41,9.68-1.1.79-.18,1.58-.4,2.37-.59.79-.18,1.57-.43,2.34-.7.77-.26,1.55-.49,2.32-.77l2.27-.91,1.14-.45,1.1-.53,2.21-1.07c1.47-.73,2.86-1.59,4.33-2.35-1.34.95-2.7,1.9-4.09,2.78l-2.17,1.2-1.09.6-1.13.52-2.27,1.02c-.77.31-1.56.56-2.34.85-.78.29-1.57.55-2.38.74-.8.21-1.6.44-2.41.63-3.25.68-6.58,1.02-9.9.88-.83-.02-1.66-.09-2.48-.18-.83-.06-1.64-.21-2.46-.33-1.62-.33-3.24-.7-4.76-1.34Z"/>
    <path class="st3" d="M373.74,209.57c2.92,1.56,6.03,2.77,9.26,3.42.8.19,1.63.26,2.44.38.82.04,1.64.14,2.46.1,1.64,0,3.28-.2,4.86-.6,3.18-.77,6.15-2.3,8.69-4.35,2.53-2.04,4.74-4.56,6.35-7.33h0s.26.7.26.7c-3-1.03-6.3-1.47-9.54-1.56-3.26-.08-6.52.22-9.73.86-.8.17-1.59.38-2.38.58-.8.17-1.58.42-2.36.68-.78.26-1.56.49-2.33.78l-2.27.93-1.14.47-1.1.55-2.2,1.11c-1.44.79-2.82,1.67-4.24,2.51,1.39-.87,2.76-1.79,4.18-2.62l2.18-1.16,1.09-.58,1.13-.5,2.26-1c.76-.31,1.55-.56,2.33-.84.77-.29,1.55-.55,2.36-.75.8-.21,1.59-.45,2.39-.64,3.22-.73,6.53-1.12,9.85-1.12,3.32.02,6.63.35,9.88,1.38l.55.17-.29.53v.02c-1.81,2.9-4.11,5.37-6.78,7.43-2.66,2.04-5.76,3.54-9.03,4.24-1.63.36-3.31.53-4.98.49-.84.02-1.66-.1-2.49-.16-.82-.14-1.65-.23-2.46-.44-3.25-.73-6.33-2.03-9.21-3.66Z"/>
    <path class="st3" d="M408.25,201.41c-1.51-.87-3.11-1.59-4.75-2.15-1.63-.59-3.31-1.02-5.01-1.3-3.39-.54-6.88-.54-10.22.24-3.35.73-6.54,2.13-9.45,3.98-2.92,1.84-5.57,4.12-8.04,6.6.56-.67,1.12-1.35,1.7-2,.61-.63,1.2-1.28,1.83-1.89,1.29-1.19,2.63-2.34,4.09-3.34,2.88-2.05,6.18-3.54,9.66-4.31,3.48-.78,7.12-.76,10.58-.02,3.46.75,6.79,2.12,9.61,4.2Z"/>
    <path class="st3" d="M407.98,202.04c.86.71,1.77,1.35,2.73,1.89.95.55,1.93,1.04,2.96,1.42,2.04.76,4.18,1.27,6.35,1.31.54.05,1.08-.02,1.62-.02l.81-.03.81-.12c.54-.08,1.08-.13,1.62-.24.53-.14,1.06-.27,1.59-.39.54-.1,1.06-.28,1.57-.48l1.56-.56c1.03-.41,2.01-.92,3.05-1.35-.93.62-1.87,1.23-2.85,1.79l-1.54.71c-.51.25-1.03.47-1.57.63-.54.18-1.08.35-1.62.51-.55.14-1.12.21-1.68.32l-.84.14-.86.04c-.57.01-1.14.09-1.71.04-2.29-.07-4.56-.64-6.61-1.6-2.06-.96-3.94-2.3-5.39-4.02Z"/>
    <path class="st3" d="M409.73,203.54c1.42,1.98,3.01,3.87,4.93,5.37,1.88,1.5,4.19,2.58,6.59,2.53,2.39-.02,4.63-1.16,6.44-2.7,1.82-1.54,3.35-3.47,4.52-5.51h0s.07.57.07.57c-1.46-1.52-3.34-2.78-5.31-3.67-1.99-.89-4.15-1.44-6.35-1.55-4.42-.25-8.81,1.21-12.64,3.45,1.88-1.19,3.9-2.19,6.02-2.9,2.12-.71,4.37-1.09,6.63-1.05,2.26.03,4.52.51,6.62,1.36,2.11.87,4.06,2.05,5.75,3.68l.25.24-.18.34h0c-1.33,2.16-2.96,4.06-4.92,5.62-1.94,1.54-4.37,2.68-6.91,2.61-2.55-.04-4.89-1.25-6.74-2.84-1.89-1.59-3.41-3.54-4.77-5.57Z"/>
    <path class="st3" d="M432.65,203.47c-.73-1.04-1.51-2.03-2.38-2.93-.85-.92-1.77-1.77-2.77-2.5-1.98-1.46-4.28-2.51-6.7-2.61-2.42-.15-4.81.69-6.94,1.92-.55.28-1.04.67-1.57,1-.5.37-.99.76-1.49,1.15l-1.43,1.23c-.45.44-.91.87-1.38,1.3,1.52-2.03,3.31-3.9,5.47-5.33,1.05-.76,2.26-1.29,3.49-1.74,1.25-.42,2.58-.58,3.91-.53,2.67.13,5.17,1.32,7.13,3.01,1.97,1.68,3.57,3.74,4.68,6.03Z"/>
    <path class="st3" d="M432.65,203.47c1.17,1.43,2.65,2.56,4.15,3.61,1.53,1.02,3.09,1.99,4.74,2.8.81.43,1.64.83,2.48,1.2.84.38,1.66.78,2.52,1.1l2.55,1.03,2.6.92c1.72.64,3.5,1.12,5.25,1.69l5.33,1.46c1.79.43,3.58.89,5.38,1.3,1.8.41,3.61.78,5.41,1.22-1.84-.21-3.67-.49-5.51-.73-1.83-.31-3.64-.69-5.46-1.03-1.82-.37-3.61-.87-5.41-1.3-1.77-.55-3.57-1.03-5.32-1.66-3.52-1.19-6.95-2.69-10.19-4.52-3.19-1.86-6.4-4-8.52-7.08Z"/>
    <path class="st3" d="M434.28,205.24c1.1,3.65,3.97,6.47,7.21,8.29,3.26,1.87,6.88,3,10.53,3.81,3.66.8,7.4,1.26,11.14,1.5,3.74.24,7.51.29,11.23.1h.02s-.39.77-.39.77c-.48-.67-1.17-1.36-1.85-1.97-.68-.62-1.44-1.18-2.19-1.74-.78-.52-1.54-1.07-2.36-1.53l-1.21-.72-1.25-.66c-3.34-1.73-6.84-3.19-10.43-4.37-1.78-.63-3.61-1.12-5.42-1.68-1.84-.46-3.66-.96-5.51-1.39-1.85-.39-3.7-.82-5.56-1.18l-5.6-1,5.62.87c1.87.32,3.73.71,5.59,1.06,1.86.38,3.7.85,5.55,1.27,1.83.52,3.67.97,5.48,1.56,3.64,1.11,7.19,2.5,10.62,4.18l1.28.64,1.25.71c.84.45,1.64,1,2.44,1.52.78.56,1.57,1.11,2.3,1.75.74.64,1.44,1.27,2.08,2.13l.53.71-.92.06h-.02c-3.8.12-7.58-.02-11.35-.35-3.77-.33-7.52-.88-11.2-1.77-3.67-.9-7.3-2.12-10.55-4.08-1.62-.98-3.13-2.15-4.37-3.59-1.25-1.42-2.2-3.1-2.71-4.92Z"/>
    <path class="st3" d="M473.07,219.8c-.32-1.91-1.45-3.55-2.72-4.92-.34-.33-.65-.69-1-1.01l-1.1-.9-.55-.44-.6-.38-1.2-.77c-3.27-1.94-6.89-3.21-10.56-4.25-3.69-1-7.45-1.74-11.24-2.28-3.79-.61-7.62-.91-11.45-1.37,1.93.01,3.85.09,5.78.14.97.02,1.93.1,2.89.2l2.88.27c3.84.39,7.65,1.14,11.41,2.08,3.7,1.14,7.41,2.42,10.7,4.56l1.2.85.6.42.55.49,1.09.98c.34.35.65.73.98,1.1.34.35.59.78.86,1.19.29.39.51.83.72,1.27.43.87.75,1.82.78,2.78Z"/>
    <path class="st3" d="M474.45,219.54c.93,1.36,1.99,2.61,3.12,3.79.57.58,1.12,1.19,1.73,1.73.59.56,1.19,1.11,1.83,1.62,2.51,2.07,5.21,3.91,8.07,5.45.72.38,1.46.72,2.18,1.09.72.38,1.47.69,2.23.99.75.31,1.5.64,2.26.92l2.32.78,1.16.4,1.18.31,2.37.62c1.59.4,3.21.65,4.82,1.03-1.64-.15-3.28-.31-4.91-.55l-2.43-.49-1.22-.25-1.19-.34-2.39-.69c-.79-.26-1.55-.58-2.33-.87-.78-.29-1.55-.6-2.29-.98-.75-.36-1.5-.71-2.24-1.09-2.91-1.6-5.67-3.5-8.1-5.76-.62-.55-1.2-1.14-1.77-1.75-.59-.58-1.11-1.23-1.65-1.85-1.02-1.3-2.01-2.64-2.75-4.11Z"/>
    <path class="st3" d="M476.19,222.06c1.21,3.08,2.78,6.02,4.82,8.61.48.67,1.07,1.25,1.61,1.87.6.56,1.16,1.17,1.81,1.67,1.25,1.07,2.63,1.97,4.09,2.7,2.92,1.48,6.17,2.24,9.43,2.33,3.25.08,6.56-.39,9.59-1.44h.01s-.26.7-.26.7c-1.61-2.73-3.84-5.21-6.24-7.38-2.42-2.18-5.1-4.07-7.96-5.66-.72-.39-1.46-.74-2.19-1.11-.72-.39-1.48-.71-2.24-1.01-.76-.31-1.51-.64-2.28-.92l-2.34-.77-1.17-.38-1.19-.29-2.39-.59c-1.61-.34-3.23-.56-4.85-.85,1.62.25,3.26.43,4.88.72l2.41.53,1.21.26,1.18.35,2.37.71c.78.26,1.54.58,2.31.87.77.29,1.54.59,2.28.96.74.36,1.5.69,2.24,1.07,2.92,1.54,5.69,3.39,8.22,5.54,2.51,2.17,4.81,4.58,6.62,7.47l.31.49-.57.22h-.02c-3.25,1.05-6.61,1.43-9.97,1.26-3.35-.18-6.68-1.05-9.63-2.64-1.48-.78-2.86-1.74-4.1-2.86-.65-.53-1.2-1.16-1.79-1.74-.53-.64-1.11-1.24-1.58-1.93-1.99-2.66-3.5-5.66-4.63-8.77Z"/>
    <path class="st3" d="M507.73,238.27c-.59-1.65-1.33-3.22-2.22-4.72-.85-1.51-1.85-2.93-2.96-4.24-2.23-2.62-4.89-4.88-7.93-6.46-3.02-1.62-6.35-2.62-9.77-3.11-3.42-.5-6.91-.48-10.4-.21.86-.15,1.72-.3,2.59-.42.87-.08,1.74-.19,2.62-.25,1.75-.07,3.52-.08,5.28.11,3.52.31,7,1.32,10.15,2.99,3.15,1.66,5.91,4.05,8.06,6.86,2.14,2.81,3.79,6.02,4.58,9.43Z"/>
    <path class="st3" d="M507.7,238.4c.9,1.8,2.09,3.4,3.36,4.91,1.29,1.5,2.7,2.87,4.22,4.12.79.59,1.54,1.23,2.38,1.76.41.27.81.57,1.23.83l1.27.76c.42.27.85.5,1.3.73l1.32.7c.88.46,1.81.84,2.7,1.31-.97-.26-1.94-.54-2.9-.86-.93-.39-1.9-.7-2.79-1.19-1.84-.86-3.53-2.01-5.14-3.26-1.56-1.31-3-2.77-4.2-4.42-1.2-1.64-2.2-3.45-2.75-5.39Z"/>
    <path class="st3" d="M508.46,240.08c.41,1.96,1.06,3.88,2.02,5.62.95,1.75,2.25,3.3,3.82,4.48,1.57,1.19,3.39,2.02,5.3,2.47,1.9.45,3.91.59,5.8.37h0s-.41.65-.41.65c-.64-1.78-1.69-3.51-2.86-5.08-1.19-1.58-2.57-3.01-4.08-4.3-3.03-2.58-6.59-4.52-10.35-5.89,3.81,1.21,7.48,3.01,10.67,5.5,1.59,1.25,3.06,2.65,4.35,4.23,1.28,1.59,2.42,3.26,3.22,5.23l.23.56-.64.09h0c-2.1.16-4.14-.08-6.12-.63-1.97-.56-3.84-1.5-5.42-2.8-1.58-1.29-2.84-2.95-3.73-4.76-.9-1.81-1.47-3.76-1.79-5.74Z"/>
    <path class="st3" d="M525.47,253.52c-.22-1.04-.52-2.05-.92-3.02-.38-.97-.83-1.91-1.38-2.8-1.09-1.76-2.4-3.37-4.03-4.64-.39-.34-.83-.6-1.25-.9-.21-.14-.42-.3-.64-.44l-.68-.36c-.46-.24-.89-.52-1.37-.72-.48-.19-.96-.39-1.44-.6-.47-.23-.97-.37-1.48-.51l-1.51-.45c-1.02-.26-2.06-.42-3.1-.68,1.06.04,2.13.1,3.19.2l1.58.32c.53.1,1.06.2,1.56.39,2.09.58,4.02,1.66,5.75,2.98,1.7,1.37,3.1,3.11,4.07,5.05.98,1.93,1.59,4.05,1.62,6.18Z"/>
    <path class="st3" d="M525.47,253.81c.7,1.42,1.57,2.74,2.55,3.97.94,1.26,2.02,2.41,3.13,3.51,2.24,2.19,4.73,4.11,7.36,5.81l1.99,1.26,2.06,1.13c1.35.82,2.82,1.38,4.21,2.12,1.43.66,2.9,1.23,4.35,1.85,1.48.56,2.97,1.07,4.45,1.66-1.54-.37-3.07-.79-4.61-1.19-1.5-.53-3.01-1.02-4.49-1.61-.73-.31-1.47-.62-2.2-.95-.74-.3-1.45-.66-2.15-1.04l-2.12-1.13-2.04-1.26c-2.67-1.76-5.2-3.75-7.37-6.12-2.14-2.36-4.08-5-5.13-8.01Z"/>
    <path class="st3" d="M526.65,256.14c.57,3.13,1.65,6.2,3.49,8.79,1.79,2.62,4.28,4.71,7.04,6.21,2.78,1.49,5.83,2.45,8.94,2.99,3.1.53,6.3.72,9.41.48h.01s-.43.66-.43.66c-.54-1.38-1.35-2.76-2.24-4.02-.88-1.29-1.9-2.48-2.96-3.63-2.15-2.28-4.62-4.26-7.23-6.02l-1.99-1.28-2.07-1.15c-1.36-.81-2.83-1.4-4.24-2.1-1.44-.64-2.93-1.19-4.39-1.78l-4.51-1.49,4.55,1.37c1.48.56,2.99,1.07,4.45,1.67,1.44.67,2.93,1.22,4.32,2l2.11,1.11,2.04,1.24c2.68,1.71,5.24,3.64,7.5,5.91,1.11,1.15,2.2,2.34,3.14,3.64.95,1.3,1.82,2.64,2.47,4.2l.25.6-.68.06h-.02c-3.26.16-6.47-.12-9.63-.74-3.15-.63-6.24-1.7-9.04-3.29-2.79-1.6-5.27-3.8-7.01-6.5-1.79-2.67-2.79-5.79-3.28-8.93Z"/>
    <path class="st3" d="M555.58,275.11c-.2-1.67-.68-3.28-1.33-4.8l-.5-1.13c-.19-.37-.4-.72-.6-1.08-.37-.74-.89-1.39-1.36-2.06-1.97-2.64-4.53-4.78-7.37-6.44-2.8-1.76-5.98-2.79-9.13-3.83-1.62-.37-3.23-.79-4.87-1.13-1.65-.28-3.3-.52-4.96-.83,1.67.08,3.35.23,5.03.35,1.66.24,3.32.58,4.98.87,3.25.88,6.53,1.91,9.44,3.71,2.92,1.73,5.59,4,7.49,6.86.45.73.94,1.42,1.28,2.21.18.38.38.76.55,1.15l.45,1.19c.52,1.61.9,3.28.88,4.97Z"/>
    <path class="st3" d="M555.58,274.34c1.03,1.72,2.38,3.18,3.8,4.54,1.44,1.34,3.01,2.53,4.66,3.58.83.52,1.67,1.03,2.55,1.47.85.5,1.77.87,2.65,1.31.9.42,1.83.76,2.74,1.16.93.36,1.87.67,2.81,1.05-.99-.16-1.97-.38-2.96-.59-.96-.29-1.95-.53-2.89-.9-1.9-.69-3.73-1.58-5.45-2.66-1.7-1.11-3.31-2.38-4.68-3.88-1.37-1.49-2.56-3.19-3.25-5.09Z"/>
    <path class="st3" d="M556.42,275.86c.5,1.94,1.29,3.81,2.44,5.44,1.16,1.62,2.67,2.97,4.41,3.9,1.73.96,3.65,1.51,5.6,1.78,1.94.27,3.96.27,5.86-.02h0s-.38.68-.38.68c-.76-1.7-1.99-3.33-3.32-4.74-1.35-1.43-2.89-2.69-4.54-3.79-3.3-2.2-7.04-3.73-10.9-4.78,3.89.88,7.71,2.26,11.16,4.35,1.72,1.04,3.35,2.27,4.81,3.68,1.45,1.43,2.76,2.97,3.72,4.89l.28.57-.66.11h0c-2.08.23-4.12.13-6.14-.23-2.01-.37-3.98-1.03-5.73-2.09-1.76-1.04-3.26-2.5-4.36-4.19-1.09-1.71-1.81-3.62-2.23-5.58Z"/>
    <path class="st3" d="M574.8,287.46c-.51-2.06-1.47-3.95-2.73-5.57-1.27-1.62-2.83-2.98-4.59-4.04l-1.35-.75c-.46-.23-.95-.4-1.42-.61-.93-.47-1.96-.65-2.94-1.01-1-.27-2.04-.45-3.06-.68-1.04-.15-2.08-.28-3.13-.46,1.06-.04,2.12-.02,3.19-.02,1.06.13,2.12.23,3.18.42,2.1.45,4.18,1.12,6.05,2.25,1.85,1.14,3.52,2.62,4.7,4.45l.44.68.37.72c.27.47.45.98.65,1.48.33,1.02.61,2.07.64,3.14Z"/>
    <path class="st3" d="M574.8,287.97c1.15,1.09,2.4,2.05,3.71,2.91,1.29.9,2.65,1.68,4.03,2.41,2.78,1.45,5.68,2.64,8.65,3.62l2.24.7c.75.23,1.52.39,2.27.59,1.51.44,3.06.68,4.59,1.03,1.54.33,3.1.5,4.66.77,1.56.21,3.13.35,4.7.58-1.58,0-3.17-.04-4.75-.09-1.58-.17-3.16-.26-4.74-.5-3.15-.45-6.27-1.14-9.3-2.13-3.02-1.02-5.97-2.27-8.71-3.9-2.72-1.64-5.35-3.54-7.37-5.99Z"/>
    <path class="st3" d="M576.72,289.05c1.66,2.64,3.72,5.04,6.2,6.92,2.47,1.88,5.32,3.25,8.31,4.04,2.99.82,6.11,1.06,9.19.93,3.08-.14,6.18-.65,9.08-1.58h.01s-.22.79-.22.79c-2.04-2.24-4.67-4.1-7.35-5.66-2.72-1.56-5.6-2.84-8.58-3.85-5.96-2.04-12.25-3.08-18.55-3.42,6.31.18,12.65,1.04,18.71,2.95,3.03.94,5.98,2.16,8.79,3.68,2.8,1.54,5.47,3.29,7.75,5.67l.52.54-.74.25h-.01c-3.08.9-6.21,1.32-9.37,1.38-3.15.05-6.33-.29-9.35-1.2-3.03-.89-5.88-2.35-8.32-4.32-2.45-1.96-4.46-4.44-6.05-7.12Z"/>
    <path class="st3" d="M609.67,299.84c-.82-1.44-1.83-2.74-2.96-3.92l-.85-.88c-.29-.29-.61-.54-.91-.81-.59-.56-1.26-1.03-1.92-1.5-2.65-1.88-5.63-3.25-8.74-4.18l-2.35-.64c-.8-.16-1.61-.27-2.41-.42l-1.2-.21c-.4-.05-.81-.07-1.22-.1l-2.44-.21c-1.63-.08-3.28-.03-4.92-.04-1.64.1-3.28.24-4.94.31,1.62-.3,3.26-.53,4.9-.8,1.65-.08,3.31-.22,4.98-.24l2.5.11c.42.02.83.04,1.25.07l1.24.18c.83.13,1.65.25,2.48.4l2.43.64c3.2.98,6.28,2.44,8.91,4.53,2.61,2.07,4.9,4.66,6.19,7.73Z"/>
    <path class="st3" d="M609.57,302.43c3.03,1.41,6.3,2.2,9.58,2.58,3.29.36,6.6.29,9.87-.16,1.62-.32,3.26-.54,4.84-1.04.79-.23,1.61-.39,2.38-.68l2.34-.84c.79-.25,1.55-.6,2.3-.95l2.27-1.03c1.49-.73,2.93-1.58,4.43-2.33-1.38.94-2.77,1.88-4.2,2.77l-2.23,1.17c-.74.4-1.49.79-2.28,1.09l-2.34.96c-.78.32-1.61.51-2.41.77-1.61.54-3.29.77-4.95,1.12-3.36.44-6.78.48-10.12-.07-.42-.07-.84-.13-1.25-.21l-1.23-.29c-.83-.17-1.63-.45-2.43-.69-1.58-.58-3.15-1.22-4.56-2.14Z"/>
    <path class="st3" d="M609.57,302.43c10.84-7.91,26.28-11.47,38.49-4.57-1.95,3.18-4.51,5.96-7.52,8.14,2.66-2.35,4.98-5.13,6.74-8.19,0,0,.12.46.12.46-12.24-6.02-26.61-2.55-37.83,4.16h0Z"/>
    <path class="st3" d="M615.4,306c-1.36-.18-2.43-.99-2.96-2.26,1.42.22,2.37.95,2.96,2.26h0Z"/>
    <path class="st3" d="M647.58,297.98c-1.36-1.2-2.84-2.27-4.4-3.16-1.55-.92-3.18-1.69-4.88-2.26-3.38-1.14-7.01-1.55-10.52-.97-1.75.28-3.47.78-5.13,1.43-1.64.7-3.24,1.51-4.75,2.49-3.04,1.92-5.77,4.34-8.33,6.92.58-.7,1.17-1.4,1.76-2.09l1.89-1.98c.68-.61,1.35-1.24,2.05-1.82.73-.55,1.42-1.17,2.19-1.67l1.14-.78c.39-.24.8-.46,1.2-.69.79-.49,1.65-.84,2.48-1.24,1.71-.71,3.5-1.24,5.34-1.55,3.68-.59,7.5-.12,10.94,1.24,3.44,1.35,6.56,3.45,9.02,6.14Z"/>
  </g>
</svg>