<?xml version="1.0" encoding="UTF-8"?>
<svg id="Layer_1" xmlns="http://www.w3.org/2000/svg" version="1.1" viewBox="0 0 612 792">
  <!-- Generator: Adobe Illustrator 29.5.1, SVG Export Plug-In . SVG Version: 2.1.0 Build 141)  -->
  <defs>
    <style>
      .st0 {
        fill: #e8deb9;
      }

      .st1 {
        fill: #8b626c;
      }

      .st2 {
        fill: #5f475c;
      }

      .st3 {
        fill: #383e60;
      }

      .st4 {
        fill: #aaa290;
      }
    </style>
  </defs>
  <rect class="st0" x="0" width="612" height="792"/>
  <rect class="st0" x="8.3" width="151.91" height="66.06"/>
  <path class="st3" d="M23.96,15.23s1.57-3.59-4.02-2.23c0,0-9.58,4.03-9.75,13.81s7.74,13.07,7.74,13.07c0,0,11.94,2.27,9.02-5.75,0,0-2.26-1.48-4.55,1.22,0,0-4.44,3.44-7.68-1.89,0,0-1.84-6.62,1.66-12.39,0,0,2.98-4.5,5.85-5.22,0,0,1.54.24,1.73-.63Z"/>
  <path class="st3" d="M29.16,15.42s2.85-2.21,3.74.49c0,0,5.18,8.22-.26,24.12,0,0-3.58,1.37-2.38-2.1s1.61-19.7-1.1-22.51Z"/>
  <path class="st3" d="M42.15,35.64s-.84,8.02,4.86,3.81c0,0-2.93-9.38,3.81-24.41,0,0,.66-7.52-4.73,1.11,0,0-4.81,7.74-3.94,19.5Z"/>
  <path class="st3" d="M57.48,14.97s-1.76-3.05,1.31-4.74,3.9,14.74,3.9,14.74c0,0,1.38,10.94-.92,15.21,0,0-7.06,3.35-4.6-1.18,0,0,2.7-12.66.31-24.02Z"/>
  <path class="st3" d="M75.36,13.62s2.12-3.54,2.98-.92c0,0-2.38,18.1,0,26.27,0,0-2.44,3.73-4.07,0s-.6-19.9,1.09-25.35Z"/>
  <path class="st3" d="M91.13,12.69s3.35-1.77,3.77-.06c0,0-6,16.25-3.81,33.26,0,0-4.08,5.7-4.04-7.6,0,0-.48-17.87,4.08-25.6Z"/>
  <path class="st3" d="M111.83,14.28s1.61-1.91-2.52-2.06-6.54,2.06-6.54,2.06c0,0-13.07,7.57-4.59,21.45,0,0,4.41,7.36,11.91,4,0,0,3.62-2.33,2.03-4.79,0,0-1.41-1.91-3.79.33,0,0-6.62,4.07-8.66-1.95s2.06-11.93,2.06-11.93c0,0,3.78-5.36,10.09-7.11Z"/>
  <path class="st3" d="M121.05,18.65s2.68-2.71,3.97,1.08c0,0,2.44,11.58-3.97,14.45,0,0-2.08-1.58,0-15.53Z"/>
  <path class="st3" d="M141.76,12.34s2.38-1.96,3.79,1.64c0,0-8.37,19.29,3.79,25.51,0,0-.24,1.47-3.79,0s-12.57-9.39-3.79-27.15Z"/>
  <path class="st2" d="M25.88,24.88s.57,2.72,1.17,3.03,7.71,3.23,21.07.51c0,0,6.28-4-.4-3.54,0,0-14.11,2.27-20.87-.04,0,0-.79-.77-.97.04Z"/>
  <path class="st2" d="M49.98,12.76s.15-1.31,2.83.91c0,0,6.55,2.82,14.55,1.39,0,0,15.26-2.48,4.1,3.26,0,0-13.83,3.55-19.96-2.64,0,0-2.84-2.38-1.52-2.92Z"/>
  <path class="st2" d="M53.43,24.31s1.31,3.67,2.28,3.87c0,0,2.73,1.44,9.92-.46,0,0,7.24-3.11.63-3.81,0,0-8.44,1.82-12.83.39Z"/>
  <path class="st2" d="M51.95,33.71s2.13,4.06,2.91,4.34c0,0,6.71,3.7,13.65,1.03,0,0,9.78-4.24.8-3.38,0,0-14.13.81-17.36-1.99Z"/>
  <path class="st2" d="M92.3,40.93s3.57-1.68,3.11-3.79c0,0-15.58-18.02-15.76-19.88,0,0-3.86-1.58-.64,5.12s9.74,16.28,13.3,18.55Z"/>
  <path class="st2" d="M101.33,23.41s.04,3.77,1.85,4.34c0,0,3.2.15,3.84-.18,0,0-6.62,8.84-4.24,15.66,0,0,1.49,1.56,3.89.14,0,0,1.1-14.78,4.36-16.66,0,0,11.51-3.26,5.41-4.29,0,0-9.92,2.28-15.09.99Z"/>
  <path class="st2" d="M118.16,16.89s-2.12-2.12-1.48-2.7c0,0,22.57-9.01,18.52,11.38,0,0-.86,10.12-13.72,14.6,0,0-4.88-.13-1.05-3.11,0,0,16.47-11.05,11.85-19.36,0,0-4.03-3.57-14.11-.82Z"/>
  <path class="st2" d="M117.08,22.13s.4,3.79,1.49,4.27c0,0,6.8-.29,9.06-2.14,0,0,5.39-2.77-2.15-2.14h-8.4Z"/>
  <path class="st2" d="M135.3,22.04s-.52,2.32,1.38,3.9c0,0,4.26.88,8.71-.95,0,0,4.25-2.6-.34-3.52,0,0-5.91,1.13-9.75.56Z"/>
  <path class="st2" d="M147.4,34.76s.03,1.77,3.4,2.13c0,0,8,.11,7.52-16.95,0,0-.38-7.46-3.24-5.63,0,0-1.37,16.08-6.07,20.3,0,0-1.44-.93-1.61.15Z"/>
  <g>
    <path class="st1" d="M54.23,54.98v.83h-3.17v-.83h3.17Z"/>
    <path class="st1" d="M62.35,58.49c-.5.18-1.49.47-2.66.47-1.31,0-2.39-.33-3.23-1.14-.74-.72-1.21-1.87-1.21-3.22.01-2.58,1.78-4.47,4.68-4.47,1,0,1.78.22,2.16.4l-.27.91c-.46-.21-1.04-.37-1.91-.37-2.1,0-3.48,1.31-3.48,3.48s1.32,3.49,3.34,3.49c.73,0,1.23-.1,1.49-.23v-2.58h-1.76v-.9h2.85v4.16Z"/>
    <path class="st1" d="M71.44,54.46c0,2.98-1.81,4.56-4.02,4.56s-3.89-1.77-3.89-4.39c0-2.75,1.71-4.54,4.02-4.54s3.89,1.81,3.89,4.38ZM64.73,54.6c0,1.85,1,3.5,2.76,3.5s2.77-1.63,2.77-3.59c0-1.72-.9-3.52-2.76-3.52s-2.77,1.71-2.77,3.61Z"/>
    <path class="st1" d="M74.01,50.22v5.12c0,1.94.86,2.76,2.01,2.76,1.28,0,2.1-.85,2.1-2.76v-5.12h1.13v5.04c0,2.66-1.4,3.75-3.27,3.75-1.77,0-3.11-1.01-3.11-3.7v-5.09h1.13Z"/>
    <path class="st1" d="M81.19,50.34c.56-.12,1.37-.18,2.14-.18,1.19,0,1.96.22,2.5.71.44.38.68.98.68,1.64,0,1.14-.72,1.9-1.63,2.21v.04c.67.23,1.07.85,1.27,1.75.28,1.21.49,2.04.67,2.37h-1.15c-.14-.24-.33-.99-.58-2.07-.26-1.19-.72-1.64-1.73-1.68h-1.05v3.75h-1.12v-8.53ZM82.31,54.28h1.14c1.19,0,1.95-.66,1.95-1.64,0-1.12-.81-1.6-1.99-1.62-.54,0-.92.05-1.1.1v3.16Z"/>
    <path class="st1" d="M95.38,55.07c-.06-1.21-.14-2.66-.13-3.73h-.04c-.29,1.01-.65,2.09-1.09,3.29l-1.53,4.2h-.85l-1.4-4.12c-.41-1.22-.76-2.33-1-3.36h-.03c-.03,1.08-.09,2.53-.17,3.82l-.23,3.71h-1.07l.6-8.65h1.42l1.48,4.18c.36,1.07.65,2.01.87,2.91h.04c.22-.87.53-1.82.91-2.91l1.54-4.18h1.42l.54,8.65h-1.09l-.22-3.8Z"/>
    <path class="st1" d="M102.89,54.82h-3.36v3.12h3.75v.94h-4.86v-8.65h4.67v.94h-3.55v2.73h3.36v.92Z"/>
    <path class="st1" d="M106.57,51.17h-2.63v-.95h6.4v.95h-2.64v7.7h-1.13v-7.7Z"/>
    <path class="st1" d="M113.22,54.98v.83h-3.17v-.83h3.17Z"/>
  </g>
  <path class="st4" d="M0,119.83c1.64-.1,3.26-.36,4.86-.72.79-.19,1.59-.35,2.37-.59.79-.22,1.57-.45,2.33-.74,3.07-1.08,6.03-2.45,8.83-4.11.69-.42,1.37-.88,2.06-1.31.7-.42,1.35-.91,2-1.4.65-.49,1.32-.95,1.95-1.46l1.86-1.58.94-.79.88-.86,1.76-1.71c1.16-1.16,2.21-2.42,3.36-3.6-.97,1.32-1.95,2.65-3,3.93l-1.67,1.83-.84.91-.9.85-1.82,1.69c-.63.54-1.3,1.03-1.95,1.55-.65.52-1.31,1.02-2.02,1.45-.7.45-1.38.92-2.09,1.36-2.87,1.67-5.92,3.05-9.11,3.98-.79.25-1.6.44-2.41.62-.8.2-1.63.32-2.44.46-1.64.2-3.3.36-4.94.24Z"/>
  <path class="st4" d="M3.05,119.63c3.26.55,6.6.72,9.87.3.82-.07,1.62-.27,2.43-.42.79-.22,1.6-.39,2.36-.69,1.56-.52,3.04-1.23,4.42-2.11,2.77-1.74,5.1-4.13,6.86-6.88,1.75-2.74,3.04-5.83,3.7-8.96h0s.47.57.47.57c-3.17-.03-6.44.6-9.54,1.54-3.11.95-6.11,2.28-8.95,3.9-.7.42-1.38.87-2.08,1.3-.7.42-1.36.9-2.02,1.4-.65.49-1.33.96-1.96,1.48l-1.86,1.61-.93.81-.87.87-1.74,1.75c-1.12,1.2-2.15,2.48-3.23,3.72,1.05-1.27,2.05-2.57,3.13-3.81l1.7-1.79.85-.9.91-.83,1.83-1.66c.63-.53,1.29-1.02,1.94-1.54.64-.52,1.3-1.02,2-1.46.69-.45,1.37-.93,2.07-1.37,2.83-1.71,5.84-3.13,8.98-4.19,3.16-1.04,6.4-1.77,9.81-1.83h.58s-.11.59-.11.59v.02c-.79,3.32-2.19,6.4-4.06,9.19-1.88,2.78-4.34,5.18-7.22,6.89-1.43.86-2.97,1.55-4.57,2.04-.79.28-1.61.43-2.42.64-.82.13-1.64.31-2.47.36-3.31.34-6.65.08-9.9-.55Z"/>
  <path class="st4" d="M33.19,100.95c-1.71-.35-3.45-.52-5.18-.53-1.73-.04-3.46.08-5.16.36-3.39.56-6.7,1.68-9.62,3.47-2.94,1.75-5.52,4.09-7.7,6.77-2.18,2.67-3.98,5.68-5.53,8.81.31-.81.63-1.63.97-2.44.38-.79.73-1.59,1.14-2.37.85-1.54,1.75-3.06,2.82-4.47,2.08-2.85,4.74-5.32,7.79-7.16,3.05-1.84,6.51-2.98,10.03-3.37,3.51-.39,7.11-.14,10.45.93Z"/>
  <path class="st4" d="M281.6,0c-11.45,3.26-21.75,7.75-30.86,13.41-5.05,3.14-9.72,6.64-14.02,10.5-6.63,5.96-10.55,11.1-14.69,16.55-5.22,6.86-11.13,14.64-23.68,25.6-13.3,11.6-27.04,23.59-47.39,28.41-10.21,2.42-15.9,1.57-24.5.3-5.34-.79-11.98-1.77-21.54-2.18-12.04-.51-48.68-2.06-82.78,14.42-7.77,3.76-15.16,8.31-22.14,13.64v-1.25c6.85-5.18,14.1-9.61,21.7-13.29,34.33-16.59,71.16-15.03,83.26-14.52,9.62.41,16.29,1.4,21.64,2.19,8.5,1.26,14.11,2.09,24.13-.29,20.11-4.75,33.76-16.67,46.96-28.19,12.48-10.89,18.36-18.62,23.54-25.44,4.18-5.49,8.12-10.67,14.82-16.69,4.23-3.8,8.83-7.26,13.78-10.36.18-.12.37-.24.56-.35,8.27-5.13,17.53-9.29,27.71-12.46h3.5Z"/>
  <path class="st4" d="M32.38,102.43c1.61.32,3.25.49,4.88.55.82.02,1.63.07,2.45.03.82,0,1.63-.03,2.44-.12,3.25-.26,6.46-.82,9.59-1.71.78-.23,1.55-.5,2.32-.74.78-.23,1.54-.53,2.29-.84.75-.31,1.52-.58,2.26-.91l2.21-1.05,1.11-.52,1.07-.6,2.14-1.2c1.42-.82,2.76-1.77,4.17-2.62-1.28,1.03-2.57,2.06-3.91,3.03l-2.09,1.34-1.05.67-1.09.59-2.2,1.16c-.75.36-1.52.66-2.28,1-.76.34-1.53.65-2.32.89-.79.26-1.57.54-2.37.78-3.2.88-6.5,1.43-9.82,1.51-.83.04-1.66.02-2.49-.02-.83,0-1.65-.1-2.48-.18-1.64-.23-3.28-.5-4.84-1.04Z"/>
  <path class="st4" d="M35.38,103.03c3.01,1.37,6.19,2.38,9.46,2.82.81.14,1.64.15,2.46.22.82-.01,1.64.03,2.46-.06,1.64-.1,3.26-.41,4.82-.91,3.12-.97,5.99-2.69,8.39-4.89,2.39-2.2,4.44-4.85,5.88-7.71h0s.3.68.3.68c-3.06-.84-6.38-1.07-9.62-.96-3.25.12-6.5.64-9.66,1.47-.79.22-1.56.48-2.34.73-.79.22-1.55.52-2.31.83-.76.31-1.53.59-2.28.92l-2.21,1.08-1.11.54-1.06.62-2.13,1.24c-1.39.88-2.71,1.85-4.07,2.77,1.34-.95,2.64-1.96,4.01-2.88l2.1-1.3,1.05-.65,1.1-.57,2.19-1.14c.74-.35,1.51-.66,2.27-.99.76-.33,1.52-.65,2.31-.9.78-.26,1.56-.55,2.35-.79,3.17-.93,6.45-1.53,9.76-1.74,3.32-.19,6.64-.07,9.95.75l.56.14-.26.55v.02c-1.62,3.01-3.76,5.62-6.29,7.84-2.53,2.2-5.52,3.9-8.75,4.81-1.61.47-3.27.74-4.94.8-.83.07-1.67,0-2.5,0-.83-.09-1.66-.12-2.48-.28-3.29-.53-6.45-1.62-9.42-3.07Z"/>
  <path class="st4" d="M69.3,92.7c-1.57-.77-3.2-1.39-4.87-1.84-1.66-.49-3.37-.81-5.08-.98-3.42-.33-6.9-.1-10.19.89-3.3.94-6.39,2.54-9.18,4.57-2.8,2.02-5.3,4.47-7.61,7.09.51-.71,1.03-1.42,1.57-2.11.57-.67,1.12-1.35,1.71-2,1.21-1.27,2.47-2.51,3.87-3.59,2.74-2.22,5.95-3.92,9.36-4.92,3.42-1,7.06-1.21,10.56-.69,3.5.53,6.91,1.69,9.86,3.58Z"/>
  <path class="st4" d="M68.92,94.07c1.08.38,2.18.67,3.3.88,1.11.22,2.23.41,3.36.48,2.25.18,4.51.17,6.75-.07,1.11-.16,2.24-.26,3.34-.53.55-.12,1.11-.21,1.66-.35.54-.16,1.09-.3,1.64-.44.55-.13,1.09-.29,1.63-.49l1.61-.55c1.08-.37,2.11-.85,3.2-1.23-.98.58-1.99,1.15-3.01,1.68l-1.58.69c-.53.24-1.06.46-1.61.63-2.17.83-4.46,1.27-6.76,1.58-2.31.22-4.65.2-6.95-.16-1.15-.17-2.28-.45-3.38-.77-1.09-.38-2.18-.77-3.18-1.36Z"/>
  <path class="st4" d="M70.91,94.84c1,.58,1.97,1.2,2.98,1.73l1.58.68.79.34c.27.09.55.16.82.24l1.65.46,1.69.22c.56.11,1.13.07,1.7.06.57-.02,1.14,0,1.69-.12,2.24-.29,4.4-1.13,6.29-2.36,1.88-1.23,3.58-2.81,4.88-4.58h0s.18.72.18.72c-1.96-.93-4.21-1.5-6.43-1.82-2.24-.31-4.51-.36-6.77-.17-1.12.15-2.26.23-3.37.5-.56.12-1.12.22-1.67.35l-1.64.47c-.55.14-1.09.32-1.63.53l-1.61.59c-1.06.43-2.08.94-3.13,1.4,1.03-.5,2.04-1.05,3.08-1.52l1.59-.65c.53-.23,1.06-.43,1.61-.59l1.64-.53c.55-.16,1.11-.28,1.67-.42,1.11-.31,2.26-.43,3.39-.63,2.29-.27,4.61-.31,6.92-.08,2.31.25,4.58.72,6.79,1.67l.54.23-.35.5h0c-1.5,1.9-3.29,3.43-5.3,4.65-2.01,1.21-4.29,2.01-6.62,2.22-.58.11-1.17.07-1.75.07-.58,0-1.17,0-1.74-.12l-1.72-.29-1.66-.52c-.27-.09-.55-.17-.83-.27l-.78-.37-1.56-.75c-1-.57-1.95-1.23-2.92-1.84Z"/>
  <path class="st4" d="M95.39,91.78c-1.01-.68-2.06-1.29-3.16-1.77-.54-.25-1.1-.48-1.66-.69-.57-.17-1.13-.4-1.71-.53-2.3-.58-4.69-.87-7.04-.56-.59.02-1.16.2-1.75.29l-.87.17-.85.27c-.56.19-1.14.33-1.69.55-.54.25-1.08.49-1.63.73-.56.21-1.08.52-1.59.83l-1.56.92c-1.01.66-1.96,1.41-2.98,2.09.87-.85,1.77-1.68,2.69-2.49l1.51-1.06c.5-.36,1.01-.71,1.57-.98.54-.29,1.09-.58,1.65-.85.56-.26,1.16-.43,1.75-.65l.88-.3.92-.19c.61-.1,1.22-.29,1.84-.32,2.48-.3,5.02.03,7.37.82,2.35.79,4.54,2.04,6.3,3.73Z"/>
  <path class="st4" d="M95.63,91.84c2.43,1.94,5.2,3.36,8.08,4.4,2.89,1.02,5.9,1.65,8.95,1.9,1.53.03,3.06.17,4.59.02.76-.06,1.53-.04,2.29-.15.76-.11,1.52-.22,2.28-.31.77-.07,1.52-.25,2.27-.42l2.26-.5c1.5-.38,2.96-.89,4.47-1.29-1.43.61-2.87,1.21-4.33,1.76l-2.25.65c-.75.22-1.5.44-2.28.56-.77.15-1.54.29-2.31.42-.77.14-1.56.15-2.34.23-1.57.18-3.14.05-4.72.04-3.14-.28-6.25-.96-9.15-2.19-1.46-.59-2.84-1.35-4.18-2.16-1.29-.88-2.57-1.81-3.63-2.95Z"/>
  <path class="st4" d="M97.95,93.68c1.95,2.6,4.21,4.99,6.87,6.83,2.65,1.84,5.79,3.01,9,3.07,3.21.08,6.37-.89,9.17-2.43,2.79-1.55,5.35-3.61,7.44-5.97h0s.03.67.03.67c-2.17-2.05-4.9-3.62-7.72-4.78-2.84-1.16-5.87-1.84-8.94-2.13-3.07-.25-6.18-.11-9.23.42-3.05.52-6.05,1.37-8.95,2.49,2.87-1.19,5.85-2.13,8.9-2.73,3.05-.62,6.19-.85,9.31-.68,3.12.2,6.23.82,9.18,1.93,2.94,1.13,5.74,2.61,8.15,4.78l.34.3-.32.37h-.01c-2.28,2.46-4.92,4.47-7.85,6-2.92,1.51-6.22,2.44-9.54,2.27-3.32-.15-6.49-1.43-9.13-3.36-2.65-1.93-4.85-4.39-6.73-7.03Z"/>
  <path class="st4" d="M130.82,95.48c-.98-1.39-2.07-2.69-3.29-3.85-1.2-1.18-2.5-2.25-3.92-3.15-2.81-1.79-6.01-2.97-9.33-3.14-1.65-.11-3.31.01-4.95.29-1.63.33-3.25.77-4.81,1.38-3.14,1.19-6.08,2.92-8.9,4.82.65-.54,1.32-1.08,1.99-1.61l2.09-1.48c.74-.44,1.46-.89,2.21-1.3.77-.37,1.51-.82,2.31-1.13,1.56-.74,3.24-1.2,4.92-1.6,1.71-.32,3.45-.46,5.19-.36,3.49.21,6.88,1.49,9.69,3.51,2.81,2.01,5.16,4.63,6.78,7.63Z"/>
  <path class="st4" d="M130.09,95.98c1.83.62,3.72.92,5.59,1.09,1.88.15,3.77.14,5.65-.06.93-.13,1.88-.21,2.8-.43.46-.09.93-.17,1.39-.28l1.37-.36c.46-.1.92-.25,1.37-.4l1.36-.44c.91-.3,1.78-.69,2.71-.99-.82.51-1.66.99-2.52,1.44-.89.38-1.75.85-2.68,1.13-1.82.7-3.75,1.07-5.69,1.33-1.95.18-3.92.15-5.85-.16-1.92-.31-3.82-.89-5.5-1.86Z"/>
  <path class="st4" d="M131.76,96.63c.84.48,1.65,1,2.5,1.45l1.33.57.66.29c.23.08.46.13.69.2l1.38.38,1.42.18c.47.09.95.06,1.42.05.47-.01.95,0,1.42-.11,1.88-.24,3.68-.95,5.26-1.98,1.57-1.03,2.99-2.36,4.07-3.84h0s.18.73.18.73c-1.63-.79-3.51-1.28-5.37-1.55-1.87-.27-3.78-.32-5.68-.17-1.89.2-3.78.5-5.61,1.07-.93.22-1.81.62-2.72.93-.89.36-1.75.78-2.63,1.16.86-.42,1.71-.88,2.59-1.28.9-.34,1.76-.78,2.69-1.05,1.82-.66,3.72-1.05,5.64-1.33,1.93-.23,3.88-.27,5.82-.07,1.95.21,3.85.6,5.73,1.4l.54.23-.35.5h0c-1.28,1.6-2.79,2.88-4.49,3.9-1.7,1.01-3.63,1.67-5.59,1.84-.49.09-.98.05-1.47.05-.49,0-.98,0-1.47-.11l-1.45-.25-1.39-.45c-.23-.08-.47-.14-.69-.23l-.66-.32-1.31-.63c-.84-.49-1.63-1.05-2.45-1.56Z"/>
  <path class="st4" d="M152.33,94.1c-1.71-1.13-3.57-1.95-5.49-2.46-1.92-.49-3.92-.72-5.88-.46-.49.02-.97.16-1.46.23l-.73.14-.71.23c-.47.15-.96.27-1.42.45l-1.37.6c-.47.18-.9.44-1.33.69l-1.32.75c-.85.54-1.65,1.16-2.53,1.72.72-.72,1.47-1.43,2.24-2.12l1.26-.91c.42-.31.85-.6,1.32-.82,1.8-1.07,3.85-1.67,5.93-1.96,2.1-.25,4.24.04,6.22.71,1.98.67,3.8,1.77,5.27,3.21Z"/>
  <path class="st4" d="M152.87,93.37c2.64-.03,5.23-.48,7.74-1.16,2.51-.7,4.95-1.62,7.27-2.78,1.14-.63,2.31-1.19,3.39-1.92.55-.35,1.11-.68,1.65-1.05.52-.39,1.05-.77,1.59-1.15l.8-.57.75-.63,1.51-1.25c1-.84,1.92-1.78,2.93-2.65-.84,1.02-1.69,2.03-2.59,3l-1.44,1.38-.72.69-.77.63c-2.01,1.75-4.3,3.15-6.65,4.41-2.4,1.17-4.93,2.1-7.54,2.64-1.3.29-2.63.45-3.95.56-1.33.05-2.66.07-3.97-.14Z"/>
  <path class="st4" d="M155.32,93.39c2.58.62,5.23.94,7.87.79,1.32-.07,2.62-.27,3.89-.62,1.27-.33,2.5-.81,3.64-1.44,2.31-1.23,4.29-3.01,5.85-5.1,1.54-2.08,2.75-4.48,3.44-6.93h0s.43.61.43.61c-2.51-.21-5.16.09-7.69.65-2.54.57-5.02,1.45-7.38,2.57-1.15.62-2.35,1.17-3.43,1.91-.55.35-1.12.69-1.66,1.06l-1.58,1.17-.79.59-.75.64-1.49,1.29c-.96.89-1.87,1.85-2.8,2.78.91-.95,1.78-1.95,2.72-2.87l1.46-1.34.73-.67.78-.62,1.56-1.23c.53-.39,1.09-.75,1.64-1.12,1.08-.78,2.26-1.37,3.41-2.04,2.36-1.21,4.85-2.18,7.43-2.85,2.59-.65,5.22-1.06,7.98-.92l.58.03-.15.59v.02c-.84,2.63-2.15,5-3.82,7.13-1.68,2.11-3.8,3.89-6.21,5.08-1.2.6-2.47,1.06-3.78,1.36-1.3.31-2.64.48-3.97.5-2.67.07-5.32-.34-7.88-1.04Z"/>
  <path class="st4" d="M180.5,80.21c-1.36-.35-2.73-.58-4.12-.67-.69-.06-1.38-.08-2.07-.09-.69.04-1.38.02-2.06.11-2.73.29-5.43.94-7.85,2.23-.63.26-1.18.68-1.78,1.02l-.88.53-.8.64c-.53.43-1.1.82-1.6,1.29-.48.49-.97.97-1.47,1.45-.24.25-.51.47-.73.74l-.65.81-1.3,1.62c-.81,1.13-1.52,2.33-2.34,3.48.61-1.25,1.25-2.52,1.93-3.75l1.21-1.74.61-.87c.2-.29.46-.53.69-.81.47-.53.95-1.06,1.44-1.58.5-.5,1.08-.93,1.62-1.4l.83-.68.91-.57c.62-.36,1.19-.8,1.85-1.09,2.55-1.33,5.41-1.99,8.25-2.1,2.84-.11,5.7.34,8.3,1.42Z"/>
  <path class="st4" d="M180.5,80.16c1.58-.45,3.11-1.04,4.6-1.72.74-.36,1.49-.68,2.2-1.08.72-.38,1.44-.77,2.12-1.21,2.77-1.7,5.38-3.66,7.77-5.87.59-.56,1.15-1.14,1.73-1.71.59-.56,1.13-1.17,1.66-1.79.53-.61,1.09-1.21,1.6-1.84l1.49-1.94.75-.97.68-1.02,1.36-2.04c.89-1.37,1.65-2.83,2.53-4.23-.67,1.5-1.35,3-2.11,4.47l-1.25,2.14-.63,1.07-.7,1.02-1.43,2.03c-.5.66-1.05,1.28-1.58,1.92-.52.64-1.07,1.27-1.67,1.85-.59.59-1.16,1.19-1.76,1.77-2.45,2.24-5.15,4.23-8.07,5.81-.72.41-1.47.77-2.22,1.11-.74.37-1.52.66-2.29.97-1.56.54-3.15,1.05-4.78,1.27Z"/>
  <path class="st4" d="M183.45,79.33c3.3-.14,6.6-.69,9.71-1.78.79-.24,1.53-.61,2.29-.92.73-.38,1.48-.72,2.17-1.17,1.41-.83,2.72-1.85,3.88-2.99,2.34-2.28,4.12-5.11,5.26-8.17,1.13-3.05,1.75-6.34,1.74-9.54h0s.58.46.58.46c-3.11.64-6.17,1.94-9,3.51-2.84,1.59-5.5,3.51-7.93,5.7-.6.56-1.17,1.14-1.76,1.71-.6.56-1.15,1.17-1.68,1.79-.53.62-1.09,1.22-1.61,1.86l-1.48,1.96-.74.98-.66,1.04-1.33,2.07c-.84,1.41-1.58,2.88-2.37,4.32.76-1.46,1.46-2.95,2.26-4.38l1.28-2.11.64-1.06.72-1.01,1.44-2.01c.5-.65,1.05-1.27,1.57-1.91.52-.64,1.06-1.27,1.65-1.85.58-.59,1.14-1.19,1.73-1.77,2.4-2.27,5.05-4.29,7.9-5.98,2.87-1.68,5.89-3.07,9.21-3.85l.57-.13.02.61v.02c-.07,3.41-.79,6.72-2.04,9.84-1.25,3.11-3.15,5.98-5.61,8.25-1.22,1.14-2.58,2.14-4.03,2.96-.71.44-1.48.76-2.23,1.13-.78.3-1.54.65-2.34.87-3.17,1.02-6.48,1.48-9.79,1.54Z"/>
  <path class="st4" d="M208.99,54.73c-1.75.02-3.48.22-5.18.57-1.7.32-3.37.81-4.97,1.43-3.2,1.26-6.2,3.05-8.68,5.41-2.51,2.33-4.54,5.16-6.1,8.24-1.57,3.07-2.7,6.39-3.56,9.77.14-.86.27-1.73.44-2.59.21-.85.38-1.71.61-2.56.51-1.68,1.07-3.36,1.82-4.96,1.44-3.23,3.52-6.19,6.11-8.63,2.59-2.44,5.74-4.28,9.1-5.4,3.35-1.12,6.92-1.63,10.41-1.28Z"/>
  <path class="st4" d="M208.99,55.63c1.83-.96,3.46-2.21,4.98-3.55,1.51-1.36,2.89-2.85,4.11-4.46.58-.83,1.21-1.62,1.72-2.51.27-.43.55-.85.8-1.3l.72-1.34c.26-.44.48-.9.68-1.37l.65-1.39c.43-.93.76-1.9,1.19-2.85-.21,1.01-.46,2.02-.74,3.02-.36.97-.63,1.99-1.09,2.92-.8,1.93-1.92,3.71-3.15,5.41-1.28,1.66-2.75,3.17-4.41,4.45-1.65,1.28-3.49,2.35-5.48,2.95Z"/>
  <path class="st4" d="M210.72,54.8c.99-.3,2-.55,2.98-.89l1.42-.61.71-.31c.23-.12.44-.26.66-.4l1.32-.8,1.19-.98c.42-.3.74-.7,1.08-1.08.34-.38.7-.74.96-1.18,1.19-1.65,1.97-3.58,2.32-5.57.35-1.98.36-4.08,0-6.01h0s.66.36.66.36c-1.82.7-3.58,1.81-5.16,3.07-1.59,1.27-3.03,2.72-4.3,4.32-1.23,1.63-2.38,3.33-3.28,5.18-.51.89-.84,1.87-1.27,2.81-.37.96-.68,1.94-1.02,2.91.3-.98.57-1.98.91-2.96.39-.95.69-1.95,1.16-2.87.83-1.9,1.92-3.67,3.11-5.38,1.23-1.67,2.64-3.22,4.22-4.59,1.59-1.36,3.3-2.57,5.3-3.43l.54-.23.12.6h0c.31,2.17.2,4.29-.25,6.37-.46,2.07-1.35,4.06-2.66,5.72-.29.45-.68.81-1.04,1.19-.37.38-.72.77-1.16,1.06l-1.25.95-1.37.76c-.23.12-.45.26-.69.37l-.73.28-1.46.56c-.99.3-2.01.51-3.02.77Z"/>
  <path class="st4" d="M223.85,36.88c-1.07.25-2.11.57-3.1,1-.5.2-.99.43-1.47.66-.47.27-.95.5-1.4.8-1.8,1.15-3.45,2.54-4.69,4.26-.35.4-.59.88-.89,1.32l-.43.67-.34.72c-.22.48-.49.95-.68,1.44-.17.51-.35,1.01-.54,1.52-.21.5-.33,1.02-.44,1.55l-.37,1.58c-.2,1.07-.3,2.15-.5,3.24-.03-1.09-.03-2.2.01-3.3l.24-1.64c.07-.55.15-1.1.32-1.63.14-.54.29-1.08.46-1.61.18-.53.44-1.03.65-1.55l.35-.77.44-.72c.31-.47.56-.98.93-1.41,1.34-1.82,3.14-3.28,5.11-4.32,1.98-1.04,4.16-1.7,6.36-1.79Z"/>
  <path class="st4" d="M223.85,35.99c1.43-.41,2.8-.95,4.14-1.58,1.33-.62,2.65-1.28,3.88-2.08,2.5-1.54,4.84-3.31,6.99-5.3,1.03-1.04,2.13-2.02,3.06-3.15.48-.55.98-1.09,1.45-1.66.44-.59.89-1.17,1.35-1.74l.68-.87.61-.92,1.23-1.84c.81-1.24,1.5-2.54,2.3-3.8-.6,1.36-1.21,2.72-1.88,4.05l-1.12,1.93-.56.97-.63.92c-.42.62-.85,1.23-1.29,1.84-.45.59-.95,1.16-1.42,1.74-.47.58-.97,1.15-1.5,1.67-.53.53-1.04,1.08-1.58,1.6-2.22,2.02-4.65,3.82-7.29,5.23-.65.37-1.33.69-2.01,1-.67.33-1.37.59-2.07.87-1.41.48-2.84.93-4.32,1.13Z"/>
  <path class="st4" d="M226.51,35.24c2.98-.13,5.95-.63,8.75-1.62,1.4-.48,2.75-1.11,4.01-1.89,1.27-.75,2.44-1.67,3.49-2.7,2.11-2.06,3.7-4.61,4.72-7.36,1.01-2.74,1.57-5.71,1.55-8.59h0s.58.46.58.46c-2.79.57-5.56,1.74-8.11,3.15-2.56,1.43-4.96,3.16-7.16,5.12-.54.5-1.06,1.03-1.59,1.54-.54.5-1.03,1.05-1.51,1.61-.48.56-.99,1.1-1.45,1.67l-1.34,1.77-.67.89-.6.93-1.2,1.87c-.76,1.27-1.43,2.59-2.14,3.89.68-1.31,1.31-2.66,2.04-3.95l1.15-1.91.58-.95.65-.91,1.3-1.82c.45-.59.95-1.15,1.42-1.72.47-.58.95-1.15,1.48-1.67.52-.53,1.03-1.08,1.56-1.6,2.17-2.05,4.55-3.88,7.12-5.41,2.59-1.52,5.31-2.78,8.31-3.49l.56-.13.02.61v.02c-.07,3.09-.72,6.07-1.85,8.89-1.14,2.81-2.85,5.4-5.08,7.45-1.1,1.03-2.33,1.93-3.65,2.66-1.3.75-2.69,1.35-4.12,1.8-2.86.92-5.85,1.33-8.83,1.38Z"/>
  <path class="st4" d="M249.54,13.05c-1.58.04-3.14.21-4.66.54-.76.15-1.52.35-2.27.55-.73.26-1.49.46-2.2.76-.7.33-1.44.58-2.12.95-.67.38-1.38.7-2.02,1.13l-1.91,1.3-1.75,1.51c-.6.49-1.06,1.12-1.6,1.67l-.78.86-.67.95c-.44.64-.93,1.24-1.32,1.9-.36.68-.74,1.36-1.12,2.04-.18.34-.4.67-.55,1.03l-.44,1.08-.88,2.17c-.51,1.48-.9,3-1.4,4.5.28-1.55.57-3.11.93-4.65l.76-2.25.39-1.13c.13-.38.33-.72.5-1.09.34-.72.69-1.44,1.06-2.15.39-.7.88-1.34,1.31-2.01l.68-.99.8-.9c.55-.58,1.03-1.24,1.65-1.75,2.32-2.23,5.2-3.85,8.22-4.87,3.03-1.02,6.25-1.45,9.4-1.13Z"/>
  <path class="st4" d="M283.57,0c-8.32,8.84-20.55,14.79-32.86,13.48,0,0-1.17-.19-1.17-.19,12.62.53,24.56-5.31,34.03-13.29h0Z"/>
  <path class="st4" d="M249.54,13.29C255.15,6.68,262.9,1.63,271.48,0c-1.01.41-2.02.76-3.01,1.22-6.98,2.88-13.18,7.22-18.93,12.07h0Z"/>
  <path class="st4" d="M252.6,13.48c11.48,3,22.38.87,29.31-9.39.94-1.28,1.74-2.67,2.47-4.09-1.07,3.03-2.78,5.83-4.91,8.28-6.85,7.93-17.53,8.81-26.87,5.2h0Z"/>
  <path class="st4" d="M249.54,13.29C252.07,7.56,256.57,2.38,262.45,0c-5.19,3.63-9.15,8.25-12.91,13.29h0Z"/>
  <path class="st4" d="M612,608.24v1.35c-3.51,3.13-7.58,6.04-12.27,8.43-.02.02-.03.02-.05.02-.76.4-1.53.77-2.32,1.13-10.31,4.68-20.17,5.46-23.93,5.58-7.92.25-13.69-1.11-17.51-2.01-.58-.14-1.12-.27-1.6-.37-19.53-4.31-47.23,4.14-64.44,19.66-6.11,5.51-8.74,10.13-11.53,15.01-3.36,5.89-7.17,12.56-17.74,22.18-7.83,7.12-14.51,11.41-22.31,14.34-8.17,3.06-14.61,3.41-19.78,3.7-1.44.08-2.8.16-4.09.28-20.2,1.99-35.14,18.35-47.15,31.49-18.93,20.72-27.22,44.25-30.74,62.97h-1.02c3.53-18.9,11.88-42.7,31.02-63.64,12.13-13.27,27.21-29.79,47.8-31.81,1.3-.13,2.67-.21,4.13-.29,5.1-.28,11.45-.63,19.48-3.64,7.68-2.88,14.26-7.11,21.99-14.14,10.45-9.51,14.22-16.11,17.55-21.94,2.82-4.95,5.49-9.63,11.72-15.25,17.43-15.71,45.51-24.27,65.33-19.9.48.11,1.02.23,1.61.37,3.77.9,9.46,2.24,17.25,1.99,3.7-.11,13.4-.89,23.55-5.49,1.03-.47,2.03-.96,3-1.48.18-.09.35-.18.53-.28,4.39-2.38,8.21-5.22,11.52-8.26Z"/>
  <path class="st4" d="M335.31,792.41c1.16-1.16,2.21-2.43,3.16-3.75.47-.67.96-1.32,1.39-2.02.45-.68.88-1.37,1.26-2.09,1.59-2.84,2.9-5.83,3.9-8.92.24-.78.45-1.56.67-2.34.24-.78.41-1.57.57-2.37.16-.8.36-1.59.5-2.39l.35-2.42.18-1.21.09-1.22.18-2.45c.1-1.63.06-3.27.14-4.92.15,1.64.29,3.28.35,4.93l-.04,2.48-.02,1.24-.11,1.24-.25,2.47c-.12.82-.29,1.63-.43,2.45-.14.82-.31,1.63-.55,2.43-.22.8-.42,1.61-.67,2.4-1.04,3.15-2.42,6.21-4.19,9.01-.43.71-.9,1.39-1.4,2.06-.47.68-1,1.32-1.52,1.96-1.1,1.24-2.23,2.45-3.55,3.45Z"/>
  <path class="st4" d="M337.47,790.24c2.81-1.74,5.42-3.83,7.59-6.31.57-.6,1.03-1.28,1.55-1.92.45-.69.94-1.35,1.32-2.08.82-1.42,1.46-2.94,1.92-4.51.93-3.14,1.09-6.47.59-9.7-.51-3.21-1.57-6.38-3.16-9.17h0s.74.12.74.12c-2.4,2.08-4.43,4.72-6.13,7.47-1.7,2.78-3.07,5.76-4.13,8.85-.25.78-.46,1.57-.7,2.35-.25.78-.43,1.58-.59,2.38-.16.8-.36,1.6-.49,2.41l-.33,2.44-.16,1.22-.07,1.23-.15,2.46c-.04,1.64.04,3.28.05,4.93-.05-1.64-.17-3.28-.17-4.93l.08-2.47.04-1.23.13-1.23.27-2.46c.12-.82.29-1.62.44-2.43.14-.81.3-1.62.53-2.42.22-.8.41-1.6.64-2.39.99-3.15,2.3-6.21,3.96-9.08,1.68-2.87,3.63-5.56,6.14-7.86l.43-.39.32.52v.02c1.62,3.01,2.61,6.24,3.05,9.58.43,3.33.18,6.76-.85,9.95-.5,1.6-1.2,3.13-2.07,4.55-.4.73-.92,1.39-1.39,2.08-.53.64-1.02,1.32-1.61,1.9-2.26,2.44-4.93,4.47-7.78,6.14Z"/>
  <path class="st4" d="M347.69,756.29c-1.51.87-2.93,1.89-4.24,3.03-1.33,1.11-2.54,2.35-3.63,3.68-2.17,2.67-3.91,5.69-4.91,8.97-1.05,3.26-1.43,6.72-1.29,10.17.13,3.45.78,6.89,1.68,10.26-.3-.82-.61-1.64-.89-2.47-.24-.84-.51-1.68-.72-2.53-.38-1.71-.71-3.45-.84-5.21-.33-3.52.03-7.12,1.1-10.52,1.06-3.4,2.91-6.54,5.28-9.17,2.38-2.62,5.23-4.81,8.45-6.22Z"/>
  <path class="st4" d="M347.8,756.29c2.16-1.38,4.09-3.04,5.85-4.86,1.74-1.83,3.34-3.79,4.7-5.92.36-.52.65-1.08.99-1.61.33-.54.64-1.09.91-1.66l.87-1.68c.24-.58.5-1.16.75-1.74,1.02-2.32,1.73-4.76,2.47-7.22-.19,1.26-.38,2.54-.65,3.8-.36,1.23-.62,2.5-1.1,3.7-.22.61-.44,1.22-.67,1.82l-.82,1.76c-.26.59-.58,1.16-.91,1.71-.33.56-.63,1.13-.99,1.67-1.41,2.17-3.09,4.18-5,5.92-.95.88-1.97,1.68-3.01,2.43-1.08.7-2.18,1.39-3.37,1.88Z"/>
  <path class="st4" d="M349.89,755.03c2.43-.83,4.78-1.92,6.89-3.36,2.12-1.42,3.97-3.24,5.32-5.39,1.37-2.13,2.16-4.59,2.43-7.09.27-2.49.04-5.08-.66-7.43h0s.69.29.69.29c-2.19,1.1-4.24,2.68-6.08,4.4-1.84,1.74-3.48,3.68-4.9,5.79-1.41,2.11-2.62,4.37-3.57,6.73-.96,2.36-1.69,4.82-2.21,7.32.44-2.52,1.09-5,1.98-7.41.88-2.41,2.02-4.73,3.38-6.91,1.37-2.18,2.97-4.22,4.79-6.06,1.84-1.83,3.83-3.48,6.17-4.76l.5-.27.19.57h0c.68,2.6.81,5.24.45,7.85-.37,2.59-1.28,5.12-2.76,7.27-1.46,2.16-3.41,3.95-5.6,5.32-2.18,1.39-4.57,2.4-7.02,3.15Z"/>
  <path class="st4" d="M364.34,731.6c-1.29.43-2.54.94-3.73,1.58-.61.29-1.17.65-1.76.97-.56.37-1.12.74-1.66,1.12-2.15,1.58-4.06,3.48-5.48,5.71-.41.52-.69,1.12-1.01,1.71-.31.58-.65,1.16-.85,1.79l-.72,1.86-.5,1.94-.25.97-.13.99-.26,2c-.13,1.34-.09,2.69-.18,4.05-.13-1.35-.27-2.71-.31-4.08l.12-2.05.07-1.03.19-1.01c.13-.68.25-1.36.41-2.03l.68-1.96c.2-.67.55-1.27.86-1.89.32-.61.61-1.25,1.04-1.8,1.51-2.33,3.55-4.32,5.88-5.79,2.32-1.49,4.9-2.57,7.58-3.04Z"/>
  <path class="st4" d="M363.2,732.2c1.79-.72,3.44-1.72,4.99-2.8,1.54-1.1,3-2.32,4.31-3.69.33-.33.64-.7.96-1.04.33-.34.63-.71.92-1.09l.89-1.11.82-1.17c.58-.76,1.02-1.61,1.55-2.41.51-.81.92-1.68,1.43-2.51-.3.92-.63,1.83-.99,2.74-.43.87-.79,1.79-1.33,2.6-.95,1.72-2.2,3.24-3.53,4.69-1.37,1.4-2.92,2.64-4.6,3.65-1.68,1.01-3.5,1.79-5.41,2.15Z"/>
  <path class="st4" d="M364.91,731.6c1.92-.24,3.82-.7,5.59-1.46,1.77-.75,3.4-1.83,4.68-3.24,1.3-1.39,2.23-3.09,2.78-4.89.55-1.8.76-3.74.6-5.56h0s.62.43.62.43c-1.76.46-3.52,1.31-5.12,2.29-1.61,1-3.12,2.19-4.48,3.53-2.72,2.69-4.85,5.97-6.38,9.5,1.38-3.6,3.37-7,6.02-9.85,1.33-1.42,2.81-2.71,4.43-3.81,1.63-1.09,3.34-2.03,5.29-2.64l.55-.17.07.6h0c.09,2.06-.23,4.02-.88,5.91-.66,1.87-1.72,3.62-3.13,5.01-1.4,1.4-3.12,2.44-4.95,3.12-1.83.69-3.75,1.07-5.68,1.23Z"/>
  <path class="st4" d="M379.06,716.39c-2.03.28-3.99.87-5.8,1.72-1.8.86-3.48,1.98-4.83,3.42-.38.32-.66.74-.98,1.11-.32.38-.63.76-.88,1.19l-.81,1.26-.65,1.35-.33.68-.25.71-.52,1.42c-.31.96-.5,1.97-.81,2.95.08-1.02.18-2.05.33-3.07l.37-1.51.2-.76.29-.73.6-1.45c.25-.46.52-.91.79-1.37.25-.47.58-.88.91-1.29.34-.4.63-.85,1.03-1.2,1.46-1.53,3.29-2.69,5.24-3.44,1.95-.76,4.05-1.11,6.1-1Z"/>
  <path class="st4" d="M379.1,716.39c2.44-.65,4.77-1.55,7.01-2.65,2.23-1.11,4.39-2.35,6.37-3.85,2-1.47,3.89-3.09,5.59-4.91,1.76-1.77,3.24-3.79,4.75-5.82-.29.56-.6,1.11-.91,1.66-.32.55-.6,1.12-.97,1.63-.74,1.03-1.44,2.09-2.29,3.04-1.6,1.98-3.53,3.68-5.57,5.21-2.05,1.52-4.29,2.77-6.65,3.74-1.18.48-2.38.9-3.6,1.25-1.23.3-2.47.6-3.73.7Z"/>
  <path class="st4" d="M381.55,715.83c2.51-.12,5.01-.41,7.43-1.07,2.41-.65,4.75-1.62,6.77-3.06,2.02-1.43,3.71-3.31,4.83-5.49,1.12-2.17,1.76-4.64,1.73-7.02h0s.57.47.57.47c-2.4.38-4.81,1.17-7.09,2.14-2.29.99-4.48,2.21-6.52,3.65-4.1,2.87-7.56,6.64-10.18,10.94,2.48-4.38,5.83-8.3,9.89-11.34,2.02-1.53,4.21-2.85,6.51-3.93,2.31-1.07,4.69-1.96,7.26-2.45l.55-.1.02.58h0c-.07,2.66-.83,5.16-2.07,7.42-1.25,2.25-3.08,4.15-5.21,5.55-2.13,1.41-4.54,2.31-6.99,2.89-2.46.58-4.98.79-7.49.83Z"/>
  <path class="st4" d="M402.82,699.16c-1.33.06-2.65.18-3.95.43-1.31.2-2.59.51-3.85.88-2.51.76-4.91,1.84-7.05,3.32-1.11.68-2.04,1.6-3.01,2.46-.85.98-1.77,1.91-2.45,3.03-1.56,2.12-2.47,4.61-3.4,7.11.14-.65.29-1.3.46-1.95.18-.64.27-1.32.56-1.93l.78-1.87.2-.47.26-.44.52-.87c.62-1.22,1.57-2.21,2.42-3.27,1-.92,1.97-1.89,3.13-2.62,2.25-1.53,4.78-2.63,7.42-3.24,2.63-.6,5.34-.86,8-.57Z"/>
  <path class="st4" d="M402.82,699.4c1.58.47,3.19.79,4.8,1.01.81.09,1.62.23,2.43.26.81.07,1.63.12,2.44.11,3.25.05,6.51-.21,9.71-.8.8-.16,1.59-.35,2.38-.52.8-.15,1.58-.39,2.36-.62.78-.23,1.57-.44,2.34-.7l2.3-.84,1.15-.42,1.12-.5,2.24-1c1.49-.68,2.91-1.5,4.4-2.22-1.37.9-2.75,1.81-4.17,2.65l-2.2,1.14-1.1.57-1.14.49-2.3.95c-.78.29-1.57.52-2.36.78-.79.26-1.58.5-2.4.67-.81.18-1.62.39-2.43.55-3.27.58-6.61.82-9.92.58-.83-.04-1.65-.14-2.47-.25-.82-.09-1.64-.26-2.45-.41-1.61-.38-3.22-.8-4.72-1.49Z"/>
  <path class="st4" d="M405.75,700.28c2.87,1.65,5.94,2.95,9.15,3.7.8.22,1.62.3,2.43.45.82.07,1.63.19,2.46.17,1.64.05,3.28-.1,4.88-.45,3.2-.67,6.21-2.11,8.81-4.08,2.59-1.97,4.87-4.41,6.57-7.13h0s.24.7.24.7c-2.97-1.12-6.25-1.66-9.49-1.85-3.25-.18-6.53.02-9.75.56-.8.15-1.6.34-2.4.5-.81.15-1.59.37-2.38.61-.78.24-1.58.44-2.35.71l-2.3.86-1.15.43-1.12.52-2.23,1.04c-1.46.74-2.87,1.59-4.32,2.38,1.42-.83,2.81-1.71,4.26-2.49l2.21-1.1,1.11-.55,1.14-.47,2.29-.93c.77-.28,1.57-.51,2.35-.77.78-.26,1.57-.51,2.38-.68.8-.19,1.6-.4,2.41-.57,3.25-.63,6.56-.92,9.88-.82,3.32.12,6.62.56,9.84,1.68l.55.19-.31.52v.02c-1.9,2.85-4.28,5.25-7,7.22-2.72,1.96-5.86,3.36-9.16,3.97-1.64.31-3.32.43-4.99.34-.84,0-1.66-.15-2.49-.24-.82-.17-1.64-.28-2.44-.52-3.22-.83-6.27-2.22-9.09-3.94Z"/>
  <path class="st4" d="M440.49,693.18c-1.49-.92-3.06-1.68-4.68-2.29-1.61-.64-3.28-1.12-4.97-1.45-3.38-.65-6.86-.74-10.23-.07-3.37.62-6.6,1.93-9.56,3.69-2.98,1.75-5.7,3.95-8.24,6.35.58-.66,1.16-1.31,1.76-1.95.63-.61,1.24-1.24,1.89-1.84,1.33-1.15,2.7-2.26,4.19-3.22,2.94-1.96,6.29-3.35,9.78-4.02,3.5-.68,7.14-.54,10.58.31,3.43.85,6.72,2.33,9.48,4.49Z"/>
  <path class="st4" d="M440.49,693.25c1.75-.13,3.4-.64,4.97-1.28,1.57-.66,3.05-1.51,4.43-2.5l1.02-.77c.34-.26.64-.56.97-.83.67-.53,1.24-1.17,1.87-1.76.61-.61,1.16-1.27,1.76-1.9.57-.65,1.09-1.34,1.68-2-.4.78-.85,1.53-1.29,2.29-.51.71-.99,1.45-1.57,2.13-1.13,1.35-2.41,2.6-3.86,3.64-1.46,1.02-3.04,1.88-4.74,2.42-1.69.54-3.5.81-5.24.55Z"/>
  <path class="st4" d="M442.03,693.2c1.74.43,3.56.59,5.31.34,1.75-.28,3.42-1.02,4.73-2.18,1.33-1.14,2.34-2.62,3.09-4.2.74-1.58,1.27-3.31,1.53-5h0s.45.56.45.56c-1.59-.11-3.34.22-4.93.76-1.61.55-3.15,1.34-4.57,2.31-2.85,1.95-5.21,4.58-7.15,7.46,1.8-2.97,4.05-5.73,6.86-7.86,1.4-1.07,2.95-1.96,4.6-2.61,1.67-.64,3.39-1.08,5.29-1.05h.52s-.07.57-.07.57h0c-.37,1.85-.99,3.57-1.84,5.2-.86,1.62-1.99,3.12-3.44,4.26-1.44,1.15-3.21,1.84-5.02,2.04-1.81.17-3.63-.08-5.35-.59Z"/>
  <path class="st4" d="M457.19,682.23c-1.83-.46-3.71-.49-5.49-.15-1.78.35-3.44,1.13-4.86,2.23l-1.04.87c-.32.32-.61.67-.93,1l-.47.5-.4.56-.82,1.11-1.42,2.39c-.42.83-.81,1.68-1.27,2.52.24-.91.55-1.81.82-2.72.37-.87.76-1.74,1.2-2.6.99-1.63,2.13-3.24,3.71-4.42,1.55-1.18,3.42-2,5.36-2.21,1.93-.24,3.91.09,5.61.91Z"/>
  <path class="st4" d="M457.28,682.21c2.79-1.43,5.35-3.23,7.7-5.24,2.33-2.04,4.53-4.24,6.38-6.72,1.86-2.47,3.56-5.07,4.88-7.88,1.42-2.77,2.4-5.72,3.39-8.7-.16.77-.32,1.53-.5,2.3-.19.76-.3,1.55-.57,2.29-.52,1.48-.94,3.01-1.63,4.44-1.18,2.94-2.9,5.63-4.78,8.17-1.91,2.53-4.19,4.77-6.68,6.71-1.25.97-2.57,1.84-3.91,2.66-1.38.75-2.78,1.49-4.27,1.99Z"/>
  <path class="st4" d="M460.06,680.83c3.04-.88,6.03-1.96,8.77-3.51,1.38-.75,2.69-1.62,3.91-2.6,1.2-1,2.32-2.09,3.28-3.31,1.89-2.46,3.2-5.35,3.69-8.41.5-3.04.31-6.26-.55-9.17l.65.31c-2.79,1.18-5.44,2.9-7.84,4.83-2.41,1.94-4.59,4.17-6.52,6.6-1.94,2.42-3.58,5.09-4.93,7.89-1.37,2.8-2.42,5.75-3.24,8.77.6-3.08,1.56-6.08,2.79-8.98,1.28-2.88,2.86-5.63,4.76-8.15,1.87-2.55,4.12-4.81,6.55-6.83,2.46-2,5.09-3.77,8.06-5.05l.5-.22.15.53c.9,3.17,1.04,6.44.5,9.64-.55,3.19-1.91,6.25-3.98,8.74-1.03,1.24-2.22,2.34-3.49,3.33-1.28.96-2.64,1.82-4.07,2.53-2.86,1.43-5.9,2.42-9,3.08Z"/>
  <path class="st4" d="M479.63,653.66c-1.63.39-3.22.9-4.75,1.54-1.54.61-3.04,1.33-4.46,2.17-2.84,1.67-5.43,3.76-7.49,6.31-2.06,2.54-3.55,5.52-4.46,8.68-.89,3.17-1.21,6.51-1.18,9.85-.08-.83-.18-1.67-.22-2.5,0-.84-.07-1.68-.02-2.52.07-1.68.3-3.36.67-5.02.76-3.31,2.29-6.45,4.43-9.12,2.17-2.64,4.89-4.8,7.9-6.35,3.01-1.55,6.25-2.65,9.58-3.04Z"/>
  <path class="st4" d="M479.63,653.66c1.33-.4,2.61-.92,3.85-1.52.62-.31,1.24-.59,1.83-.94.61-.32,1.2-.67,1.77-1.05,2.31-1.47,4.47-3.17,6.45-5.05.95-.99,1.95-1.92,2.81-2.99.44-.52.91-1.02,1.33-1.57.4-.55.82-1.1,1.24-1.64.43-.53.82-1.1,1.19-1.68l1.13-1.73c.74-1.16,1.38-2.39,2.12-3.57-.54,1.28-1.09,2.55-1.7,3.81l-1.02,1.82c-.33.61-.69,1.22-1.09,1.79-1.48,2.38-3.35,4.49-5.32,6.49-2.05,1.91-4.29,3.64-6.75,4.99-2.45,1.35-5.08,2.44-7.83,2.85Z"/>
  <path class="st4" d="M482.08,652.95c2.78-.2,5.55-.69,8.14-1.68,1.29-.48,2.54-1.08,3.69-1.83,1.16-.73,2.24-1.59,3.18-2.58,1.89-1.97,3.36-4.33,4.3-6.91.93-2.56,1.46-5.33,1.46-8.02l.59.48c-2.59.57-5.15,1.72-7.5,3.08-2.37,1.37-4.53,3.07-6.57,4.9-.96.98-1.98,1.9-2.85,2.97-.44.53-.91,1.03-1.33,1.57l-1.23,1.66c-.43.54-.82,1.11-1.18,1.7l-1.12,1.74c-.7,1.19-1.34,2.42-2.03,3.62.59-1.25,1.15-2.53,1.8-3.75l1.03-1.81c.34-.61.69-1.21,1.1-1.78l1.19-1.72c.41-.57.87-1.09,1.3-1.64.84-1.12,1.85-2.09,2.8-3.12,2-1.96,4.23-3.68,6.64-5.13,2.42-1.43,4.96-2.63,7.78-3.28l.59-.14v.61c-.04,2.9-.61,5.69-1.61,8.37-1.01,2.66-2.54,5.16-4.61,7.13-1.02,1-2.17,1.86-3.39,2.58-1.22.74-2.52,1.31-3.86,1.75-2.69.86-5.5,1.24-8.3,1.22Z"/>
  <path class="st4" d="M503.35,631.91c-1.47.04-2.93.22-4.36.53-.71.16-1.42.33-2.11.54-.68.25-1.39.43-2.04.74-2.66,1.12-5.15,2.65-7.2,4.69-.53.49-.97,1.06-1.46,1.59-.23.27-.5.52-.7.82l-.61.89c-.4.6-.87,1.16-1.2,1.8-.33.64-.68,1.28-1.03,1.92-.38.62-.63,1.31-.9,1.99l-.81,2.03c-.46,1.39-.83,2.81-1.29,4.21.24-1.45.51-2.91.82-4.36l.69-2.12c.23-.71.44-1.42.79-2.09.31-.68.63-1.35.96-2.02.33-.67.79-1.27,1.19-1.91l.62-.94c.21-.31.48-.57.72-.86.51-.56.96-1.16,1.51-1.67,2.16-2.11,4.8-3.7,7.62-4.68,2.82-.99,5.84-1.41,8.78-1.09Z"/>
  <path class="st4" d="M503.35,631.49c1.63.25,3.26.34,4.9.33.82-.02,1.63,0,2.45-.07.81-.04,1.63-.11,2.43-.22,3.23-.4,6.42-1.11,9.5-2.13.77-.26,1.52-.56,2.29-.84.77-.26,1.51-.6,2.25-.94.74-.34,1.49-.65,2.22-1.01l2.16-1.15,1.08-.57,1.04-.65,2.08-1.3c1.38-.88,2.67-1.89,4.05-2.8-1.23,1.08-2.47,2.18-3.77,3.2l-2.02,1.43-1.01.72-1.06.64-2.14,1.26c-.73.39-1.49.73-2.23,1.1-.74.37-1.5.71-2.28.99-.78.29-1.55.61-2.33.88-3.16,1.02-6.43,1.72-9.75,1.95-.83.07-1.66.09-2.48.09-.83.03-1.66-.03-2.48-.07-1.65-.16-3.3-.35-4.88-.82Z"/>
  <path class="st4" d="M506.37,631.96c3.07,1.23,6.29,2.11,9.58,2.4.82.11,1.64.08,2.46.11.82-.05,1.64-.04,2.46-.17,1.63-.17,3.24-.56,4.77-1.12,3.08-1.11,5.86-2.95,8.17-5.26,2.29-2.31,4.22-5.04,5.53-7.97h0s.34.66.34.66c-3.1-.7-6.42-.78-9.65-.53-3.25.27-6.46.92-9.58,1.9-.77.26-1.54.55-2.31.83-.78.26-1.53.59-2.27.93-.74.34-1.5.66-2.23,1.02l-2.16,1.17-1.08.59-1.03.67-2.07,1.34c-1.35.94-2.63,1.97-3.95,2.95,1.29-1.01,2.55-2.08,3.87-3.05l2.04-1.39,1.02-.7,1.07-.62,2.14-1.24c.73-.39,1.48-.72,2.22-1.09.74-.37,1.49-.72,2.26-1,.77-.3,1.53-.62,2.31-.9,3.13-1.07,6.37-1.82,9.67-2.18,3.3-.34,6.63-.36,9.97.3l.57.11-.23.56v.02c-1.48,3.08-3.51,5.79-5.93,8.12-2.43,2.32-5.34,4.14-8.52,5.19-1.58.54-3.23.89-4.9,1.02-.83.11-1.67.08-2.5.11-.83-.05-1.67-.05-2.49-.17-3.31-.38-6.52-1.33-9.55-2.65Z"/>
  <path class="st4" d="M539.8,620.12c-1.6-.7-3.26-1.24-4.95-1.62-1.68-.41-3.4-.66-5.12-.75-3.43-.17-6.9.21-10.14,1.34-3.25,1.08-6.27,2.82-8.96,4.97-2.7,2.15-5.1,4.7-7.28,7.43.48-.73.96-1.46,1.47-2.18.54-.69,1.05-1.4,1.62-2.08,1.16-1.32,2.36-2.61,3.7-3.76,2.64-2.34,5.76-4.18,9.14-5.33,3.37-1.15,7-1.52,10.52-1.16,3.52.37,6.98,1.37,10.01,3.14Z"/>
  <path class="st4" d="M539.8,620.53c2.06,1.19,4.23,2.15,6.46,2.92,2.23.75,4.5,1.37,6.82,1.71,2.31.37,4.66.56,7.01.5,2.36,0,4.7-.34,7.06-.66-.57.18-1.14.34-1.72.5-.58.15-1.15.35-1.74.44-1.18.2-2.36.43-3.57.49-2.4.25-4.82.08-7.21-.28-2.38-.37-4.72-1.04-6.93-1.98-1.11-.47-2.18-1-3.23-1.59-1.02-.63-2.04-1.26-2.95-2.05Z"/>
  <path class="st4" d="M541.82,621.81c1.75,1.6,3.63,3.07,5.67,4.25,2.04,1.17,4.24,2.11,6.55,2.51,2.3.41,4.68.31,6.89-.39,2.19-.69,4.28-1.91,5.84-3.51h0s.07.73.07.73c-1.85-1.35-3.98-2.45-6.15-3.33-2.18-.88-4.46-1.54-6.78-1.96-4.65-.85-9.48-.68-14.11.42,4.59-1.25,9.45-1.61,14.19-.91,2.37.34,4.71.93,6.97,1.75,2.26.84,4.44,1.84,6.48,3.23l.46.31-.39.43h0c-1.82,1.74-4.01,2.89-6.36,3.55-2.35.66-4.84.67-7.2.16-2.36-.49-4.57-1.53-6.58-2.78-2.02-1.26-3.85-2.81-5.54-4.47Z"/>
  <path class="st4" d="M567.15,625c-.94-.84-1.9-1.65-2.93-2.35-1-.74-2.07-1.39-3.15-1.98-2.18-1.17-4.5-2.07-6.91-2.52-1.2-.29-2.42-.31-3.65-.4-1.22.08-2.46.07-3.66.36-2.46.35-4.74,1.39-7.04,2.43.53-.34,1.06-.68,1.61-1,.55-.32,1.07-.7,1.67-.92l1.77-.73c.29-.14.6-.23.91-.3l.93-.24c1.23-.4,2.53-.41,3.81-.55,1.29.06,2.58.08,3.84.36,2.53.5,4.95,1.47,7.11,2.84,2.15,1.36,4.13,3.01,5.7,4.99Z"/>
  <path class="st4" d="M566.07,624.28c2.81.93,5.75,1.33,8.67,1.41,2.93.06,5.84-.22,8.71-.8,1.41-.37,2.85-.64,4.23-1.15.69-.24,1.4-.42,2.08-.7.67-.29,1.35-.56,2.04-.83.69-.25,1.35-.57,2.01-.91l1.98-.98c1.31-.68,2.56-1.47,3.87-2.17-1.19.88-2.39,1.76-3.63,2.59l-1.94,1.12c-.64.38-1.29.75-1.98,1.05-2.67,1.36-5.54,2.27-8.46,2.96-2.95.57-5.96.83-8.95.58-.75-.04-1.49-.14-2.23-.26-.74-.09-1.47-.26-2.2-.42-1.44-.39-2.88-.81-4.2-1.5Z"/>
  <path class="st4" d="M568.69,625.16c2.54,1.65,5.3,2.98,8.22,3.74,1.46.38,2.95.61,4.45.62,1.5.02,3-.12,4.44-.5,2.9-.74,5.56-2.25,7.81-4.2,2.24-1.95,4.18-4.32,5.6-6.89h0s.23.68.23.68c-2.61-1.13-5.56-1.68-8.46-1.89-2.92-.2-5.87.03-8.76.58-2.88.58-5.71,1.47-8.41,2.67-2.7,1.19-5.29,2.65-7.74,4.31,2.4-1.73,4.95-3.26,7.64-4.54,2.68-1.29,5.5-2.27,8.41-2.94,2.91-.64,5.91-.96,8.9-.84,3,.14,5.97.59,8.85,1.73l.49.19-.26.49h0c-1.6,2.7-3.63,5.04-6,7-2.37,1.95-5.17,3.44-8.17,4.12-1.5.35-3.05.46-4.57.39-1.53-.05-3.05-.33-4.51-.75-2.93-.85-5.66-2.27-8.15-3.98Z"/>
  <path class="st4" d="M599.66,618.15c-1.31-.91-2.7-1.68-4.16-2.29-1.44-.65-2.94-1.14-4.47-1.48-3.05-.67-6.23-.74-9.26-.05-3.04.66-5.91,2.01-8.52,3.76-2.62,1.74-4.97,3.89-7.18,6.19.49-.63.98-1.26,1.49-1.88l1.61-1.78c1.15-1.12,2.33-2.21,3.64-3.16,1.27-1.01,2.7-1.79,4.14-2.52,1.47-.69,3.02-1.22,4.61-1.59,3.19-.7,6.55-.59,9.66.29,3.12.87,6.05,2.39,8.44,4.52Z"/>
  <path class="st4" d="M599.66,618.15c4.29-1.66,8.22-3.72,12.34-5.72-3.32,3.14-7.74,5.42-12.34,5.72h0Z"/>
  <path class="st4" d="M599.66,618.15c2.37-6.55,6.64-12.63,12.34-16.71-4.78,5.14-8.7,10.73-12.34,16.71h0Z"/>
  <path class="st4" d="M612,615.8c-2.81,1.64-6.21,2.12-9.39,1.53,3.16-.8,6.15-1.2,9.39-1.53h0Z"/>
  <path class="st4" d="M599.66,618.15c.82-8.22,4.91-16.69,12.34-20.8-6.52,5.25-10.11,12.86-12.34,20.8h0Z"/>
  <g>
    <path class="st3" d="M407.57,724.3v-2.66h-4.53v-.87l4.35-6.23h1.42v6.06h1.36v1.03h-1.36v2.66h-1.25ZM407.57,720.61v-3.25c0-.51.01-1.02.04-1.53h-.04c-.3.57-.54.99-.81,1.44l-2.39,3.32v.03h3.2Z"/>
    <path class="st3" d="M417.52,714.55v.87l-4.25,8.88h-1.37l4.23-8.62v-.03h-4.77v-1.1h6.15Z"/>
    <path class="st3" d="M424.44,715.48c-.27-.02-.61,0-.99.06-2.07.34-3.17,1.86-3.39,3.46h.04c.46-.62,1.27-1.12,2.35-1.12,1.72,0,2.94,1.25,2.94,3.15,0,1.78-1.22,3.43-3.24,3.43s-3.45-1.62-3.45-4.16c0-1.92.69-3.43,1.65-4.39.81-.79,1.89-1.29,3.12-1.44.39-.06.72-.08.96-.08v1.08ZM424.07,721.1c0-1.39-.8-2.23-2.01-2.23-.79,0-1.53.5-1.89,1.2-.09.15-.15.34-.15.58.03,1.6.77,2.79,2.15,2.79,1.14,0,1.91-.95,1.91-2.34Z"/>
    <path class="st3" d="M426.45,721.82c0-1.23.74-2.1,1.94-2.61l-.02-.04c-1.08-.51-1.54-1.35-1.54-2.19,0-1.54,1.31-2.6,3.02-2.6,1.89,0,2.83,1.19,2.83,2.4,0,.83-.4,1.71-1.6,2.28v.04c1.21.48,1.96,1.33,1.96,2.52,0,1.7-1.46,2.83-3.31,2.83-2.04,0-3.27-1.21-3.27-2.64ZM431.7,721.76c0-1.18-.83-1.75-2.14-2.13-1.14.33-1.75,1.08-1.75,2.01-.04.99.71,1.86,1.95,1.86s1.95-.74,1.95-1.74ZM428.07,716.89c0,.98.74,1.5,1.86,1.8.84-.29,1.48-.89,1.48-1.77,0-.78-.46-1.59-1.65-1.59-1.1,0-1.7.72-1.7,1.56Z"/>
    <path class="st3" d="M446.43,719.86c-.07-1.41-.17-3.11-.15-4.37h-.04c-.34,1.18-.77,2.45-1.28,3.84l-1.79,4.91h-.99l-1.63-4.82c-.48-1.42-.89-2.73-1.17-3.93h-.03c-.03,1.26-.11,2.96-.2,4.47l-.27,4.33h-1.25l.71-10.11h1.67l1.72,4.89c.42,1.25.76,2.35,1.02,3.41h.04c.26-1.02.62-2.13,1.07-3.41l1.8-4.89h1.67l.63,10.11h-1.27l-.26-4.44Z"/>
    <path class="st3" d="M455.19,724.03c-.34.18-1.11.42-2.08.42-2.19,0-3.61-1.49-3.61-3.71s1.53-3.86,3.9-3.86c.78,0,1.47.2,1.83.38l-.3,1.02c-.32-.18-.81-.34-1.53-.34-1.67,0-2.56,1.23-2.56,2.74,0,1.68,1.08,2.71,2.52,2.71.75,0,1.25-.19,1.62-.36l.22.99Z"/>
    <path class="st3" d="M456.78,714.19h1.31v4.88h.04c.27-.39.54-.75.79-1.08l3.09-3.79h1.62l-3.66,4.29,3.94,5.82h-1.54l-3.33-4.96-.96,1.11v3.85h-1.31v-10.11Z"/>
    <path class="st3" d="M465.02,719c0-.75-.01-1.37-.06-1.96h1.17l.08,1.2h.03c.36-.69,1.2-1.37,2.4-1.37,1,0,2.56.6,2.56,3.09v4.33h-1.32v-4.18c0-1.17-.44-2.15-1.68-2.15-.87,0-1.54.62-1.77,1.35-.06.17-.09.39-.09.61v4.37h-1.32v-5.29Z"/>
    <path class="st3" d="M474.81,715c.02.45-.31.81-.84.81-.46,0-.79-.36-.79-.81s.35-.83.83-.83.81.36.81.83ZM473.34,724.3v-7.26h1.32v7.26h-1.32Z"/>
    <path class="st3" d="M483.11,717.04c-.03.53-.06,1.11-.06,2v4.21c0,1.67-.33,2.68-1.04,3.31-.71.66-1.72.87-2.64.87s-1.83-.21-2.42-.6l.33-1c.48.3,1.23.57,2.13.57,1.35,0,2.34-.71,2.34-2.53v-.81h-.03c-.41.67-1.18,1.21-2.31,1.21-1.8,0-3.09-1.53-3.09-3.54,0-2.46,1.6-3.85,3.27-3.85,1.26,0,1.95.66,2.26,1.26h.03l.06-1.09h1.16ZM481.74,719.9c0-.23-.01-.42-.07-.6-.24-.76-.89-1.39-1.85-1.39-1.26,0-2.16,1.06-2.16,2.75,0,1.42.72,2.61,2.14,2.61.81,0,1.54-.51,1.83-1.35.08-.23.1-.48.1-.71v-1.3Z"/>
    <path class="st3" d="M485.24,713.65h1.32v4.53h.03c.21-.38.54-.71.94-.93.39-.22.86-.38,1.35-.38.97,0,2.53.6,2.53,3.11v4.32h-1.32v-4.17c0-1.17-.44-2.16-1.68-2.16-.85,0-1.53.6-1.77,1.32-.08.18-.09.38-.09.63v4.38h-1.32v-10.65Z"/>
    <path class="st3" d="M495.09,714.95v2.08h1.89v1h-1.89v3.92c0,.9.25,1.41.99,1.41.34,0,.6-.04.76-.09l.06.99c-.25.11-.66.18-1.17.18-.62,0-1.11-.2-1.42-.56-.38-.39-.51-1.04-.51-1.89v-3.96h-1.12v-1h1.12v-1.74l1.29-.34Z"/>
    <path class="st3" d="M501.69,714.32c.66-.13,1.61-.21,2.5-.21,1.4,0,2.29.25,2.92.83.51.45.79,1.14.79,1.92,0,1.33-.84,2.22-1.9,2.58v.04c.78.27,1.25.99,1.48,2.04.33,1.41.57,2.38.78,2.77h-1.35c-.17-.29-.39-1.16-.67-2.42-.3-1.39-.84-1.92-2.03-1.96h-1.23v4.38h-1.31v-9.97ZM503,718.93h1.33c1.39,0,2.28-.76,2.28-1.92,0-1.3-.94-1.88-2.33-1.89-.63,0-1.08.06-1.29.12v3.69Z"/>
    <path class="st3" d="M516.05,713.65v8.77c0,.65.02,1.38.06,1.88h-1.18l-.06-1.26h-.03c-.4.81-1.29,1.42-2.47,1.42-1.75,0-3.1-1.49-3.1-3.69-.02-2.42,1.48-3.9,3.25-3.9,1.11,0,1.86.53,2.19,1.11h.03v-4.33h1.32ZM514.73,719.99c0-.17-.02-.39-.06-.55-.19-.84-.92-1.53-1.9-1.53-1.37,0-2.17,1.2-2.17,2.8,0,1.47.72,2.68,2.14,2.68.88,0,1.7-.58,1.93-1.57.04-.18.06-.36.06-.57v-1.26Z"/>
    <path class="st3" d="M517.23,726.14c.33-.88.73-2.49.9-3.58l1.47-.15c-.35,1.27-1.01,2.94-1.43,3.64l-.94.09Z"/>
    <path class="st3" d="M403.96,732.31c.63-.11,1.46-.2,2.5-.2,1.29,0,2.24.3,2.83.84.56.48.88,1.21.88,2.12s-.27,1.63-.78,2.16c-.69.73-1.82,1.11-3.09,1.11-.39,0-.75-.01-1.05-.09v4.05h-1.31v-9.99ZM405.26,737.18c.28.08.64.11,1.08.11,1.58,0,2.54-.76,2.54-2.16s-.94-1.98-2.38-1.98c-.57,0-1,.04-1.23.1v3.93Z"/>
    <path class="st3" d="M413.12,733c.02.45-.31.81-.84.81-.46,0-.79-.36-.79-.81s.35-.83.83-.83.81.36.81.83ZM411.65,742.3v-7.26h1.32v7.26h-1.32Z"/>
    <path class="st3" d="M416.75,732.95v2.08h1.89v1h-1.89v3.92c0,.9.25,1.41.99,1.41.34,0,.6-.04.76-.09l.06.99c-.25.11-.66.18-1.17.18-.62,0-1.11-.2-1.42-.56-.38-.39-.51-1.04-.51-1.89v-3.96h-1.12v-1h1.12v-1.74l1.29-.34Z"/>
    <path class="st3" d="M421.71,732.95v2.08h1.89v1h-1.89v3.92c0,.9.25,1.41.99,1.41.34,0,.6-.04.76-.09l.06.99c-.25.11-.66.18-1.17.18-.62,0-1.11-.2-1.42-.56-.38-.39-.51-1.04-.51-1.89v-3.96h-1.12v-1h1.12v-1.74l1.29-.34Z"/>
    <path class="st3" d="M424.91,740.95c.39.25,1.08.52,1.74.52.96,0,1.41-.48,1.41-1.08s-.38-.97-1.35-1.33c-1.3-.46-1.92-1.18-1.92-2.05,0-1.17.95-2.13,2.5-2.13.74,0,1.38.21,1.79.45l-.33.96c-.29-.18-.81-.42-1.49-.42-.78,0-1.21.45-1.21.99,0,.6.44.87,1.38,1.23,1.26.48,1.91,1.11,1.91,2.19,0,1.28-.99,2.18-2.71,2.18-.79,0-1.53-.2-2.04-.5l.33-1Z"/>
    <path class="st3" d="M430.97,742.3c.03-.5.06-1.23.06-1.88v-8.77h1.31v4.56h.03c.46-.81,1.3-1.33,2.48-1.33,1.8,0,3.07,1.5,3.06,3.71,0,2.59-1.63,3.88-3.25,3.88-1.05,0-1.89-.41-2.43-1.37h-.04l-.06,1.2h-1.14ZM432.33,739.39c0,.17.03.33.06.48.25.92,1.02,1.54,1.98,1.54,1.38,0,2.21-1.12,2.21-2.79,0-1.46-.75-2.7-2.16-2.7-.9,0-1.74.62-2.01,1.62-.03.15-.07.33-.07.54v1.3Z"/>
    <path class="st3" d="M445.64,740.32c0,.75.01,1.41.06,1.98h-1.17l-.08-1.18h-.03c-.35.58-1.11,1.35-2.4,1.35-1.14,0-2.5-.63-2.5-3.18v-4.25h1.32v4.02c0,1.38.42,2.31,1.62,2.31.88,0,1.5-.62,1.74-1.2.08-.2.12-.43.12-.67v-4.46h1.32v5.28Z"/>
    <path class="st3" d="M447.83,737.3c0-.85-.01-1.59-.06-2.26h1.15l.05,1.42h.06c.33-.97,1.12-1.59,2.01-1.59.15,0,.25.01.38.04v1.25c-.13-.03-.27-.04-.45-.04-.93,0-1.59.71-1.77,1.7-.03.18-.06.39-.06.61v3.87h-1.3v-5Z"/>
    <path class="st3" d="M458.87,735.04c-.03.53-.06,1.11-.06,2v4.21c0,1.67-.33,2.68-1.04,3.31-.71.66-1.72.87-2.64.87s-1.83-.21-2.42-.6l.33-1c.48.3,1.23.57,2.13.57,1.35,0,2.34-.71,2.34-2.53v-.81h-.03c-.41.67-1.18,1.21-2.31,1.21-1.8,0-3.09-1.53-3.09-3.54,0-2.46,1.6-3.85,3.27-3.85,1.26,0,1.95.66,2.26,1.26h.03l.06-1.09h1.16ZM457.5,737.9c0-.23-.01-.42-.07-.6-.24-.76-.89-1.39-1.85-1.39-1.26,0-2.16,1.06-2.16,2.75,0,1.42.72,2.61,2.14,2.61.81,0,1.54-.51,1.83-1.35.08-.23.1-.48.1-.71v-1.3Z"/>
    <path class="st3" d="M461,731.65h1.32v4.53h.03c.21-.38.54-.71.94-.93.39-.22.86-.38,1.35-.38.97,0,2.53.6,2.53,3.11v4.32h-1.32v-4.17c0-1.17-.44-2.16-1.68-2.16-.85,0-1.53.6-1.77,1.32-.08.18-.09.38-.09.63v4.38h-1.32v-10.65Z"/>
    <path class="st3" d="M468.47,744.14c.33-.88.73-2.49.9-3.58l1.47-.15c-.35,1.27-1.01,2.94-1.43,3.64l-.94.09Z"/>
    <path class="st3" d="M475.65,732.31c.63-.11,1.46-.2,2.5-.2,1.29,0,2.24.3,2.83.84.56.48.88,1.21.88,2.12s-.27,1.63-.78,2.16c-.69.73-1.82,1.11-3.09,1.11-.39,0-.75-.01-1.05-.09v4.05h-1.31v-9.99ZM476.96,737.18c.28.08.64.11,1.08.11,1.58,0,2.54-.76,2.54-2.16s-.94-1.98-2.38-1.98c-.57,0-1,.04-1.23.1v3.93Z"/>
    <path class="st3" d="M484.01,739.12l-1.05,3.18h-1.35l3.43-10.11h1.58l3.45,10.11h-1.4l-1.08-3.18h-3.58ZM487.32,738.1l-.99-2.91c-.22-.66-.38-1.26-.52-1.85h-.03c-.15.6-.32,1.22-.51,1.83l-.99,2.92h3.04Z"/>
    <path class="st3" d="M497.13,733.78h-.03l-1.7.92-.25-1,2.13-1.14h1.12v9.75h-1.27v-8.52Z"/>
    <path class="st3" d="M507.78,733.66h-3.72l-.38,2.5c.23-.03.44-.06.8-.06.75,0,1.5.17,2.1.52.76.44,1.39,1.28,1.39,2.5,0,1.91-1.51,3.33-3.63,3.33-1.06,0-1.96-.3-2.43-.6l.33-1.01c.41.24,1.2.54,2.08.54,1.25,0,2.31-.81,2.31-2.11-.01-1.26-.85-2.16-2.8-2.16-.55,0-.99.06-1.35.11l.63-4.68h4.67v1.11Z"/>
    <path class="st3" d="M509.66,742.3v-.81l1.04-1c2.49-2.37,3.62-3.63,3.63-5.1,0-.99-.48-1.9-1.93-1.9-.89,0-1.62.45-2.07.82l-.42-.93c.67-.57,1.63-.99,2.76-.99,2.1,0,2.99,1.44,2.99,2.83,0,1.8-1.31,3.25-3.36,5.24l-.78.72v.03h4.38v1.09h-6.22Z"/>
    <path class="st3" d="M517.67,740.78c.38.24,1.25.61,2.16.61,1.7,0,2.22-1.08,2.21-1.89-.01-1.37-1.25-1.95-2.52-1.95h-.74v-.99h.74c.96,0,2.17-.5,2.17-1.65,0-.78-.5-1.47-1.71-1.47-.78,0-1.53.34-1.95.64l-.34-.96c.51-.38,1.5-.75,2.55-.75,1.92,0,2.79,1.14,2.79,2.33,0,1-.6,1.86-1.8,2.29v.03c1.2.24,2.17,1.14,2.17,2.5,0,1.56-1.21,2.92-3.55,2.92-1.09,0-2.05-.34-2.54-.66l.36-1.02Z"/>
    <path class="st3" d="M531.38,732.55v.87l-4.25,8.88h-1.37l4.23-8.62v-.03h-4.77v-1.1h6.15Z"/>
  </g>
  <g>
    <path class="st3" d="M470.3,763.3c.63-.11,1.46-.2,2.5-.2,1.29,0,2.24.3,2.83.84.56.48.88,1.21.88,2.12s-.27,1.63-.78,2.16c-.69.73-1.82,1.11-3.09,1.11-.39,0-.75-.01-1.05-.09v4.05h-1.31v-9.99ZM471.61,768.17c.28.08.64.11,1.08.11,1.58,0,2.54-.76,2.54-2.16s-.94-1.98-2.38-1.98c-.57,0-1,.04-1.23.1v3.93Z"/>
    <path class="st3" d="M478.16,762.64h1.32v4.53h.03c.21-.38.54-.71.94-.93.39-.22.86-.38,1.35-.38.97,0,2.53.6,2.53,3.11v4.32h-1.32v-4.17c0-1.17-.44-2.16-1.68-2.16-.85,0-1.53.6-1.77,1.32-.08.18-.09.38-.09.63v4.38h-1.32v-10.65Z"/>
    <path class="st3" d="M493.06,769.6c0,2.68-1.86,3.85-3.62,3.85-1.96,0-3.48-1.44-3.48-3.74,0-2.43,1.59-3.85,3.6-3.85s3.5,1.51,3.5,3.74ZM487.3,769.67c0,1.59.92,2.79,2.2,2.79s2.21-1.18,2.21-2.82c0-1.23-.61-2.79-2.17-2.79s-2.23,1.44-2.23,2.82Z"/>
    <path class="st3" d="M494.72,767.99c0-.75-.01-1.37-.06-1.96h1.17l.08,1.2h.03c.36-.69,1.2-1.37,2.4-1.37,1,0,2.56.6,2.56,3.09v4.33h-1.32v-4.18c0-1.17-.44-2.15-1.68-2.15-.87,0-1.54.62-1.77,1.35-.06.17-.09.39-.09.61v4.37h-1.32v-5.29Z"/>
    <path class="st3" d="M503.79,769.9c.03,1.79,1.17,2.52,2.49,2.52.95,0,1.52-.17,2.01-.38l.22.95c-.46.21-1.26.45-2.42.45-2.23,0-3.57-1.47-3.57-3.66s1.29-3.92,3.4-3.92c2.37,0,3,2.08,3,3.42,0,.27-.03.48-.04.62h-5.1ZM507.66,768.95c.01-.84-.35-2.14-1.83-2.14-1.33,0-1.92,1.23-2.03,2.14h3.86Z"/>
    <path class="st3" d="M510.25,767.23c0-.55.38-.95.9-.95s.87.39.88.95c0,.52-.34.93-.9.93-.53,0-.88-.41-.88-.93ZM510.25,772.52c0-.56.38-.95.9-.95s.87.39.88.95c0,.52-.34.93-.9.93-.53,0-.88-.41-.88-.93Z"/>
  </g>
  <g>
    <path class="st3" d="M523.83,766.94v-2.66h-4.53v-.87l4.35-6.23h1.42v6.06h1.36v1.03h-1.36v2.66h-1.25ZM523.83,763.25v-3.25c0-.51.01-1.02.04-1.53h-.04c-.3.57-.54.99-.81,1.44l-2.39,3.32v.03h3.2Z"/>
    <path class="st3" d="M530.3,758.42h-.03l-1.7.92-.25-1,2.13-1.14h1.12v9.75h-1.27v-8.52Z"/>
    <path class="st3" d="M535.13,766.94v-.81l1.04-1c2.49-2.37,3.62-3.63,3.63-5.1,0-.99-.48-1.9-1.93-1.9-.89,0-1.62.45-2.07.82l-.42-.93c.67-.57,1.63-.99,2.76-.99,2.1,0,2.99,1.44,2.99,2.83,0,1.8-1.31,3.25-3.36,5.24l-.78.72v.03h4.38v1.09h-6.22Z"/>
    <path class="st3" d="M546.31,762.4v.97h-3.71v-.97h3.71Z"/>
    <path class="st3" d="M553.25,758.3h-3.72l-.37,2.5c.22-.03.43-.06.79-.06.75,0,1.5.17,2.1.52.76.44,1.39,1.28,1.39,2.5,0,1.91-1.51,3.33-3.63,3.33-1.06,0-1.96-.3-2.43-.6l.33-1.01c.41.24,1.2.54,2.08.54,1.25,0,2.31-.81,2.31-2.11-.01-1.26-.85-2.16-2.8-2.16-.55,0-.99.06-1.35.11l.63-4.68h4.67v1.11Z"/>
    <path class="st3" d="M561.46,757.19v.87l-4.25,8.88h-1.37l4.23-8.62v-.03h-4.77v-1.1h6.15Z"/>
    <path class="st3" d="M563.59,766.01c.29.03.62,0,1.07-.04.76-.11,1.49-.42,2.04-.95.64-.58,1.11-1.44,1.29-2.59h-.04c-.54.66-1.32,1.05-2.29,1.05-1.75,0-2.88-1.32-2.88-2.99,0-1.84,1.33-3.46,3.33-3.46s3.22,1.62,3.22,4.11c0,2.14-.72,3.64-1.68,4.58-.75.73-1.79,1.18-2.83,1.3-.48.08-.9.09-1.22.08v-1.08ZM564.07,760.4c0,1.21.74,2.07,1.88,2.07.88,0,1.58-.44,1.92-1.02.08-.12.12-.27.12-.48,0-1.67-.62-2.94-2-2.94-1.12,0-1.92.99-1.92,2.37Z"/>
    <path class="st3" d="M574,762.4v.97h-3.71v-.97h3.71Z"/>
    <path class="st3" d="M581.6,761.96c0,3.31-1.23,5.14-3.39,5.14-1.9,0-3.19-1.79-3.22-5.01,0-3.27,1.41-5.07,3.39-5.07s3.22,1.83,3.22,4.94ZM576.31,762.11c0,2.54.78,3.98,1.98,3.98,1.35,0,2-1.58,2-4.07s-.62-3.97-1.98-3.97c-1.15,0-1.99,1.41-1.99,4.06Z"/>
    <path class="st3" d="M583.58,766.01c.28.03.61,0,1.06-.04.76-.11,1.49-.42,2.04-.95.64-.58,1.11-1.44,1.29-2.59h-.04c-.54.66-1.32,1.05-2.29,1.05-1.75,0-2.88-1.32-2.88-2.99,0-1.84,1.33-3.46,3.33-3.46s3.22,1.62,3.22,4.11c0,2.14-.72,3.64-1.68,4.58-.75.73-1.79,1.18-2.83,1.3-.48.08-.9.09-1.21.08v-1.08ZM584.06,760.4c0,1.21.74,2.07,1.88,2.07.88,0,1.58-.44,1.92-1.02.08-.12.12-.27.12-.48,0-1.67-.62-2.94-2-2.94-1.12,0-1.92.99-1.92,2.37Z"/>
    <path class="st3" d="M591.27,766.01c.29.03.62,0,1.07-.04.76-.11,1.49-.42,2.04-.95.64-.58,1.11-1.44,1.29-2.59h-.04c-.54.66-1.32,1.05-2.29,1.05-1.75,0-2.88-1.32-2.88-2.99,0-1.84,1.33-3.46,3.33-3.46s3.22,1.62,3.22,4.11c0,2.14-.72,3.64-1.68,4.58-.75.73-1.79,1.18-2.83,1.3-.48.08-.9.09-1.22.08v-1.08ZM591.75,760.4c0,1.21.74,2.07,1.88,2.07.88,0,1.58-.44,1.92-1.02.08-.12.12-.27.12-.48,0-1.67-.62-2.94-2-2.94-1.12,0-1.92.99-1.92,2.37Z"/>
    <path class="st3" d="M598.08,764.47c0-1.23.74-2.1,1.94-2.61l-.02-.04c-1.08-.51-1.54-1.35-1.54-2.19,0-1.54,1.31-2.6,3.02-2.6,1.89,0,2.83,1.19,2.83,2.4,0,.83-.4,1.71-1.6,2.28v.04c1.21.48,1.96,1.33,1.96,2.52,0,1.7-1.46,2.83-3.31,2.83-2.04,0-3.27-1.21-3.27-2.64ZM603.33,764.41c0-1.18-.83-1.75-2.14-2.13-1.14.33-1.75,1.08-1.75,2.01-.04.99.71,1.86,1.95,1.86s1.95-.74,1.95-1.74ZM599.7,759.53c0,.98.74,1.5,1.86,1.8.84-.29,1.48-.89,1.48-1.77,0-.78-.46-1.59-1.65-1.59-1.1,0-1.7.72-1.7,1.56Z"/>
  </g>
  <g>
    <path class="st3" d="M523.39,781.16v-2.66h-4.53v-.87l4.35-6.23h1.42v6.06h1.37v1.03h-1.37v2.66h-1.24ZM523.39,777.47v-3.25c0-.51.01-1.02.04-1.53h-.04c-.3.57-.54.99-.81,1.44l-2.38,3.32v.03h3.2Z"/>
    <path class="st3" d="M529.87,772.64h-.03l-1.69.92-.25-1,2.13-1.14h1.12v9.75h-1.28v-8.52Z"/>
    <path class="st3" d="M534.7,781.16v-.81l1.04-1c2.49-2.37,3.61-3.63,3.63-5.1,0-.99-.48-1.9-1.94-1.9-.88,0-1.62.45-2.07.82l-.42-.93c.67-.57,1.63-.99,2.76-.99,2.1,0,2.98,1.44,2.98,2.83,0,1.8-1.3,3.25-3.36,5.24l-.78.72v.03h4.38v1.09h-6.22Z"/>
    <path class="st3" d="M545.87,776.62v.97h-3.71v-.97h3.71Z"/>
    <path class="st3" d="M552.81,772.52h-3.72l-.38,2.5c.22-.03.43-.06.79-.06.75,0,1.5.17,2.1.52.77.44,1.4,1.28,1.4,2.5,0,1.91-1.52,3.33-3.63,3.33-1.06,0-1.96-.3-2.43-.6l.33-1.01c.4.24,1.2.54,2.08.54,1.25,0,2.31-.81,2.31-2.11-.02-1.26-.86-2.16-2.8-2.16-.55,0-.99.06-1.35.11l.63-4.68h4.66v1.11Z"/>
    <path class="st3" d="M561.02,771.41v.87l-4.25,8.88h-1.37l4.23-8.62v-.03h-4.77v-1.1h6.15Z"/>
    <path class="st3" d="M563.15,780.23c.29.03.62,0,1.07-.04.76-.11,1.49-.42,2.04-.95.64-.58,1.11-1.44,1.29-2.59h-.04c-.54.66-1.32,1.05-2.29,1.05-1.75,0-2.88-1.32-2.88-2.99,0-1.84,1.33-3.46,3.33-3.46s3.22,1.62,3.22,4.11c0,2.14-.72,3.64-1.68,4.58-.75.73-1.79,1.18-2.83,1.3-.48.08-.9.09-1.22.08v-1.08ZM563.63,774.62c0,1.21.74,2.07,1.88,2.07.88,0,1.58-.44,1.92-1.02.08-.12.12-.27.12-.48,0-1.67-.62-2.94-2-2.94-1.12,0-1.92.99-1.92,2.37Z"/>
    <path class="st3" d="M573.56,776.62v.97h-3.71v-.97h3.71Z"/>
    <path class="st3" d="M581.16,776.18c0,3.31-1.23,5.14-3.39,5.14-1.9,0-3.19-1.79-3.22-5.01,0-3.27,1.41-5.07,3.39-5.07s3.22,1.83,3.22,4.94ZM575.87,776.33c0,2.54.78,3.98,1.98,3.98,1.35,0,2-1.58,2-4.07s-.62-3.97-1.98-3.97c-1.15,0-1.99,1.41-1.99,4.06Z"/>
    <path class="st3" d="M583.14,780.23c.28.03.61,0,1.06-.04.76-.11,1.49-.42,2.04-.95.64-.58,1.11-1.44,1.29-2.59h-.04c-.54.66-1.32,1.05-2.29,1.05-1.75,0-2.88-1.32-2.88-2.99,0-1.84,1.33-3.46,3.33-3.46s3.22,1.62,3.22,4.11c0,2.14-.72,3.64-1.68,4.58-.75.73-1.79,1.18-2.83,1.3-.48.08-.9.09-1.21.08v-1.08ZM583.62,774.62c0,1.21.74,2.07,1.88,2.07.88,0,1.58-.44,1.92-1.02.08-.12.12-.27.12-.48,0-1.67-.62-2.94-2-2.94-1.12,0-1.92.99-1.92,2.37Z"/>
    <path class="st3" d="M590.84,780.23c.29.03.62,0,1.07-.04.76-.11,1.49-.42,2.04-.95.64-.58,1.11-1.44,1.29-2.59h-.04c-.54.66-1.32,1.05-2.29,1.05-1.75,0-2.88-1.32-2.88-2.99,0-1.84,1.33-3.46,3.33-3.46s3.22,1.62,3.22,4.11c0,2.14-.72,3.64-1.68,4.58-.75.73-1.79,1.18-2.83,1.3-.48.08-.9.09-1.22.08v-1.08ZM591.32,774.62c0,1.21.74,2.07,1.88,2.07.88,0,1.58-.44,1.92-1.02.08-.12.12-.27.12-.48,0-1.67-.62-2.94-2-2.94-1.12,0-1.92.99-1.92,2.37Z"/>
    <path class="st3" d="M598.53,780.23c.28.03.61,0,1.06-.04.76-.11,1.49-.42,2.04-.95.64-.58,1.11-1.44,1.29-2.59h-.04c-.54.66-1.32,1.05-2.29,1.05-1.75,0-2.88-1.32-2.88-2.99,0-1.84,1.33-3.46,3.33-3.46s3.22,1.62,3.22,4.11c0,2.14-.72,3.64-1.68,4.58-.75.73-1.79,1.18-2.83,1.3-.48.08-.9.09-1.21.08v-1.08ZM599.01,774.62c0,1.21.74,2.07,1.88,2.07.88,0,1.58-.44,1.92-1.02.08-.12.12-.27.12-.48,0-1.67-.62-2.94-2-2.94-1.12,0-1.92.99-1.92,2.37Z"/>
  </g>
</svg>