<?xml version="1.0" encoding="UTF-8"?>
<svg id="Layer_1" xmlns="http://www.w3.org/2000/svg" version="1.1" viewBox="0 0 698.64 303.82">
  <!-- Generator: Adobe Illustrator 29.5.1, SVG Export Plug-In . SVG Version: 2.1.0 Build 141)  -->
  <defs>
    <style>
      .st0 {
        fill: #e8deb9;
      }

      .st1 {
        fill: #5f475c;
      }

      .st2, .st3 {
        isolation: isolate;
      }

      .st4 {
        fill: #383e60;
      }

      .st3 {
        fill: #8b626c;
        font-family: ArialMT, Arial;
        font-size: 59px;
      }
    </style>
  </defs>
  <g id="Layer_11" data-name="Layer_1">
    <rect class="st0" width="698.64" height="303.82"/>
  </g>
  <g id="Layer_2">
    <path class="st4" d="M72.01,70.04s7.23-16.5-18.5-10.24c0,0-44.06,18.52-44.85,63.49s35.6,60.13,35.6,60.13c0,0,54.9,10.43,41.5-26.43,0,0-10.37-6.8-20.92,5.6,0,0-20.44,15.82-35.34-8.7,0,0-8.44-30.46,7.65-56.97,0,0,13.71-20.7,26.9-24,0,0,7.06,1.1,7.97-2.88h-.01Z"/>
    <path class="st4" d="M95.91,70.94s13.1-10.15,17.19,2.24c0,0,23.84,37.78-1.2,110.94,0,0-16.47,6.3-10.93-9.66s7.42-90.6-5.06-103.52Z"/>
    <path class="st4" d="M155.64,163.9s-3.84,36.88,22.37,17.52c0,0-13.46-43.13,17.52-112.28,0,0,3.02-34.6-21.77,5.1,0,0-22.12,35.6-18.12,89.67h0Z"/>
    <path class="st4" d="M226.15,68.87s-8.09-14.02,6.02-21.8,17.93,67.78,17.93,67.78c0,0,6.33,50.33-4.22,69.93,0,0-32.45,15.43-21.17-5.43,0,0,12.43-58.22,1.44-110.48h0Z"/>
    <path class="st4" d="M308.39,62.63s9.76-16.28,13.71-4.25c0,0-10.95,83.24,0,120.82,0,0-11.21,17.14-18.73,0-7.52-17.14-2.77-91.52,5.01-116.57h.01Z"/>
    <path class="st4" d="M380.92,58.38s15.42-8.12,17.34-.29c0,0-27.59,74.72-17.52,152.97,0,0-18.77,26.2-18.59-34.94,0,0-2.19-82.17,18.77-117.74h0Z"/>
    <path class="st4" d="M476.13,65.66s7.38-8.76-11.6-9.46-30.07,9.46-30.07,9.46c0,0-60.13,34.81-21.1,98.64,0,0,20.29,33.85,54.78,18.38,0,0,16.63-10.74,9.34-22.01,0,0-6.5-8.77-17.44,1.52,0,0-30.46,18.73-39.82-8.97s9.49-54.86,9.49-54.86c0,0,17.41-24.66,46.42-32.7h0Z"/>
    <path class="st4" d="M518.53,85.76s12.32-12.45,18.26,4.96c0,0,11.23,53.27-18.26,66.46,0,0-9.55-7.28,0-71.42Z"/>
    <path class="st4" d="M613.75,56.74s10.93-8.99,17.43,7.54c0,0-38.5,88.72,17.43,117.31,0,0-1.11,6.75-17.43,0s-57.83-43.18-17.43-124.86h0Z"/>
    <path class="st1" d="M80.82,114.41s2.63,12.51,5.39,13.92,35.48,14.86,96.92,2.34c0,0,28.87-18.41-1.85-16.26,0,0-64.88,10.42-96-.18,0,0-3.64-3.56-4.46.18h0Z"/>
    <path class="st1" d="M191.69,58.67s.67-6.02,13,4.18c0,0,30.13,12.97,66.92,6.37,0,0,70.17-11.39,18.87,15.01,0,0-63.59,16.34-91.8-12.13,0,0-13.04-10.92-6.98-13.43h0Z"/>
    <path class="st1" d="M207.56,111.81s6.02,16.89,10.5,17.81c0,0,12.55,6.63,45.64-2.09,0,0,33.32-14.31,2.87-17.52,0,0-38.79,8.38-59.02,1.8h.01Z"/>
    <path class="st1" d="M200.73,155.01s9.81,18.65,13.37,19.97c0,0,30.86,17.01,62.77,4.75,0,0,44.97-19.52,3.69-15.56,0,0-64.99,3.71-79.84-9.16h.01Z"/>
    <path class="st1" d="M386.31,188.25s16.42-7.74,14.28-17.43c0,0-71.63-82.87-72.49-91.44,0,0-17.73-7.26-2.96,23.53s44.8,74.86,61.17,85.33h0Z"/>
    <path class="st1" d="M427.81,107.67s.19,17.33,8.5,19.97c0,0,14.72.71,17.64-.83,0,0-30.43,40.66-19.49,72.04,0,0,6.87,7.19,17.87.63,0,0,5.05-67.96,20.03-76.62,0,0,52.95-14.99,24.87-19.74,0,0-45.64,10.49-69.42,4.56h0Z"/>
    <path class="st1" d="M505.24,77.67s-9.73-9.75-6.83-12.4c0,0,103.78-41.42,85.19,52.34,0,0-3.94,46.56-63.09,67.13,0,0-22.42-.6-4.85-14.28,0,0,75.72-50.81,54.49-89.01,0,0-18.53-16.42-64.91-3.77h0Z"/>
    <path class="st1" d="M500.26,101.79s1.85,17.42,6.86,19.66c0,0,31.25-1.32,41.67-9.83,0,0,24.77-12.73-9.9-9.83h-38.63,0Z"/>
    <path class="st1" d="M584.06,101.36s-2.37,10.66,6.33,17.95c0,0,19.6,4.03,40.06-4.36,0,0,19.54-11.96-1.56-16.18,0,0-27.16,5.18-44.84,2.59h.01Z"/>
    <path class="st1" d="M639.71,159.86s.13,8.14,15.63,9.79c0,0,36.79.53,34.58-77.97,0,0-1.77-34.3-14.91-25.87,0,0-6.29,73.95-27.91,93.35,0,0-6.6-4.28-7.39.69h0Z"/>
    <g class="st2">
      <text class="st3" transform="translate(194.23 270.75)"><tspan x="0" y="0">-GOURMET-</tspan></text>
    </g>
  </g>
</svg>