<?xml version="1.0" encoding="UTF-8"?>
<svg id="Layer_5" xmlns="http://www.w3.org/2000/svg" version="1.1" viewBox="0 0 576 288">
  <!-- Generator: Adobe Illustrator 29.5.1, SVG Export Plug-In . SVG Version: 2.1.0 Build 141)  -->
  <defs>
    <style>
      .st0 {
        fill: #fff;
        stroke: #000;
        stroke-miterlimit: 10;
      }

      .st1 {
        fill: #231f20;
      }
    </style>
  </defs>
  <rect class="st0" width="576" height="288"/>
  <path class="st1" d="M201.46,77.48l-.24-1.45h-.07c-.6.95-1.81,1.82-3.47,1.9-2.35.11-3.63-1.49-3.71-3.16-.13-2.8,2.29-4.46,6.77-4.65v-.24c-.06-.96-.4-2.67-2.78-2.56-1.08.05-2.19.44-2.98,1.01l-.55-1.37c.93-.67,2.3-1.14,3.76-1.21,3.55-.17,4.53,2.21,4.64,4.54l.21,4.34c.05,1.01.14,1.99.32,2.77l-1.92.09h.02ZM200.87,71.68c-2.3-.05-4.92.36-4.92,2.62,0,1.37.91,2.02,1.99,2.02,1.51,0,2.47-.96,2.81-1.94.07-.22.12-.46.12-.67v-2.02h0Z"/>
  <path class="st1" d="M222.52,65.65c0-1.37-.02-2.54-.1-3.62h1.85l.07,2.28h.1c.53-1.56,1.8-2.54,3.22-2.54.24,0,.41.02.6.07v1.99c-.22-.05-.43-.07-.72-.07-1.49,0-2.54,1.13-2.83,2.71-.05.29-.1.62-.1.98v6.19h-2.09v-7.99h0Z"/>
  <path class="st1" d="M249.32,65.56h.05c.29-.41.7-.91,1.03-1.32l3.41-4.01h2.54l-4.49,4.78,5.11,6.84h-2.57l-4.01-5.57-1.08,1.2v4.37h-2.09v-17.04h2.09v10.75h.01Z"/>
  <path class="st1" d="M281.35,58.87c-.05.72-.63,1.24-1.47,1.15-.74-.08-1.21-.7-1.13-1.42s.68-1.26,1.45-1.18,1.23.71,1.15,1.45ZM277.48,73.44l1.19-11.56,2.1.22-1.19,11.56-2.1-.22Z"/>
  <path class="st1" d="M308.11,79.34l1.24-7.63c.3-1.85-.14-3.5-2.1-3.82-1.37-.22-2.6.58-3.14,1.68-.14.25-.24.59-.3.95l-1.12,6.89-2.09-.34,1.36-8.36c.19-1.18.33-2.16.41-3.12l1.85.3-.19,1.91h.05c.75-.99,2.25-1.84,4.14-1.53,1.59.26,3.9,1.6,3.26,5.54l-1.28,7.87"/>
  <path class="st1" d="M327.88,81.6c.48.57,1.42,1.29,2.43,1.59,1.47.43,2.38-.1,2.65-1.02.28-.97-.13-1.67-1.47-2.66-1.79-1.3-2.41-2.69-2.02-4.02.53-1.8,2.41-2.84,4.81-2.14,1.13.33,2.02.95,2.54,1.5l-.94,1.32c-.36-.41-1.05-1.01-2.09-1.32-1.2-.35-2.07.14-2.31.97-.27.92.27,1.53,1.56,2.51,1.72,1.31,2.42,2.57,1.93,4.22-.58,1.96-2.5,2.89-5.15,2.11-1.22-.36-2.26-.99-2.91-1.68l.96-1.39h.01Z"/>
  <g>
    <path class="st1" d="M161.94,183.93c3.12,0,5.2-1.04,5.2-5.2v-61.36c0-4.16-2.08-5.2-5.2-5.2v-.52h24.96c20.07.21,34.84,14.14,34.84,36.4s-14.77,36.19-34.84,36.4h-24.96v-.52h0ZM175.67,177.48c0,4.16,2.08,5.2,5.2,5.2h5.51c16.74,0,26.52-17.89,26.52-34.63s-9.78-34.63-26.52-34.63h-10.71v64.07h0Z"/>
    <path class="st1" d="M252.11,131.4c14.14,0,22.36,9.78,22.36,16.64,0,10.61-10.61,13.62-19.24,13.62-7.59,0-14.25-5.1-16.85-10.09h1.56c3.22,4.26,8.63,8.42,14.25,8.42,6.86,0,11.75-4.37,11.75-11.96,0-5.72-3.33-15.08-13.83-15.08s-16.33,10.4-16.33,25.48,7.07,25.48,18.1,25.48c8.74,0,17.06-4.99,18.51-12.58h1.56c-1.46,8.84-10.61,14.14-20.07,14.14-14.66,0-26.62-10.82-26.62-27.04s11.23-27.04,24.86-27.04h-.01Z"/>
    <path class="st1" d="M299.33,185.49c-8.94,0-17.68-5.3-19.66-14.14h1.56c1.98,7.59,9.88,12.58,18.1,12.58,7.28,0,13.62-3.12,13.62-10.09,0-10.82-31.51-12.27-31.51-28.71,0-9.46,9.26-13.73,18.2-13.73,7.9,0,14.25,4.06,17.06,7.9l1.04,8.32h-1.04c-2.5-7.9-9.05-14.66-17.06-14.66-6.34,0-11.13,3.12-11.13,10.09,0,10.82,31.51,12.27,31.51,28.71,0,9.57-10.71,13.73-20.7,13.73h.01Z"/>
    <path class="st1" d="M324.39,183.93c3.12,0,5.2-1.04,5.2-5.2v-35.36c0-4.16-2.08-5.2-5.2-5.2v-.52c3.22,0,13-.42,13-5.2h.52v46.28c0,4.16,2.08,5.2,5.2,5.2v.52h-18.72v-.52ZM332.92,128.39c-.52-3.85-3.22-6.55-7.18-7.18,3.95-.52,6.76-3.33,7.28-7.18.52,3.85,3.22,6.55,7.18,7.07-3.95.62-6.76,3.43-7.28,7.28h0Z"/>
    <path class="st1" d="M386.27,175.92c-3.02,5.93-8.11,9.57-15.39,9.57-13.31,0-24.96-10.82-24.96-27.04s11.65-27.04,24.96-27.04c7.28,0,12.38,3.64,15.39,9.57v-8.53h.52c0,4.78,9.78,5.2,13,5.2v.52c-3.12,0-5.2,1.04-5.2,5.2v42.12c0,12.06-9.57,18.72-24.44,18.72-9.78,0-16.43-5.3-18.41-14.14h1.56c1.98,7.59,7.8,12.58,16.85,12.58,11.23,0,16.12-7.28,16.12-20.28v-6.45h0ZM370.88,183.93c7.07,0,12.48-4.78,15.39-12.06v-26.83c-2.91-7.28-8.32-12.06-15.39-12.06-9.78,0-16.43,10.4-16.43,25.48s7.07,25.48,16.43,25.48h0Z"/>
    <path class="st1" d="M401.56,183.93c3.12,0,5.2-1.04,5.2-5.2v-35.36c0-4.16-2.08-5.2-5.2-5.2v-.52c3.22,0,13-.42,13-5.2h.52v8.74c3.95-5.41,8.74-9.78,16.64-9.78,9.36,0,20.38,4.99,20.38,21.32v26c0,4.16,2.08,5.2,5.2,5.2v.52h-19.76v-.52c4.16,0,6.24-1.04,6.24-5.2v-27.04c0-11.44-5.51-18.72-13.21-18.72-5.93,0-10.5,3.64-15.5,10.09v35.67c0,4.16,2.08,5.2,6.24,5.2v.52h-19.76v-.52h.01Z"/>
    <path class="st1" d="M480.29,185.49c-8.94,0-17.68-5.3-19.66-14.14h1.56c1.98,7.59,9.88,12.58,18.1,12.58,7.28,0,13.62-3.12,13.62-10.09,0-10.82-31.51-12.27-31.51-28.71,0-9.46,9.26-13.73,18.2-13.73,7.9,0,14.25,4.06,17.06,7.9l1.04,8.32h-1.04c-2.5-7.9-9.05-14.66-17.06-14.66-6.34,0-11.13,3.12-11.13,10.09,0,10.82,31.51,12.27,31.51,28.71,0,9.57-10.71,13.73-20.7,13.73h.01Z"/>
  </g>
  <rect class="st1" x="167.15" y="67.64" width="2.28" height="32.39"/>
  <path class="st1" d="M167.74,86c-4.6,1.73-9.09,3.6-13.47,5.6-3.37,1.54-6.67,3.16-9.9,4.85-18.38,9.62-34.44,21.65-47.41,35.5-3.51,3.73-6.78,7.6-9.82,11.59.56.91,1.03,1.61,1.37,2.09,3.04-4.08,6.33-8.03,9.86-11.85,12.58-13.59,28.16-25.43,46-34.96,3.22-1.73,6.53-3.37,9.9-4.94,4.37-2.04,8.87-3.94,13.47-5.71.37-.14.73-.28,1.1-.41v-2.18c-.37.14-.73.28-1.1.42h0Z"/>
  <g>
    <path class="st1" d="M127.15,168.51c-.99-2.07-2.27-4.2-3.85-6.39-1.59-2.18-3.54-4.53-5.87-7.05-2.33-2.51-5.25-5.62-8.77-9.32-3.31-3.45-6.58-7.23-9.79-11.31-.1-.13-.28-.36-.5-.66-.05-.05-.09-.11-.14-.17,0,0-.55-.72-1.27-1.66-.54-.71-1.16-1.54-1.73-2.29-6.87-9.2-10.02-20.48-10.02-20.48-1.67-6-4.39-15.77-.79-25.94.86-2.42,2.44-6.72,6.66-10.21.97-.8,3.48-2.72,7.24-3.8,1.84-.53,9.36-2.41,16.02,1.92,3.18,2.06,5.43,5.13,7.06,8.51.82,1.69,1.49,3.45,2.11,5.21.57,1.62.93,3.55,1.75,5.04.12-.03.56-.22.55-.4-.34-5.77-.78-11.51-1.09-17.28-.14-2.65-.56-5.35-1.9-7.64-1.24-2.14-3.23-3.79-5.45-4.87-3.3-1.6-7.18-2.15-10.79-1.58-1.19.19-2.06.44-2.5.57-5.36,1.57-10.05,5.33-10.42,5.63-3.76,3.07-5.89,6.2-7.08,7.98-2.35,3.52-3.56,6.58-4.37,8.64-.54,1.38-1.45,3.9-2.32,7.61-2.06,8.86-2.05,16.86-1.99,19.87.09,4.01.3,11.66,3.04,20.88,1.99,6.69,4.5,11.44,6.2,14.22-16.32,21.42-25.71,46.32-25.83,72.9,0,.02,0,.04,0,.06.09,2.27.61,12,4,18.52.06.12.13.25.2.37.12.24.25.47.39.7.46.8.91,1.49,1.22,1.96.11.16.21.31.32.47.08.11.12.17.12.17.41.56.82,1.09,1.23,1.58.26.32.53.64.83.95.41.45.81.86,1.21,1.25.26.26.53.5.78.73.65.6,1.33,1.16,2.04,1.67.02.02.03.03.05.04,2.6,1.89,5.59,3.34,9,4.2,8.75,2.21,16.1-.91,19.74-2.44,8.71-3.69,13.86-9.78,16.26-13.1,2.24-2.85,4.34-6.29,6.3-10.36,2.11-4.41,3.84-9.18,5.17-14.33,1.34-5.15,2.05-10.53,2.14-16.14.08-5.61-.68-11.11-2.29-16.5-.92-3.07-1.88-5.65-2.87-7.73h0ZM122.72,214.67c-.77,3.45-5.09,22.8-21.94,28.96-1.99.73-10.99,4.1-20.35,0-10.04-4.39-16.55-15.62-16.55-28.63l-.03,1.99c0-.98,0-1.96.04-2.93.18-7.15,1.05-14.18,2.55-21.04,3.71-17,11.31-32.98,22.07-47.4.08.13.16.24.23.34.2.28.36.49.68.93,5.04,6.82,9.31,11.2,12.57,14.68,7.13,7.61,10.7,11.41,13.26,15.51,1.38,2.2,4.09,6.59,6.01,12.66,1.08,3.41,4.07,13.23,1.46,24.92h0Z"/>
    <rect class="st1" x="167.74" y="67.67" width="1.1" height="32.34"/>
    <rect class="st1" x="144.37" y="67.67" width="9.9" height="95.05"/>
  </g>
  <path class="st1" d="M395.12,121.39l-2.17,1.06c-34.39-30.25-85.02-49.37-141.47-49.37-29.66,0-57.7,5.28-82.64,14.68v-2.18c24.99-9.26,53.03-14.45,82.64-14.45,57.35,0,108.77,19.47,143.64,50.26Z"/>
</svg>